<?xml version="1.0" encoding="utf-8"?>
<!-- Generator: Adobe Illustrator 16.0.4, SVG Export Plug-In . SVG Version: 6.00 Build 0)  -->
<!DOCTYPE svg PUBLIC "-//W3C//DTD SVG 1.1//EN" "http://www.w3.org/Graphics/SVG/1.1/DTD/svg11.dtd">
<svg version="1.1" xmlns="http://www.w3.org/2000/svg" xmlns:xlink="http://www.w3.org/1999/xlink" x="0px" y="0px" width="566.9px"
	 height="295.9px" viewBox="0 0 566.9 295.9" style="enable-background:new 0 0 566.9 295.9;" xml:space="preserve">
<style type="text/css">
<![CDATA[
	.st0{fill:#475B5D;}
	.st1{fill:#AFCFCD;}
	.st2{opacity:0.69;}
	.st3{fill-rule:evenodd;clip-rule:evenodd;fill:#131313;}
	.st4{fill:#F6F9F9;}
	.st5{fill:#C4DBDA;}
	.st6{fill:#FFFFFF;}
	.st7{fill:#9BC3C0;}
	.st8{fill-rule:evenodd;clip-rule:evenodd;fill:#2A2A2A;}
	.st9{opacity:0.64;fill:#C4DBDA;}
]]>
</style>
<g id="Layer_1">
</g>
<g id="Layer_2">
</g>
<g id="Layer_3">
	<g>
		
			<image style="overflow:visible;" width="329" height="151" xlink:href="18DC5FDC7B33E555.png"  transform="matrix(1 0 0 1 -0.1006 114)">
		</image>
		<path class="st7" d="M477.8,103.3c-1.5-1.2-7.3-1.2-8.8,0c-21.9,20.7-52.5,8.5-78.8,18.3c-2.9,1.2-2.9,8.5-10.2,7.3
			c-4.4-1.2-10.2-4.9-13.1-7.3c-4.9-2.9-9.5-6.3-14-9.5c-8.8,7.8-26.3,7-31.3,13.2c-16,20.7-2.9,42.7-33.5,59.8
			c-7.3,3.7-2.9,18.3,5.8,24.4c14.3,9.4,21.2,23.4,26.2,38.3c3.3,2.2,6.4,4.6,9.4,7.1c0.8-0.1,1.6-0.2,2.4-0.3
			c24.8-2.4,49.6-18.3,71.5-30.5c9.2-4.9,22.1-3,36.2,0c2.2-1.7,4.7-3.4,7.6-4.9c2.9-1.2,0-11,2.9-13.4c5.8-7.3,21.9-6.1,27.7-11
			c5.8-6.1-11.7-18.3-1.5-24.4c7.3-4.9,19-6.1,27.7-9.8c7.3-2.4,10.2-8.5,14.6-14.6c4.4-6.1,4.4-17.1,8.8-20.7
			c0.9-0.7,1.9-1.4,2.9-2C512.5,125.1,491.2,114.5,477.8,103.3z"/>
		
			<image style="overflow:visible;" width="298" height="166" xlink:href="18DC5FDC7B33E557.png"  transform="matrix(1 0 0 1 55.8994 82)">
		</image>
		
			<image style="overflow:visible;" width="130" height="112" xlink:href="18DC5FDC7B33E552.png"  transform="matrix(1 0 0 1 437.8994 117)">
		</image>
		
			<image style="overflow:visible;" width="108" height="73" xlink:href="18DC5FDC7B33E553.png"  transform="matrix(1 0 0 1 458.8994 163)">
		</image>
		<path class="st0" d="M481.4,232.3c0-4.9-7.3-4.9-10.2-4.9c-24.8-2.4-52.5-14.6-68.6-6.1c-21.9,12.2-46.7,28.1-71.5,30.5
			c-35,3.7-67.1,13.4-102.1,8.5c-8.8-1.2-19-3.7-27.7-3.7c-54-2.4-103.6-24.4-156.1-24.4c-14.9,0-30.9,7.1-45.3,15.3v51h566v-87.5
			C538.2,218.5,510.1,225.7,481.4,232.3z"/>
		<path class="st5" d="M335.8,113.1c-4.5-0.3-8.7,0.1-12.8,1c-0.7-0.4-1.6-0.5-2.7-0.2c-3.9,1.3-7.8,2.4-11.9,3
			c-0.5-0.3-1.1-0.5-1.8-0.5c-6-0.3-11.6-1.5-17.4-1.4c0.4-0.5,0.7-1,1.2-1.5c1.5-1.7-0.1-4.1-2.3-4.7c-5.9-1.4-11-1-15.4,1.7
			c-1.5-1.2-3.1-2.1-5.1-2.8c-0.9-0.3-1.7-0.2-2.4,0.2c-2-2-5.5-3.1-9.2-3.5c-5.3-4.6-11.1-8.5-17.5-3.1c-0.1,0.1-0.2,0.2-0.3,0.3
			c-1.7,0.8-3.4,1.9-5.4,2.9c-7,3.8-13.8,7.9-20.7,11.9c-2.7,1.6-5.4,3.2-8.1,4.8c-1.2,0.7-5.4,4.4-6.9,4.5
			c-5.7,0.6-10.4,4.7-13.9,8.1c-0.3,0.3-0.5,0.5-0.6,0.8c-2.5,1.5-4.3,3.7-5.4,6.2c-1.9-0.2-3.8-0.5-5.7-0.5c0,0,0,0,0,0h0
			c-4.2,0-5.5,3.9-3.7,6.2c-4.4,1-16.2,8.4-15.6,0.2c0.1-1.9-3.7-2.4-4-0.5c-0.4,1.9-0.2,3.5,0.5,4.8c-1.2,0.4-2.3,0.9-3.5,1.4
			c-1.7,0.7-1.2,2.5,0,3.2c2.4,1.5,3.5,2.9,5.3,4.7c1.8,1.8,5.2,2.1,8.2,2.2c-0.1,0.7-0.4,1.5-0.5,2c-0.2,1.3,1.4,2.2,2.7,2.3
			c4,0.3,6.1,4.9,10.2,4c0.7-0.2,1.3-0.7,1.3-1.4c-0.1-3.3-4.6-5.7-8.5-6.7c0.1-1.1,0-2.2-0.7-3.4c-0.4-0.7-1.4-1-2.3-1.1
			c-2.3-0.1-5-0.1-6.9-1.1c-0.2-1-0.4-2-0.4-2.9c0.7,0.2,1.4,0.3,2.3,0.4c3.4,0.3,7.2-0.6,10.3-1.5c3.7-1.1,6.2-0.4,10.3-0.6
			c10.8-0.5,20.5-6.4,30.4-9.5c3.6-1.1,7.6-1.7,11.6-2.1c0.5,1.5,2.2,2.8,4.8,2.4c4-0.6,8.2-1.9,12.3-2.4c-1.5,0.8-2.9,1.6-4.4,2.5
			c-0.4-0.1-0.7-0.1-1.2-0.1c-10.3,0.8-20.1,3.2-29.6,6.5c-3.5,0.4-6.9,1.4-10.2,4.2c-2.3,1.9-1.2,4.3,1,5.3c0.1,0.5,0.4,1,0.7,1.4
			c-3,1.2-2.4,5.7,1,6.3c0.8,0.2,1.7,0.3,2.5,0.4c-3.5,1-6.7,2.5-9.4,4.3c-1.9,1.3-2.9,3-3.3,4.7c-1.5,0.5-3.1,1-4.7,1.4
			c-2.8,0.8-4.6,3.6-2.8,5.9c2.3,3,4,6.1,6.7,8.8c2.9,2.9,8.9-0.2,7.6-3.7c-0.7-1.9-0.9-3.6-0.6-5.1c0.8,0,1.6,0,2.5-0.2
			c1.4-0.3,1.1-1.7,0-2.1c0,0-0.1,0-0.1,0c6.7-3.1,13.2-6.8,20.1-9.5c1-0.1,2.1-0.1,3-0.1c2,0,3.2-0.9,3.5-2.1
			c4-1.1,8.2-1.7,12.6-1.5c6.4,0.3,12.8,0.8,19.1,1.5c1.1,0.1,2.1,0.2,3.2,0.4c-2.1,0.3-4.3,0.6-6.4,1.1c-1.7,0.3-2.6,1.4-2.8,2.5
			c-1.6,0.2-3.2,0.5-4.6,0.6c-6.4,0.4-12.8,0.7-19.1,1.8c-12.5,2.2-20.4,10.6-17.6,21.4c1.1,4.4,8.7,3.1,9-1
			c0.3-4.3,6.8-15.6,13.4-11c1.5,1,3.4,1.1,4.8,0c1.4-1.1,2.9-2,4.4-2.9c1.5,0,3.2-0.1,4.8-0.1c-0.4,0.6-0.7,1.2-0.9,1.8
			c-0.6,0.3-1.1,0.6-1.7,1c-1.2,0.7-1.6,1.8-1.5,2.7c-4.1,4.5-4.2,10.4-5.9,15.8c-1.2,3.8,5.9,5.4,6.9,1.6c1.5-5.4,0.8-12,6.3-15.9
			c0.3-0.2,0.5-0.4,0.6-0.7c0.8-0.6,1.5-1.2,2.2-1.9c1.2-1.2,0.9-3-0.3-3.9c0.4-0.4,0.8-0.8,1.2-1.1c4.5-0.6,8.6-1.8,10.4-4.4
			c0,0,0-0.1,0.1-0.1c2.6-0.3,5.2-0.6,7.8-0.9c-0.1,0.1-0.2,0.2-0.2,0.2c-0.3,0.3,0.2,0.7,0.5,0.4c0.3-0.3,0.6-0.5,0.8-0.8
			c3.6-0.5,7.2-0.9,10.8-1c1.8,1.7,3.8,2.9,6.1,3.7c-1.5,2-2.6,4.2-3.2,6.8c-0.5,2.1,1.1,4,3.7,4c0.9,0,1.9,0.1,2.8,0.1
			c0.7,1.2,3,1.3,4,0.1c0.4,0,0.7,0,1.1,0c-0.3,2.7-1.4,5.1-3.8,7.3c-1.7,1.6-1.3,3.8,0.8,5c1.3,0.7,1.6,2.7,2.5,3.7
			c2.7,3.5,9.5,0.2,6.7-3.3c-1.1-1.3-1.6-2.4-2.3-3.4c3-3.8,4.4-8,3.7-12.8c-0.3-2.2-2.2-3.4-4.8-3.1c-0.3,0-0.7,0.1-1,0.1
			c0.4-1.8,0.6-3.7,0.8-5.5c0.3-0.6,0.4-1.2,0.2-1.8c0.6-5.2,0.6-10.7-0.7-15.9c-0.3-1.2-1.1-1.9-2.1-2.2c0-0.7-0.2-1.4-0.8-2.1
			c-4.8-5.6-10.3-10.3-18.6-11.7c-7.5-1.3-15.4,0.9-22.5,2.7c-7.2,1.8-13.9,4.2-20.6,6.8c-1,0.1-2,0.3-2.9,0.4c-3,0.4-6,1-9,1.6
			c0-0.1,0-0.1,0-0.2c0,0,0,0,0,0c2.3-0.3,4.6-0.8,7-1.6c8.9-2.9,16.1-8.6,24.6-12.2c1.2-0.5,1.8-1.6,1.8-2.7c2-1.7,1.8-5.1-1.6-5.6
			c-16.5-2.7-36.2-0.1-51.1,6.3c-4,1.8-8.1,3.5-12.3,4.9c0.5-2.1,1.8-5.6,5.2-5.6c3.2,0,4.3-2.5,3.6-4.5c0.2-0.2,0.5-0.4,0.7-0.6
			c2.3-1.7,4.8-1.5,7.2-2.7c5.3-2.6,10.2-7,15.1-10.2c5.4-3.4,11-6.5,16.6-9.6c0.6-0.3,1.2-0.7,1.8-1.1c-1.5,1.4-2.9,2.9-4.2,4.6
			c-1.7,2.2,1.6,4.8,4.2,3.5c4.2-2,7.4-4.7,9.3-8c0.3,0.1,0.7,0.1,1.1,0.1c0.1,0,0.2,0,0.3,0c-0.5,0.5-1,1-1.6,1.5
			c-2.1,1.5-0.2,3.8,2,4c7.6,0.7,15.2,0.4,22.7-0.8c0.3,0.1,0.6,0.3,0.9,0.5c0.5,1.2,1.7,2.1,3.4,2.1c0.4,0.4,0.7,0.9,1.1,1.3
			c-3.4-0.3-6.7-0.2-10,0.1c-3.6,0.1-7.1,0.3-10.5,0.9c-0.1,0-0.1,0-0.1,0c-1.2,0.1-2.4,0.1-3.5,0.2c-5.2,0.1-6.6,6.8-1.3,7.8
			c3.9,0.7,8,1.2,12.1,1.4c-1,0.6-1.7,1.4-1.9,2.5c0,0.2,0,0.3,0,0.5c-0.7,1.2-1.1,2.5-1.2,4c-0.2,2,2.6,3,4.4,2.1
			c0.9-0.4,1.8-0.8,2.7-1.3c0.4,0,0.8-0.2,1.2-0.5c0.2-0.2,0.4-0.3,0.6-0.5c0.7,0.5,1.6,0.8,2.5,0.6c0.3-0.1,1.4-0.5,1.3-0.5
			c0.1,0,0.3-0.1,0.4-0.1c0.5,0.4,1.3,0.6,2.1,0.4c9-2.1,18.4-2.4,27.3-4.8c1.4-0.4,2.2-1.9,1.6-2.9c0.7,0.4,1.6,0.6,2.5,0.4
			c0.1,0,0.3,0,0.4-0.1c0.6,0.3,1.4,0.5,2.2,0.3c0.1,0.5,0.4,0.8,0.7,1.2c-0.1,0-0.1,0-0.2,0c-4.7,0.6-9.7,2.5-13.6,4.9
			c-1.2,0.7-1.6,1.9-1.4,3c-0.2,0.1-0.3,0.2-0.5,0.3c-0.4,0.2-0.7,0.5-0.9,0.8c-0.7,0.2-1.3,0.5-2,0.7c-3.5,1.4-1,6.5,2.6,5.3
			c0.1,0,0.2,0,0.2-0.1c0.1,0.4,0.2,0.9,0.6,1.3c1.3,1.5,3.6,1.9,5.3,0.6c0.1,0,0.1-0.1,0.2-0.1c0.6-0.5,0.9-1,1-1.5
			c0.4-0.5,0.8-0.9,1.3-1.2c1.9-1,2-2.9,1-4.2c1.6-0.8,3.2-1.5,5-2.1c1.3-0.4,2-1.3,2.2-2.2c0.2,0,0.4,0,0.6,0c1,0.7,2.4,1,3.8,0.3
			c1.1-0.5,2.2-1,3.4-1.4c0.7,0.1,1.5,0.1,2.4-0.3c3.9-1.6,7.7-3.3,11.6-4.9c2.6-1.1,1.6-4.4-0.6-5c0.3-1.1-0.1-2.2-1.3-2.8
			c3.1-1.6,6.4-3,9.7-4.3C340.6,117,338.8,113.3,335.8,113.1z M150.3,154.2c0.3-0.2,0.7-0.3,1-0.5c0.6,1,1.3,2,1.8,3.1
			c-0.2-0.2-0.4-0.4-0.6-0.6C151.9,155.4,151.1,154.8,150.3,154.2z M280.1,167.4c1.6-0.5,3.3-1,5-1.4c0.5,2.4,0.7,4.8,0.7,7.3
			c-1.2-0.3-2.2-0.8-3.2-1.5c0.3-0.1,0.6-0.2,0.9-0.3c2.8-1.1,0.8-4.8-2.1-4.1c-0.6,0.1-1.1,0.2-1.6,0.3
			C280,167.6,280.1,167.5,280.1,167.4z M279.6,159h-3c0.1-1-0.3-2-1.6-2.9c-0.3-0.2-0.7-0.4-1-0.6c0,0,0,0,0,0c0,0-0.1,0-0.1-0.1
			c-0.3-0.2-0.5-0.4-0.8-0.5C275.5,156,277.7,157.5,279.6,159z M242.3,161.3c4.2-1,8.1-2.4,12.4-2.7c4.5-0.3,8.9,1.7,13,3.3
			c-1.3,0.7-1.9,2-1.8,3.3c-3.4-1.1-7.7-1.3-10.7-1.7c-5.2-0.7-10.4-1.2-15.6-1.6C240.5,161.7,241.4,161.5,242.3,161.3z M278.3,116
			c0.1-0.2,0.2-0.5,0.2-0.7c0.9-0.4,1.8-0.7,2.8-0.8c-0.5,0.9-1.1,1.8-1.8,2.7C279.1,116.9,278.7,116.5,278.3,116z M291.4,129.6
			c-0.1,0.1-0.3,0.2-0.3,0.3c-3.4,0.6-6.8,1.3-10.2,1.9c0.3-0.1,0.5-0.2,0.8-0.3c1-0.4,1.3-1.1,1.2-1.8c2.1-1.1,2.7-3.9,0.2-4.9
			c1.8,0,3.5-0.4,5.1-1.1c0.6,0.9,1.8,1.5,3,1.5c1.9,0,3.7,0,5.5-0.2c0.2,1.2,1.4,2.3,2.8,2.5c0.1,0.4,0.3,0.8,0.6,1.2
			C296.6,127.5,294.5,127.9,291.4,129.6z"/>
		<path class="st6" d="M242.5,115.3C242.5,115.3,242.5,115.3,242.5,115.3c-0.2,0-0.2,0-0.3,0c-0.1,0-0.2,0-0.2,0c-0.1,0-0.2,0-0.2,0
			c0,0,0,0,0,0c0,0,0,0-0.1,0c-3.8,0.5-7.4,1.3-11.1,2.2c-0.3,0.1-0.5,0.2-0.8,0.3c0.2-0.4,0.4-0.8,0.4-1.2c0,0,0,0,0,0
			c0-0.1-0.1-0.3-0.3-0.3c-0.3,0-0.6,0.1-0.9,0.2c0,0-0.1-0.1-0.1-0.2c-0.2-0.2-0.4-0.4-0.6-0.5c-0.4-0.5-1.3-0.9-2.2-0.5
			c-1,0.4-1.7,1-2.3,1.7c-0.3,0.2-0.5,0.5-0.7,0.7c-0.3-0.5-1.1-0.7-1.8-0.2c-4.8,3.5-9.7,7.1-13.9,11.2c-0.1,0.1-0.1,0.2-0.2,0.3
			c-7.9,3.2-15.8,7.1-22.4,11.7c-1.7,1.2,0.5,3.2,2.2,2.4c1.8-0.7,3.6-1.5,5.3-2.4c0.7-0.3,1.3-0.5,2-0.7c0.4,0.1,0.9,0.1,1.4-0.2
			c1.5-0.9,3-1.7,4.6-2.5c0.5,0.5,1.4,0.7,2.4,0.3c5.5-2.5,10.2-6,15-9.3c0.6,0.6,1.6,0.9,2.5,0.4c1-0.5,2.1-1.1,3.1-1.6
			c0.3,0.1,0.8,0.1,1.2,0c0.8-0.3,1.6-0.5,2.3-0.8c0.2,0,0.4,0,0.6,0c1.9-0.4,3.6-1.1,5.3-1.9c2.6-0.9,5.1-2,7.3-3.6
			c1-0.5,2-0.9,3.1-1.3C246,118.7,245.3,115.4,242.5,115.3z M217,124.4c-0.1,0.1-0.2,0.1-0.3,0.2c-0.1,0-0.2-0.1-0.4-0.1
			c0.7-0.6,1.3-1.1,2-1.7C217.9,123.3,217.5,123.8,217,124.4z"/>
		<path class="st4" d="M313.1,126.9c-11.3-1.3-21,1.6-27.9,7.9c-10.6,1.8-21.6,2.5-31.9,2.7c-0.3-0.4-0.8-0.7-1.4-0.9
			c-0.4-0.1-0.7-0.2-1-0.3c0.1-0.2,0.2-0.4,0.2-0.6c0.8,0.1,1.5,0.2,2.3,0.3c1.7,0.2,3.4-0.6,3.5-2.2c0-1.6,0-3.3,0-4.9
			c0-1.9-2.3-2.7-4.2-2c-1.4,0.5-2.9,1-4.4,1.4c-1.1-0.5-2.3-1-3.5-1.5c0.3-0.4,0.6-0.7,0.9-1.1c0-0.1,0.1-0.1,0.1-0.1
			c1.7,0.6,4.1,0.2,4.6-1.5c1.6,0.1,2.5-1,2.6-2.2c4.3-1.4,12.6-0.8,14.9-0.3c3.2,0.6,5.2-3,2.3-4.5c-8.1-4-15.7-4.3-22.5-0.3
			c-10.1,0.1-18.2,5.2-26.2,10c-11.4,2.8-22.6,6.7-32.7,11.9c-1.6,0.8-1.5,3.2,0.6,3.5c6.5,1.1,11.7-0.8,17.3-3.6
			c3.9-2,7.6-3.9,12-5.1c0.6-0.2,4.6,0.4,5.5,0.5c0.3,0,0.6,0,0.9,0c-0.1,1,0.5,1.9,2.1,2.1c0.3,0,0.5,0,0.8,0.1l0,0
			c0,0,0.1,0,0.1,0c4.7,0.5,9.3,0.1,13.9-0.5c0.2,1.1,0.5,2.3,1.2,3.3c0.1,0.2,0.4,0.4,0.6,0.6c-0.7,1.2-1.1,2.4-0.9,3.4
			c-4.4,2.2-8.4,4.7-11.9,7.9c-2,1.8,0.5,4.7,3.2,3.4c3.1-1.4,6.3-3,9.2-4.7c0.5,1,1.6,1.8,3.1,1.7c9.2-0.9,19.2-2.9,28.3-5.9
			c0.1,0.1,0.2,0.2,0.3,0.3c0.9,1,2.7,1.8,4.1,0.9c0.2-0.1,0.4-0.2,0.6-0.3c1,0.8,2.5,1,3.8-0.1c2.9-2.4,5.3-4.8,7.3-7.8
			c0.2-0.3,0.3-0.6,0.4-0.9c7.8-1.6,15.4-3.8,22.7-6.7C315.6,130,315.3,127.1,313.1,126.9z M239.8,125c-0.1,0.2-0.1,0.4-0.1,0.5
			c0,0-0.1,0-0.1,0c0,0,0,0-0.1,0c0.1-1,0.2-1.7,0-2.3c0.4-0.1,0.8-0.3,1.2-0.4C240.4,123.5,240.1,124.2,239.8,125z"/>
		<path class="st4" d="M228.8,142.7c-2-0.1-4-1.4-6.4-1.5c-1.8,0-3.7,0.3-5.5,0.7c-0.8-0.6-1.9-0.8-3.1-0.3c-4.9,2.1-9.9,3.9-15,5.7
			c-0.3,0-0.7,0-1.1,0.1c-12,2.9-23.9,4.8-36.2,5.8c-0.1-0.5-0.4-1-0.9-1.2c-2.3-1-4.4-0.4-6.8-0.3c-1.9,0.1-2.4,2-1.5,2.9
			c-1.6,1.4-1.2,4,1.5,4.9c3.8,1.2,7.8,1.8,11.9,1.8c0,0.1,0,0.2,0,0.3c0,0.3,0.1,0.5,0.1,0.8c-2.1,1-2.3,3.8-0.5,4.9
			c0,0-0.1,0.1-0.1,0.1c-0.7,1.2-0.5,2.5,0.4,3.4c-0.4,0.1-0.7,0.2-1.1,0.2c-0.6,0.2-1.1,0.4-1.5,0.8c-0.4,0.1-0.9,0.1-1.3,0.2
			c-2.4,0.4-2.8,2.5-1.9,3.9c-0.1,0-0.2-0.1-0.3-0.1c-2.4-2.7-6.8-4.6-10.2-5.6c-1.3-0.4-2,0.8-1.6,1.6c-1.9-1.2-3.7-2.3-5.6-3.4
			c-0.8-0.5-1.6-0.2-2.1,0.2c-0.9-0.4-1.7-0.9-2.5-1.4c-2.4-1.4-4.6,1.9-2.2,3.2c3.6,2.1,7.5,3.8,11.4,5.5c2.6,1.2,5.4,3,8.3,3.9
			c0.8,0.4,1.7,0.8,2.6,1.1c0,0,0.1,0,0.1,0c-1,1.4-0.6,3.4,1.2,4.3c5.2,2.5,10.9,4,16.5,5.7c3.5,1,5.7-3.5,2.5-5
			c-1.9-0.9-3.5-1.8-5.1-2.9c1.4-0.7,2.8-1.4,4.3-1.9c0.9-0.3,1.6-1,2-1.7c0.6-0.2,1.3-0.3,1.9-0.5c3.4-0.9,3-4.3,0.3-5.4
			c0-0.2,0.1-0.5,0-0.7c0.8-0.2,1.7-0.4,2.5-0.6c1.3-0.3,2-1.1,2.2-2c0.6-0.1,1.1-0.3,1.7-0.4c3.1-0.8,2.8-3.7,0.6-4.8
			c0.7-0.3,1.5-0.7,2.2-1c2.7-1.2,1.9-4.7-0.8-5.3c0.1-0.5,0-1.1-0.2-1.6c0.9-0.6,1.8-1.1,2.8-1.6c6.3-2.3,12.5-5,18.1-7.5
			c3.5-0.7,6.9-1.8,10.4-2.7c2-0.5,3.8,0.1,5.7,0.5c-0.1,0.6-0.3,1.1-0.6,1.6c-0.2,0.6,0.7,1,1.2,0.6c1.4-1,2.3-1.5,3.1-2.9
			C231.2,144,230.3,142.8,228.8,142.7z"/>
		<path class="st4" d="M284.4,173.2c-0.4-1.7-0.8-3.3-1.5-5c-0.5-1.1-1.9-1.7-3.1-1.5c-1.7-1.4-3.9-2.4-5.9-2.9
			c-2-0.5-4.2-0.7-6.5-0.6c-1.9-2.1-4.3-3.8-7-4.9c-0.1-0.2-0.3-0.5-0.6-0.7c-1.4-1-3.2-2.4-5.2-1.9c-0.8,0.2-1.5,0.5-2,0.9
			c-3.3-0.2-6.6,0.2-9.7,1.3c-2.4,0.8-2.3,3.9,0.5,4.1c0.1,0.3,0.4,0.5,0.8,0.6c4.8,0.7,9.4,2,14.1,2.9c-0.5,0.2-1,0.5-1.4,0.8
			c-1.6,1-1,3.4,0.6,4.1c5.3,2.4,11.1,3.1,16.9,2.9c0.1,0.7,0.2,1.4,0.3,2.2c0.4,3,5.4,3.1,5.6,0c0-0.3,0.1-0.6,0.1-0.8
			c0,0,0.1,0.1,0.1,0.1C281.5,176.5,284.9,175.1,284.4,173.2z M267.1,167.7c1.1-0.2,2.2-0.2,3.4-0.2c1.2,0,2.4,0.3,3.6,0.7
			C271.7,168.2,269.4,168.1,267.1,167.7z"/>
		<path class="st4" d="M235.2,170.7c0,0,0.1,0,0.1,0c2.8-0.4,2.1-4.1-0.7-4c-4.7,0.2-9.2,1-13.7,1.8c-2.8,0.3-5.6,0.9-8.3,1.5
			c-1.3,0.3-1.8,1.1-1.7,1.9c-2.3,0.8-4.6,1.6-6.8,2.6c-0.9-0.6-2.3-0.8-3.2,0.1c-0.3,0.3-0.6,0.6-0.9,1c-0.3,0-0.6,0-0.9,0.1
			c-4.3,1.1-7.5,2.9-10.8,5.4c-0.8,0.6-0.9,1.3-0.6,2c-1.4,0.9-1.4,2.3-0.7,3.2c0,0,0,0.1-0.1,0.1c-0.9,1.5,0.7,3.5,2.6,3.1
			c-0.7,1.4-1.1,3.1-1.4,4.8c-1.2,1.6-2.4,3.3-3.8,4.8c-2.1,2.4,2,4.8,4.6,3.4c0.8,1.6,3.5,1.8,5.1,0.7c0.5,1.5,1.1,3,1.7,4.5
			c0.7,1.5,2.7,2.4,4.5,1.5c0.5-0.2,0.9-0.5,1.2-0.8c1.1-0.3,2-1.1,2.1-2.3c0-0.3,0-0.5,0-0.8c0-0.8-0.4-1.5-1-1.9
			c-1.3-3.4-2-7.1-1.5-10.7c0,0,0.1,0,0.1,0c0.5-0.2,0.7-0.3,0.5-0.4c3-0.3,4.1-4,1.1-4.8c1-1.8,2.4-3.4,4.4-4.7
			c0.5-0.2,0.9-0.5,1.3-0.8c0.1,0,0.1-0.1,0.2-0.1c0,0,0,0,0,0c0.2-0.1,0.4-0.2,0.5-0.3c1.1-0.7,1-1.8,0.4-2.6
			c0.5-0.3,1.1-0.5,1.6-0.8c1.1-0.3,2.3-0.7,3.4-1.1c0.1,0,0.1,0,0.2-0.1c0,0,0,0,0,0c0.2-0.1,0.4-0.1,0.6-0.2
			c1.2-0.4,1.4-1.3,1.1-2.2c1.2-0.4,2.4-0.7,3.7-1.1c0.2,0.3,0.4,0.5,0.7,0.6c1.8,0.9,3.4,2,5.2,2.8c1.5,0.8,3.3-1.1,1.9-2.1
			c0,0-0.1-0.1-0.1-0.1c2.2,0,4.5-0.2,6.8-0.2c1.9,0,3.3-2.2,1.7-3.3C236,171.2,235.6,171,235.2,170.7z"/>
		<path class="st4" d="M236.4,188.8c-0.7-0.4-1.6-0.7-2.5-0.9c0.2-0.5,0.4-0.9,0.6-1.4c0.9-2.6-3.8-4.3-5.3-1.9
			c-0.1,0.2-0.2,0.4-0.4,0.6c-0.4,0-0.8,0-1.1,0.2c0,0-0.1-0.1-0.1-0.1c-1-1.1-2.8-1.4-4.1-1c-0.8-0.7-2.1-0.9-3.2,0
			c-0.6-0.8-2.3-0.5-2.7,0.4c-0.7,1.6-1.4,3-1.7,4.6c0,0,0,0.1,0,0.1c0,0,0,0,0,0c0,0.2-0.1,0.3-0.1,0.5c-0.2,1.9,2.9,2.3,4,1
			c0.4,1.1,1,2.2,1.7,3.4c0.3,0.5,0.9,0.8,1.4,1c0.2,0.3,0.4,0.5,0.6,0.7c-0.4,1.5-0.7,3-0.8,4.5c-0.2,3.1,4.7,3.1,5.9,0.7
			c1.4-3,2.3-6,3.2-9.1c1.5,0,3-0.3,4.4-1C237.4,190.5,237.4,189.3,236.4,188.8z"/>
		<path class="st4" d="M413.3,157c-4.6-1.6-9.4-1.6-14.1-0.9c-10-0.2-20,0.6-30.2,1.1c0.6-1.5-1.1-3.2-3.3-2.4
			c-3.5,1.3-7.1,2.1-10.7,2.1c4.1-2.3,8.6-3.9,13.4-5.1c1.3-0.3,1.7-1.3,1.5-2.1c0.8-0.4,1-1.1,0.7-1.7c-0.4-0.8-1.5-1.5-2.8-1
			c-0.9,0.3-1.8,0.6-2.6,0.9c0,0,0,0,0,0c1.5-1.2-0.4-3.3-2.3-2.4c-0.2,0.1-0.5,0.2-0.7,0.3c0.1-0.1,0.1-0.1,0.2-0.2
			c0.7-0.6,0.8-1.8,0.1-2.5c1.1-0.4,2.2-0.9,3.3-1.5c0.6-0.3,0.9-0.8,0.9-1.4c0-0.5,0-1.1,0-1.6c0-0.9-0.9-1.6-1.9-1.6
			c-0.1,0-0.1,0-0.2,0c0.7-1.3-0.3-3.3-2.3-2.6c-0.2,0.1-0.3,0.1-0.5,0.2c0,0,0,0,0,0c0,0,0,0,0,0c-0.4,0.1-0.8,0.3-1.1,0.4
			c-0.7-0.6-1.7-1-2.7-0.5c-1.4,0.7-2.6,1.6-3.7,2.5c-0.5,0.3-1,0.7-1.5,1c-0.3,0.2-0.5,0.5-0.6,0.9c-0.8,0.8-1.6,1.5-2.4,2.3
			c-0.4,0.4-0.6,0.9-0.6,1.3c-0.1,0-0.2,0-0.2,0.1c-2,0.6-1.8,3.3,0.5,3.2c0.7,0,1.4-0.1,2-0.1c-1.3,1.9-2.6,3.8-4.3,5.5
			c-0.2,0.2-0.3,0.4-0.4,0.6c-1,0.3-1.9,0.7-2.8,1.2c-1.4,0.6-0.4,2.2,1,2v0.1c0,0,0,0,0,0c-0.4,0.8,0.2,1.9,1.4,2
			c-0.1,0.1-0.1,0.4,0.2,0.4c0.3,0,0.3-0.3,0.2-0.4c0.1,0,0.2,0,0.3,0c0.2,0,0.3-0.1,0.5-0.1c-1,1.1-0.2,2.6,1.3,3
			c3.1,0.8,6.1,1,9.1,0.7c-0.3,0.7-0.1,1.5,0.6,2c10,8.8,23.9,1.2,37-2c5.7-0.1,11.5-0.1,17.2,0.3
			C415.7,161.3,415.7,157.8,413.3,157z M361.5,140.5c-1.1,0.6-2.7,1-4.4,1.3c0.5-0.3,1.1-0.5,1.6-0.8
			C359.6,140.7,360.5,140.6,361.5,140.5z M357.4,145.6c-1.1,1.2-2.1,2.4-3.5,3.4c-0.5,0.3-0.6,0.7-0.6,1.2c-0.2,0-0.4,0.1-0.6,0.1
			c1.2-1.6,2.3-3.2,3.5-4.9C356.6,145.4,357,145.5,357.4,145.6z M363.7,161.3c0.2-0.2,0.4-0.3,0.7-0.5c0.4,0.8,1.3,1.4,2.6,1.5
			c2.7,0.2,5.4,0.1,8.1-0.1C370.9,163,366.9,163,363.7,161.3z"/>
		<path class="st4" d="M430.1,126.5c-2.1,0-4.2,0.1-6.4,0.1c-3.7-2.4-8.1-1.7-12.9,0.6c0,0,0,0-0.1,0c-1.3,0.3-2,1.1-2.2,2
			c-1.2,0.4-1.7,1.5-1.5,2.5c-0.8,0.4-1.5,0.8-2.2,1.3c-1.1,0.7-1.1,1.6-0.6,2.4c-3.2,1.2-6.3,2.4-9,4.3c-1.2,0.8-0.9,1.9-0.1,2.7
			c-1.4,0.7-2.9,1.4-4.6,1.8c-1.4,0.3-1.8,1.5-1.5,2.4c-0.3,0.1-0.6,0.2-0.9,0.3c-1.9,0.7-0.9,3.4,1.1,3.3c3.9-0.2,7.8-0.7,11.7-0.9
			c1.3-0.1,1.3-1.6,0-1.7c-1.1-0.1-2.2-0.1-3.3-0.2c0.3-0.1,0.7-0.2,1-0.3c1.4-0.5,1.7-1.6,1.4-2.5c1-0.5,2-1.1,3.1-1.6
			c1.2-0.6,1.4-1.9,0.8-2.8c0.5-0.2,0.9-0.4,1.4-0.6c1,0.8,2,1.4,3.1,1.9c0.1,0.2,0.2,0.3,0.4,0.5c1.2,1.3,3,1.3,4.8,1.5
			c1,0.1,1.8-0.4,2.2-1c4-0.6,7.8-3.1,10.4-6.8c0.1-0.1,0.2-0.3,0.2-0.4c2.2-1.4,4.1-3,5.7-4.5C433.8,129.1,432.7,126.5,430.1,126.5
			z M419.5,132.8c0.2-0.3,0.4-0.6,0.5-0.9c0.7,0,1.3-0.1,2-0.1c0.1,0,0.1,0.1,0.2,0.2c-0.6,0.3-1.2,0.6-1.8,0.9
			C420.1,132.8,419.8,132.8,419.5,132.8z"/>
		<path class="st4" d="M433,157.2c-0.2,0-0.5,0-0.7,0c-0.7,0-1.5,0-2.2,0c-0.1,0-0.1-0.1-0.2-0.1c-1.3-0.8-3.1-0.1-4.2,0.7
			c-1.4,1-0.2,2.8,1.4,2.8c0.3,0,0.6,0,0.9,0c0,0.9,0.2,1.8,0.8,2.3c0.7,0.5,1.7,0.5,2.4,0c0.8-0.6,0.7-1.4,0.9-2.1
			c0.1,0,0.2,0,0.2-0.1c0,0,0.7,0,0.6,0C435.8,160.7,435.8,157.2,433,157.2z"/>
		<path class="st4" d="M393,200.7c-2.6-1.4-5.7-2.3-8.6-3.3c0,0,0,0,0,0c-1.1-0.6-2.3-1.2-3.6-1.7c-0.8-1.2-2.5-2-3.8-2.8
			c-0.8-0.5-1.7-0.9-2.6-1.4c-0.7-0.8-1.5-1.2-2.3-1.3c-4-2.3-8.4-4.1-12.4-5.9c-0.6-0.3-1.2-0.4-1.9-0.3c-1.1-1.1-2.3-2.2-3.4-3.3
			c-1.2-1.1-2.9-0.9-4-0.1c-0.1-0.1-0.1-0.2-0.2-0.3c-0.9-1.7-3.3-1.7-4.9-0.8c-2.4-1.8-5-3.5-7.2-5.6c-2-1.8-6.3-0.5-6,2.1
			c0.5,4.5,3.3,8,6.6,11.3c-1.1-0.3-2.5-0.1-3.4,0.6c-2,1.5-3.8,2.8-5.4,4.6c-0.7,0.8-0.5,2,0,2.8c1.1,1.7,1.9,3.4,2.3,5.2
			c-0.5,2.9-0.3,5.5,0.7,8.7c0.7,2.2,4.9,2.3,5.5,0c0.8-3.7,0.8-7.3-0.2-10.7c0.1-0.4,0.2-0.9,0.4-1.3c0.8,0.8,1.7,1.7,2.7,2.7
			c1.4,1.4,3.8,0.7,4.9-0.5c0.1-0.1,0.2-0.2,0.3-0.3c0.7,0.4,1.5,0.8,2.3,1.3c1.6,0.8,4.3,0.1,4.6-1.6c0.1-0.4,0.2-0.8,0.3-1.1
			c0.4-0.3,0.7-0.7,0.9-1.1c1.4-0.2,2.6-1.1,2.9-2.4c0.6,0.5,1.3,1,2,1.3c0.6,0.3,1.2,0.6,1.9,0.8c1.4,1.9,3.7,3.6,5.2,4.5
			c2.3,1.3,4.3-0.9,3.6-2.6c2.3,2,4.8,3.9,7.8,5.4c1.4,0.8,3.3,0.2,4.2-0.8c1.4,1,2.5,2,3.3,3.2c1.6,2.6,5.7,1.2,6.2-1c0,0,0,0,0,0
			c0.1,0,0.1,0.1,0.2,0.1C395.7,206.2,395.6,202.1,393,200.7z M342.2,190.6c-0.3,0-0.5,0.1-0.8,0.2c-0.2-0.4-0.4-0.9-0.5-1.4
			C341.3,189.8,341.8,190.2,342.2,190.6z"/>
		<path class="st4" d="M109.3,160.3c-3.3-3.1-7.1-5.6-10.3-8.7c-3.8-3.7-7.9-7.1-12.3-10.2c-6.6-4.7-15-8.9-24-7.7c0,0,0,0-0.1,0
			c-0.1,0-0.2-0.1-0.3-0.1c-4.2-0.5-8.1-0.3-12,0.6c-2.1-0.3-4.1-0.7-6.2-1c0.2-0.2,0.2-0.4-0.1-0.6c-3.1-1.7-3.7-2.4-7.4-1.4
			c-1.3,0.3-1,1.9,0.3,2c0.8,0,1.5,0.2,2.2,0.4c-0.7,0.9-0.4,2.4,1.1,2.8c0.4,0.1,0.9,0.2,1.3,0.3c-1.6,0.9-2.9,2.3-3.9,4
			c0,0,0,0.1,0,0.1c-0.1-0.1-0.3-0.2-0.4-0.3c-0.2-0.2-0.4-0.4-0.9-0.5c-0.7-0.2-1.3-0.2-2-0.3c0-0.4-0.2-0.9-0.5-1.2
			c0-0.1,0.1-0.3,0-0.2c0.5-1,1.4-1.7,2.4-2.4c1.2-0.8,0.2-2.8-1.3-2.6c-2.3,0.2-4.1,1-5.9,2.2c-0.8,0.6-2,1.4-2.4,2.5
			c-0.2-0.4-0.6-0.7-1.1-0.7c-0.7-0.1-1.3,0.1-1.9,0.3c-1.3,0.2-2.5,0.4-3.6,0.9c-1.7,0.9-2.9,2.7-4.1,4c-0.8,0.9-0.8,2,0.4,2.7
			c0.4,0.2,0.7,0.3,1.1,0.4c-0.4,0.5-0.9,1.1-1.2,1.7c-0.6,1.1,1,2.3,2.1,1.3c0.5-0.4,1-0.7,1.6-1.1c-0.2,0.2-0.4,0.4-0.5,0.6
			c-0.6,0.7,0.4,1.6,1.3,1.4c0.9-0.2,1.6-0.5,2.2-0.8c0,0.3,0.1,0.6,0.3,0.8c0,0.7-0.2,1.3-0.5,1.9c-0.1,0.3-0.3,0.6-0.4,0.9
			c-0.5-0.3-1.1-0.4-1.9-0.1c-0.9,0.4-1.7,0.8-2.5,1.2c-0.3-0.1-0.6-0.1-1,0c-4.2,1-6.7,1.7-8.4,5.2c-0.2,0.5-0.1,1,0.1,1.3
			c-1.1,1.3-1.8,2.8-2.1,4.4c-0.7-0.3-1.5-0.3-2.1,0.2c-1.6,1.6-1.4,3.2-0.1,4.4c-0.1,0.1-0.2,0.2-0.2,0.3c-2.5,1.8-3.9,4.5-4.3,7.8
			c-0.1,1,0.7,1.5,1.6,1.6c0,0.6,0.1,1.1,0.2,1.7c0.2,1.7,2.8,2.5,4,0.9c2.9-3.8,4.1-8.3,6.3-12.4c0.5-1-0.2-2-1.5-2
			c0.5-2.3,1.2-4.2,2.5-5.8c0.1,0,0.3,0.1,0.4,0.1c0.2,0,0.2-0.1,0.3-0.2c0.4,0,0.7-0.1,0.8-0.3c0.3-0.1,0.6-0.3,0.8-0.5
			c0.1-0.1,0.2-0.2,0.3-0.3c0.7-0.3,1.4-0.6,2.2-0.9c0.4-0.1,0.6-0.1,0.5,0.3c-0.2,0.6-0.6,1.1-1,1.6c-0.1,0.1,0.1,0.2,0.2,0.1
			c0.4-0.4,2.3-2.1,1-2.5c-0.2,0-0.3-0.1-0.5-0.1c1.6-1,3.1-2.3,4.5-3.8c0.7-0.7,0.5-1.6-0.1-2.1c0.1-0.4,0.3-0.8,0.5-1.1
			c0.2-0.3,0.3-0.7,0.3-1c0,0,0.1,0,0.1,0v-0.5c0.7,0.7,1.9,1,3,0.6c1.4-0.6,2.8-1.2,4.1-2c0.2,0,0.4,0,0.6,0
			c-0.9,1.1-1.5,2.1,0.1,3.4c1.5,1.3,5.2,0.7,3.6,3.5c-0.9,1.6-2.8,2.7-3.7,4.3c-0.4,0.7,0.3,1.6,1.2,1.3c3.5-1,5.8-3.7,6.9-6.6
			c0.9-2.3-0.9-4.1-3-5.2c0.2-0.3,0.5-0.6,0.7-0.9c0.4,0,0.8-0.2,0.6-0.6c0,0,0-0.1-0.1-0.1c0.4-0.9-0.3-1.9-1.2-2.4
			c-0.2-0.1-0.4-0.2-0.5-0.2c0.6-0.5,1.2-0.9,1.8-1.4c0.4-0.3,0.6-0.7,0.6-1.2c0.4,0.2,0.9,0.2,1.4,0c0.4-0.2,0.7-0.3,1-0.5
			c0.2,0.6,0.7,1.2,1.6,1.4c2.8,0.6,5.5,1.8,8.1,2.9c0.3,0.7,1,1.3,2.2,1.3c0.3,0,0.6,0,0.9,0.1c5,2.2,10.1,3.9,16,2.5
			c0.8-0.2,1.3-0.9,1.2-1.6c1.3-0.1,2.6-0.3,3.8-0.6c1.3-0.3,1.8-1.5,1.2-2.5c-0.5-0.8-1-1.6-1.5-2.4c0,0-0.1-0.1-0.1-0.2
			c0.3-0.3,0.3-0.7,0-1.2c-0.3-0.5-0.6-1.1-1.1-1.6c0.1-0.2,0.1-0.4,0.1-0.6c0.1-0.6-0.2-1.2-0.6-1.7c6.1,1.6,11.6,5.6,16.1,9.1
			c5.4,4.2,9.2,8.7,12.9,13.6c-0.2,0.1-0.4,0.2-0.7,0.3c-2.2,1-1.2,3.8,1.2,3.8c1.1-0.1,2.2,0,3.2,0.3
			C108.7,165.9,111.8,162.7,109.3,160.3z M48.4,140c-1.5-0.2-3-0.4-4.5-0.7c0.2-0.2,0.3-0.4,0.5-0.5c0.4-0.1,0.8-0.3,1.1-0.4
			c0.1,0,0.1,0.1,0.2,0.1c0.9,0.5,1.8,0.8,2.7,1.2C48.4,139.8,48.4,139.9,48.4,140z"/>
		<path class="st4" d="M77.4,177.9c1.5-1-0.5-3.2-2.1-2.2c-0.1,0-0.1,0.1-0.2,0.1c-0.2-0.7-0.8-1.3-1.7-1.4
			c-0.8-0.4-1.9-0.5-2.8,0.3c-1.3,1.1-2.8,1.9-3.8,3.1c-1.9,1.3-3.6,2.7-5.2,4.2c-0.5-0.4-1.3-0.5-2.1,0c-1.3,0.7-2.6,1.5-3.9,2.2
			c-3.4,1-6.6,2.7-9.7,4.5c-0.3-0.3-0.7-0.5-1.1-0.6c0.4-0.7,0.9-1.3,1.3-2c0.1-0.1,0.1-0.2,0.2-0.3c0.6-0.8,1.1-1.7,1.6-2.6
			c0.4-0.3,0.6-0.8,0.6-1.2c0.1-0.2,0.2-0.4,0.3-0.6c0.7-1.4-1.5-2.4-2.8-1.8c0,0-0.1,0-0.1,0.1c-0.3,0-0.6,0-0.9,0
			c-1.2,0-2.1,0.7-2.5,1.6c-0.1,0.2-0.2,0.3-0.2,0.4c-0.9,0.6-1.7,1.2-2.3,1.8c-0.1,0-0.1,0-0.2,0c0-0.9-0.8-1.9-2-1.5
			c-0.9,0.3-1.7,0.5-2.5,0.8c1.1-1.7,2.3-3.3,3.7-4.8c0.2-0.2,0.2-0.5,0-0.7c0.5-0.5,0.9-1,1.5-1.5c1.3-1.2,2.7-1.9,3.1-3.6
			c0.2-0.8-0.4-1.4-1.4-1.5c-3.9-0.4-6.8,4.1-8.5,6.5c-0.1,0.2-0.3,0.4-0.4,0.6c-4.2,1.3-5.4,6-5.6,9.6c0,0.6,0.4,1.1,1,1.4
			c0.1,0.1,0.1,0.2,0.2,0.3c-0.2,0.2-0.4,0.3-0.7,0.5c-0.5,0.5-0.7,1-0.8,1.5c-0.2,0.2-0.4,0.4-0.6,0.6c-1.8,1.8,0.4,4,2.9,3.1
			c0.9-0.4,1.8-0.8,2.7-1.2c1.4-0.5,2.5-1.2,3.8-1.7c-1.3,1.7,0.8,4.1,3.2,3c0.3-0.1,0.6-0.3,0.9-0.4c0.7,0.6,1.9,0.9,2.9,0.4
			c2.2-1.1,4.3-2.6,6.5-4c1.2-0.6,2.4-1.1,3.6-1.7c-0.5,0.8-1,1.5-1.4,2.3c-1,1.6,0.9,3.1,2.8,2.3c2.1-0.8,3.9-1.8,5.5-3
			c0.2,0.7,0.5,1.4,1.2,2.1c2.3,2.3,4.1-0.8,4.6-2.4c0.2-0.8,0.8-1.6,1.5-2.3c0.3,0.2,0.8,0.3,1.2,0.2c1.4-0.4,1.9-1.5,2.3-2.6
			c1-0.5,2-0.9,2.9-1.2c2.5-0.8,2.3-3.6,0.4-4.4C75.3,179.5,76.3,178.7,77.4,177.9z"/>
		<path class="st4" d="M190.5,223.1c1.5-1-0.5-3.2-2.1-2.2c-0.1,0-0.1,0.1-0.2,0.1c-0.2-0.7-0.8-1.3-1.7-1.4
			c-0.8-0.4-1.9-0.5-2.8,0.3c-1.3,1.1-2.8,1.9-3.8,3.1c-1.9,1.3-3.6,2.7-5.2,4.2c-0.6-0.4-1.3-0.5-2.1,0c-1.3,0.7-2.6,1.5-3.9,2.2
			c-3.4,1-6.6,2.7-9.7,4.5c-0.3-0.3-0.7-0.5-1.1-0.6c0.4-0.7,0.9-1.3,1.3-2c0.1-0.1,0.1-0.2,0.2-0.3c0.6-0.8,1.1-1.7,1.6-2.6
			c0.4-0.3,0.6-0.8,0.6-1.2c0.1-0.2,0.2-0.4,0.3-0.6c0.7-1.4-1.5-2.4-2.8-1.8c0,0-0.1,0-0.1,0.1c-0.3,0-0.6,0-0.9,0
			c-1.2,0-2.1,0.7-2.5,1.6c-0.1,0.2-0.2,0.3-0.2,0.4c-0.9,0.6-1.7,1.2-2.3,1.8c-0.1,0-0.1,0-0.2,0c0.1-0.9-0.8-1.9-2-1.5
			c-0.9,0.3-1.7,0.5-2.5,0.8c1.1-1.7,2.3-3.3,3.7-4.8c0.2-0.2,0.2-0.5,0-0.7c0.5-0.5,0.9-1,1.5-1.5c1.3-1.2,2.7-1.9,3.1-3.6
			c0.2-0.8-0.4-1.4-1.4-1.5c-3.9-0.4-6.8,4.1-8.5,6.5c-0.1,0.2-0.3,0.4-0.4,0.6c-4.2,1.3-5.4,6-5.6,9.6c0,0.6,0.4,1.1,1,1.4
			c0.1,0.1,0.1,0.2,0.2,0.3c-0.2,0.2-0.4,0.3-0.7,0.5c-0.5,0.5-0.7,1-0.8,1.5c-0.2,0.2-0.4,0.4-0.6,0.6c-1.8,1.8,0.4,4,2.9,3.1
			c0.9-0.4,1.8-0.7,2.7-1.2c1.4-0.5,2.5-1.2,3.8-1.7c-1.3,1.7,0.8,4.1,3.2,3c0.3-0.1,0.6-0.3,0.9-0.4c0.7,0.6,1.9,0.9,2.9,0.4
			c2.2-1.1,4.3-2.6,6.5-4c1.2-0.6,2.4-1.1,3.6-1.7c-0.5,0.8-1,1.5-1.4,2.3c-1,1.6,0.9,3.1,2.8,2.3c2.1-0.8,3.9-1.8,5.5-3
			c0.2,0.7,0.5,1.4,1.2,2.1c2.3,2.3,4.1-0.8,4.6-2.4c0.2-0.8,0.8-1.6,1.5-2.3c0.3,0.2,0.8,0.3,1.2,0.2c1.4-0.4,1.9-1.5,2.3-2.6
			c1-0.5,2-0.9,2.9-1.2c2.5-0.8,2.3-3.6,0.4-4.4C188.4,224.7,189.4,223.9,190.5,223.1z"/>
		<path class="st4" d="M63.5,166.3c-1.1-0.1-2.1,0-3.1,0.1c-0.1-0.9-1-1.8-2.3-1.6c-0.4,0-0.9,0.2-1.3,0.3c-1.3-0.1-2.5,0.4-3.5,1.1
			c-1.5,0.6-2.9,1.2-4.4,1.8c-1.2,0.5-1.4,2-0.4,2.7c0.7,0.5,1.3,0.8,2,1c-0.7,0.4-1.3,0.9-1.9,1.4c-1.6,1.2,0.1,3.2,2,2.9
			c5.7-1,10.4-3.6,14.4-7C66.2,168,65.1,166.5,63.5,166.3z"/>
		<path class="st4" d="M84.7,191.4c-0.6,0.5-1.1,0.9-1.7,1.4c-0.5,0.1-0.9,0.3-1.3,0.5c0,0,0,0,0,0c-1.4,0.6-2.4,2.3-3.2,3.2
			c-0.4,0.5-0.4,1-0.1,1.4c-0.1,1.5,2.1,2.3,3.2,0.9c0.2-0.3,0.5-0.5,0.7-0.8c0.4,0,0.8-0.1,1.1-0.3c0.8-0.4,1.2-1.1,1.4-1.8
			c0.1-0.2,0.1-0.4,0.1-0.6c0.7-0.7,1.4-1.3,2.1-2c0,0,0,0,0,0c0,0,0,0,0,0c0.1-0.1,0.2-0.2,0.3-0.3C88.4,191.7,86,190.3,84.7,191.4
			z"/>
		<path class="st4" d="M69.7,212.6c-0.1,0.1-0.3,0.1-0.4,0.2c-0.6,0.1-1.2,0.3-1.8,0.4c-0.3,0-0.6,0-0.9,0.2
			c-0.6,0.1-1.2,0.2-1.8,0.4c0.4-0.6,0.8-1.1,1.2-1.6c0.4-0.5-0.4-1.1-0.9-0.8c-2.3,1.5-4,3.3-5.8,5.2c-0.7,0.6-1.3,1.3-2,2
			c-0.7,0.8,0,1.6,0.8,1.8c0.2,0.7,0.9,1.2,1.9,0.9c2.9-0.8,5-2.4,6.4-4.5c0.1-0.1,0.2-0.2,0.4-0.3c0.1,0,0.2,0.1,0.4,0.1
			c1.4,0,2.6-1.5,3.7-2.1C72.3,213.7,71.1,211.9,69.7,212.6z"/>
		<path class="st4" d="M65.2,206.9c-0.5,0.1-1,0.2-1.4,0.3c0.1-0.7-0.5-1.5-1.5-1.2c-0.3,0.1-0.5,0.1-0.8,0.2
			c0.3-0.4,0.6-0.8,0.9-1.2c0.4-0.6-0.4-1.3-1.1-0.9c-1.6,0.8-2.9,1.9-4.2,3c-0.1,0-0.2,0-0.3,0.1c-0.1,0-0.1,0-0.2,0
			c-0.4,0-0.8,0.2-1.2,0.3c-0.2,0-0.3,0.1-0.5,0.1c-0.8,0.2-1.5,0.5-2.2,0.9c0.3-0.3,0.3-0.7,0.1-1c0.4-0.3,0.9-0.7,1.3-1
			c1.6-1.3-0.8-3.3-2.4-2c-1,0.8-2.2,1.4-2.9,2.4c-0.7,1-0.2,2.2,1.1,2.5c0.5,0.1,1.1,0,1.7-0.2c-0.8,0.6-1.5,1.3-2.1,2
			c-1,1.2,1,2.8,2.4,2c1-0.5,1.9-1.2,2.7-2c0.5,0.5,1.3,0.7,2.1,0.3c2.9-1.3,6.1-1.8,9.2-2.7C67.1,208.3,66.6,206.6,65.2,206.9z"/>
		<path class="st4" d="M96.9,210.1c0.8-1.3-1.1-2.6-2.4-1.6c-0.4,0.4-0.9,0.7-1.4,1c-1.4-0.2-2.7-0.5-4.1-0.6c-0.3,0-0.6,0-0.9,0
			c0.7-0.4,1.3-0.8,1.8-1.1c2-1.2,0.7-3.7-1.4-3.5c-0.3-0.2-0.7-0.2-1.2-0.2c-0.5-0.2-1.1-0.1-1.6,0.3c-1,0.8-2.2,1.5-3.3,2.2
			c-0.3,0-0.6,0-0.1,0c0,0,0,0,0,0c-0.7-0.1-1.5,0.2-1.7,0.8c0,0.1,0,0.2-0.1,0.3c-0.3,0.2-0.5,0.4-0.8,0.6c-1.6,1.2,0.4,3,2.2,2.3
			c0.3-0.1,0.6-0.3,0.9-0.4c0,0,0.1,0,0.1,0c0.1,0,0.1,0,0.2,0c0.2,0,0.3,0.1,0.5,0.1c0.1,0,0.1,0,0.2,0c-0.2,0.1-0.4,0.2-0.6,0.4
			c0,0,0,0-0.1,0c0,0,0,0,0,0c-0.1,0.1-0.2,0.1-0.3,0.2l0,0c-1.1,1,0.3,2.9,1.8,2c1.6-1,3-1.6,5-1.4c-1.6,0.8-3,2.1-4.3,3.2
			c-1.9,1.6,1.1,4,2.9,2.4c0.9-0.8,1.9-1.6,2.9-2.4c0.3,0.1,0.6,0.1,0.9,0c1.4-0.4,3.5-1.1,3.8-2.4c1.1-0.2,1.4-1.3,0.8-1.9
			C96.8,210.2,96.9,210.2,96.9,210.1z"/>
		<path class="st4" d="M149.2,161.7c-1.3-2.1-4.9-3.1-7.3-4c-2.6-1-5.5-1.6-8.3-1.6c-2.1,0-2,2.5,0,2.7c2.6,0.2,5,1.2,7.3,2.1
			c2.3,0.9,4.7,2.5,7.3,2.5C149.1,163.3,149.6,162.4,149.2,161.7z"/>
		<path class="st4" d="M148.4,141.9c-3.1-1-6.6-0.8-9.8-1c-3.8-0.3-7.6-0.7-11.4-1.2c-2.2-0.3-3.2,2.6-0.9,2.9
			c3.6,0.4,7.2,0.8,10.8,1.2c3.7,0.3,7.8,1,11.4-0.1C149.5,143.3,149.4,142.2,148.4,141.9z"/>
		<path class="st4" d="M140.4,147.1c-2,1-0.2,3.7,1.8,2.6c2.6-1.4,5.4-2.1,8.5-1.7c3,0.4,5.2,2.1,7.7,3.3c0.6,0.3,1.2-0.2,1.1-0.7
			C157.8,143.7,146,144.3,140.4,147.1z"/>
		<path class="st1" d="M548.3,144.5c-3.9,0.9-7.8,1.7-11.6,2.5c-1.3,0.3-1.5,1.5-1,2.2c-0.4,0.1-1,0.3-1.7,0.4c1-1,0.5-2.9-1.2-3.1
			c-4.1-0.5-4.7,0.8-7.7,2.6c-0.3,0.2-0.6,0.4-0.8,0.7c-1.3,0.6-2.5,1.2-3.7,2c-1,0.7,0.1,1.8,1.1,1.6c0.9-0.1,1.7-0.3,2.6-0.4
			c0.2,0.7,0.9,1.3,2,1.3c6.5-0.1,12.2-1,18.1-3.1h0c1.5-0.3,1.9-1.5,1.5-2.5c1.1-0.4,2.1-0.8,3.2-1.2
			C551.4,146.7,550.6,144,548.3,144.5z"/>
		<path class="st1" d="M532.8,141.5c-3.7,0.6-7.2,2-10.3,3.8c-1.6,0.9-3.9,2.4-2.6,4.2c0.2,0.3,0.8,0.4,1.2,0.1
			c0.4-0.3,0.9-0.4,1.4-0.7c0.9-0.7,1.7-1.4,2.8-2c2.5-1.5,5.4-2.5,8.4-3C535.5,143.6,534.7,141.2,532.8,141.5z"/>
		<path class="st5" d="M546.3,146.7c0,0-0.1,0-0.1,0c-0.1-1.5-2.3-2.6-3.9-1.3c0,0,0,0,0,0c-0.1,0.1-0.2,0.3-0.4,0.4
			c-0.4,0.5-0.9,0.9-1.4,1.3c-0.2-0.2-0.4-0.3-0.7-0.3c0.5-0.6,0.3-1.4-0.3-2c0,0,0.1-0.1,0.1-0.1c0.8-0.7,0.8-1.7,0-2.4
			c-0.6-0.6-1.3-0.7-2-0.9c0.5-1,1.1-1.9,1.4-3c0.4-1.5-0.9-3.1-2.8-3c-5.5,0.2-6.8,2.5-7.8,6.6c-0.4,1.6,0.8,2.7,2.2,3
			c-5.7,1.2-18.9,3-15.6,9.4c0.3,0.6,1.2,0.4,1.6,0c0.1-0.1,0.2-0.2,0.3-0.3c0.5,0.7,1.4,1.1,2.4,0.8c2.7-0.8,5.4-1.6,8.1-2.5
			c0,0.9,0.8,1.8,2,1.7c1.9-0.1,3.5-0.4,5-0.8c0.6,0.8,1.7,1.2,2.9,0.6c1.4-0.7,3-1.3,4.5-1.8c0.6,0.4,1.4,0.4,2.2,0.1c0,0,0,0,0,0
			c0.9-0.6,1.9-1.1,3-1.5c0.6-0.2,0.9-0.6,1.1-1c0.1-0.1,0.2-0.1,0.2-0.2C549.6,148.5,548.4,146.1,546.3,146.7z"/>
		<path class="st5" d="M471.9,115.7c-1.9,0.3-3.7,0.3-5.5,0.2c0.4-0.6,0.7-1.3,1.1-1.9c2.2-1.9,4.5-2.9,6.6-1.7
			c0.7,0.4,1.8-0.3,1.5-1c-1-2.3-2.5-3.2-4.3-3.1c0.4-0.2,0.7-0.3,0.9-0.2c1.4,0.3,2.6-0.9,1.9-2c-4.5-6.5-14.9,8.1-17.1,10.4
			c-1,1-0.9,2.2-0.2,3.1c-0.9,1-1.6,1.9-2,2.4c-1.2,1.5,0.8,3.9,3,3.2c3.1-1.1,4.9-2.5,6.9-4.5c0.7,0,1.3,0.1,2,0.1
			c0.1,3.2,1.1,7.8,4.6,6.7c0.8-0.2,1.6-0.7,1.7-1.4c0.4-1.8-0.4-3.5-0.4-5.2c0.3-0.1,0.6-0.2,0.9-0.3
			C477.1,119.4,475.7,115.1,471.9,115.7z"/>
		<path class="st5" d="M445.9,115.3c-5.9,1.7-11.8,3.5-17.6,5.3c-2.4,0.7-6.6,1.5-9.5,2.8c-0.2-0.1-0.4-0.1-0.7,0
			c-0.3,0.1-0.5,0.3-0.7,0.4c-0.8,0-1.6,0.1-2.5,0.1c-2.1-0.3-3.5,3.3-0.3,3.4c0.3,0,0.5,0,0.8,0c0.1,0.7,0.6,1.5,1.4,1.8
			c3.1,1.2,7.2-0.7,10.5-2.1c8-0.7,15.8-2.7,21.4-7.8C450.4,117.5,448.7,114.5,445.9,115.3z"/>
		<path class="st9" d="M524.6,137.8c2.2-0.9,0.6-3.8-1.6-3.2c-1.4,0.3-2.9,0.9-4.2,1.5c-0.7,0.1-1.4,0.3-2.1,0.6
			c-0.2-1.1-1.3-2.1-2.8-2.1c-0.7,0-1.5,0-2.2,0c0.1-1.1,0.3-2.2,0.7-3.3c0.9-2.2-1.8-4-4.3-3.6c-4.5,0.8-8.3,2.5-11.6,4.9
			c-1.1,0.4-2.2,0.8-3.2,1.1c1.9-1.1,2-4.1-0.9-5c-3.5-1.1-6.4-2.5-9.1-4.3c-1.4-1.5-2.9-2.9-4.5-4.4c-1.6-1.5-4-0.3-4.3,1.3
			c-0.3,0.2-0.5,0.4-0.6,0.7c-2.2-1.6-4.2-3.3-6-5.3c-1.4-1.6-4.7-0.1-3.2,1.6c1.2,1.4,2.5,2.7,3.9,3.9c-0.2,0-0.3,0.1-0.5,0.1
			c-2.1-1.5-3.8-3.3-4.8-5.3c-0.9-1.9-4.6-1.1-3.7,0.9c0.1,0.3,0.3,0.6,0.5,0.9c-2.2-2.1-6.6-0.2-5.8,2.7c0.8,2.7,2.9,4.7,4.5,7.1
			c1.1,1.6,3.7,1.6,5,0.4c1.9,0.7,3.8,1.1,5.6,0.9c2.5,1.1,5.1,2.2,7.9,3c2.1,0.6,3.8-1.1,3.6-2.7c0.1,0,0.1-0.1,0.1-0.1
			c0.2,0.1,0.4,0.2,0.5,0.2c2.8,1.5,5.9,2.7,9.2,3.7c0.7,0.2,1.3,0.2,1.8,0.1c-1.6,0.7-2.2,2.2-1.5,3.3c-0.4,0.3-0.7,0.5-1.1,0.8
			c-0.6,0.5-0.8,1-0.7,1.5c0,0-0.1,0.1-0.1,0.1c-1.3,0.5-2.5,1-3.7,1.6c-0.5-0.3-1-0.4-1.7-0.4c-2,0-4,0.1-5.8,0.3
			c-0.2,0-0.3,0-0.5-0.1c-0.3-0.4-0.8-0.7-1.4-0.9c0.1-0.2,0.1-0.3,0.2-0.3c0.7-1.4-1.3-2.7-2.9-2.4c-2.2,0.5-4.3,0.7-6.5,1.1
			c0-0.4-0.2-0.8-0.4-1.3c-0.4-1-1.5-1.6-2.8-1.3c-0.3,0.1-0.6,0.1-0.9,0.2c-0.6-0.6-1.4-1-2.4-1c-4.2,0.2-7.9,1.2-11.1,2.9
			c-4,0.6-7.9,1.3-11.8,2.1c-2.4,0.5-1.9,3.6,0.6,3.6c1.6,0,3.2-0.1,4.8-0.2c-0.5,1.3,0.5,3.1,2.2,3.4c0,0,0,0,0,0
			c-2.3,0.3-4.4,0.9-6.5,1.6c-0.8,0.1-1.7,0.2-2.5,0.3c-0.6-0.4-1.5-0.6-2.6-0.4c-0.6,0.1-1.2,0.3-1.7,0.4c-1.5-0.2-3-0.4-4.6-0.4
			c-3.5-0.1-6.5,0.7-9.1,2.2c-1.6,0.2-3.2,0.4-4.7,0.7c-2.1,0.4-7.2,1.9-12.6,3.1c0.3-1.4-0.4-2.9-2.5-3.2c-1.3-0.2-2.7-0.4-4-0.5
			c0,0,0,0,0,0c-3.5-0.4-7-0.6-10.6-0.9c-0.1-0.2-0.1-0.3-0.2-0.5c1.2-1.3,2.1-3,2.6-4.9c0.5-1.9-1-3.6-3.3-3.7
			c-5.6-0.1-11-0.8-16.5-1.6c-4.5-0.7-6.4,4.6-1.9,5.8c0.1,0,0.3,0.1,0.4,0.1c-1.2,0.7-2.4,1.6-3.4,2.6c-0.9,0.9-1,2.4-0.2,3.3
			c-0.1,0.1-0.3,0.1-0.4,0.2c-0.2,0.1-0.5,0.3-0.6,0.4c-1.9,0.7-3.9,1.4-5.8,2c-0.3-0.5-0.9-0.9-1.8-1c-0.8-0.1-1.5-0.2-2.1-0.4
			c0.3-0.1,0.5-0.2,0.8-0.4c0.8-0.5,1.5-1.2,1.4-2.1c0-0.1,0-0.2,0-0.3c-0.1-0.7-0.5-1.5-1.3-2c0.9-1.1,0.3-2.4-0.9-3.2
			c0,0,0-0.1,0-0.1c0-0.1,0-0.2,0-0.3c0.8-0.1,1.7-0.2,2.5-0.3c1.8-0.4,1.4-2.8-0.4-2.7c-0.3,0-0.5,0-0.8,0c1.5-0.8,3-1.6,4.5-2.3
			c1.7-0.8,0.6-2.6-1.1-2.5c0.2-1-0.7-2-2.2-1.7c-0.8,0.1-1.5,0.3-2.3,0.5c-2,0.2-4,0.6-6,0.7c-1.4,0.1-2.6,0.9-3.1,1.9
			c-0.9,0.3-1.9,0.7-2.8,1c-1.1,0.4-1.2,1.5-0.6,2.3c-0.6,0.7-0.7,1.5-0.3,2.3c-1.5,0.1-3.1,0.3-4.6,0.5c-1.2,0.2-1.7,0.9-1.7,1.8
			c-0.7,0.2-1.5,0.4-2.2,0.6c-2.4,0.6-2.6,3.6,0,4.2c1.6,0.4,3.2,0.6,4.8,0.7c0.3,1.2,1.8,2.1,3.4,1.8c1.3-0.3,2.6-0.5,4-0.8
			c0,0.4,0.1,0.8,0.2,1.2c-5.3,1.8-8.3,5.9-8.8,11.2c-0.1,1.4,1.4,2.4,3,2.5c0.7,0,1.3,0.1,2,0.2c-0.5,0.3-1,0.6-1.5,0.9
			c-1.4,0.7-1.7,2.2-1.1,3.3c-3,1.3-0.7,5.3,2.5,4.6c0.5-0.1,1-0.2,1.4-0.3c0.9,1,2.7,1.5,4.2,0.9c1.1-0.4,2.1-0.9,3.2-1.3
			c0,0.2,0.1,0.4,0.1,0.6h0c-3.8,0-3.9,4.6-0.5,5.1c-0.2,0.3-0.4,0.6-0.5,0.9c-0.6,1.3,0.6,2.8,2.1,3.2c0.4,1.2,1.7,2,3.6,1.7
			c2.1-0.4,3.7-0.9,5.3-1.6c0.6,1.2,2.3,2,4.1,1.2c0.6-0.3,1.3-0.6,1.9-0.9c-1.4,2.3,2.2,5,5.3,3.8c1.1-0.4,2.2-0.9,3.3-1.3
			c-0.2,0.9,0.1,1.8,1,2.5c0.8,0.6,1.6,1.3,2.4,1.9c-0.9,1.1-1,2.6,0.4,3.8c0.2,0.2,0.4,0.4,0.6,0.5c-1.1-0.7-2.4-1.3-3.8-1.8
			c-3.4-1.1-7.1-0.9-10.5,0.2c-0.7-1.2-2.5-2.1-4.1-1.6c-6.5,1.9-10,4.9-17.6,3.2c-2-0.5-3.7,0.6-4.4,2.1c-0.9,2.2-1.7,3.8-1.7,5.8
			c-1.4,1.2-1.5,3.4-1.9,5.6c0,0.1,0,0.1-0.1,0.2c-0.2,0.3-0.4,0.6-0.6,0.9c-0.2,0.4-0.1,0.7,0.1,1c-1.6,5.8-4.3,11.3-4.9,17.4
			c-0.2,2.6,5,3.2,5.5,0.6c0.9-4.6,2.1-9,3.5-13.4c0.8-2.6,1.9-5.5,2-8.3c0.9,0,1.8-0.3,2.2-1.2c0.7-1.4,1.3-2.9,1.8-4.4
			c2.6,0.2,5.1,0.1,7.9-0.3c0.8-0.1,1.4-0.3,2.1-0.5c-1.8,2.6,1.5,4.9,4.2,4.2c0.1,0.1,0.2,0.1,0.3,0.2c2.3,1.3,4.8-0.8,4.4-2.7
			c0,0,0.1-0.1,0.1-0.1c1.5-0.7,3.1-1.3,4.7-1.8c0.2-0.1,0.5-0.1,0.7-0.2c-0.4,0.7-0.8,1.5-1.2,2.2c-1.5,2.4,1.4,4.3,3.8,3.4
			c0.1,0.4,0.2,0.7,0.5,0.9c-1,1.7,1,3.9,3.3,2.9c0.4,0.1,0.9,0.2,1.5,0c0.3-0.1,0.6-0.1,0.9-0.2c-0.3,0.8-0.3,1.7,0.2,2.5
			c0.1,0.2,0.4,0.5,0.7,0.6c-1.7,1.5-3.2,3.1-4.5,4.7c-1,1.2,0.3,2.8,1.9,2.9c-4.7,3.5-8.9,7.4-12.3,12.1c-1.8,2.6,2.8,5.7,5.1,3.3
			c2-2.1,4.1-4.3,6.4-6.6c-1.1,1.8-2.1,3.6-2.7,5.6c-0.9,2.5,2.8,3.9,4.9,2.4c4.1-3,6.8-7.3,10.2-11c1,1.1,3,1.7,4.3,0.4
			c1.3-1.3,2.6-2.2,4.1-3c1.2,1.2,3.5,1.7,5.2,0.2c1.5-1.2,3-2.4,4.4-3.6c0.2-0.1,0.5-0.2,0.7-0.3c0.5-0.1,0.9-0.4,1.2-0.8
			c0.8-0.6,1.6-1.2,2.3-1.9c0.8,0.2,1.6,0.1,2.3-0.5c3.2-2.9,4.8-6.1,6.1-9.7c1.7-3,2.9-5.8,2.4-6.5c0.7,0.9,2.2,0.8,2.8,0.1
			c-1,5.6-1.9,11.2-3.3,16.5c-0.9,3.2,4.5,4.4,5.8,1.3c0.9-2.1,1.6-4.2,2.2-6.4c1.5-1.8,2.7-3.7,3.8-5.6c0.5,1,1.6,1.6,2.8,1.6
			c0.1,1.3,0.3,2.7,0.6,4c0.5,2.3,5.1,2.9,6.2,0.7c0.2-0.4,0.4-0.8,0.6-1.2c0,0.5,0,0.9,0.1,1.4c0.3,3,4.9,3.5,6.2,0.7
			c0.2-0.5,0.4-1.1,0.6-1.6c1.5,0.6,3.5,0.1,4.2-1.6c0.8-1.9,1.3-3.7,1.6-5.5c0.5,0,0.9-0.1,1.4-0.2c-0.5,2.6-0.3,5.3,0.6,8.2
			c0.9,2.8,5.2,2.4,6.3,0c1.7-3.8,2.4-7.6,2.4-11.6c0.1-0.3,0.1-0.6,0.2-1c0.8,0,1.7-0.3,2.3-1c0.2-0.2,0.4-0.5,0.6-0.7
			c0.9,1.1,3.2,1.2,4.2,0.2c0.8-0.2,1.5-0.7,1.6-1.6c0-0.2,0.1-0.4,0.1-0.6h0c0-0.1,0-0.2,0-0.3c0.1-1,0.2-1.9,0.3-2.9
			c0-0.4,0.1-0.8,0.2-1.1c0.7-0.3,1.4-0.7,2.1-1c2-1,1.6-3.4-0.1-4.2c1.3-1,2.6-2.1,3.8-3.4c2.1-2.1-0.1-4.6-2.7-4.3
			c0.8-0.8,1.5-1.6,2.2-2.4c0.2,0.1,0.5,0.1,0.8,0.1c5.6-0.2,11.1-6.6,14.5-9.7c1.9-1.7,3.9-3.3,5.9-5c3.1-1,5.8-2.7,8.2-5
			c0.2-0.2,0.2-0.3,0.3-0.5c1.4-0.6,2.8-1.2,4.2-1.9c0.8-0.4,0.7-1.3,0-1.7c-0.9-0.5-1.8-0.7-2.9-0.6c0,0,0,0,0,0
			c1.3-0.8,2.4-1.9,3.2-3.4c5.8-2.2,9.3-5.1,13.3-9.3c0.8-0.8,0.6-2-0.2-2.7c0,0,0,0,0,0C524.1,137.9,524.3,137.8,524.6,137.8z
			 M339.2,161.7c0.2-0.5,0.4-0.9,0.6-1.4c0.1,0.6,0.5,1.2,1,1.5C340.3,161.8,339.7,161.8,339.2,161.7z M382.9,189.7
			c0.2,0,0.4,0,0.6-0.1c0.4-0.1,0.8-0.2,1.2-0.4c-0.2,0.2-0.3,0.5-0.5,0.7c-0.4,0-0.7-0.1-1.1-0.1
			C383,189.8,382.9,189.8,382.9,189.7z M458,151.3c0.5-0.5,1-1.1,1.5-1.7c0.3-0.1,0.5-0.2,0.8-0.3c-0.3,0.3-0.6,0.7-0.9,1
			c-0.3,0.3-0.4,0.7-0.5,1c-0.3,0.2-0.7,0.4-1,0.6C458,151.7,457.9,151.5,458,151.3z M440.1,155.8c-0.1,0-0.1,0-0.2,0
			c-2.8,0.2-3.5,2.9-1.9,4.1c-3.3,0.6-6.6,1.1-9.9,1.4c1.1-1,2.2-2,3.2-3c0.6-0.6,0.9-1.3,0.8-1.9c1.1-0.4,2.2-0.9,3.2-1.3
			C436.9,155.3,438.5,155.6,440.1,155.8z M395.9,161.9c0-0.2-0.1-0.3-0.2-0.5c1,0,2.1,0,3.1,0C397.9,161.7,396.9,161.8,395.9,161.9z
			 M410.7,157.1c-1.2-0.2-2.4-0.4-3.6-0.5c1.7-0.5,3.4-0.9,5.1-1.3C411.7,155.9,411.2,156.5,410.7,157.1z M390.6,209
			c-2.5,1.2-4.9,2.6-7.3,4.1c0.1-0.3,0.3-0.5,0.4-0.8c2.4-1.6,4.9-2.9,7.6-3.8C391.1,208.6,390.9,208.8,390.6,209z M351.1,170.2
			c-0.3,0.2-0.4,0.4-0.6,0.7c0,0,0,0,0,0c-0.2-0.6-0.6-1.2-1.1-1.6c0.9,0,1.8-0.1,2.7-0.2c0,0.1,0,0.2,0,0.3
			C351.8,169.7,351.5,169.9,351.1,170.2z M356.5,162.3c-1.1,0.4-2.1,0.7-3.1,0.9c-0.3-1.1-1.3-2-3-2c-0.6,0-1.3,0-1.9,0c0,0,0,0,0,0
			c-0.3,0-0.6,0-0.9,0c-0.1,0-0.3,0.1-0.4,0.1c-0.8,0.1-1.6,0.2-2.4,0.4c1.4-0.5,2.7-1.2,3.9-2c0.7,0.3,1.5,0.4,2.5,0.2
			c1.3-0.3,2.5-0.7,3.7-1c1.4-0.3,2.8-0.5,4.2-0.7c-0.1,0.3-0.1,0.5-0.2,0.8c-0.3,1.6,0.8,3.4,3,3.3c2.1-0.1,6.4-0.7,11-1.2
			c3.4,0.3,6.9,0.4,10.3,0.4c-0.3,0.1-0.6,0.1-0.9,0.2c-1.9,0.5-2.8,2.1-2.5,3.6c-0.7,0.3-1.3,0.5-2,0.8c-0.4,0.1-0.8,0.1-1.2,0.2
			c-1,0.1-1.6,0.6-1.9,1.2c-0.7,0.3-1.3,0.6-2,0.9c-3.2-0.1-6.1-0.3-7.8-0.4c0.6-1.6-1.3-3.6-3.6-3.4
			C361.6,162.5,358.7,161.5,356.5,162.3z M379.3,183.7c-0.6,0.5-1.2,1.1-1.7,1.7c-0.3-0.2-0.7-0.4-1-0.5c0,0,0,0,0,0
			C377.4,184.4,378.3,184.1,379.3,183.7z M378.8,199.6c-0.4-0.9-0.9-1.7-1.6-2.4c2.6,2,5.1,3.2,9.1,3.8c0.9,0.1,1.7,0,2.4-0.2
			c-0.3,1.3,0.9,2.6,2.5,3c-1.7,0.5-3.4,1.2-5.1,2c-0.5-1-1-1.6-1.8-2c-1.1-1.2-2.2-2.3-3.6-3.5
			C380.1,199.8,379.5,199.6,378.8,199.6z M419.1,198.7c0.2-0.2,0.4-0.4,0.6-0.6c0.2,0.1,0.4,0.2,0.7,0.2c-0.1,0.6-0.2,1.2-0.3,1.7
			C419.8,199.5,419.5,199,419.1,198.7z M445.2,190.4c0.1,0,0.2,0,0.2,0c0.3-0.1,0.6-0.2,0.8-0.3c-0.3,0.7-0.5,1.3-0.8,2
			C445.4,191.5,445.3,190.9,445.2,190.4z M496.6,152c-0.1,0.1-0.1,0.3-0.2,0.4c-2.5,0.4-5.1,0.8-7.6,1.3c1.6-0.7,3.2-1.4,4.8-2.1
			c1.2-0.1,2.4-0.3,3.5-0.5C496.9,151.4,496.7,151.7,496.6,152z"/>
		<path class="st5" d="M559.3,142.1c-0.4-0.3-0.7-0.6-1.1-0.9c0.9-0.7,1.4-2,0.8-3c-1.3-2.2-2.6-4.3-3.8-6.5c-0.6-1-1.8-1.3-2.9-1
			c-1.7-1.8-5.3-0.9-5.2,1.3c-0.2-0.1-0.4-0.2-0.6-0.3c-1.6-0.7-3-0.1-3.7,0.9c0,0-0.1-0.1-0.1-0.1c-1.3-1.4-4.1,0.1-3.4,1.7
			c0.1,0.1,0.1,0.3,0.2,0.4c0,0,0,0,0,0c0,0,0,0,0,0c0.7,1.2,2.1,1.7,3.2,2.8c0.2,0.2,0.6,0.2,0.8,0.1c0.6,0.3,1.2,0.5,1.9,0.8
			c3.1,3.2,7.6,6,11.8,7.1C559.3,146,560.9,143.5,559.3,142.1z"/>
		
			<image style="overflow:visible;" width="74" height="44" xlink:href="18DC5FDC7B33E55D.png"  transform="matrix(1 0 0 1 473.8994 162)">
		</image>
		<g class="st2">
			<path class="st5" d="M131.3,187c-3.9,2.2-7.6,5.1-10.4,8.4c-0.7,0.5-1.5,0.9-2.3,1.2c5.1-5,11.1-10.4,2.9-15.2
				c0.7-0.8,1.4-1.6,2.1-2.4c1-1.2-1.3-2.2-2.3-1.1c-1.6,1.9-3.3,3.7-5.1,5.6c-0.3-0.2-0.7-0.3-1.1-0.1c-4.4,2.7-7.9,6.1-11.2,9.6
				c-0.4,0.5-0.7,1.3,0,1.7c0.1,0.1,0.3,0.2,0.4,0.2c0,0.2,0,0.3,0,0.5c0,0.3,0.2,0.5,0.5,0.6c1.5,0.3,3.2-0.7,4.8-2.1
				c-0.3,0.6-0.5,1.2-0.7,1.7c-1.7,1.1-3.4,2.2-4.6,3.5c-0.5,0.5,0.3,1.2,1,1.1c2-0.5,3.8-1.8,5.4-3.2c2.8-0.9,5-2.2,6.9-3.9
				c-2.5,2.4-5.4,4.6-6.5,6.4c-0.9,1.4,1,3.3,2.7,2.3c0.5-0.3,0.9-0.6,1.3-0.9c1.1-0.3,2.1-0.8,3.1-1.4c-0.1,0.2-0.2,0.3-0.2,0.5
				c-0.4,1.1,1.2,2.2,2.4,1.5c1.7-1.1,3.6-2.5,4.6-4.1c0.3-0.4-0.1-0.8-0.6-0.8c0.5-0.6,1-1.2,1.6-1.8c2-2,4.4-3.8,7-5.3
				C134.9,188.5,133.2,185.9,131.3,187z M118.2,192.7c0.6-0.6,1.1-1.2,1.7-1.8c0.2-0.3-0.3-0.6-0.5-0.3c-1.5,1.4-3,2.5-4.8,3.3
				c1.9-1.7,3.7-3.4,5.6-5c0.8-0.7-0.4-1.8-1.3-1.1c-2.1,1.7-4.2,3.5-6.2,5.3c1.9-3.6,4.6-6.7,7.6-9.8c0.1-0.1,0.2-0.3,0.2-0.5
				c0,0,0-0.1,0.1-0.1C124.6,185.5,121.9,189.2,118.2,192.7z"/>
			<path class="st5" d="M113.8,183.4c1.3-1.1-0.7-2.8-2-1.7c-1.9,1.6-3.8,3.1-5.7,4.6c1.5-1.5,3-3.1,4.3-4.7c1.3-1.5-1.7-3-3-1.5
				c-4.2,4.8-9,9.1-13.4,13.7c-1.2,1-2.1,2.2-3.1,3.4c-1.3,1.6,1.7,3,3,1.5c1-1.1,2-2.2,3-3.2c0.1,0.1,0.2,0.1,0.4,0.2
				c2.5,0.6,5.9-3.3,7.4-4.5C107.8,188.6,110.8,186,113.8,183.4z"/>
			<path class="st5" d="M93.9,190.7c4.2-3.7,8-7.7,12.2-11.3c0.4-0.4,0.5-0.7,0.4-1.1c1.2-1,0.7-3.2-1.5-3.3c-2-0.1-3.9,0.2-5.6,0.7
				c1.4-2.1,2.7-4.2,3.8-6.5c0.5-1.1-0.8-2.2-2-2.2c-1.4-0.1-2.6,0.4-3.7,1c0-0.1,0.1-0.1,0.1-0.2c0.9-1.2-1.1-2.5-2.3-1.5
				c-1,0.9-2.1,1.7-3.1,2.6c-0.6-0.3-1.4-0.3-2.1,0.4c-0.4,0.4-0.9,0.8-1.3,1.3c0-1.2-1.2-2.5-2.8-1.9c-0.5,0.2-0.9,0.3-1.4,0.4
				c1.9-2.4,3.4-5,4.7-8c0.5-1.3-1.2-2.1-2.4-1.7c1.8-1.3,3.7-2.5,5.7-3.5c2.5-1.2,0.3-4.4-2.1-3.4c-1.6-0.1-3.1,0.2-4.6,0.6
				c-0.2-0.6-0.7-1.1-1.6-0.8c-0.7,0.2-1.3,0.5-2,0.7c0.2-0.2,0.4-0.5,0.6-0.7c0.7-0.9-0.6-2-1.7-1.5c-1.3,0.6-2.6,1.2-3.8,1.8
				c0.3-0.4,0.6-0.7,0.9-1.1c0.7-0.9-0.4-2-1.6-1.8c-3.3,0.7-6.4,1.8-9.3,3.1c0.1-0.2,0.2-0.4,0.3-0.6c0.5-1.4-1.2-2.7-2.8-2.4
				c-3.3,0.8-6.4,1.9-9.3,3.3c0.4-1.4-0.6-3-2.5-3c0.7-1.4-0.7-3.4-2.8-2.8c-1.5,0.4-3,1-4.4,1.7c-1-0.7-2.5-0.8-3.8,0.1
				c-5,3.5-9.1,7.6-13,11.9c-1.7,1.9,1,3.9,3.3,3.5c0.2,0.5,0.8,0.9,1.4,1.1c-3.8,3-7.2,6.4-9.8,10.3c-1.1,1.7,1,3.2,2.9,2.5
				c0.1,0,0.2-0.1,0.3-0.1c-0.9,1.3-1.8,2.6-2.5,4c-0.6,1.3,0,3.3,2.1,3.1c0.6-0.1,1.2-0.2,1.8-0.2c-0.3,0.4-0.6,0.8-0.9,1.2
				c-0.6,0.8-0.4,1.7,0.2,2.3c-0.3,0.4-0.6,0.7-0.9,1.1c-1.6,2,2.1,3.6,3.7,1.8c1.7-1.9,3.6-3.5,5.6-5.2c1.1-0.9,0.7-2.2-0.2-2.9
				c0.6-0.7,1.3-1.3,2-2c1.8-1.2,3.5-2.6,5-4.1c1.9-1.9-1-4.3-3.2-2.7c-1.7,1.2-3.3,2.5-4.8,3.8c-1.1,0.7-2.2,1.3-3.5,1.7
				c2.7-3.9,6.4-7.1,10.5-10c0.8-0.5,1.5-1,2.3-1.5c0.5,0.9,1.7,1.5,3.1,0.9c2.8-1.2,5.6-2.6,8.2-4.2c-1,0.7-2,1.5-2.9,2.2
				c-1.2,1,0,3.2,1.8,2.6c1.5-0.5,3-1.1,4.4-1.8c0.1,0.2,0.2,0.4,0.4,0.6c-1,0.9-2.1,1.7-3.1,2.5c-2,1.3-4,2.6-5.9,4
				c-1,0.5-2.1,1-3.1,1.4c-1,0.4-1.2,1.2-1,1.8c-1.6,1.4-3.2,2.9-4.6,4.5c-1.3,1.5,1.1,3,2.8,2.3c8.6-3.6,16.5-8.5,23.9-13.7
				c0.1,1.4,1.7,2.8,3.4,1.7c0.2-0.1,0.3-0.2,0.5-0.3l0,0c0,0,0,0,0.1-0.1c0.3-0.2,0.7-0.5,1-0.7c0.3,0.2,0.7,0.4,1.1,0.4
				c-0.1,0.1-0.3,0.2-0.4,0.3c0,0-0.1,0.1-0.1,0.1c-0.1,0.1-0.3,0.2-0.4,0.3l0,0c-2.2,2,1,5.2,3.8,3.2c2.3-1.7,5-2.7,7.7-3.7
				c0,0.5-0.1,1.1-0.3,1.6c-7.3,6.7-15,13.1-21.1,20.6c-1,1.3,0.3,2.9,1.9,3.1c-0.3,1.4,1.3,2.6,3,2.1c-1.1,1.8,1.9,3.4,3.7,2.1
				c4.8-3.4,8.5-7.4,12.5-11.5c1.2-1.2,0.4-2.5-0.8-2.9c0.3-0.4,0.7-0.8,1-1.3c-0.4,1.7,2.1,3.4,3.7,1.8c1.1-1.1,2.2-2.2,3.2-3.3
				c3-3,6.4-5.8,10.9-6.6c-4.5,3.8-8.8,7.7-13.1,11.5c-1.6,1.4,0.8,3.3,2.5,2.1C92.6,192,93.3,191.4,93.9,190.7z M46.2,156
				c0.6-0.2,1.2-0.4,1.8-0.5c-0.8,1.4-1.7,2.7-3.1,3.8c-0.5-0.3-1.2-0.4-2,0c-0.8,0.4-1.6,0.6-2.4,0.9
				C42.5,158.8,44.4,157.4,46.2,156z M44.8,166.3c-0.6-0.8-1.8-1.3-2.8-0.7c-2.2,1.3-4.2,2.7-6.2,4.1c-1.1,0.7-2.2,1.3-3.3,1.9
				c3-3,6.5-5.7,10.3-8.2c0.8,1,2.3,1.6,3.7,0.8c0.2-0.1,0.4-0.2,0.6-0.4c0,0,0,0,0,0c0.1,0,0.1-0.1,0.2-0.1c0.5-0.3,0.9-0.6,1.3-1
				c4-2.9,8-5.6,12.6-7.6c-0.3,0.4-0.6,0.8-0.9,1.2C54.8,159.5,49.9,163,44.8,166.3z M71.8,155.4c-4.1,2.1-8.2,4.4-12,6.9
				c1.8-1.4,3.4-3,4.7-4.7c2.9-1.7,5.9-3.2,9.1-4.4C73,153.9,72.4,154.7,71.8,155.4z M79.3,169.2c0.9-0.8,1.7-1.7,2.4-2.7
				c0.3-0.3,0.7-0.6,1.1-0.9C81.7,166.9,80.6,168.1,79.3,169.2z M86.8,184.4c-0.3,0.3-0.7,0.7-1,1c0.4-0.5,0.8-1,1.1-1.5
				c1.6-1.7,3.2-3.4,4.9-5.1c0.4-0.4,0.5-0.9,0.4-1.4c0.2-0.2,0.4-0.4,0.7-0.6c0.5-0.5,1.4-1.3,2.4-2.3
				C92.8,178,89.9,181.2,86.8,184.4z"/>
		</g>
		<path class="st5" d="M53.7,213.9c-4.2-5.1-11-8.4-17.5-11.1c-1.7-0.7-3.6-1.5-5.5-2.2c-2.7-2.6-5.7-4.9-9.3-6.5
			c-0.7-0.8-1.3-1.5-1.8-2.1c-1.3-1.4-3.6-1.4-4.7-0.3c-1.4-1.2-2.9-2.4-4.4-3.4c-1.9-1.3-5.5-0.3-5.1,1.9c-1.6,0-3,1.2-2.7,3
			c0.4,2.2,1.1,4.3,2.1,6.2c-2.6-0.9-6,2-4.3,4.4c2.6,3.9,5,8,7.5,12c-2.8-0.4-5.2,2.5-3,4.8c0.8,0.8,1.6,1.5,2.4,2.2
			c0,0.6,0.3,1.1,0.9,1.6c0.8,0.6,1.6,1,2.4,1.5c0.4,0.2,0.7,0.5,1.1,0.7c2,1.5,4,3,6.2,4.3c0,0,0,0,0,0l0,0c0.1,0,0.1,0.1,0.2,0.1
			c0.1,0.1,0.1,0.2,0.2,0.2c2.1,2.7,6.9,0.3,5.1-2.5c-0.5-0.9-1.2-1.7-1.8-2.5c0-0.2-0.1-0.5-0.2-0.7c-0.2-0.5-0.5-0.9-0.7-1.4
			c0.6,0,1.2-0.1,1.6-0.3c3.9,2.1,8.2,3.6,12.5,5.1c2.5,0.9,6.6-1.2,4.4-3.7c-3.3-3.6-6.4-6.3-11.6-7.9c0.2-0.5,0.1-1.1-0.3-1.8
			c-3.1-4.3-6.1-8.6-8.9-13.1c0,0,0.1,0,0.1,0c0.2,0.2,0.3,0.3,0.5,0.5c3.3,4.3,7.7,8.1,12.5,11.5c1,0.7,2.1,0.8,3,0.5
			c2.2,1.4,4.4,2.6,6.8,3.3c2.4,2.8,5.2,5.2,8.5,6c1,0.2,1.8-0.7,1.3-1.4c-0.9-1.5-2.3-2.8-3.8-4c1.7-0.2,3.5-0.6,5.3-1.5
			C54,216.7,54.7,215,53.7,213.9z M38.1,209c2.8,1.4,5.5,3,7.7,4.8c-1.5,0-3.1-0.4-4.6-1C40.2,211.5,39.2,210.2,38.1,209z"/>
		<g class="st2">
			<path class="st5" d="M203.3,230.7c-3.9,1.6-7.7,3.6-10.4,6c-0.7,0.3-1.5,0.6-2.3,0.9c5.1-3.6,11.1-7.3,2.9-10.7
				c0.7-0.6,1.4-1.1,2.1-1.7c1-0.8-1.3-1.6-2.3-0.8c-1.6,1.3-3.4,2.6-5.1,3.9c-0.3-0.1-0.7-0.2-1.1,0c-4.4,1.9-7.9,4.3-11.2,6.8
				c-0.4,0.3-0.7,0.9,0,1.2c0.1,0.1,0.3,0.1,0.4,0.2c0,0.1,0,0.2,0,0.4c0,0.2,0.2,0.3,0.5,0.4c1.5,0.2,3.3-0.5,4.8-1.5
				c-0.3,0.4-0.5,0.8-0.8,1.2c-1.7,0.8-3.4,1.5-4.6,2.5c-0.5,0.4,0.3,0.9,1,0.7c2-0.3,3.8-1.3,5.5-2.2c2.8-0.6,5-1.6,6.9-2.8
				c-2.6,1.7-5.4,3.3-6.6,4.5c-0.9,1,1,2.4,2.7,1.6c0.5-0.2,0.9-0.4,1.3-0.6c1.1-0.2,2.1-0.6,3.1-1c-0.1,0.1-0.2,0.2-0.2,0.3
				c-0.5,0.8,1.2,1.6,2.4,1.1c1.8-0.8,3.6-1.8,4.6-2.9c0.3-0.3-0.1-0.6-0.6-0.6c0.5-0.4,1-0.9,1.6-1.3c2-1.4,4.4-2.7,7-3.7
				C206.9,231.7,205.2,229.9,203.3,230.7z M190.2,234.7c0.6-0.4,1.1-0.8,1.7-1.3c0.2-0.2-0.3-0.4-0.5-0.2c-1.5,1-3,1.8-4.8,2.4
				c1.9-1.2,3.8-2.4,5.7-3.6c0.8-0.5-0.4-1.2-1.3-0.8c-2.1,1.2-4.2,2.5-6.3,3.7c2-2.5,4.6-4.7,7.6-7c0.1-0.1,0.2-0.2,0.2-0.3
				c0,0,0,0,0.1-0.1C196.6,229.6,193.8,232.2,190.2,234.7z"/>
			<path class="st5" d="M185.7,228.1c1.3-0.8-0.7-2-2-1.2c-1.9,1.1-3.8,2.2-5.7,3.3c1.5-1.1,3-2.2,4.4-3.3c1.3-1.1-1.7-2.1-3-1.1
				c-4.2,3.4-9,6.4-13.4,9.7c-1.2,0.7-2.1,1.5-3.1,2.4c-1.3,1.1,1.7,2.1,3,1c1-0.8,2-1.5,3-2.3c0.1,0,0.2,0.1,0.4,0.1
				c2.5,0.4,5.9-2.4,7.4-3.2C179.7,231.8,182.7,230,185.7,228.1z"/>
			<path class="st5" d="M165.8,233.3c4.2-2.6,8-5.4,12.2-8c0.4-0.2,0.5-0.5,0.4-0.8c1.2-0.7,0.7-2.3-1.5-2.3c-2.1,0-3.9,0.1-5.7,0.5
				c1.4-1.5,2.7-3,3.8-4.6c0.5-0.8-0.8-1.5-2-1.6c-1.4,0-2.6,0.2-3.7,0.7c0,0,0.1-0.1,0.1-0.1c0.9-0.9-1.1-1.7-2.3-1.1
				c-1,0.6-2.1,1.2-3.1,1.9c-0.6-0.2-1.4-0.2-2.1,0.2c-0.4,0.3-0.9,0.6-1.3,0.9c0-0.9-1.2-1.8-2.8-1.4c-0.5,0.1-0.9,0.2-1.4,0.3
				c1.9-1.7,3.4-3.6,4.7-5.6c0.6-0.9-1.2-1.5-2.4-1.2c1.8-0.9,3.7-1.8,5.8-2.5c2.5-0.9,0.3-3.1-2.2-2.4c-1.6,0-3.1,0.1-4.6,0.5
				c-0.2-0.4-0.7-0.8-1.6-0.6c-0.7,0.2-1.4,0.3-2,0.5c0.2-0.2,0.4-0.3,0.6-0.5c0.7-0.7-0.6-1.4-1.7-1c-1.3,0.4-2.6,0.9-3.8,1.3
				c0.3-0.3,0.6-0.5,0.9-0.8c0.7-0.6-0.4-1.4-1.6-1.3c-3.3,0.5-6.4,1.3-9.3,2.2c0.1-0.1,0.2-0.3,0.3-0.4c0.5-1-1.2-1.9-2.8-1.7
				c-3.3,0.5-6.4,1.4-9.3,2.3c0.4-1-0.6-2.1-2.5-2.2c0.7-1-0.7-2.4-2.8-2c-1.5,0.3-3,0.7-4.4,1.2c-1-0.5-2.5-0.6-3.8,0.1
				c-5,2.5-9.1,5.4-13.1,8.4c-1.7,1.3,1,2.8,3.3,2.5c0.2,0.4,0.8,0.7,1.4,0.8c-3.8,2.1-7.2,4.5-9.8,7.3c-1.1,1.2,1,2.3,3,1.7
				c0.1,0,0.2-0.1,0.3-0.1c-0.9,0.9-1.8,1.8-2.5,2.8c-0.6,0.9,0,2.4,2.2,2.2c0.6,0,1.2-0.1,1.8-0.2c-0.3,0.3-0.6,0.6-0.9,0.8
				c-0.6,0.6-0.4,1.2,0.2,1.6c-0.3,0.3-0.6,0.5-1,0.8c-1.6,1.4,2.1,2.6,3.7,1.3c1.7-1.4,3.6-2.5,5.6-3.7c1.1-0.6,0.7-1.6-0.2-2.1
				c0.6-0.5,1.3-0.9,2-1.4c1.8-0.8,3.5-1.8,5-2.9c1.9-1.3-1-3-3.2-1.9c-1.7,0.8-3.3,1.7-4.8,2.7c-1.1,0.5-2.3,0.9-3.5,1.2
				c2.7-2.7,6.4-5,10.5-7.1c0.8-0.4,1.5-0.7,2.3-1.1c0.5,0.6,1.7,1,3.1,0.6c2.8-0.9,5.6-1.8,8.2-3c-1,0.5-2,1-2.9,1.6
				c-1.3,0.7,0,2.3,1.8,1.8c1.5-0.4,3-0.8,4.4-1.3c0.1,0.2,0.2,0.3,0.4,0.4c-1,0.6-2.1,1.2-3.1,1.8c-2,0.9-4,1.8-5.9,2.8
				c-1,0.3-2.1,0.7-3.1,1c-1,0.3-1.2,0.8-1,1.3c-1.6,1-3.2,2-4.6,3.2c-1.3,1.1,1.1,2.1,2.8,1.7c8.6-2.6,16.5-6,24-9.7
				c0.1,1,1.7,2,3.4,1.2c0.2-0.1,0.3-0.2,0.5-0.2l0,0c0,0,0,0,0.1,0c0.3-0.2,0.7-0.3,1-0.5c0.3,0.2,0.7,0.3,1.1,0.3
				c-0.1,0.1-0.3,0.1-0.4,0.2c0,0-0.1,0-0.1,0.1c-0.1,0.1-0.3,0.1-0.4,0.2l0,0c-2.2,1.4,1.1,3.7,3.8,2.2c2.3-1.2,5-1.9,7.7-2.6
				c0,0.4-0.1,0.8-0.3,1.1c-7.3,4.7-15,9.2-21.2,14.6c-1,0.9,0.3,2.1,1.9,2.2c-0.3,1,1.3,1.8,3,1.5c-1.1,1.3,1.9,2.4,3.7,1.5
				c4.8-2.4,8.6-5.3,12.6-8.1c1.2-0.8,0.4-1.8-0.8-2.1c0.3-0.3,0.7-0.6,1-0.9c-0.4,1.2,2.1,2.4,3.7,1.3c1.1-0.8,2.2-1.6,3.2-2.3
				c3-2.1,6.5-4.1,11-4.6c-4.5,2.7-8.9,5.4-13.2,8.2c-1.6,1,0.8,2.3,2.5,1.5C164.4,234.2,165.1,233.8,165.8,233.3z M117.9,208.7
				c0.6-0.2,1.2-0.3,1.8-0.4c-0.8,1-1.7,1.9-3.1,2.7c-0.5-0.2-1.2-0.2-2,0c-0.8,0.2-1.6,0.5-2.4,0.6
				C114.2,210.7,116.1,209.8,117.9,208.7z M116.5,216c-0.6-0.6-1.8-0.9-2.9-0.5c-2.2,0.9-4.2,1.9-6.2,2.9c-1.1,0.5-2.2,0.9-3.3,1.4
				c3-2.1,6.5-4,10.3-5.8c0.8,0.7,2.3,1.1,3.7,0.5c0.2-0.1,0.4-0.2,0.6-0.3c0,0,0,0,0,0c0.1,0,0.1-0.1,0.2-0.1
				c0.5-0.2,0.9-0.4,1.3-0.7c4-2,8-4,12.7-5.4c-0.3,0.3-0.6,0.6-0.9,0.9C126.5,211.2,121.6,213.7,116.5,216z M143.5,208.3
				c-4.1,1.5-8.2,3.1-12,4.9c1.8-1,3.4-2.1,4.7-3.3c2.9-1.2,5.9-2.2,9.1-3.1C144.8,207.3,144.2,207.8,143.5,208.3z M151.1,218.1
				c0.9-0.6,1.7-1.2,2.4-1.9c0.3-0.2,0.7-0.4,1.1-0.6C153.5,216.5,152.3,217.3,151.1,218.1z M158.6,228.8c-0.3,0.2-0.7,0.5-1,0.7
				c0.4-0.4,0.8-0.7,1.1-1.1c1.6-1.2,3.2-2.4,4.9-3.6c0.4-0.3,0.5-0.7,0.4-1c0.2-0.1,0.4-0.3,0.7-0.4c0.5-0.3,1.4-0.9,2.5-1.6
				C164.6,224.3,161.7,226.6,158.6,228.8z"/>
		</g>
	</g>
	<path class="st3" d="M200,297.7c0-0.5-0.3-0.8-0.7-0.8c-1.3,0-0.3-2.3-0.3-2.3s0.1-2.9-1.6-1.8c-1.7,1.2-3.3-3.8-3.3-1
		c0,2.8-1.7,4.1-2.9,2.8c-1.2-1.3-1-1.3-0.7-2.6c0.3-1.3-1-1.5-1-1.5s1.9-0.4,1.9-1.3c0-0.9-1.7,0.1-1.7,0.1s0.2-2.1-0.4-1
		c-0.6,1.1,0.4,0.7-1.5,1.8c-1.9,1.2-3.6,1.5-2.5,0.4c1.1-1.1,2.6-2.6,0.4-1.4c-2.2,1.2-1.6,1.8-1.8,0.4c-0.2-1.5,0.3-1.8-1.8-0.6
		c-2.1,1.2-2.7,1.4-2.3,0c0.4-1.4,1-1.4,0.3-1.8c-0.7-0.4,2.1-0.1,2-0.7c-0.1-0.7,0.4-1.2-1.5-1.2c-1.9,0-2,0-1.8-0.4
		c0.2-0.4,0.5-0.4-0.8-0.6c-1.3-0.1-0.2-0.6-1.6-0.7c-1.4-0.1-3.8-0.7-3.2-1.5c0.6-0.7,2.4-1,3.2-0.1c0.8,0.9,2.2,2.5,2.1,1.6
		c-0.1-0.9,0.4-1.2,2.2,0c1.7,1.2,1.9,1.1,1.9,0.3c0-0.8,0.8,1.3,1.4,2.1c0.6,0.9,0.8,0.2,0.9-0.7c0.1-1,1.4-1.6,1.6-0.4
		c0.1,1.2,1.4,2.3,1.4,1.7c0-0.7,0.8-0.4,0.9,0.1c0.1,0.4,0.7,0.1,0.7-0.1c0-0.3,2.4,1.6,1.8,0.6c-0.6-1-2.8-3.4-1.5-2.5
		c1.3,0.9,2.4,1.5,3.1,1.4c0.7-0.1-0.1-1.7-0.1-1.7s1.7,0.6,2.1,0.4c0.4-0.1,0.1,0.3,1.1,0.6c0.9,0.3,2.5-0.1,1.6-0.7
		c-0.9-0.6,0-1.3,0-1.3s0.1-0.8-0.7-1c-0.9-0.1-0.5-0.5-0.5-1c0-0.4-0.9-0.4-1.4-0.5c-0.4-0.1,1.7-1.1,2.4-0.1c0.6,1,3,2,2.4,1
		c-0.6-1-1.7-2.1-1.7-2.1s0.9-0.7,2.3-0.5c1.4,0.1,1.7-0.3,1.2-0.7c-0.5-0.4-0.1-0.7,0.9-0.6c1,0.1,1-0.6,0.2-0.9
		c-0.8-0.3-1.6-0.4-0.2-1.2c1.4-0.8,2-0.4,2.5-1.9c0.5-1.5,0.9-3-0.7-1.5c-1.6,1.5-3.2,3.2-2.9,1.6c0.3-1.5-0.1-3.3-1.1-1.6
		c-0.9,1.7-0.6,2.9-1.6,2.5c-1-0.4,0.1-1.1-1.3,0.1c-1.4,1.2-1.7,0.3-1.7,0.3s-0.1-0.3-0.6,1c-0.5,1.3,0.2-1-0.9-0.2
		c-1.1,0.8,0.8,0.8-1.2,1.6c-2,0.8-3.5,2-2.5,0.4c1-1.5,0.4-1.9-1.2-0.7c-1.6,1.3-0.6,1.5-3.7,1.5c-3.1,0-2-1-3.7-1.5
		c-1.7-0.4-2.9-1.5-2.9-1.5s3.2-0.2,4.3,0.4c1,0.7,2.2,1.9,2.7,1.2c0.6-0.7,0.4,0.1,0.4-0.8c0.1-0.9,4,1.4,2.3-0.5
		c-1.7-1.9-3-2.9-1.7-2.5c1.4,0.4,2.7,0.8,3,1.2c0.2,0.4,2.2,1.2,1.4,0.2c-0.7-1-0.4-0.5,0.4-1.2c0.7-0.7-0.4-0.9-0.8-1.5
		c-0.4-0.6,0.4-0.5,1.4-0.7c1.1-0.2,1.9-0.2,1.9-0.9c-0.1-0.7,0.4-0.2,1.4-0.6c0.9-0.4-0.3-1.5,0.4-1.6c0.7-0.1,1.2,1,1.6,0.4
		c0.4-0.6-1.2-2,0.3-1.8c1.5,0.2,2.5,0.6,2.2,0c-0.2-0.6-6.7,0.1-9.1,1c-2.4,0.9-5,0.1-6.1,1.5c-1.2,1.4-2.6,1.3-4,1.3
		c-1.4,0-0.8-0.4-2.2,0c-1.4,0.4-0.1-0.1-2.1-0.4c-2-0.3-1.6-0.4-2.9-0.6c-1.3-0.2-2.3-0.4-2.5-1.4c-0.2-1,0-0.4-0.6-1.6
		c-0.7-1.2-0.9-2.1,0.4-1.5c1.3,0.6,1.5-0.1,1.7,1.1c0.2,1.2,0.6,1.4,1,0.6c0.4-0.8,1.2-0.8,1.4,0.1c0.2,1,1.4,2.5,1.4,1.2
		c0-1.2,0.3-1.3,0.8-0.3c0.5,1,0.9,2.8,1.3,1.6c0.4-1.2-0.5-3.5,1.1-3c1.6,0.5,1.4,1,2.5,1.2c1.1,0.2,0.6,0.3,1.4-0.1
		c0.8-0.4,1.1,0,2.4-0.1c1.4-0.2,1.2,0.4,3-0.2c1.9-0.5,1.9,1,2.7,0.3c0.9-0.7,1-1.5,2.5-1.5c1.5,0,1.9,1.2,3.6,0.7
		c1.7-0.6,0.9-1.5,2.4-1.4c1.4,0.1,0.6-0.8,0-1.4c-0.6-0.6,0.5-1.1,0.6-2c0.1-0.9-0.6-1.2-1.3-0.9c-0.7,0.4-0.6-0.1-0.8-0.5
		c-0.2-0.4,0.7-0.7-2.3,0.1c-3,0.9-7.1,1-4.8,0.1c2.4-0.9,5-0.9,4.2-1.4c-0.9-0.5-3.1-0.4-2.4-0.2c0.7,0.1,5-2.4,2.3-1.7
		c-2.7,0.7-4,1.6-3.3,0.7c0.7-0.9,0.7-2-0.1-1c-0.8,1-1,0.1-2.6,1c-1.6,1-1.3,1-2.9,0.8c-1.6-0.1-0.6-0.5-2.7-0.7
		c-2.2-0.1-2.7-0.4-3.8-1c-1.2-0.6-3-2.1-1.4-1.7c1.7,0.4,2.1,0,2.9,0.5c0.8,0.5,1.5,2,1.4,1c-0.1-1,0.1-1,1.3-0.4
		c1.2,0.5,1.3-0.8,1.3-0.8s0,0.7,1.5,0.8c1.5,0.1,1.6,0.1,2.1,0.2c0.5,0.1,0.4-0.4,0.3-0.8c-0.1-0.4,1.4-0.1,2.2-0.2
		c0.8-0.1,0.4-0.9,1.7-0.4c1.3,0.4,2.6,0.4,1.9-0.2c-0.7-0.6,0.3-0.1,0.9-0.7c0.6-0.5-3.5-1.8-1.9-1.7c1.7,0.1,4,0.1,3.1-0.2
		c-0.9-0.4-4.8,0-2.2-0.9c2.5-0.9,3.5-2.9,2-2.5c-1.5,0.4-3.5,2.9-2.7,1.4c0.9-1.5,1.2-3-0.3-1.5c-1.5,1.5-1.9,1.5-2.3,0.8
		c-0.4-0.7-0.5-0.8-0.8,0.4c-0.3,1.2-1.3,0-1.7,0.7c-0.4,0.7-1.3,0.4-2.1,0.7c-0.8,0.3-1.7,0.6-2.6,0.3c-0.9-0.3-0.1-0.4-2.2-0.7
		c-2.1-0.3,0.7,0-2.8-0.9c-3.5-0.9-5.5-1.8-3.4-1.8c2.1-0.1,2.2,1.3,3.1,0.6c0.9-0.7,0.4-1.4,1.5-0.3c1.1,1.1,2.7,2.9,2.6,1.6
		c-0.1-1.3,0.4-0.6,1.3-1c0.9-0.4,1.5-0.1,1.1-1c-0.4-0.9-1.2-0.3,1.3,0.1c2.4,0.4,4.5,1,2.7,0.1c-1.8-1-2.2-1.8,0.1-1.3
		c2.3,0.5,5.3-0.5,3.3-0.8c-1.9-0.3-2.6-0.1-0.4-0.7c2.2-0.7,1.2-1.2,0.6-1.5c-0.6-0.4-0.8,0.1,1.2-0.9c2-1,4.1-2.8,1.4-2
		c-2.7,0.8-1.9-0.8-2.8-0.1c-0.9,0.7-0.2-0.1-0.2-0.8c0-0.7-0.7-2.8-1.4-0.6c-0.7,2.2-2.2,2.9-2.2,2.2c0-0.7-3.5,2.2-2.2,1.2
		c1.2-1,2.6-3.7,0.9-2.4c-1.7,1.2-3.1,3.2-2.9,2.4c0.2-0.9,0.5-2-1.2-1c-1.7,1-2.4,2.3-3,0.7c-0.6-1.5-4.5-2.6-1.9-2.6
		c2.5,0,2.8,1,4.3,0.4c1.4-0.6,0.2-1.7,1.8-1.5c1.6,0.2,2.5,1,2.9,0.5c0.4-0.4-1.2-0.5,0.5-0.7c1.7-0.2,1.1-0.9,2.1-2
		c1-1.1,0.5-1.9,0.2-2.1c-0.3-0.1,4.4-3.1,2.2-2.2c-2.2,0.9-3.9,1.9-3.1,1c0.8-0.9,1.1-2-0.6-1.1c-1.7,0.9-1.3,1.5-1.5,0.4
		c-0.2-1.2-0.1-1.8-1.3-0.9c-1.2,1-2.2,2.3-2.1,1.3c0.1-1,0.1-1.8-1-1.2c-1.1,0.6-2.6,1.5-3,1.3c-0.4-0.2,0.2-2-1.1-0.7
		c-1.3,1.3-1.6,0.8-2.6,1.5c-1,0.7-2.2,1.9-2.2,1c0-0.9,0.1,0-1.5-0.3c-1.7-0.3-2-0.1-2.8-0.4c-0.8-0.3-0.7-1.4,0.4-1.8
		c1.2-0.4,0.8,0.7,1.8-0.1c1-0.8,0-1.9,1.3-1.5c1.3,0.4,2.2,1.5,2.7,0.7c0.5-0.8,1.4-1.5,0.9-1.8c-0.5-0.2,1.4,0.7,2.5,0.8
		c1.1,0.1,0.9,0,1.7-0.6c0.9-0.6,0.9-0.2,1.6,0.2c0.7,0.4,1.4,1.2,1.8,0.4c0.4-0.8,1.5-0.8,2.3-0.7c0.8,0.1,0.2-0.4,1.1-0.6
		c0.9-0.1,1.9,0.3,2.8-0.1c0.9-0.4,0.6-0.2,0.9-1c0.3-0.8,1.1,0.4,1.3-0.8c0.2-1.2-1.1-1.4-1.1-1.8c-0.1-0.4,1.2-0.2,1.6-1.2
		c0.4-1-0.4-1.5-1.1-1.5c-0.7,0-1.7,0.2-1.7-0.9c0-1-0.8-1.3-2.1-0.2c-1.3,1-1.7,2-2.7,1.1c-0.9-0.9-0.6-0.4-2.5,0.3
		c-1.9,0.7-0.9-0.6-2.4-0.4c-1.4,0.2-1.3,0.4-3.2,0.5c-1.9,0.1-2.3,1-3.5-0.3c-1.2-1.2-1.6-0.2-2.3-1.3c-0.7-1.1-2.4-2-0.7-2.1
		c1.7-0.1,1.6-0.7,3-0.8c1.4-0.1,0.4,0.5,1.7,1.5c1.3,1,2.6,1.8,2-0.1c-0.6-1.9-0.1-1.6,1.6-1.6c1.7,0,2.2,2.3,2.7,1.2
		c0.6-1.1,0-1.8,1.2-1.1c1.2,0.7,1.8,0.4,2.6,0.4s1.1-0.1,0.4-1.1c-0.6-1,2,0.1,1.6-0.6c-0.4-0.7-1.9-2.3-2.8-2.6
		c-0.9-0.4,1.2-0.4,2.3-0.7c1.1-0.3,2.1-0.6,2.2-1.6c0.1-1,0.6-0.1,1-1.1c0.4-1,0.1-1-1-0.7c-1.1,0.3-0.8,0.3-1.4-0.2
		c-0.6-0.5-1.1-0.6-2,0.3c-0.9,0.9-2.2,1-2.6,0.6c-0.4-0.4-1.8,0.5-2.6-0.2c-0.8-0.7,1.8-1.8-0.3-1.7c-2.1,0.1-2.5,1.3-3.4,1.4
		c-0.9,0.1-0.4-0.4-0.6-0.9c-0.3-0.4-1.4,0.4-2.2,0.3c-0.8-0.1-1.1-1.2-2.1-1.1c-1,0.1,2.2-0.4,2.4-1.1c0.2-0.7,1.7-0.3,2.4-0.4
		c0.8-0.1,0.4-0.5,1.9-1c1.5-0.4,2.2-0.1,3-0.4c0.8-0.3,2.4-1.4,1.5-1.5c-0.9-0.1-2-0.5-4.2-0.5c-2.2,0-2.2-0.2-2.6-1.1
		c-0.4-0.9-0.1-2.4,0.4-1.4c0.5,1,2.2,2.3,2.4,1.1c0.1-1.2,0-0.2,1-0.1c1,0.1,0.1-1.1,1.4-0.3c1.4,0.8,1.5,0.1,1.8-0.6
		c0.3-0.7,0.5-0.5,1.6,0c1.1,0.5,5-0.4,2.8-1c-2.2-0.7-0.7-1,0-1s0.4-0.5-0.1-0.7c-0.5-0.2,0.4,0.5,1.4-0.2c1.1-0.7,1.4-1.4,0.1-1.4
		s1.3-1.8,1.4-2.3c0.1-0.5-0.7-1.2-2.4,0.1c-1.7,1.4-0.9,1.4-1.9,0.7c-1-0.7-0.8-1.2-2.1,0.7c-1.3,1.9,0.1,2-2.1,2
		c-2.2,0-3.6-0.4-2.8-1c0.8-0.5,2.2-0.2,2.9-1.2c0.7-1,2.1-1.7,0.9-1.7c-1.2,0,0.5-0.8,0.9-1.6c0.4-0.8,0.7-2.6-1.1-0.4
		c-1.8,2.2-0.7,0.4-0.8-0.1c-0.1-0.5,0.1-0.7-1,0.8c-1.1,1.5-2.5,3-2,1.5c0.5-1.5,1.2-5.9,0.1-3.5c-1.2,2.4-0.5,3.1-2,3.1
		c-1.5,0,0.1-0.5-1.5-0.7c-1.7-0.2-3.1,0.1-2.7-0.5c0.4-0.7,0.1-0.9,1.8-1.1c1.7-0.2,0.9-0.4,1.5-1c0.6-0.6,1.2-0.9,1.2-1.5
		c0-0.7,0.9-2-1-0.6c-1.9,1.4-2.3,1.8-3,1.8c-0.7-0.1-0.5-1.8,0.8-2.2c1.3-0.4,4.1-1.5,1.2-1.6c-3-0.1-2.2-2.3-3-0.6
		c-0.9,1.7-0.8,2.1-1.7,2.3c-0.9,0.2-1.1-2.3-1.4-1c-0.4,1.3-0.6,2.6-1.6,2.6c-0.9,0-2.4-0.3-1.2-1.2c1.2-0.9,2-1.7,0.9-1.7
		c-1.1,0-1.7-0.3-1-0.9s0.8-0.2,2.2-0.6c1.4-0.4,1.4-0.5,0.9-1c-0.6-0.4,1.9-0.7,2.2-1c0.4-0.2-1.3-0.7-1.3-0.7s0.6-1.1,1.7-1.2
		c1.1-0.1,1.3-0.4,2.5-1c1.2-0.6-0.2-0.7,0.1-1.1c0.4-0.4,1.8-1.8,0.5-1.5c-1.3,0.4-3.4,1.5-2.4,0.7c1-0.9,1-2.2-0.3-0.9
		c-1.3,1.3-1.5,1.2-2.2,1.9c-0.6,0.7-1.3,1.2-1.9,1.3c-0.6,0.1-1.3,2.3-1.9,1.1c-0.6-1.2-2.7-1.7-0.6-2c2.2-0.3,2.9-0.1,3.5-0.8
		c0.6-0.7,0.8-1.7,0-1.8c-0.8-0.1-1.2,0.1,1.1-0.4c2.2-0.6,5.1-1.8,2.7-2c-2.4-0.2-4.5,0.5-3.2-0.3c1.4-0.8,2.4-2.2,1.4-1.7
		c-0.9,0.5,0.4-2.3-0.8-0.9c-1.2,1.4-1.9,1.8-2.4,2.3c-0.4,0.5-1.2,1.3-1.7,0.5c-0.5-0.8-0.4-1.3,0.6-1.5c0.9-0.2,3-1.2,1.7-1.4
		c-1.3-0.2,0.4,0,0.9-0.6c0.6-0.6,0.9-1.4-0.3-1.2c-1.2,0.1,1.9-2.1-0.1-1.2c-2,0.9-2.1,0.9-3.4,1.6c-1.3,0.7-1.5,1.6-2.2,0.8
		c-0.7-0.8,0.3-1.5,1.1-1.5c0.8-0.1,2.2-0.1,2.3-0.7c0.1-0.6-0.6,0.1,0.7-0.8c1.3-1,2.9-1.1,1.7-1.4c-1.2-0.3-3.7,0.5-2.6-0.4
		c1.2-1,2-1.5,2.3-1c0.3,0.4,1.8,0.6,1.2-0.4c-0.6-1,1.1-0.2,0.9-1.1c-0.1-0.9,0.1-1.8-1.7-1.2c-1.8,0.7-0.2,0.3-1-0.6
		c-0.8-0.9-0.6,0.1-1.7,1.2c-1,1.1-1.4,2.4-1.9,1.5c-0.4-1-1.9-0.1-2.2-1c-0.3-0.9-1.1-0.7,0.8-2.1c1.9-1.5,2.8-2.1,2.2-2.3
		c-0.6-0.1,1.5,0.9,2.4-0.5c0.9-1.4,1.7-2.7-0.5-1.8c-2.2,0.9-0.3,0-0.9-0.6c-0.6-0.6-0.5,0.2-1.4,0.2c-0.9,0-1.2-0.5-0.1-1.4
		c1.1-0.9,1.1-2.1,0.2-1.5c-0.9,0.7-0.6,0.5-1.3,0c-0.7-0.5-1-0.6-1,1c0,1.5-0.7,2.9-0.9,1.2c-0.1-1.8,0.3-1.5-0.7-2.2
		c-1-0.7-1.9,0.1-1.5-1.1c0.4-1.2-0.2-2.6-0.1-3.7c0.1-1.2,0.1-1.8-1.1-0.7c-1.2,1.1-1.8,3.3-1.8,1.6s-0.2-1.5-0.4-2.3
		c-0.2-0.7-0.7-3.9-0.9-2.2c-0.1,1.7,0.6,2.4-0.1,2.8c-0.7,0.4-0.3-0.8-1.4,0c-1.1,0.8-1.4,0.6-2.1,0.1c-0.7-0.4-2.4-1.1-0.9,0.7
		c1.5,1.8,3.7,4.3,2.7,3.9c-1.1-0.4-2.2-0.1-3.2-0.7c-1.1-0.6-3.4-2-2.3-0.2c1.1,1.8,2.6,1.6,2.2,2.3c-0.4,0.7-2.5,0.2-0.9,1.4
		c1.7,1.2,3.1,1.7,2.4,1.8c-0.7,0.1-2.7-1-4.1-2.1c-1.4-1.1-2.6-2.4-1.3,0.2c1.3,2.6-1.4,1.4-0.6,2c0.8,0.6,1.4-0.1,1.8,0.9
		c0.4,1,0.9,1.7,0,1.7c-0.9,0,0.3,0.4-0.9,0.5c-1.2,0.1,0.1-1.8-1.9-0.7c-1.9,1.1-0.2,1.9-0.2,1.9s0.9,1.8,1.9,1.5
		c0.9-0.3,2-0.9,1.7,0c-0.3,0.9,0.6,1,1.3,1c0.6,0,2.3,1.3,1.5,1.5c-0.8,0.2-1.9-0.3-3-0.4c-1.1-0.1-1.3-1-2.6-1.2
		c-1.3-0.1-2.4-1-2,0.1c0.4,1.2,2.4,1.9,2.4,1.9s-2.2,0-2.5,0.6c-0.3,0.6,1,1.5,2.1,1.5c1.1-0.1,0.7,0.8,1.8,1
		c1.2,0.2,0.7,1.8-1.1,0.7c-1.7-1.1-1.4-1.2-3.8-2.4c-2.3-1.2-3.8-2.7-2.9-1c0.9,1.8,0.1,1.3-0.9,1.6c-1,0.3,0.1,1,1.2,1.2
		c1.1,0.3,2,1.1,1.2,1c-0.9-0.1-2.4,0.7-0.6,0.8c1.8,0.1,5,1.5,3.5,1.3c-1.5-0.3-4.8-1-5.3-0.6c-0.6,0.4,1.9,1.8,0.3,1.8
		c-1.7-0.1-3.4-0.9-2.3,0.1c1.1,1,1.4,1.3,2.2,1.7c0.8,0.4,0.5,0,1.6-0.3c1.1-0.3,0.9-0.7,1.8,0.2c0.9,1,1.7,0.7,1.9,0.1
		c0.3-0.5,0.4,0.1,0.9,0.2c0.6,0.1,1.3-1.4,1.3,0c0,1.4-0.7,3.7-1.2,2.9c-0.5-0.9-1.7-2.3-2-1.2c-0.4,1.1-1.1,1.7-1.7,0.7
		c-0.6-1-0.6-0.9-1.3-0.4c-0.7,0.5-2-1.8-3.5-1.6c-1.5,0.1-0.6,0.7,0.3,1.6c0.9,1-1.7,0.7-0.8,1.2c0.9,0.5,1.7,1.4,2.4,1.7
		c0.7,0.3-3-0.1-3-0.1s-1.2,1.6-0.3,2.1c0.9,0.4-0.6,1.5,0.7,1.6c1.3,0.1,1.4-2.5,1.6-0.5c0.1,2,0.3,3.2,0.8,2.1
		c0.5-1-0.4-1.3,0.7-0.2c1.2,1.1,1.2,0.8,1.8,0.2c0.7-0.6,0.3,0.3,1.3,0.4c1,0.1,1.1-0.5,1.9-1c0.8-0.4,0.6-0.7,0.8,0.9
		c0.2,1.5,0.7,2.2,1,1c0.3-1.2,1.5-1.2,1.6-0.5c0.1,0.7-2,0.7-1.1,1.8c0.9,1.1-2.5,0.8-2.7,0.9c-0.1,0.1,0.2,0.8-1.5,0.2
		c-1.7-0.6-2.1-1.8-2.2-1.2c-0.1,0.7-1.2,1.2-1.6,0.2c-0.4-1-0.7-2.5-1.7-1.5c-0.9,1-2.4-0.1-2,0.6c0.4,0.7-0.8,0.9,0.5,1.4
		c1.3,0.5-1.9,0.4-0.4,1.2c1.6,0.7,3.3,2.1,1.9,1.6c-1.4-0.4-2.6-1-1.9-0.1c0.7,0.8-2.4,2.6-0.2,2.5c2.2-0.1,0.9,0.3,2.2,0.5
		c1.4,0.2,0.4,0.7,2.2,0.6c1.9-0.1,2.7-0.3,2.9,0.4c0.1,0.7-0.4,0,1.3,0.4c1.7,0.4,0.9,1.3,2.4,1.1c1.6-0.2,4.5-1.7,2.5-0.2
		c-1.9,1.5-2.8,2.4-4.6,1.3c-1.8-1.1-0.3-3.2-1.6-2.3c-1.3,0.9-1,1.9-2.6,0.6c-1.5-1.3,0.4-0.2-1.9-0.5c-2.3-0.3-2.4-1-3-0.7
		c-0.6,0.2-2.2,0.7-0.8,1c1.4,0.3-1.5,0.8-0.4,1.1c1.2,0.3,3.5-0.9,2.9,0.1c-0.6,1-2.7,1.8-1.1,1.8c1.6,0,0.8-0.8,3,0.4
		c2.2,1.2,1.9,0.8,2.7,1.2c0.8,0.4,0.9,1,1.5,1.4c0.6,0.4-3.7-0.2-4.5-0.5c-0.7-0.3-0.9,0.1-1.2,0.2c-0.2,0.1,0.1-1-1.1-1.1
		c-1.2-0.2-1.7,0-1.7,0.5c0,0.5,0.9-0.1-0.9-1.2c-1.8-1.1-1.9-1-2.2-0.4c-0.3,0.6-0.6-0.4-1.4-1.2c-0.8-0.7-2.7-0.4-1.4,1.3
		c1.4,1.6,2.6,1.8,1.7,2.4c-0.9,0.6-1.6,1,0.7,1.2c2.3,0.3-1.4,1.6,0.4,2.4c1.8,0.8,0.7,0.5,3.5,0.7c2.7,0.2,0.1-0.2,1.3,1.1
		c1.2,1.3,1.8,1.2,2.5,1c0.6-0.2-3,3.8-0.4,2.7c2.5-1.1,3.8-1.8,4.6-1.8c0.8,0-1.4,1.2,1.2,0.7c2.7-0.4,4.2-0.4,3.7-0.1
		c-0.5,0.3-3.5,2.2-5.1,1.6c-1.6-0.6-2.5-0.2-2.5-0.1c0,0.1-2,2-2.4,0.8c-0.4-1.2-1.8-2.2-1.5-1.2c0.3,1-0.1,3-1,1.6
		c-0.9-1.4-3.7-3.7-3-2.4c0.7,1.3,0,1.7-1.1,0.6c-1.1-1.1-2.5-1-2-0.4c0.4,0.6-0.2,1.3-0.7,0.6c-0.5-0.7-1.2,0.1-1.7-1.2
		c-0.4-1.3-1.2,0.1-1.2-0.5c-0.1-0.6-0.1-2.3-0.9-2.4c-0.7-0.1-3,0.5-1.5,1.7c1.5,1.2,3.3,3.2,2.6,3.5c-0.7,0.4,2.2,2,0.9,1.8
		c-1.3-0.1-4.2-0.2-2.1,0.4c2.1,0.6,3.7,1.1,4.3,1.6c0.6,0.5-0.9,0.8,2,0.8s6,0,5.7,0.6c-0.3,0.6-1.3,1-2,0.2
		c-0.7-0.8-1.9-0.7-3.7,0c-1.8,0.7-1.9,0.2-3.4,0c-1.4-0.2-1.8-1.8-2.1-0.1c-0.3,1.7,1.5,2.1,1.9,1.9c0.4-0.1,0.9,1.5,0.1,1.8
		c-0.8,0.3-2.2,1.5-0.4,0.9c1.9-0.6,1.9-0.3,3,0.1c1.1,0.4-1,1,2.2-0.1c3.2-1.1,1.5-1.3,3.6,0.1c2.1,1.4,1.1,0.9,2.9,0.4
		c1.8-0.5,0,0.1,1.7,0.4c1.7,0.3,3.4-1.1,2.3,0.7c-1.1,1.8-1.8,1-3,1.4c-1.1,0.4-1.7-1-1.1,0.7c0.5,1.7,0.2,2.3-0.9,1.3
		c-1.1-1-2.1-3.4-2.9-1.9c-0.8,1.5-1.9,0.4-2.9-0.1c-0.9-0.5-3.2-2.4-2.3-0.4c0.9,1.9,1.5,2.6-0.9,1c-2.4-1.5-5.9-6.2-5.8-3.9
		c0.1,2.3-0.6,1.8-1.6,2.7c-1,0.9-1,0.4,0.1,2.3c1.2,1.9,1.4,4,2.4,4.1c0.9,0.1,1.2,1.6-0.8,0.1c-2-1.5-2.1-1.5-3.1-2.7
		c-1-1.2-2.5-0.7-1.9,0c0.6,0.7-0.1-2.4-0.9-0.7c-0.8,1.8-2.4,2.6-0.5,3.2c1.9,0.6,1-1-0.7,1c-1.7,2-1.5,1.8,0.8,1.5
		c2.3-0.3,0.9,0.6,1.3,1.5c0.4,1,1.2,0.4,2.5,0.4c1.3-0.1-2.1,1.9-0.5,1.7c1.6-0.2,4.9-0.7,4.9-0.7s-5.5,1.8-2.5,1.2
		c3.1-0.7,6.9-1.4,4.9-0.4c-2,1-5.3,1.8-3.2,1.9c2.1,0.1,1.8-2.3,2.3-0.2c0.5,2.1,1.6,3.4,2.1,1.9c0.5-1.5,0.3-2.3,1.4-1.3
		c1.1,1,1.7-0.2,2.1-1.1c0.4-0.9,1.2-1.3,1.4-0.1c0.2,1.2,0.5,1.1,1.5-0.1c1-1.2,0.6,0.5,1.6-0.2c1-0.7,2.2-3.3,1.9-1.5
		c-0.3,1.8-0.1,4.4,0.5,2.8c0.6-1.6,1.1-3.6,1.9-2.6c0.9,1,1.8,0.1,2.5,0.2c0.7,0.1,2.2,1.2-1.2,1.8c-3.3,0.6-3.5,0.1-0.9,1.5
		c2.6,1.3,3.6,3,0.4,1.3c-3.2-1.7-7.3-3.9-5.3-1.8c2.1,2.1,0.1,2.3-0.9,1.5c-1-0.7-3.5-2.2-1.9-0.7c1.7,1.5,5.2,4.4,2.2,3.1
		c-3-1.3-3.1-1.4-3.1-0.9c0,0.5-2-0.2-3.5-0.7c-1.5-0.5-5,0.1-3.9-0.1c1.2-0.2-3.1,1.4-2.2,1.8c0.9,0.4-1.2,0.7,0.6,1.7
		c1.9,1,2.5-1.6,3.5-0.1c1,1.5-0.8,1.5-1.8,1.2c-1-0.2-5,1.5-2.6,1.5c2.4-0.1,2.4-0.8,3,1c0.6,1.8,1.7,0.5,2-0.1
		c0.3-0.6,2.7-0.8,2.9-0.1c0.1,0.7-3.5,2.1-2.2,1.9c1.4-0.1,0.7-1.5,1.7,0.3c0.9,1.8,1.3,1.2,1.2,0.7c-0.1-0.6,1.7,2.1,2,0.7
		c0.3-1.4-0.3-2.9-0.3-2.9s0.2,2.1,1.7,2c1.5-0.1,1.5-1.1,2-1.1c0.5,0-1,1,1,1.4c2,0.4,1.2,0.7,2.5,0c1.2-0.7,0.9,1,2.7,1.5
		s-2.3,1-3.8,0.8c-1.5-0.1-1.1,0.2-2.1,0.5c-1,0.3-0.8-0.1-3.5-0.3c-2.7-0.2-3.5-2.1-3.1-0.3s0.1,3.1-1.4,1.3
		c-1.5-1.8-2.5,2.2-3.3-0.5c-0.8-2.7-3.6-6.7-3.5-4.8c0.1,1.9-1.7,0.5-2.1,0.4c-0.4-0.1-0.2,1.2-0.5,2c-0.3,0.8-0.6-2.2-2.5-2.1
		c-1.9,0.2-1.6,1-1.4,1.5c0.2,0.5-1.9,0.3-1.1,1.2c0.8,1,2.5,3,1.3,2.1c-1.2-0.9-0.6-1.1-2.6-1.9c-1.9-0.8-2.2,0.1-1.7,1.1
		c0.5,1-2.5,1.6-0.9,2.5c1.7,0.9,1.2,0.2,0.9,1.5c-0.4,1.2-0.6,1.1,0.7,1c1.4-0.2,1.4,0.2,1.2,1.3c-0.3,1.1-0.9,2.2,1.4,1.7
		c2.3-0.5,1,0.3,0.9,1.1c-0.1,0.8-0.1,1.2,0.9,0.5c1.1-0.7-0.4,0.8,0.9,1.1c1.4,0.3,0.9-0.1,1.9-0.6c1-0.5,3.1-0.8,1.9,0.4
		c-1.2,1.2-1.7,2.6,0.6,1.4c2.3-1.2,4.8-2.3,3.8-1c-1,1.3,1.3,0.9,1.4,1.6c0.1,0.7,1.9,1.5-1.9,1c-3.8-0.6-7.9-1.3-5.8-0.1
		c2.1,1.2,2.2,2,1.9,3.7c-0.3,1.7-0.1,1.6,1.5,0.4c1.6-1.2,4.6-3.7,1.8-0.2c-2.8,3.5-3.1,4.3-1.9,3.5c1.2-0.9,1.5,1,2.4-0.3
		c0.9-1.2-0.3-0.6,1-0.3c1.3,0.3,1.4,1.5,1.7-0.1c0.2-1.6,0.3-2.1,0.6-1.3c0.3,0.9,1.7,2.1,1.9,0.6c0.2-1.5,0.6-2.1,1-1.6
		s3-1.4,2.1,0c-0.9,1.4,2.2,3.3-0.4,3.8c-2.5,0.5-5.5,0.6-4.6,1c0.9,0.4-1.2,0.3-2.2,0.4c-1.1,0.1-2.1,0.2-1.5,0.8
		c0.6,0.6-1.3,0-1.8,0.7c-0.5,0.7-0.3,1.1-0.7,1.8c-0.4,0.7-0.7,2.3-1.7,0.2c-1-2.1-2.6,1.7-3.3-0.4c-0.7-2.1-2.6-4.2-2.4-2.1
		s-5-1.1-2.8,0.6c2.2,1.7-0.3,0.4,0,1c0.3,0.6-0.9,0.8,0.5,1.1c1.4,0.3,2.3,2.1,0.6,1.4c-1.7-0.7-6-1.9-4.2-0.1
		c1.7,1.8,2,1.7,1.4,2.2c-0.6,0.5-2.5,2.1,0,1.2c2.5-0.8,1.4,0.2,2.4,0.4c0.9,0.2,0.8,0.2,1.7-0.1c0.9-0.4,2.1-0.9,2,0.3
		c-0.1,1.2-0.1,3.1,0.6,2c0.8-1.1-0.5,0.7,1.2-0.1c1.7-0.8,1.9-1,2.5-1.1c0.6-0.1,0.3,2.2,1,0.9c0.7-1.3,1.9-2.5,1.9-1.6
		c0.1,0.9-1.7,1.8-0.4,1.8c1.3-0.1,2.2-1,2.2,0.5c-0.1,1.5,0.9,2.5,1.2,1.6c0.3-0.9,0.4-0.1,2-0.7c1.6-0.7,1.6-1,2.2-1.8
		c0.6-0.9-0.1,0.1,1.6-0.4c1.7-0.6,2.1,0.4,2.3-0.7c0.2-1.1,0.5-1.2,1.1-0.1c0.6,1,1.7,1.2,1,2c-0.6,0.7-3.4-1.1-3.2,0.1
		c0.1,1.2,1.3,2.6,0.9,2.6c-0.4,0-3.3-0.4-3.8-0.1c-0.5,0.3-2.2,1-0.1,1.3c2,0.3-1.5,0.7-2.6,0.4c-1.1-0.4-0.7,1-1.4,0.7
		c-0.7-0.3-2.3-2.2-3.2-2.1c-0.9,0.1-1.2,0.5-0.9,1.5c0.3,1-4,0-2.4,0.9c1.5,0.9,4,1,3.7,1.3c-0.2,0.2-1.2,0.2-1.5,0.5H200z"/>
	<path class="st3" d="M281.4,297.7l0-0.7c0,0,0.8-0.5,2-0.8c0,1.7,0,0,1.2,1.2c0.2,0.1,0.3,0.2,0.4,0.3h0.3c0.5-0.2,0.6-1.4,1.8-0.6
		c1.6,1.2,1.1-0.9,1.1-0.9c0.3,0.1,0.6,0.1,1,0.2c0,0,0.1,0,0.3,0.1c1,0.3,1.8,0.6,2.4,1.2h17.2c0,0,0-0.1,0-0.2
		c0-0.9-1.5-1.9-2.8-2c-1.2-0.1-2.2,0.1-2.9-0.9c0.3-0.6,0.9-1.6,1.8-2.5c2.1-2.1,1.5-0.5,1.6,1.3c0.1,1.9,2.4,0.4,4-0.1
		c1.6-0.5-1.2-0.5-1.1-2.6c0.1-2-1.3-1.8-0.7-1.8s2.2,1.6,3.8,1.2c1.6-0.4-1.2-2.3,0.9-2.2c2.1,0.1,1.3-0.8,1.7-1.5
		c0.4-0.7-1.3-2-1.3-2s0.7-1.4,0.3-3c-0.4-1.6-3.2-0.5-2.4-1.1c0.8-0.5-0.5-1.2-1.3-0.9s-1.9,0.8-1.9,0.4s-0.3-0.7-1.3-0.3
		c-1.1,0.4-1.7-0.3-1.7-0.9c0-0.7-1.8-0.5-3.2,0.8c-1.3,1.4-1.9,0.4-1.9-0.8c0-1.2-2.8-0.5-4.1,0.1c0,0-2.2,1.8-1.6,3.1v0
		c-0.8-1.1-0.1-1.5-1.7-2.3c-0.2-0.1-0.4-0.2-0.7-0.2h0c1.1,0.2,1.4-1.7,2.2-1.7s1.7-1.1,1.5-2.2c0,0,0.2-0.8-0.1-1.4l0,0
		c1.4-0.4,1.8-1.4,2.8,0.1c0,0.7,1.7,0.7,1.7,0.7s0.5,0.3,1.9,0.5c1.3,0.3,2.1-2,2.2-0.5c0.1,1.5,1.6,3.6,1.6,2.4
		c0-1.2,1.9,3.4,1.9,0.7c0-2.7,0.3-1.5,0.9-2.8c0.7-1.3,2,0.8,2.8,0.4c0.8-0.4-0.8-2.4,0.5-2.2c1.3,0.3,2.9,0.8,2.1-0.4
		c-0.8-1.2-2.1-0.3-1.1-2.3c1.1-2-0.3-1.6-1.5-2c-1.2-0.4-0.9-0.5-0.7-2.3c0.3-1.7,1.3-0.7-1.7-1.6c-3-0.9-2.2-3.1-3.4-1.8
		c-1.2,1.3-1.9,3.5-2.8,2.2c-0.9-1.3-0.5-1.5-2.4-2c-1.9-0.5-4.4-0.9-4.5-0.3s0.8,2.4-1.8,0.9c-2.6-1.5-2.8-1.8-3.4-1.2
		c-0.7,0.5-0.8,0.4-1.7-0.7c-0.9-1.1-1.5-0.5-1.9,0.1c-0.4,0.7-3,2.4-3.2,0.7c-0.1-1.6-0.9-3.4-1.8-2.9l0.1-0.1
		c1.5-1,2.8-2.2,2.8-2.2c1.1,1.2,0.7,2.2,2.8,1.1c2.1-1.1,2-2,2.9-0.5c0.9,1.5,3.2,2,2.9,1.2c-0.3-0.8-0.4-0.9,2,0.4
		c2.4,1.3,4.4,2.7,4.2,1.5c-0.1-1.2,0.4-1.6,1.7-0.9c1.3,0.7,3.8,2,3.3,0.4c-0.5-1.6,2.9,0.9,2-1.2c-0.2-0.5-0.4-0.9-0.6-1.1
		c0.7,0.8,1.9,1.6,2.1,0.8c0.3-0.9,5.6,3,4,0.8c-1.6-2.2-1.2-0.1-0.1-2.3c1.1-2.2,1.2-1.8-0.5-2.7c-1.7-0.9-1.9,0.4-1.7-1.3
		c0.7-2,7.9-2,3.6-3.1c-4.4-1.1-6.6-1.1-4.8-2.2c1.9-1.1,4.4-1.2,1.9-2c-2.5-0.8-0.3-2.6-2-3c-1.7-0.4-2.2-3.8-2.9-3.1
		c-0.7,0.7-1.5,0.8-3.3-0.1c-1.8-0.9,0.3-0.7-1.8-0.9c0.4-0.8,0.7-1.4,0.7-1.4s1.7,0.9,1.7-0.9c0-1.9-0.8-3-2-3.6
		c-1.2-0.7-3.3-2.3-3.3-2.3l0,0c0.2-0.2,0.1-0.4-0.5-0.4c-1.6,0-0.5-0.4,0-1.8c0.5-1.3-1.5-0.7-2.5-0.9c-1.1-0.3-2.2,0.1-2.5-1.5
		c-0.3-1.6-1.1-0.3-2.5-0.4c-1.5-0.1-3.4-5.5-4.1-3.5c-0.7,2-2.5-0.4-3.4,0.7s-2.2,0.4-2.9,0.8c-0.7,0.4-0.5-1.8-1.5-0.1
		c-0.9,1.6-5.4-0.1-5.7-0.3c-0.3-0.1,0.4-3.4-1.1-1.8c-1.5,1.6-4-0.9-4.2,0.4c-0.3,1.4-3.3,1.6-3.2,3c0.1,0.6,0,0.9-0.1,1.1l0,0
		c-4.2,1.4-3.1,2.2-8.7,1.7c-3.4-0.3-4,0.8-4.5,1.8c-0.5,0.1-1,0.5-1.6,1.4c-2.4,0.3-3.4-3-5.8-3.2c-2.4-0.3-2.6-0.8-4,1.9
		c-1.3,2.7-1.9,0.3-3.7,2.4c-1.9,2.2-2.6,3.5-1.9,5.7c0.8,2.2-7.1-2.4-7.7-0.8c-0.5,1.6,0.8,2.2-0.8,4.6c-1.6,2.4-4.2,0.3-4,3.2
		c0.3,3-3.4,5.4-2.4,7.8c1.1,2.4-7.5,2.6-1.1,4.6c2.9,0.9,4.8,1.9,6,2.5c-1.1,0.8-3.3,1.7-1.6,2.4c2.1,0.8,1.5,2.7,0.1,2.3
		c-1.3-0.4-1.6,1.5,0.1,1.5c1.7,0,0.7,1.6,0.3,2.7c-0.4,1.1,0.4,2.4,1.1,1.8c0.7-0.7-2.6,3.4,0.3,2c2.9-1.4,4.6-0.4,3.6,0.1
		c-1.1,0.5-1.6,5.7-0.7,2.7c1-3,2.1,1.1,3.8-1.4l0,0c0,0.4,0,0.9,0,1.4c0,2.3,0.1,1.1-1.2,3.2c-1.3,2.2,0.8,1.3,1.7,1.1
		c0.9-0.3,2,0.5,1.6,3.4c-0.4,2.8,2,0,2.1-1.6c0.1-1.6,2.6-1.9,2.5,0.4c-0.1,2.3-0.3,1.3,1.7,1.8c2,0.4,2.5-2.5,2.5-2.5l0,0
		c0.4,0.4,0.3,0.6,2.6,0.3c0.9-0.1,1.7-0.4,2.4-0.7c-1.3,2,0.9,1.8,2,2.1c1.1,0.3,0.5-0.7,2.8-1.6c0.8,0.3,1.7,0.6,2.6,0.6
		c2.4,0.1,3.8-1,5.4-2.3c1.1,1.8,1.6,3.3,2.9,2.5c1.3-0.8,3.6,0.3,2.8-1.5c-0.4-0.9-0.5-1.2-0.5-1.6c1.7,0.9,3.5,2,4,4.2
		c0.1,0.3,0.2,0.7,0.4,1l0,0c-1.2-1.7,0,0-2.3,1.3c-2.3,1.3-0.5-0.1-2.5-1.6c-2-1.5-1.7,1.5-1.7,1.5s-1.6-0.7-3.2-0.1
		c-1.6,0.5-1.7,0.4-1.9-0.9c-0.1-1.3-1.1,0-2.4,0c-1.3,0-1.9,1.6-3,2.8c-1.2,1.2-0.8,0.3-1.7,0c-0.9-0.3-1.9,0.1-3,1.1
		c-1.2,0.9-0.4,0.7-1.7-0.1c-1.3-0.8-1.7-0.5-4.2,1.4c-2.5,1.9-2.3,0.4-2.1,1.1c0.1,0.7-0.5,1.1-1.5,1.8c-0.9,0.7,0.5,1.5,0.3,3.5
		c-0.3,2,1.1,0.5,2.4,1.5c0.3,0.2,0.4,0.4,0.4,0.7h2.8c0.7-0.5,2.4-0.9,2.5,0l0,0H281.4L281.4,297.7z M254.9,234.7L254.9,234.7
		C254.9,234.7,254.9,234.7,254.9,234.7L254.9,234.7z M245,235.2c-0.5,0.1-0.9,0.2-1.2,0.3C244.1,235.3,244,235,245,235.2L245,235.2z
		 M242.6,235.6c-0.1,0-0.6,0-1.2,0.3C241.8,235.7,242.2,235.6,242.6,235.6L242.6,235.6z M239.9,237.5c-0.6,1.1-0.8,2.1-1.4,3
		C238.8,239.7,239.3,238.5,239.9,237.5L239.9,237.5z M236.6,242.4c-0.1,0.1-0.2,0.1-0.3,0.2C236.4,242.5,236.5,242.4,236.6,242.4
		L236.6,242.4z M232.2,245.4c-0.2,0.5-0.4,0.8-0.6,1.1C231.7,246.1,231.9,245.8,232.2,245.4L232.2,245.4z M226.6,256.1
		c1.3,0.6,2.4,1.1,3.3,1.6l-0.3,0.1c0,0,0,0,0,0.1c-1-0.4-1.9-0.7-2.4-0.2c-0.3,0.4-0.8,0.7-1.2,0.9l0,0
		C226,256.9,226.2,256.4,226.6,256.1L226.6,256.1z M231.6,258.4c0.5,0.2,0.9,0.3,1.2,0.4c-0.3,0.5-0.7-0.2-1.6-0.4l0,0
		C231.4,258.4,231.5,258.4,231.6,258.4L231.6,258.4z M239.8,255.9c0.1-0.1,0.2-0.2,0.3-0.3l0.8,0.5
		C240.9,256.1,240.9,255.9,239.8,255.9L239.8,255.9z M241.2,253.7c0.3-1.2,0.3-2.3,0.3-3.1c0.1,0,0.2,0,0.3,0c1.5,0,8.2,4.2,6,4.2
		c-2.3,0-1.3,1.9-4.1,0.1C242.7,254.5,241.9,254.1,241.2,253.7L241.2,253.7z M241.3,249.2c0.1-0.6,0.7-0.4,3,0.9l0,0
		C243.1,249.6,241.9,249.3,241.3,249.2L241.3,249.2z M253.3,254.1L253.3,254.1c1.4-0.5,1.6-0.9,3.3-1c-0.5,0.1-0.9,0.1-1.2,0.2
		C254.6,253.6,254,253.9,253.3,254.1L253.3,254.1z M259.3,253L259.3,253c3.3,0,6.6-0.8,8.8-1.3c1.1,1.8,2.9,4.8,3.4,5.5
		c0.7,1.1,1.3,2.2,1.3,2.2l4.4,5.3c-1,0.3-0.8,1.1-0.9,1.7l-0.6,0.6c-0.4,0.1-0.8,0.3-1.1,0.7l0-0.1c-0.1-0.1-0.1-0.2-0.2-0.3l0,0
		c-0.4-0.6-0.6-1.1-0.6-1.6c0-1.8,0.4-4.7,0.4-4.7l-1.3-1.5l-1.1,3.5c0,0-0.4-0.4-1-1c1.4-3.5,0.5-4.6-0.8-3.4
		c-1.3,1.2-1.2-0.4-2.9-1.9s-0.1-4.5-2.1-3.5c-2,0.9-0.5-1.1-2,0.9C262.2,253.4,260.8,253.1,259.3,253L259.3,253z M269.8,251.3
		c1.4-0.3,1.1,2.2,2.3,0.9c0.4,0.6,0.7,1,1,1.2c1.1,0.5,1.5,1.6,1.5,1.6s0,3-0.8,1.9C272.9,255.7,270.2,252.7,269.8,251.3
		L269.8,251.3z M272.9,250.7c2.2-3.9-0.4-6.2-0.4-6.2c1.6-0.1,1.2,2.6,2.6,2.3c0.9-0.2,2.2,0.7,3,0.9c-0.2,0.3-0.4,0.6-0.7,1
		c0,0.1-0.1,0.1-0.1,0.2l-0.1,0.1c-0.7,1.2-1.3-0.2-1,1.9c-0.5,1-1,1.7-1.3,1.4C274.3,251.8,274.1,252.1,272.9,250.7L272.9,250.7z
		 M263.1,230.5l-0.1,0.3l0,0C263.1,230.7,263.1,230.6,263.1,230.5L263.1,230.5z M263.1,232.3c0.1,0,0.1-0.1,0.2-0.1l-0.1,0.1
		L263.1,232.3L263.1,232.3z M306.2,251.5c-0.8-0.1-1.1-0.2-1.4-0.7C305,250.8,305.5,251,306.2,251.5L306.2,251.5z M304.3,249.4
		c-0.2-0.8-0.7-1.4-1.4-1.8C303.6,247.6,304.1,247.8,304.3,249.4L304.3,249.4z M300.5,246.5c-1.5-0.3-1.6-0.9-2.8-1.6
		c-0.2-0.1-0.4-0.2-0.6-0.4C299,245.7,298.7,244.5,300.5,246.5L300.5,246.5z M296.8,244.4c-0.6-0.4-1.2-0.8-1.9-1.2
		C295.3,243.3,295.7,243.6,296.8,244.4L296.8,244.4L296.8,244.4z M292.9,242.6L292.9,242.6L292.9,242.6L292.9,242.6L292.9,242.6
		L292.9,242.6z M292.6,242.5L292.6,242.5c0,0.1-0.1,0.2-0.1,0.2L292.6,242.5L292.6,242.5z M291.6,239.5c-0.1-0.1-0.2-0.2-0.3-0.3
		L291.6,239.5L291.6,239.5L291.6,239.5z M279,242.6c0.5,0.7-0.1,2.2-0.2,3.2C278.3,244.6,277.3,243.7,279,242.6L279,242.6z
		 M279.1,247L279.1,247L279.1,247L279.1,247L279.1,247L279.1,247z M291.6,236.3c-1-0.1-2.1-0.6-2.4-1.4
		C289.8,235.3,290.6,235.8,291.6,236.3L291.6,236.3z M282.3,234.2c-0.4-0.2-0.7-0.3-0.9-0.5C281.8,233.9,282.1,234,282.3,234.2
		L282.3,234.2z M280,233.3c-0.2,0-0.3,0-0.4,0C279.7,233.3,279.8,233.3,280,233.3L280,233.3z M277.1,234c-0.4,2.1-2.3,2.2-3,3
		C275.2,235.8,276.1,234.7,277.1,234L277.1,234z M273.9,237.3c-0.6,0.7-0.8,1-1.4,1.5c0.2-0.2,0.5-0.5,0.8-0.9
		C273.5,237.7,273.7,237.5,273.9,237.3L273.9,237.3z M297.6,235.1c-0.4-0.3-0.9-0.6-1.4-1l0.2-0.3
		C297.1,234.2,297.6,235.1,297.6,235.1L297.6,235.1z M272.5,230.9c-0.8,1.9,0-0.3-2.8,0.2C271.2,230.7,271.5,230.5,272.5,230.9
		L272.5,230.9z M265,230.7l-0.3,0.2C264.9,230.8,264.9,230.7,265,230.7L265,230.7z M283.2,249.3c-0.6,0.7-0.9,0.6-1.3,0.2h0
		C282.3,249.4,282.7,249.3,283.2,249.3L283.2,249.3z M280.1,248.2c-0.4-0.2-0.8-0.3-1.1-0.3c0.2-0.4,0.3-0.7,0.3-0.8l0,0
		C280,247.1,280.1,247.6,280.1,248.2L280.1,248.2z M307.2,258.4L307.2,258.4L307.2,258.4L307.2,258.4L307.2,258.4z M306.8,257.9
		L306.8,257.9L306.8,257.9L306.8,257.9L306.8,257.9z M285.3,255.4c-1.7,0.8-3.3,1.8-3.8,2.6c-1.1,1.5-1.7,2.4-2.5,2.4
		c-0.4,0-1.1-0.3-1.7-0.7v0c2.1-3.2,3.6-4.5,4.9-3.8C283.3,256.5,284.7,253.2,285.3,255.4L285.3,255.4z M276,258.9
		c-0.2-0.1-0.4-0.2-0.4-0.2s0.3-2.8,1.1-5.7c0.1-0.2,0.2-0.5,0.3-0.8c0.6,0.8,1.3,1.1,0.4,2.1C276.6,255.1,276.1,257.4,276,258.9
		L276,258.9z M234.2,258.1c1.7-0.2,3.6-0.3,5.6-0.4c-1.3,0.1-2.5,1.7-3.8,1.5C235.4,259.1,234.7,258.5,234.2,258.1L234.2,258.1z
		 M239.9,257.8c1.3-0.1,2.7-0.2,4.2-0.4c1-0.1,2-0.3,3-0.4c0,0-2.6,1-2.3,1.7c0.3,0.7-0.4,4.9-1.1,2.6c-0.7-2.3-1.5-2.2-2.1-2
		C240.9,259.4,241.1,257.7,239.9,257.8L239.9,257.8z M248.2,256.8c1.1-0.2,2.1-0.3,3.1-0.5C250.4,256.5,249.1,256.7,248.2,256.8
		L248.2,256.8z M251.8,256.3c1.3-0.2,2.6-0.3,3.9-0.3c3.6,0,3.6-1.7,5.9,0c-2.7-0.5-5,0.1-6.4,1.6c-0.5,0.5-0.9,0.9-1.3,1.1l0,0
		C253.7,256.4,253,256.2,251.8,256.3L251.8,256.3z M252.8,259.4c-0.1,0.1-0.2,0.2-0.2,0.4c-0.1,0.4-1.2,0.3-2.1,0.5l0,0
		C251.4,260,252.2,259.7,252.8,259.4L252.8,259.4z M250.3,260.3c-0.7,0.2-1.3,0.5-1.3,1.4c0,0.9-0.9,1.5-1.8,2.1l0,0
		c-0.2-0.6-0.7-0.8-1.4-0.7l0,0C247.9,260.6,248.3,260.7,250.3,260.3L250.3,260.3z M244.3,263.8c-0.8,0.5-1.6,1.1-2.4,1.7
		c-0.9-0.7-1.6-1.2,0.7-1.7C243.5,263.6,244,263.7,244.3,263.8L244.3,263.8z M240.5,268.9c-0.1,0-0.1,0.1-0.2,0.1l0,0
		C240.3,269,240.4,268.9,240.5,268.9L240.5,268.9z M234.5,271.3c-0.1,0-0.1,0.1-0.2,0.1L234.5,271.3L234.5,271.3L234.5,271.3z
		 M250.4,267.8c0.9-0.9,1.6-1.5,2.3-1.8c0,0.1,0,0.3,0,0.5c-0.6,0.1-1.2,0.3-1.7,0.9C250.8,267.5,250.6,267.7,250.4,267.8
		L250.4,267.8z M255.7,267.3c0.9,0,1.7,0,2.4,0c-0.8,0.9-1.6,1.4-2.2,1.9C256.2,268.5,256.1,268.5,255.7,267.3L255.7,267.3z
		 M255.6,271.1c0.9,1.5,5.2,1.8,5.2,1.8s0.9,0.5,0.6,1.6c-0.1,0.2-0.2,0.6-0.3,1.1c-2-0.6-3.8-1.1-5.2-1.4l0,0
		C257.5,272.7,255,273.9,255.6,271.1L255.6,271.1z M254.8,275.6c1.2,0.3,2.3,0.7,2.8,0.9c1.3,0.5,2.1,2,1.3,2.3
		c-0.8,0.3-0.7,0-2.9-1c-0.9-0.4-1.6-0.7-2.1-0.9l0,0C254.5,276.6,254.5,276.2,254.8,275.6L254.8,275.6z M253.5,277.6l0.1,0.1
		c1.9,0.8,3.6,1.7,3.3,2.2c-0.3,0.5,0.1,1.1-2.5,0.1c-0.3-0.1-0.6-0.2-0.9-0.3C253.6,279,253.5,278.2,253.5,277.6L253.5,277.6z
		 M246.8,276.6c-0.2,0.3,0.3,0.8,0.8,1.3c0.2,0.4,0.3,0.8,0.3,1.2c-0.7,0.3-1.6,0.7-2.4,0.9c-0.4,0.1-1,0.2-1.6,0.3
		c0.5-0.4,0.9-0.9,0.8-1.4C244.5,277.5,246.8,276.6,246.8,276.6L246.8,276.6z M269.3,264.6c0.7,0.9,1.4,1.8,2,2.6
		c-0.8-0.2-1.5-0.1-1.8,0.5c-0.5,1.1-1.1-1.3-1.8-1.4v0C268.4,265.3,268.8,265.1,269.3,264.6L269.3,264.6z M267,267.2L267,267.2
		c-0.8,2.2-1,1-1.5,2c-0.5-0.7-1.1-1.3-1.8-1.9c-0.2-0.2-0.5-0.4-0.8-0.6l-0.2-0.2c-0.5-0.4-0.7-0.9-0.7-1.3c0.7,1.3,0.2,0.2,3,0.6
		C266.7,266.1,266.8,267.1,267,267.2L267,267.2z M258.9,264.6c-0.4,0.2-0.7,0.3-0.7,0.3c-0.5,0-1.1-0.1-1.6-0.1h0
		C257.5,264.6,258.3,264.6,258.9,264.6L258.9,264.6z M264,272.7c0,0.1-0.1,0.2-0.1,0.3l0,0C263.9,272.9,264,272.8,264,272.7
		L264,272.7z M263.8,274.5c0.1,0,0.2-0.1,0.3-0.1c1.2-0.5,1.6-0.6,2.4-0.4c0.8,1.7,1.4,2.9,1.4,2.9s0.4,0.7-2.8-0.2
		C264.5,275.4,264,274.9,263.8,274.5L263.8,274.5z M274.3,272c0.5,1.1,0.9,2.1,0.9,2.1s-0.4-0.2-1-0.5
		C274.3,273.5,274.3,273,274.3,272L274.3,272z M273.5,273.3L273.5,273.3L273.5,273.3L273.5,273.3L273.5,273.3z M272.8,274.5
		c1.1,0.9,2.3,2,2.6,2.9c0.5,1.3,0.9,7.5,0.9,7.5s0.7,2-0.7,0.4c-1.4-1.6-3.4-5.7-5.1-8.1c-0.8-1-1.2-1.8-1.5-2.4l3.1,0.8
		C272.3,275.2,272.6,274.8,272.8,274.5L272.8,274.5z M290.2,272.1c-0.1,0-0.2-0.1-0.3-0.1h0C290,272,290.1,272,290.2,272.1
		L290.2,272.1z M286.4,270.8c-0.5,0.2-1.2,0.7-2,1.3c-1.9,1.3-1.7-1.6-2.8-2.9c1.4-0.4,3.8-0.8,4.8-1.1c0.5-0.1,0.8-0.4,1-0.6
		c0.3,0.3,0.4,0.7,0.6,1.2C288.4,269.5,286.4,270.8,286.4,270.8L286.4,270.8L286.4,270.8z M285.6,266.5c-2.5,0.1-4.5,1.2-4.6,0.7
		c0-0.1-0.1-0.2-0.1-0.4l0,0C283.2,266.9,283.8,266.2,285.6,266.5L285.6,266.5z M280.4,264.2c0-0.1,0-0.2,0-0.3
		C280.4,264,280.4,264.1,280.4,264.2L280.4,264.2z M280.6,263.2c0.5-1.3,0.9-2.1,2-3C281.6,261.3,281.2,262.2,280.6,263.2
		L280.6,263.2z M291.3,279.2c-0.7-0.1-1.5-0.2-2.2-0.2l0,0C289.9,279,290.6,279.1,291.3,279.2L291.3,279.2z M285.6,279.2
		c-0.4,0.1-0.8,0.1-1,0.3c-1.7,0.7-3.4,0.8-3.4,0.8s-1.8-4-1.3-5.3c-0.2,0.9,3.2,1.1,4,2.4C284.7,278.8,285.5,277.4,285.6,279.2
		L285.6,279.2L285.6,279.2z M275.6,294.2c0.2,1,0.3,1.6,0.3,2.5c-1.1-0.4-2.1-0.5-2.9-0.8l-0.1,0C274.1,295.9,275,294.7,275.6,294.2
		L275.6,294.2z M271.9,295.5c-0.3-0.1-0.7-0.2-1.3-0.2c-0.5,0-1.4,0-2.3,0.2l0,0C270.2,295,269.6,293.9,271.9,295.5L271.9,295.5
		L271.9,295.5z M303.1,294.2c-0.7-0.8-2.2,0.5-3.2,1.3c-1.1,0.8-1.9,0.1-2.5-1.1c0,0,0.7-3.4-0.3-2.4c-1,1-2.4,0-3.5,0.6l0,0
		c0.2,0,0.4-0.1,0.7-0.1c1.6,0,2.4,0.7,3,1.9c0,0,4.9-0.4,4.5-2.3C301.5,290.3,303.2,291.9,303.1,294.2L303.1,294.2L303.1,294.2z
		 M292.6,293.1c-0.1,0.1-0.1,0.1-0.1,0.1s-1,0.5-2,1.4c-0.4-0.1-0.7-0.2-1.1-0.2c-0.4,0-0.9,0-1.5,0c0-0.8,0.2-1.7,0.9-2.2
		c1.5-1.1,1.2-0.3,1.3,0.8C290.2,293.9,291.5,293.6,292.6,293.1L292.6,293.1z M283.8,294.5c-1.6,0-2.8,0.1-2.8,0.1s0-1.1,0.1-2.6
		c0.6,0.2,1.4,0.4,2.2,0.4C284.7,292.5,284.3,293.4,283.8,294.5L283.8,294.5z M281.5,286.1c0.1-0.7,0.2-1.3,0.4-1.7
		c0.8-1.6,1.9-3.3,4-3.5c2.2-0.2,3.8,0.3,4.4,1.8c0.1,0.3,0.2,0.5,0.3,0.8c-0.8-0.4-1.7-0.8-2.6-0.8c-2.2,0-0.9,0.3-2,0
		c-1.1-0.3-1.6,0.5-2.6,1.8C282.7,285.5,282.6,285.6,281.5,286.1L281.5,286.1z M292.6,284.8c-1.2-1.9-2.6-3.7-2.6-3.7
		s1.9-0.2,2.8,0.8c0.4,0.4,0.7,0.7,1,0.9C293.1,282.4,292.6,284.8,292.6,284.8L292.6,284.8L292.6,284.8z M294.1,282.9
		c0.1,0.1,0.2,0.2,0.3,0.3C294.3,283.2,294.2,283.1,294.1,282.9L294.1,282.9z M293.7,297.3c-0.1-0.2-0.2-0.3-0.4-0.5l0,0
		C294.9,296.7,294.7,296.7,293.7,297.3z"/>
	<path class="st8" d="M55.2,213.7c-0.1-0.7-0.2-0.5-0.6-1.5c-0.4-1-1.3-0.2-0.7-1c0.6-0.9,0.9-1.3,1-2.7c0.1-1.4,1.1-1.9,1.1-1.2
		c0,0.7,0.3,3.5,0.3,3.5s1.2-1.2,1.2-0.3c0,0.9,1.3,0.2,0.8,1c-0.6,0.9-0.4,3.7,0,3.4c0.4-0.3,1.9-2.1,2.6-1.8
		c0.7,0.3,0.8,2.1,0.8,2.8s0.3,2.1-0.3,2c-0.5-0.1-0.7,0.5-0.7,1.1c0,0.6-0.7,0.7-0.7,0.7l-0.8,0.9c0,0,0.4,0.2,2,0.3
		c1.6,0.2,2.5-0.3,2.5-0.3s1.1,0.9,0.8,1.5c-0.3,0.5-1,1.5-1,1.5s0.1,1-0.5,0.9c-0.6-0.1-1,0.7-1,0.7s-1.2,0.3-1.9,0.3
		s-1.1,0.7-0.2,1.3c0.8,0.6,2.3,1,2.8,0.7c0.5-0.3,1.8-1.4,1.8-1.4s0.2-0.3,1-0.1c0.8,0.3,1.2,0.9,2.5,0.3c1.3-0.7,2.3-1.4,2.1-0.9
		c-0.2,0.5-3.1,1.7-3.1,2.1c0,0.4,0.5,0.1,0.7,1.2c0.2,1.1,0.3,1.4-0.4,0.9c-0.7-0.4-0.8,2.2-1.3,1.3c-0.6-0.9-1.8-0.9-1.8-0.9
		l0.4,1.6h-1.5c0,0-0.8,1-0.6,1.7c0.2,0.8-1.2,1.4-1.2,1.4s-0.1,0.4,0,1c0.1,0.6-0.6,1.8,2.7,0.1c3.3-1.7,7.5-5.6,6.7-4.8
		c-0.8,0.8,0.8,1.9-1,2.8c-1.9,0.9-1.7,1.9-1.7,1.9l0.7,0.6c0,0-1.4,0.9-1.4,1.9c-0.1,0.9-0.8,1.6-1.5,2.6c-0.8,0.9-1.6,1.6-1.6,2.2
		c0,0.5-0.5,0-0.8,0.8c-0.3,0.8-0.4,2-0.4,2s1.2-0.3,2.1-0.4c0.9-0.1,0.5-0.2,1.6-0.9c1.1-0.8,1.6-1.6,1.6-1.6s2.1-0.3,2.3,0.6
		c0.2,0.9-0.4,0.7-0.8,1.5c-0.4,0.8,0.3,0.4-1.2,2.1c-1.4,1.6-1.9,2.1-2.6,2.2c-0.8,0.2-2.6,2.1-1.5,1.5c1.1-0.5,5.1-3.8,6-4.8
		c0.9-1,2.9-1.5,1.8-0.4c-1.1,1.1-0.3,2.1-0.3,2.1s1.7,1.3,0.3,1.3c-1.3,0-2.4,0.7-1.9,0.7c0.5,0,1.4,1.8-0.1,1.3
		c-1.4-0.5-3.5-0.9-2.4-0.4c1,0.5,2.5,0.9,1.1,1.5c-1.4,0.6-1.9-0.8-1.8-0.3c0.1,0.5,1.6,2.2,0.8,1.8c-0.8-0.4-1.9-0.6-1.9-0.6
		s1.1,1.2,0.6,1c-0.5-0.2-1.5-1.2-1.2-0.2s1.3,2.8,4.2,1.9c2.9-0.9,3.2-0.9,4.6-2.7c1.3-1.8,2.4-3.1,1.9-2.2c-0.5,0.9-1.1,1.5-0.3,2
		c0.8,0.5,1.2,2.1,0.6,1c-0.6-1-1.2-0.5-1.2-0.3c0,0.2,0.4,1.2,0.1,1.2c-0.3,0-0.8-0.5-0.8-0.2c0,0.3,0.7,1.1-0.1,0.8
		c-0.8-0.3-1.5-0.2-1.4,0.3c0,0.5,1,1.7,0.1,1.3c-0.9-0.4-1.8-0.9-1.5-0.3c0.3,0.6,1.5,1.5,0.7,1.3c-0.8-0.3-1.5-1.2-1.2-0.4
		c0.3,0.9,1.6,1.8,3.7,1.7c2-0.2,0.8-0.3,2.6-0.2c1.8,0.1,2.7-0.2,2.9,0.1c0.2,0.3,0.6,0.5-0.5,0.6c-1.1,0.1-1.1,0.5-1.3,0.9
		c-0.2,0.4,0.2,0.4-0.9,0.2c-1.1-0.2-1.5-0.2-1.3,0.3c0.2,0.5,0.3,0.5-0.6,0.2c-1-0.3-1-0.1-1.3,0c-0.3,0.1-1.3-1-1.6-0.3
		c-0.2,0.8,0.7,1.4-0.5,0.9c-1.2-0.5-0.9,0.4-0.3,1.3c0.6,0.9,2.7,1.9,4.5,2c1.8,0.1,3-0.2,3.5-0.2c0.5,0,1.4,0,1.5,0.6
		c0,0.6-0.3,0.8-0.8,0.6c-0.5-0.1,0.1,0.4-0.5,0.5c-0.6,0.1-0.9,0-1.4-0.2c-0.5-0.2-1.4-0.3-1,0.1c0.4,0.4,1.9,0.4,0.8,0.6
		c-1.2,0.2-1,0.3-1.3,0.2c-0.4-0.2-0.1,0.9-0.7,0.7c-0.5-0.2-0.7-0.6-1.1-0.7c-0.4-0.1-0.1,0.4-0.7,0.5c-0.6,0.1-0.9-1-1.1-0.6
		c-0.2,0.4,1.2,1.8,0,1.2c-1.2-0.6-1.2-1.5-1.4-1.1c-0.2,0.4,0.5,1.3-0.5,1c-1.1-0.3-0.9-1.1-1.4-1.3c-0.5-0.3-0.9-0.3-0.8,0.3
		c0.1,0.6,0.2,2.2-0.3,1.5c-0.5-0.8,0,0.6-0.8,0c-0.7-0.6-0.7-1.8-0.8-1.4c-0.1,0.4,0,1.7-0.6,1c-0.6-0.7-1.1-1.5-1.1-1.2
		c0,0.2-1.1,0.7-0.6,1.1c0.5,0.4,1.7,1.6,3,2.1c1.3,0.6,1.7,0.7,3.1,0.7c1.3,0,3.5-0.4,4.5-0.8c1-0.4,2-0.6,3.4-1.1
		c1.4-0.4,1.3-1,2.3-1c1,0,3,0.8,1.6,1c-1.4,0.2-1.6,0.5-1.6,1c0,0.6,1.3,0.5-0.7,0.4c-1.9,0-0.5,0.7-1.3,1.1
		c-0.9,0.3-0.7,0.1-1.9,0.3c-1.2,0.3-1.1,0.3-0.9,1.2c0.2,0.9-0.3,0.7-0.6,0.9c-0.3,0.3,0.6,1.5,2.9,1.5c2.3,0,3.5-0.4,3.2,0
		c-0.3,0.3,1.6,0.5,1.9,0.6c0.3,0.1,1.1,0.8-0.1,1c-1.2,0.3-0.1,0.6-1.2,0.7c-1.1,0.1-0.4,0.1-1.6-0.1c-1.1-0.3-0.8,0.3-0.5,0.6
		c0.4,0.3,1.6,1.6,0.1,0.9c-1.5-0.6-2.1-1.2-1.9-0.8c0.3,0.5,0.5,1.2-0.4,0.7c-0.9-0.4-1.3-1.6-1.3-0.9c0,0.7,0.6,2-0.4,0.9
		c-1.1-1-1.6-2.4-1.6-1.8c0,0.7-0.2,1.4-1.1,0.5c-1-0.9-0.3,0.6-0.7,0.4c-0.5-0.2-0.9-0.9-1.3-1.2c-0.5-0.2,0.2,1.2-0.4,0.6
		c-0.6-0.7-0.9-2-0.8-1.1c0.1,0.9,1.1,2.8,0.1,1.9c-1-0.9-2.7-2.6-2.2-1.9c0.5,0.7,1.1,1.5,0.1,0.9c-1-0.6-0.7-0.2-1.1,0
		c-0.4,0.2-0.3-0.3-1.1-0.8c-0.8-0.4-2.2-0.4-0.5,1c1.8,1.5,6.9,4.4,7.9,4.5s3.1,0,2.6,0.2c-0.5,0.2,1.6,0.6,0.8,0.7
		c-0.8,0.1,0.2,0.3-0.3,0.7c-0.5,0.4,0.2,0.9-0.7,0.7c-0.8-0.2-1-0.6-1.5,0.1c-0.6,0.6-0.9-0.1-1.2-0.1c-0.3,0,0,1.3-0.9,0.9
		c-0.9-0.3-0.6-1.7-1.2-1.1c-0.6,0.6-1,1.8-1.3,0.8c-0.3-1-1.5-2.9-1.4-1.4c0.1,1.5-0.2,2.1-0.8,1.4c-0.7-0.7-0.4,0.9-0.7,1.1
		c-0.3,0.3-1.6-1.5-1.7-1.1c-0.1,0.3,1.1,2.1,3.2,2.3c2.1,0.2,5.1,0.3,6.6,0.3c1.5,0,3.5-0.5,4.4-0.6c0.9-0.1,3.7-0.9,2.5,0
		c-1.2,0.9,1.7,1.8,0.1,1.6c-1.6-0.1,0,0.6-0.9,1.1c-0.9,0.5-1.7-0.4-2.1-0.3c-0.4,0.1,1.6,1.3,0.1,1.1c-1.4-0.2-2.3-1.4-1.8-0.6
		c0.5,0.8,1.3,1.8,0.5,1.5c-0.8-0.3-1.8-1.2-1.9-0.9c-0.1,0.3,0.5,1.6-0.1,1.1c-0.6-0.5-1.6-1.3-1.6-1.3s0.7,1.5-0.1,1
		c-0.8-0.5-0.8,0.3-1.4,0c-0.5-0.4-2.4-0.7-2.4-0.7s3.1,2.6,5.7,3.7c2.6,1.1,4.7,2.3,5,3.2l0,0h-7.4c-1-0.6-1.1-0.6-1.7-1
		c-0.6-0.3-1.3-0.2,0,1H20c0.1-0.5-0.4-1-0.5-0.6c-0.1,0.4,0,0.7-0.7,0.2c-0.7-0.5-1.2-0.3-1.4,0c-0.2,0.4-0.3,0.5-0.9,0
		c-0.6-0.5-0.5,0-1,0.4l-0.1,0h-0.4c-0.1-0.1-0.2-0.3-0.5-0.5c-0.7-0.6-0.9-0.7-1.2,0c-0.3,0.7-0.4,0.4-0.7,0.2
		c-0.3-0.2,0-0.7-0.6,0.2l0,0H5.3c0.5-0.3,1.1-0.5,2-0.9c1.8-0.8,3.6-1.5,4.9-2c1.3-0.5,4-0.4,5.8-0.7c1.7-0.3,1.7,0,2.4-0.8
		c0.7-0.8,1.4-2,0.7-1.4c-0.7,0.6-0.1,1.7-1,1.1c-0.9-0.6-1-0.1-1.1,0.3c-0.1,0.4-0.2,0.4-0.8,0.3c-0.6-0.1-1.6,0.8-1.6,0.8
		s-2,0.2-2.4-0.1c-0.4-0.3-1.9-0.4-2.4-0.1c-0.5,0.3-0.5,0.9-1.7,0.6c-1.2-0.3-2-0.6-2.3,0c-0.3,0.6-0.8,0.6-1,0.4
		c-0.3-0.1-0.4,0.5-1,0.3c-0.6-0.2,0-0.6-1,0.1c-1,0.7-1.6,0.4-1,0c0.7-0.4,0.3-0.5-0.1-0.4c-0.4,0.1-1.5,0.1-1.2-0.2
		c0.3-0.3-0.2-0.4-0.2-0.4s-1.4-0.2-0.8-0.5c0.6-0.3-0.7-0.9,0.4-0.7c1,0.2,1.4,0.2,2,0.2c0.6,0,1.2-0.8,1-0.6
		c-0.2,0.2-0.8,0.4-0.9-0.2c-0.2-0.5,0.1-0.4-0.5-0.4c-0.6,0-0.8-0.1-0.3-0.6c0.4-0.6-0.2-0.2-0.6-0.2c-0.4,0-0.4-0.1,0-0.4
		c0.3-0.4-0.3,0.1-0.5-0.5c-0.2-0.6-0.2-1.3,0.6-0.9c0.8,0.5,1.8,1.7,4,1.7c2.2-0.1,4.9-0.1,6.1-0.2c1.2-0.1,3.8-1.6,3.8-1.6
		s-0.1-0.6-0.3-0.6c-0.2,0-0.3,1.1-0.5,0.7c-0.2-0.5,0-1.7-0.3-1c-0.3,0.6-0.3,2.2-0.5,1.4c-0.2-0.8-0.4-1.5-0.5-0.9
		c-0.1,0.6,0,2.1-0.3,1.3s-0.3-2.4-0.5-1.6c-0.1,0.9-0.4,2.6-0.5,1.8c-0.2-0.8-0.5-1.5-0.7-1.2c-0.2,0.3-0.6,0.9-0.7,0.4
		c-0.1-0.5-0.5-1.1-0.5-0.6c0,0.5,0.2,1.4-0.3,0.9c-0.5-0.4-1,0.6-1.1-0.3c0-0.9-0.4-0.5-0.6-0.5c-0.2,0-0.1-0.5-0.3-0.7
		c-0.2-0.3-0.2,0-0.7,0.2c-0.5,0.1-0.6-0.2-0.6-0.6c0-0.4,0.2,0-1,0.2c-1.2,0.2-1.7-0.1-1.2-0.5c0.6-0.4,1-1.1,0.2-0.9
		c-0.8,0.2-1.2,0.5-0.9-0.2c0.3-0.6,0.4-0.5,0.3-1c-0.2-0.5,1-1.1,2-0.7c1,0.4,4.2,1.9,5.6,1.5c1.4-0.3,3.3-0.6,4-0.7
		c0.7-0.1,2-0.3,1.4-0.7c-0.6-0.4-0.5-1.1-0.9-0.6c-0.4,0.4-0.6,1-1,0.6c-0.4-0.5-0.4,0-0.6,0.2c-0.2,0.2-0.3,0.2-0.7-0.2
		c-0.4-0.4-0.5,0.6-0.7,0.6c-0.2,0-0.6,0-0.7-0.5c-0.2-0.6-1.2,1.7-0.9,0.3c0.4-1.3,0.2-2.1-0.1-2.1c-0.3,0,0.2,2.1-0.4,1.1
		c-0.6-1.1-1.4-1.1-1.2-0.9c0.2,0.2-0.3-0.4-0.7-0.3c-0.5,0.1,0.2,1.1-0.4,0.7c-0.6-0.4-0.7-0.7-1.1-0.5c-0.4,0.2,0,1.1-0.6,0.7
		S8,283,7.3,283.3s-0.2,0.9-1.1,0.4c-0.9-0.6-1,0.4-1.6-0.7c-0.6-1.1,0-0.9-1.2-1.2c-1.2-0.3-2-0.4-1.3-1c0.8-0.6,2.6-0.6,4.1-0.6
		c1.5,0,1.9,0,2.6-0.2c0.7-0.2,0.5-0.1,1.7-0.3c1.2-0.2,2.7-0.1,2.7-0.5s0-1.4-0.4-0.9c-0.5,0.5-0.7,0.9-1.1,0.4
		c-0.5-0.5-0.8-1.1-1-0.4c-0.2,0.6-0.2,0-0.8,0.1c-0.6,0.1-0.3,0.6-0.7,0.6c-0.5,0,0-0.4-0.7-0.4c-0.7-0.1-0.5,0.9-0.9,0.1
		c-0.4-0.8-0.2-1.3-0.4-1.3c-0.3,0-0.7,0.6-1.1,0.4c-0.5-0.3,0.2-0.8-0.5-0.7c-0.7,0.1-0.8,1-1.3,0.4c-0.5-0.7-0.5-0.7-0.5-1
		c0-0.3,0.8-1.4-0.8-1.4c-1.6,0-3.4-1-1.4-1c2,0,3.6,0.6,8.9,1.5c5.3,0.9,5.8,0.8,7.3,0.3c1.5-0.5,2.3-1.7,1.2-0.9
		c-1.2,0.9-1.2,0.4-1.8-0.2c-0.5-0.5-0.5,0-0.9,0.2c-0.5,0.2-0.3,0.1-0.9-0.5c-0.5-0.6-0.6-0.4-1.2,0c-0.5,0.4-0.8-0.2-1.9-0.6
		c-1.1-0.5-0.6,0.2-1.2,0.2c-0.5,0-0.2-0.9-0.6-1.2c-0.5-0.3-0.4,0.2-1,0.5c-0.6,0.2-0.6-0.8-1.3-0.8c-0.7,0-0.6,0.2-1.7,0
		c-1.1-0.2-0.7-0.3-1.2-0.6c-0.5-0.3-2.4,0.1-1.2-0.6c1.2-0.7,1.9-0.9,3-0.9s0.6-0.6,2.2-0.6c1.6,0.1,1.5,0.1,2.8,0.5
		c1.2,0.4,2.2,0.9,3.2,0.4c1-0.5,2.6-0.6,1.9-0.8c-0.8-0.2-1.2,0.2-2.3-0.3c-1.1-0.5-0.7-0.9-1.4-0.9c-0.7-0.1-0.5,0.2-1.3,0.1
		c-0.8-0.1-2.2-0.3-2.2-0.3s-0.8,0.1-1.2-0.6c-0.5-0.6-0.9-0.2-1.5,0.1c-0.5,0.2-0.5-0.5-1-0.9c-0.5-0.5-1.9,0.9-2.2,0.1
		c-0.3-0.8-2.2-0.9-0.5-1.4c1.6-0.5,2.9-0.3,2.2-1.3c-0.6-0.9-0.7-1.3,0.8-1.1c1.5,0.2,1.5,0.5,2.8,0.8c1.3,0.3,1.5,0.1,2.9,0.6
		c1.4,0.6,1.9,1.3,2.2,0.6c0.3-0.8,0.6-0.7-0.6-1c-1.2-0.3-1.8-0.9-1.8-1.3c0-0.4-0.3-0.1-1.3-0.4c-1-0.3-0.4-2-1.5-2.4
		c-1.1-0.4-3.1-0.4-1.5-1.2c1.6-0.8,0.5-1.2,2.7-0.2c2.2,1,2.7,1.8,3.6,1.7c0.9-0.1,2.4-0.3,2.9-0.5c0.5-0.2,0.3-0.6-1.1-0.6
		c-1.4,0-1.1-1.1-1.1-1.1s-0.5-0.2-1.2-0.6c-0.7-0.4-0.5-0.4-0.4-1.2c0.1-0.8,0.1-0.5-0.9-1.3c-0.9-0.9-1.1-1.7,0.2-1.7
		c1.3,0,1.6-0.3,1.4-1.1c-0.2-0.8-0.9-0.6-1.5-1.2c-0.6-0.6-0.8-0.9-0.2-1.4c0.6-0.5,1.6-2.4,2.5-0.8c0.8,1.7,3.4,3.8,4,3.5
		c0.6-0.3,1.9,0.1,0.8-0.9c-1.1-0.9-1.8-2.6-2.9-3.3c-1.2-0.7,0.5,0-1.2-1.3c-1.6-1.3-0.5-1.9-1.4-2.1c-0.9-0.2-1.5,0.3-1.2-0.6
		c0.4-0.9-0.8-2.9,0.2-2.3c1,0.6,5.7,5.4,5.5,4.3c-0.2-1.1,0.8-1.1-0.5-1.7c-1.3-0.6-1.2-0.7-1.1-1.3c0.2-0.6-0.6-1.2-0.6-1.2
		s-0.8,0.4-0.5-0.7c0.2-1.1,0.1-1.3-0.5-1.5c-0.6-0.2-0.5-0.2-0.3-1.2c0.2-0.9-0.5,0-0.7-1c-0.2-1,0-1.5,0.5-1.7
		c0.5-0.2,1.5,2.3,2.4,3.1c0.9,0.8,1.9,2.8,1.9,2c0-0.9,0.2-1.7-0.2-2.7c-0.3-1-0.5-1.9,0.2-1.4c0.7,0.5,1.2,0.4,1.3,1.1
		c0.2,0.7,0.8,1.3,1.2,0.3c0.3-0.9,1.2-1.4,0.2-1.4c-1,0-1.2,0.5-1.2-0.4c0.1-0.9-0.4-1-0.4-1s-0.4-0.5-0.2-1.2
		c0.2-0.6,0-0.4-0.8-0.7c-0.8-0.3-1.2-0.5-0.5-1c0.6-0.5,0.5-0.6-0.2-1.1c-0.7-0.5-1.5-1.3-0.5-2.1c0.9-0.8,2.1,0.2,2.9,1.7
		c0.9,1.6,2.3,2.6,2.1,1.6c-0.2-1-0.3-2,0-2.5c0.3-0.6-0.5-0.2-1.2-1c-0.7-0.9-1-1.9-1-1.9s0.3-0.6,0.3-1.2c0-0.6-1.4-0.9-0.2-1.1
		c1.2-0.2,2.3,0.9,2.1-0.3c-0.2-1.2-0.1-1.9,0.9-1.7c1,0.2,1.1,1.1,1.7,0.4c0.6-0.7,0.6-0.7,0.6-0.7c-0.1-0.6-0.2-0.5-0.5-1.4
		c-0.4-0.9-1.2-0.2-0.6-0.9c0.5-0.8,0.9-1.2,0.9-2.4c0.1-1.3,1-1.7,1-1.1c0,0.6,0.3,3.2,0.3,3.2s1.1-1.1,1.1-0.3
		c0,0.8,1.2,0.2,0.7,0.9c-0.5,0.8-0.4,3.4,0,3.1c0.4-0.3,1.8-1.9,2.4-1.7c0.6,0.2,0.8,2,0.8,2.5c0,0.6,0.2,1.9-0.2,1.8
		c-0.5-0.1-0.6,0.5-0.6,1c0,0.6-0.6,0.6-0.6,0.6l-0.7,0.9c0,0,0.4,0.2,1.9,0.3c1.5,0.2,2.3-0.3,2.3-0.3s1,0.9,0.7,1.3
		c-0.3,0.5-0.9,1.3-0.9,1.3s0.1,0.9-0.5,0.9c-0.5-0.1-0.9,0.6-0.9,0.6s-1.1,0.3-1.7,0.3c-0.6,0-1,0.6-0.2,1.2
		c0.8,0.6,2.1,0.9,2.6,0.6c0.5-0.3,1.6-1.3,1.6-1.3s0.2-0.3,0.9-0.1c0.8,0.2,1.1,0.9,2.3,0.2c1.2-0.6,2.1-1.3,1.9-0.8
		c-0.2,0.5-2.9,1.6-2.9,2s0.5,0.1,0.6,1.1c0.2,1,0.2,1.3-0.4,0.9c-0.6-0.4-0.7,2-1.2,1.2c-0.5-0.9-1.6-0.9-1.6-0.9l0.4,1.5h-1.4
		c0,0-0.7,0.9-0.5,1.6c0.2,0.7-1.1,1.3-1.1,1.3s-0.1,0.4,0,0.9c0.1,0.6-0.5,1.7,2.5,0.1c2.4-1.3,5.5-3.9,6.1-4.4
		c-0.4,0-0.6,0-0.3-0.6c0.4-1-0.8-3.2,0.3-2.5c1.1,0.7,6.2,5.8,6,4.6c-0.3-1.2,0.8-1.2-0.6-1.8c-1.4-0.6-1.3-0.8-1.2-1.5
		c0.2-0.7-0.7-1.3-0.7-1.3s-0.8,0.4-0.6-0.8c0.3-1.2,0.1-1.4-0.6-1.6c-0.7-0.3-0.5-0.3-0.3-1.3c0.2-1-0.5,0-0.8-1.1
		c-0.3-1.1,0-1.6,0.6-1.9c0.6-0.3,1.6,2.5,2.6,3.4c1,0.9,2,3.1,2,2.1c0-0.9,0.2-1.8-0.2-2.9c-0.3-1.1-0.5-2.1,0.3-1.6
		c0.8,0.5,1.3,0.4,1.4,1.2c0.2,0.8,0.9,1.4,1.3,0.3c0.3-1,1.3-1.6,0.2-1.6c-1.1,0-1.3,0.5-1.3-0.4c0.1-0.9-0.4-1.1-0.4-1.1
		s-0.4-0.6-0.3-1.3c0.2-0.7,0-0.4-0.8-0.8c-0.8-0.3-1.3-0.6-0.6-1.1c0.7-0.5,0.6-0.7-0.2-1.2c-0.8-0.5-1.6-1.5-0.6-2.3
		c1-0.9,2.3,0.2,3.2,1.9c0.9,1.7,2.5,2.8,2.3,1.7c-0.3-1.1-0.3-2.1,0-2.7c0.3-0.6-0.5-0.2-1.3-1.1c-0.8-0.9-1.1-2.1-1.1-2.1
		s0.3-0.6,0.3-1.3s-1.5-1-0.2-1.2c1.3-0.2,2.5,1,2.3-0.3c-0.3-1.3-0.1-2.1,1-1.9c1.1,0.2,1.2,1.2,1.9,0.4
		C55.2,213.7,55.2,213.7,55.2,213.7L55.2,213.7z M46.8,296.7c0.7-0.2,1.1-0.3,1.2-0.6c0.2-0.6-0.5-1.2-0.6-0.7
		c-0.1,0.4,0,0.7-0.8,0.2c-0.8-0.5-1.3-0.3-1.5,0c-0.1,0.1-0.1,0.2-0.2,0.2c0.3,0.1,0.5,0.3,0.8,0.4
		C46.1,296.4,46.4,296.6,46.8,296.7L46.8,296.7z M49.5,289.4c0-0.1-0.1-0.1-0.2,0.1L49.5,289.4L49.5,289.4z M36.4,289
		c1.5,0,3-0.1,3.8-0.2c0.5,0,1.3-0.3,2-0.7l0,0c-0.1,0-0.2-0.1-0.3-0.2c0,0.3-0.1,0.4-0.3,0c-0.1-0.2-0.1-0.5-0.2-0.8
		c-0.1-0.2-0.2-0.2-0.4,0l-0.1,0.1c-0.1,0.8-0.3,1.6-0.4,1c0-0.1,0-0.2-0.1-0.3c-0.2,0.3-0.4,0.5-0.6,0c-0.1-0.2-0.2-0.4-0.3-0.6
		c-0.2,0.3-0.5,0.5-0.5,0.1c-0.1-0.4-0.4-0.9-0.5-0.8l0,0.1c0,0.5,0,0.9,0,1.1l0,0l0,0c-0.1,0.4-0.3,0.5-0.7,0.1
		c-0.1-0.1-0.2-0.1-0.2-0.2c-0.1,0-0.1,0.1-0.2,0.1c-0.1,0.2-0.1,0.9-0.2,1.1c-0.2,0.2-1.4-1.3-1.5-1C35.6,288,35.9,288.6,36.4,289
		L36.4,289z M42.8,288c0.3-0.1,0.5-0.2,0.7-0.3c-0.2-0.1-0.3-0.3-0.5-0.3C42.8,287.4,42.9,287.7,42.8,288L42.8,288z M40.3,283.8
		c1.5-0.3,3.4-0.6,4.1-0.7c0.6-0.1,1.6-0.2,1.7-0.5c-0.1-0.1-0.1-0.1-0.2-0.2c-0.3-0.3-0.5-0.6-0.7-0.8c0,0-0.1,0.1-0.1,0.1
		c-0.4,0.5-0.6,1.1-1.1,0.6c-0.4-0.5-0.4,0-0.7,0.2c-0.3,0.2-0.3,0.2-0.8-0.2c-0.5-0.4-0.5,0.6-0.8,0.6c-0.3,0-0.6,0-0.8-0.6
		c-0.2-0.6-1.3,1.8-0.9,0.4c0.1-0.4,0.2-0.7,0.2-1c-0.1-0.1-0.2-0.2-0.4-0.3c0,0.5,0,0.8-0.3,0.2c-0.3-0.5-0.6-0.8-0.8-0.9
		c0.3,0.4,0.3,0.7-0.3,0.3c-0.9-0.6-0.6-0.2-1,0c-0.1,0-0.2,0-0.2,0c0,0.2,0,0.3-0.3,0.1c-0.7-0.4-0.7-0.8-1.2-0.6
		c-0.1,0.1-0.2,0.1-0.2,0.3c0.1,0.1,0.3,0.3,0.4,0.4C36.9,281.8,38.7,282.9,40.3,283.8L40.3,283.8z M40.5,274.8
		c-0.1-0.2-0.2-0.4-0.4-0.1l-0.1,0.1C40.2,274.8,40.3,274.8,40.5,274.8L40.5,274.8z M35.8,271.2l0.1,0
		C35.9,271.2,35.8,271.1,35.8,271.2L35.8,271.2L35.8,271.2z M37.4,271.5L37.4,271.5C37.5,271.4,37.5,271.3,37.4,271.5L37.4,271.5
		L37.4,271.5z M39.2,271.8c0.5,0.1,1,0.1,1.4,0.2c-0.3-0.3-0.3-0.7-0.7-0.9c-0.5-0.2-0.8-0.3-0.7,0.3
		C39.2,271.5,39.2,271.6,39.2,271.8L39.2,271.8z M41.7,272.1c0.3,0,0.6,0.1,0.9,0.1c-0.8-0.5-0.8-1.1-1-0.8
		C41.6,271.6,41.7,271.9,41.7,272.1L41.7,272.1z M43.4,272.2c0.8,0,1.3-0.1,2-0.3c-0.3-0.2-0.4-0.4-0.7-0.5
		c-0.4-0.1-0.1,0.4-0.6,0.4c-0.5,0.1-0.8-0.9-1-0.5C42.9,271.5,43.2,272,43.4,272.2L43.4,272.2z M46.1,271.6
		c0.1-0.1,0.2-0.1,0.3-0.2l-0.1,0C46.2,271.4,46.1,271.5,46.1,271.6L46.1,271.6z M47.2,270.9c0.3-0.3,0.3-0.5-0.2-0.1
		C47,270.8,47.1,270.9,47.2,270.9L47.2,270.9z M41.2,266.5c0.6,0.1,1.2,0.2,1.8-0.1c0.8-0.4,1.9-0.5,2.2-0.7l-0.1,0
		c-0.9-0.3-0.9-0.1-1.2,0c-0.1,0-0.3-0.1-0.6-0.2c-0.2,0-0.5-0.1-0.7-0.2c-0.1,0-0.1,0.1-0.1,0.2c-0.2,0.7,0.6,1.3-0.5,0.8
		C41.3,266,41.2,266.1,41.2,266.5L41.2,266.5z M36,259c0.2,0,0.3,0.1,0.5,0.1c1.4,0.3,1.6,0.1,3.1,0.7c0.3,0.1,0.6,0.3,0.9,0.4
		c0.8-0.2,1.3-0.4,1.7-0.6c-0.1-0.1-0.3-0.2-1-0.3c-1.3-0.3-1.9-0.9-1.9-1.4c0-0.4-0.3-0.1-1.4-0.4c-0.1,0-0.2-0.1-0.2-0.1
		c0.4,0.6,1,1.4,0.4,1.1c-0.8-0.4-1.7-0.5-1.7-0.5s1,1.1,0.5,0.9c-0.5-0.2-1.4-1.1-1.1-0.2C35.9,258.8,36,258.9,36,259L36,259z
		 M36.6,255c-0.1,0-0.2-0.1-0.2-0.1c-0.1,0-0.2-0.1-0.3-0.1c-0.8,0.4-2,1.7-1.1,1.3C35.3,255.9,35.9,255.5,36.6,255L36.6,255z
		 M38,253.5l0.3,0.1c1-0.8,1.8-1.6,2.2-2c0.1-0.1,0.1-0.1,0.2-0.2c0-0.1,0.1-0.3,0.1-0.6c0.1-0.6,0.1-0.6-0.2-0.9
		c-0.2,0.2-0.4,0.3-0.6,0.7c-0.4,0.7,0.2,0.4-1.1,1.9C38.4,253,38.2,253.3,38,253.5L38,253.5z M40.3,254.8c0.5,0.3,0.9,0.5,1.4,0.4
		c1-0.1,2.6-0.3,3.2-0.6c0.6-0.3,0.3-0.7-1.2-0.7c-1.5,0-1.2-1.2-1.2-1.2s-0.4-0.1-1-0.4c0,0.5,0.2,0.8,0.2,0.8s1.5,1.2,0.3,1.2
		C41.2,254.3,40.5,254.7,40.3,254.8L40.3,254.8z M39.2,248.8c-0.4-0.7-0.3-1.2,0.8-1.2c1.4,0,1.8-0.3,1.5-1.2
		c-0.3-0.9-0.9-0.6-1.6-1.3c-0.7-0.7-0.8-1-0.2-1.5c0.7-0.5,1.8-2.7,2.7-0.9c0.9,1.8,3.7,4.1,4.4,3.8c0.7-0.3,2,0.1,0.8-0.9
		c-1.2-1-1.9-2.8-3.2-3.6c-1.3-0.8,0.5,0-1.3-1.5c-1.8-1.5-0.6-2.1-1.5-2.3c-0.3-0.1-0.7-0.1-0.9-0.1c-0.8,0.7,0.8,1.7-0.9,2.5
		c-1.7,0.8-1.5,1.7-1.5,1.7l0.6,0.5c0,0-1.2,0.9-1.3,1.7c-0.1,0.9-0.7,1.5-1.4,2.4c-0.7,0.9-1.5,1.5-1.5,2c0,0.5-0.5,0-0.8,0.7
		c-0.3,0.7-0.4,1.8-0.4,1.8s1.1-0.3,1.9-0.4c0.8-0.1,0.5-0.2,1.5-0.9c1-0.7,1.5-1.4,1.5-1.4S38.9,248.8,39.2,248.8z"/>
</g>
</svg>
