<?xml version="1.0" encoding="utf-8"?>
<!-- Generator: Adobe Illustrator 16.0.4, SVG Export Plug-In . SVG Version: 6.00 Build 0)  -->
<!DOCTYPE svg PUBLIC "-//W3C//DTD SVG 1.1//EN" "http://www.w3.org/Graphics/SVG/1.1/DTD/svg11.dtd">
<svg version="1.1" id="Layer_1" xmlns="http://www.w3.org/2000/svg" xmlns:xlink="http://www.w3.org/1999/xlink" x="0px" y="0px"
	 width="56.7px" height="283.5px" viewBox="0 0 56.7 283.5" style="enable-background:new 0 0 56.7 283.5;" xml:space="preserve">
<style type="text/css">
<![CDATA[
	.st0{fill:#AD479A;}
	.st1{fill:#E795BD;}
	.st2{fill:#4E4E4E;}
	.st3{fill:#B4B4B4;}
	.st4{fill:#ED2224;}
	.st5{fill:#EF4343;}
	.st6{fill:#EFB075;}
	.st7{fill:#56B947;}
	.st8{fill:#F16263;}
	.st9{fill:#F26822;}
	.st10{fill:#F58233;}
	.st11{fill:#F89958;}
	.st12{fill:#FDEC6E;}
	.st13{fill:#FFDE00;}
	.st14{fill:#FFE63A;}
	.st15{fill:#9D3493;}
	.st16{fill:#333333;}
	.st17{fill:#6ABD45;}
	.st18{fill:#010101;}
	.st19{fill:#02B3DD;}
	.st20{fill:#079EC7;}
	.st21{fill:#09BFF1;}
	.st22{fill:#3FB549;}
	.st23{fill:#A53F97;}
]]>
</style>
<polygon class="st6" points="28.3,7.2 10.6,47.3 27.5,57.6 46.1,47.3 "/>
<polygon class="st15" points="28.3,7.2 24,17.1 32.7,17.1 "/>
<g>
	<path class="st15" d="M10.6,254.5h13.4l1.5-198.9l-3-8.2c-3.9,2.2-7.9,2.2-11.8,0V254.5z"/>
	<path class="st23" d="M22.4,254.5h17.8l-3.4-202l-2.5-5.1c-3.9,2.2-7.9,2.2-11.8,0V254.5z"/>
	<path class="st0" d="M34.3,254.5h11.8V47.3c-3.9,2.2-7.9,2.2-11.8,0V254.5z"/>
</g>
<g>
</g>
<g>
	<path class="st1" d="M10.6,256.1h35.5v12.3c0,4.3-3.5,7.8-7.8,7.8h-20c-4.3,0-7.8-3.5-7.8-7.8V256.1z"/>
</g>
<rect x="10.6" y="247.6" class="st3" width="35.5" height="13.6"/>
</svg>
