<?xml version="1.0" encoding="utf-8"?>
<!-- Generator: Adobe Illustrator 16.0.4, SVG Export Plug-In . SVG Version: 6.00 Build 0)  -->
<!DOCTYPE svg PUBLIC "-//W3C//DTD SVG 1.1//EN" "http://www.w3.org/Graphics/SVG/1.1/DTD/svg11.dtd">
<svg version="1.1" id="Layer_1" xmlns="http://www.w3.org/2000/svg" xmlns:xlink="http://www.w3.org/1999/xlink" x="0px" y="0px"
	 width="283.5px" height="283.5px" viewBox="0 0 283.5 283.5" style="enable-background:new 0 0 283.5 283.5;" xml:space="preserve"
	>
<style type="text/css">
<![CDATA[
	.st0{fill:#465055;}
	.st1{fill:#F0EC75;}
	.st2{fill:#F26B6D;}
	.st3{fill:#5BC4BF;}
	.st4{fill:#FDFBE1;}
]]>
</style>
<g>
	<path class="st3" d="M141.7,261.4c66.1,0,119.7-53.6,119.7-119.7C261.4,75.6,207.8,22,141.7,22C75.6,22,22,75.6,22,141.7
		C22,207.8,75.6,261.4,141.7,261.4"/>
	<path class="st4" d="M71.4,86.7c2.4,1.2,3.2,3.6,3.2,6.5c0,5.3-2.7,12.3-2.8,15.9c-0.1,1.7-1.8,2.6-3.5,2.6c-1.7,0-3.4-0.8-3.4-2.1
		c0-5.2,6-13.7,6-19.1c0-0.8-0.1-1.7-0.5-2.4c-7.3,0.1-15.7,19.8-15.7,32.3c0,5.9,1.9,10.3,6.7,10.3c5.6,0,9.4-5.4,12.1-10.1
		c0.4-0.7,0.8-1.2,1.3-1.2c0.2,0,0.3,0.1,0.3,0.6c0,0.3-0.1,0.6-0.3,1.2c-1.9,4.9-7.1,14.2-15.7,14.2c-7.6,0-10.7-6.8-10.7-15.4
		c0-14.6,8.9-34.3,19.6-34.3C69.5,85.5,70.8,86,71.4,86.7z M91.5,126.9c-2.7,4.8-6.4,8.2-10.3,8.2c-5.5,0-7.8-5.2-7.8-11.6
		c0-5.1,1.3-10.1,3.1-13.9c0.6-1.2,1.7-2.9,3.5-2.6c1.3-4.4,4.2-7.7,8.5-7.7c5.5,0,7.8,4.7,7.8,10.7c0,4.8-1.4,10.3-3.7,15
		c2.5-0.1,5.1-1.2,6.8-4.4c0.4-0.7,0.8-1.2,1.2-1.2c0.2,0,0.4,0.1,0.4,0.5c0,0.3-0.1,0.7-0.3,1.2C99.9,123.6,96.2,126.9,91.5,126.9z
		 M86.8,126.2c-3.7-1.2-5.8-4.1-6.9-7.4c-0.5,2.2-0.8,4.5-0.8,6.5c0,3.7,0.9,6.4,3.2,6.4c0.2,0,0.4,0,0.6-0.1
		C84.3,131.4,85.6,129.3,86.8,126.2z M83.2,113.6c0,4.1,1.2,8.2,4.5,10.1c1.5-4.9,2.6-11.2,2.6-15.7c0-3.6-0.6-6.2-2.3-6.2
		C85.6,101.8,83.2,107.6,83.2,113.6z M116.5,83.9c1.8,1,3.1,2.4,3.1,7c0,9.6-5.3,27.5-13.7,26.7c-0.6,3.5-0.9,6.7-0.9,8.8
		c0,3,0.8,4.4,2.8,4.4c3.7,0,8-5.4,10.4-10.3c0.3-0.8,0.8-1,1.1-1c0.3,0,0.5,0.3,0.5,0.8c0,0.3-0.1,0.6-0.2,1
		c-2.1,5.3-8.1,14-14.1,14c-4.7,0-6.3-4.2-6.3-10.5c0-4,0.6-8.7,1.6-13.7c2.6-13.9,6.7-28.5,13-28.5C115,82.5,116,83.2,116.5,83.9z
		 M106.2,115.9c5.6-4.6,9.5-19.5,9.5-27.7c0-1.1-0.1-2.1-0.2-3C113,86,108.3,103.2,106.2,115.9z M136.1,126.9
		c-2.7,4.8-6.4,8.2-10.3,8.2c-5.5,0-7.8-5.2-7.8-11.6c0-5.1,1.3-10.1,3.1-13.9c0.6-1.2,1.7-2.9,3.5-2.6c1.3-4.4,4.2-7.7,8.5-7.7
		c5.5,0,7.8,4.7,7.8,10.7c0,4.8-1.4,10.3-3.7,15c2.5-0.1,5.1-1.2,6.8-4.4c0.4-0.7,0.8-1.2,1.2-1.2c0.2,0,0.4,0.1,0.4,0.5
		c0,0.3-0.1,0.7-0.3,1.2C144.5,123.6,140.8,126.9,136.1,126.9z M131.5,126.2c-3.7-1.2-5.8-4.1-6.9-7.4c-0.5,2.2-0.8,4.5-0.8,6.5
		c0,3.7,0.9,6.4,3.2,6.4c0.2,0,0.4,0,0.6-0.1C129,131.4,130.3,129.3,131.5,126.2z M127.8,113.6c0,4.1,1.2,8.2,4.5,10.1
		c1.5-4.9,2.6-11.2,2.6-15.7c0-3.6-0.6-6.2-2.3-6.2C130.3,101.8,127.8,107.6,127.8,113.6z M149.4,127.3c0,1.9,0.5,2.9,1.5,2.9
		c4,0,6.7-13.4,9.8-27.7c0.5-2.3,2.1-3.3,3.8-3.3c1.5,0,3,1,3,2.8c0,2.8-5.8,22.2-5.8,27c0,1.2,0.3,1.9,0.9,1.9
		c2.5,0,6.7-8.9,7.5-10.4c0.4-0.8,0.8-1.2,1.2-1.2c0.3,0,0.5,0.2,0.5,0.7c0,0.3-0.1,0.7-0.3,1.2c-1,2.4-5.5,13.8-11.3,13.8
		c-2.1,0-4.6-1.1-4.7-5.8c-1.9,3.6-4.2,5.8-7,5.8c-3.9,0-5.2-3-5.2-7.4c0-6.7,2.9-16.8,4.3-25.1c0.3-2.1,2.1-3.1,3.7-3.1
		c1.5,0,3,0.9,3,2.6c0,0.2,0,0.5-0.1,0.7C152,113.6,149.4,122.8,149.4,127.3z M173.7,132.9c-0.3,1.5-1.4,2.3-2.6,2.3
		c-1.3,0-2.6-1-2.6-3c0-3.8,2.4-18.5,5.5-29.2c0.3-1.2,1.5-1.7,2.6-1.7c1.6,0,3.4,1.1,3.4,3c0,1.2-0.8,2.9-1.2,4.2
		c2.5-5.3,5.5-9.2,8.9-9.2c2.6,0,3.5,1.5,3.5,4.5c0,3.9-2.6,8.2-3,12.3c-0.1,1.5-1.2,2.2-2.4,2.2c-1.6,0-3.4-1.3-3.4-3.5
		c0-4.2,2.8-7.8,2.8-9.9c0-0.5-0.2-0.8-0.7-0.8c-2.4,0-8,9.9-9.8,21.6L173.7,132.9z"/>
	<path class="st4" d="M103,179.7c0-2.1,1.4-5,3.9-4.4c3.5-5.3,7.2-13.1,9.2-17.4c-0.7-1.9-1-3.7-1-5.5c0-4.6,2.1-8.4,4.8-8.4
		c1.7,0,2.6,1.2,2.6,3.1c0,2.6-1.5,6.6-4.4,11.2c1.5,5,5.3,11.9,5.3,17.4c0,2.4-0.5,4.8-1.7,6.8c2.8-2.1,3.7-4.7,6.8-10
		c0.4-0.8,0.8-1.1,1.2-1.1c0.3,0,0.4,0.3,0.4,0.8c0,0.3-0.1,0.6-0.2,1c-3.6,8.9-7.5,13.9-16.4,13.9C105.8,187,103,183,103,179.7z
		 M108.7,176.2c0.8,0.8,0.7,2.1,0.7,5.6c0,2.3,0.8,3.5,2.4,3.5c2.3,0,5.1-2.4,5.1-11.1c0-2.4-0.3-7.1-0.5-11.3
		C114.1,168.1,110.7,173.2,108.7,176.2z M145.3,181.6c0,1.1,0.3,1.7,1.2,1.7c2.3,0,4.6-5.3,7.5-11c0.3-0.7,0.9-1.2,1.2-1.2
		c0.3,0,0.4,0.2,0.4,0.6c0,0.3-0.1,0.7-0.3,1.2c-1,2.5-4.4,14-10.5,14c-2.8,0-5.4-1.9-5.4-6.1c0-6,5.5-18.9,5.5-23.4
		c0-1-0.3-1.7-1-1.7c-2,0-7.5,8.2-10.5,21.1c-1.6,7.5-1.4,10.1-4.2,10.1c-1.3,0-2.6-1-2.6-3c0-4.5,4.9-29.1,9.6-45
		c0.3-1.2,1.5-1.8,2.7-1.8c1.7,0,3.5,1.1,3.5,2.9c0,2.2-1.9,6.1-5.3,20.9c2.5-5.5,5.5-9.5,8.7-9.5c4.1,0,5.1,3.3,5.1,5.8
		C151.1,165.1,145.3,177.1,145.3,181.6z M172,178.8c-2.7,4.8-6.4,8.2-10.3,8.2c-5.5,0-7.8-5.2-7.8-11.6c0-5.1,1.3-10.1,3.1-13.9
		c0.6-1.2,1.7-2.9,3.5-2.6c1.3-4.4,4.2-7.7,8.5-7.7c5.5,0,7.8,4.7,7.8,10.7c0,4.8-1.4,10.3-3.7,15c2.5-0.1,5.1-1.2,6.8-4.4
		c0.4-0.7,0.8-1.2,1.2-1.2c0.2,0,0.4,0.1,0.4,0.5c0,0.3-0.1,0.7-0.3,1.2C180.4,175.5,176.7,178.8,172,178.8z M167.4,178.1
		c-3.7-1.2-5.8-4.1-6.9-7.4c-0.5,2.2-0.8,4.5-0.8,6.5c0,3.7,0.9,6.4,3.2,6.4c0.2,0,0.4,0,0.6-0.1
		C164.9,183.3,166.2,181.2,167.4,178.1z M163.7,165.5c0,4.1,1.2,8.2,4.5,10.1c1.5-4.9,2.6-11.2,2.6-15.7c0-3.6-0.6-6.2-2.3-6.2
		C166.2,153.8,163.7,159.5,163.7,165.5z M197.7,180.4c0,2,0.5,3.4,1.8,3.4c2.1,0,5.5-6.4,7.8-13.2c-1-1.7-1.4-4-1.4-6.3
		c0-6.5,3-14.1,6.6-14.1c1.9,0,2.6,1.9,2.6,4.9c0,10-9.1,31.9-17.3,31.9c-3.5,0-4.9-3.4-5.1-8.2c-2.1,5-4.6,8.2-8.1,8.2
		c-3.8,0-5.1-4.2-5.1-9.8c0-7.8,2.5-18.4,4.2-24.5c0.3-1.2,1.5-1.8,2.8-1.8c1.7,0,3.6,1.2,3.6,3.5c0,3.2-5.5,20.4-5.5,26.1
		c0,2,0.6,3.5,1.8,3.5c4.6,0,7.6-20.4,10.5-31.3c0.3-1.2,1.5-1.8,2.8-1.8c1.7,0,3.6,1.2,3.6,3.5
		C203.3,157.6,197.7,174.7,197.7,180.4z"/>
</g>
</svg>
