<?xml version="1.0" encoding="utf-8"?>
<!-- Generator: Adobe Illustrator 16.0.4, SVG Export Plug-In . SVG Version: 6.00 Build 0)  -->
<!DOCTYPE svg PUBLIC "-//W3C//DTD SVG 1.1//EN" "http://www.w3.org/Graphics/SVG/1.1/DTD/svg11.dtd">
<svg version="1.1" id="Layer_1" xmlns="http://www.w3.org/2000/svg" xmlns:xlink="http://www.w3.org/1999/xlink" x="0px" y="0px"
	 width="283.5px" height="283.5px" viewBox="0 0 283.5 283.5" style="enable-background:new 0 0 283.5 283.5;" xml:space="preserve"
	>
<style type="text/css">
<![CDATA[
	.st0{fill:#465055;}
	.st1{fill:#F0EC75;}
	.st2{fill:#F26B6D;}
	.st3{fill:#5BC4BF;}
	.st4{fill:#FDFBE1;}
]]>
</style>
<g>
	<path class="st2" d="M141.7,261.4c66.1,0,119.7-53.6,119.7-119.7C261.4,75.6,207.8,22,141.7,22S22,75.6,22,141.7
		C22,207.8,75.6,261.4,141.7,261.4"/>
	<g>
		<path class="st4" d="M106.6,95.7c-1.7,0-3.9-2.6-3.9-4.9c0-0.6,0.1-1.2,0.5-1.7c2.9-4.9,9.1-7.8,15.2-7.8c8.5,0,17,6.3,17,15.9
			c0,5.6-2.8,11.1-8,13.5c3,1.6,4.4,4.4,4.4,7.5c0,5.9-5.5,12.6-14.3,12.6c-11.5,0-18.1-3.3-18.1-5.6c0-1.5,1.6-3.1,3.3-3.1
			c1.5,0,2.2,1.5,4,3.1c4.8-2.8,5.1-23.5,8.9-35.4c0.3-1.2,1.4-1.7,2.6-1.7c1.9,0,4,1.3,4,3.1c0,0.2,0,0.4-0.1,0.6
			c-3,9.7-4.2,31.8-13.5,34.9c1.9,1.5,4.6,2.6,7.4,2.6c5.7,0,9.3-6.2,9.3-11.6c0-2.4-0.7-4.5-2.2-6c-0.6,0.1-1.1,0.1-1.7,0.1
			c-1.5,0-2.9-0.3-2.9-1.2c0-1,1.3-1.5,2.7-1.5c0.7,0,1.2,0.1,1.9,0.1c3.4-2.4,6-8.9,6-15.3c0-2.9-0.6-5.9-1.8-8.3l-0.1-0.1
			c-1.7-0.8-3.5-1.2-5.2-1.2c-5.5,0-11.2,3.7-14,10.1C107.7,95.4,107.2,95.7,106.6,95.7z"/>
		<path class="st4" d="M153.9,122.5c-2.7,4.8-6.4,8.2-10.3,8.2c-5.5,0-7.8-5.2-7.8-11.6c0-5.1,1.3-10.1,3.1-13.9
			c0.6-1.2,1.7-2.9,3.5-2.6c1.3-4.4,4.2-7.7,8.5-7.7c5.5,0,7.8,4.7,7.8,10.7c0,4.8-1.4,10.3-3.7,15c2.5-0.1,5.1-1.2,6.8-4.4
			c0.4-0.7,0.8-1.2,1.2-1.2c0.2,0,0.4,0.1,0.4,0.5c0,0.3-0.1,0.7-0.3,1.2C162.3,119.2,158.6,122.5,153.9,122.5z M149.2,121.8
			c-3.7-1.2-5.8-4.1-6.9-7.4c-0.5,2.2-0.8,4.5-0.8,6.5c0,3.7,0.9,6.4,3.2,6.4c0.2,0,0.4,0,0.6-0.1
			C146.7,127.1,148.1,124.9,149.2,121.8z M145.6,109.2c0,4.1,1.2,8.2,4.5,10.1c1.5-4.9,2.6-11.2,2.6-15.7c0-3.6-0.6-6.2-2.3-6.2
			C148.1,97.5,145.6,103.2,145.6,109.2z"/>
		<path class="st4" d="M179.8,123.5c0,1.9,0.4,2.9,1.4,2.9c2.4,0,5.3-6.5,7.2-10.3c0.3-0.8,0.9-1.2,1.2-1.2c0.3,0,0.4,0.3,0.4,0.7
			c0,0.3-0.1,0.7-0.3,1.2c-1.7,4.2-4.5,13.8-11.3,13.8c-2.8,0-4.4-3-4.4-7.1c0-0.2,0-0.6,0.1-1c-2.4,5.1-5.1,8.2-7.5,8.2
			c-3.7,0-5.3-4-5.3-9.4c0-10.5,6.1-26.2,14.1-26.2c1.9,0,3,1.7,3.6,3.3c1.5-6.5,3.1-12.8,4.1-16.6c0.3-1,1.2-1.5,2.2-1.5
			c1.7,0,3.8,1.4,3.8,4C189.2,88.7,179.8,115.5,179.8,123.5z M178.4,101.1c-0.1-0.9-0.4-2.1-1.9-2.1c-4.6,0-8.9,16.2-8.9,23.5
			c0,2.1,0.3,3.4,1.2,3.4c2.8,0,5.5-6.9,7.6-15.3C177,107.6,177.7,104.4,178.4,101.1z"/>
		<path class="st4" d="M184.8,146.3c0-7.6,7.3-10.5,14.3-14.8c0.3-2.1,0.6-4.4,1-6.8c-1.8,3.7-4.2,5.9-7.1,5.9
			c-4.2,0-5.5-2.9-5.5-7.3c0-7,3.5-17.7,5-26.2c0.2-1.4,1.2-1.9,2.5-1.9c1.8,0,3.9,1.3,3.9,3c0,2.4-1.1,6-1.9,9.7
			c-1.4,6.1-2.8,12.6-2.8,15.3c0,1.7,0.4,2.6,1.5,2.6c3.7,0,5.1-8,8.2-19.9c1.1-5.2,1.9-8.9,1.9-8.9c0.3-1.2,1.4-1.7,2.6-1.7
			c1.7,0,3.7,1.1,3.7,2.7c0,1.9-1.1,2.6-5.5,28.1c2.8-2.6,5.3-5.8,7.4-10.1c0.3-0.8,0.9-1.2,1.2-1.2c0.3,0,0.4,0.2,0.4,0.7
			c0,0.3-0.1,0.7-0.3,1.2c-2.6,6.4-6,10.7-9.6,13.8c-3.1,16.4-8.3,22.5-13.8,22.5C188.5,153.1,184.8,150.1,184.8,146.3z
			 M190.3,150.9c6.5,0,7.8-10.5,8.3-15.1c-4.9,3.1-10.9,6.4-10.9,12c0,1.5,0.8,2.4,1.9,3.1C189.8,150.9,190,150.9,190.3,150.9z"/>
	</g>
	<path class="st4" d="M68.1,178.5c-1.8,8.2-3.3,15.5-3.5,18c-0.1,1.7-1.3,2.1-2.6,2.1c-1.5,0-3-0.8-3-3c0-2.3,7-37.3,9.7-47.1
		c0.5-1.7,1.9-2.5,3.2-2.5c1.5,0,3,1,3,2.6c0,0.3,0,0.5-0.6,2.8c2-4.4,4.5-7.4,7.5-7.4c4.2,0,6,4.1,6,9.1c0,8.2-4.4,19.5-10.1,24.3
		c6.3-1.4,10.1-5.3,13.4-12.2c0.3-0.8,0.8-1.1,1.1-1.1c0.3,0,0.5,0.3,0.5,0.8c0,0.3-0.1,0.6-0.2,1c-3.5,8.7-8.2,14.1-18.3,14.1
		C71,180,69.1,179.3,68.1,178.5z M69,174.8c0.8,0,1.7,0.4,2.6,1.6c4.7-0.8,9.5-15.9,9.5-23.4c0-2.5-0.6-4-1.8-4
		c-2.7,0-5.8,6.8-8,15.7L69,174.8z M109.2,173.9c0,1,0.3,1.7,1,1.7c1.5,0,3.6-3.7,6.9-10.4c0.3-0.8,0.9-1.2,1.2-1.2
		c0.2,0,0.4,0.2,0.4,0.7c0,0.3-0.1,0.7-0.3,1.2c-1,2.4-5.3,13.8-10.7,13.8c-2.1,0-4.7-1.2-4.7-6.4c0-0.3,0-0.8,0.1-1.3
		c-2.3,4.7-4.9,7.7-7.1,7.7c-3.7,0-5.3-4-5.3-9.4c0-10.5,6.1-26.2,14.1-26.2c2.8,0,4.5,3,4.6,5.1h0.4c1.7,0,3.8,1.5,3.8,4
		c0,0.3,0,0.7-0.1,1C111.7,163.1,109.2,170.6,109.2,173.9z M105.4,160.8l2.2-10c0-1.2-0.2-2.6-1.9-2.6c-4.6,0-8.9,16.2-8.9,23.5
		c0,2.1,0.3,3.4,1.2,3.4C100.6,175,103.7,168.4,105.4,160.8z M120.7,177.7c-0.2,1.5-1.4,2.3-2.6,2.3c-1.3,0-2.6-1-2.6-3
		c0-4.9,2.4-18.5,5.5-29.2c0.3-1.2,1.5-1.7,2.6-1.7c1.6,0,3.4,1.1,3.4,3c0,1.2-0.8,2.9-1.2,4.2c2.5-5.3,5.5-9.2,8.9-9.2
		c2.6,0,3.5,1.5,3.5,4.5c0,3.9-3.3,10.3-3.3,12.8c0,1,0.6,1.5,1.6,1.5c2.3,0,5.1-5.1,6.3-7.8c0.4-1,0.9-1.7,1.3-1.7
		c0.8,0,0.5,1.5,0.3,1.9c-1,4-5.1,10.2-9.8,10.2c-2.8,0-5.4-1.2-5.4-5.3c0-3.8,3-8.5,3-10.6c0-0.5-0.2-0.8-0.7-0.8
		c-2.4,0-8,9.9-9.8,21.6L120.7,177.7z M144.5,144.2c0.8-3.1,1.7-6.1,2.6-8.9c0.3-1.2,1.5-1.7,2.8-1.7c1.7,0,3.6,1.1,3.6,3.5
		c0,1.7-1,4.8-1.8,7.6c3.4,0.3,6.6,0.5,6.6,1.5s-2.6,1.7-7.6,2.2c-2.6,9.1-5.9,19.9-5.9,24.9c0,1.8,0.4,2.9,1.5,2.9
		c2.7,0,6.2-7.6,8.2-10.7c0.5-0.8,0.8-1.2,1.2-1.2c0.3,0,0.5,0.3,0.5,0.8c0,0.3-0.1,0.7-0.3,1.2c-1,2.4-5.8,13.8-11.6,13.8
		c-2.7,0-5-1.9-5-7.1c0-4.6,1.7-14.3,4.2-24.3l-2.2-0.2c-0.8-0.1-1.2-1-1.2-1.9c0-1,0.5-2.1,1.2-2.1
		C142.3,144.1,143.4,144.1,144.5,144.2z M161.9,150.7c-0.7-1.9-1-3.7-1-5.5c0-4.6,2.1-8.4,4.8-8.4c1.7,0,2.6,1.2,2.6,3.1
		c0,2.6-1.5,6.6-4.4,11.2c1.5,5,5.3,11.9,5.3,17.4c0,5.6-2.8,11.3-9.9,11.3c-7.8,0-10.5-4-10.5-7.3c0-2.4,1.4-4.9,3.9-4.4
		C156.1,162.8,159.8,155,161.9,150.7z M154.4,169.1c0.8,0.8,0.7,2.1,0.7,5.6c0,2.3,0.8,3.5,2.4,3.5c2.3,0,5.1-2.4,5.1-11.1
		c0-2.4-0.3-7.1-0.5-11.3C159.8,161,156.5,166,154.4,169.1z"/>
</g>
</svg>
