<?xml version="1.0" encoding="utf-8"?>
<!-- Generator: Adobe Illustrator 16.0.4, SVG Export Plug-In . SVG Version: 6.00 Build 0)  -->
<!DOCTYPE svg PUBLIC "-//W3C//DTD SVG 1.1//EN" "http://www.w3.org/Graphics/SVG/1.1/DTD/svg11.dtd">
<svg version="1.1" id="Layer_1" xmlns="http://www.w3.org/2000/svg" xmlns:xlink="http://www.w3.org/1999/xlink" x="0px" y="0px"
	 width="283.5px" height="283.5px" viewBox="0 0 283.5 283.5" style="enable-background:new 0 0 283.5 283.5;" xml:space="preserve"
	>
<style type="text/css">
<![CDATA[
	.st0{fill:#465055;}
	.st1{fill:#F0EC75;}
	.st2{fill:#F26B6D;}
	.st3{fill:#5BC4BF;}
	.st4{fill:#FDFBE1;}
]]>
</style>
<g>
	<path class="st0" d="M141.7,261.4c66.1,0,119.7-53.6,119.7-119.7C261.4,75.6,207.8,22,141.7,22C75.6,22,22,75.6,22,141.7
		C22,207.8,75.6,261.4,141.7,261.4"/>
	<g>
		<path class="st4" d="M94.5,94.4c1.3,0,2.6,0.8,2.6,2.4c0,4.8-1.6,18.6-1.4,35.4c6.1-15,10.1-28.3,11.4-33.2
			c0.3-3.3,1.1-5.1,3.7-5.1c1.3,0,2.6,0.8,2.6,2.4c0,2.7-2.6,27.2-2.6,36.7c0,4,0.3,6.5,1.2,6.5c1.7,0,3.6-4.4,6.2-9.9
			c0.4-0.8,0.9-1.2,1.2-1.2c0.3,0,0.4,0.2,0.4,0.7c0,0.3-0.1,0.8-0.3,1.2c-2.1,5.1-4.7,14-10.3,14c-3.5,0-4.7-6.7-4.7-15.4
			c0-5.8,0.6-12.5,1.2-18.7c-2.4,8.6-6.2,20.2-10,30.1c-0.5,1.3-2,2-3.5,2c-1.2,0-2.4-0.5-2.4-1.7c-0.2-3.1-0.4-8.1-0.4-14.1
			c0-5.3,0.1-11.4,0.6-17.3c-5.2,18.1-9.4,31-10.6,33.6c-0.3,0.7-0.8,1-1.5,1c-1.2,0-2.6-1.2-2.6-2.7c0-2.3,8.5-15.6,15.5-42
			c0,0,0.1-0.7,0.3-1.7C91.4,95.3,92.9,94.4,94.5,94.4z"/>
		<path class="st4" d="M136.3,138.1c0,1,0.3,1.7,1,1.7c1.5,0,3.6-3.7,6.9-10.4c0.3-0.8,0.9-1.2,1.2-1.2c0.2,0,0.4,0.2,0.4,0.7
			c0,0.3-0.1,0.7-0.3,1.2c-1,2.4-5.3,13.8-10.7,13.8c-2.1,0-4.7-1.2-4.7-6.4c0-0.3,0-0.8,0.1-1.3c-2.3,4.7-4.9,7.7-7.1,7.7
			c-3.7,0-5.3-4-5.3-9.4c0-10.5,6.1-26.2,14.1-26.2c2.8,0,4.5,3,4.6,5.1h0.4c1.7,0,3.8,1.5,3.8,4c0,0.3,0,0.7-0.1,1
			C138.7,127.3,136.3,134.8,136.3,138.1z M132.5,124.9l2.2-10c0-1.2-0.2-2.6-1.9-2.6c-4.6,0-8.9,16.2-8.9,23.5
			c0,2.1,0.3,3.4,1.2,3.4C127.7,139.2,130.8,132.6,132.5,124.9z"/>
		<path class="st4" d="M148.7,108.4c0.8-3.1,1.7-6.1,2.6-8.9c0.3-1.2,1.5-1.7,2.8-1.7c1.7,0,3.6,1.1,3.6,3.5c0,1.7-1,4.8-1.8,7.6
			c3.4,0.3,6.6,0.5,6.6,1.5c0,1-2.6,1.7-7.6,2.2c-2.6,9.2-5.9,19.9-5.9,24.9c0,1.8,0.4,2.9,1.5,2.9c2.7,0,6.2-7.6,8.2-10.7
			c0.5-0.8,0.8-1.2,1.2-1.2c0.3,0,0.5,0.3,0.5,0.8c0,0.3-0.1,0.7-0.3,1.2c-1,2.4-5.8,13.8-11.6,13.8c-2.7,0-5-1.9-5-7.1
			c0-4.6,1.7-14.3,4.2-24.3l-2.2-0.2c-0.8-0.1-1.2-1-1.2-1.9c0-1,0.5-2.1,1.2-2.1C146.4,108.3,147.6,108.3,148.7,108.4z"/>
		<path class="st4" d="M175.3,138.7c0,1.1,0.3,1.7,1.2,1.7c2.3,0,4.6-5.3,7.5-11c0.3-0.7,0.9-1.2,1.2-1.2c0.3,0,0.4,0.2,0.4,0.6
			c0,0.3-0.1,0.7-0.3,1.2c-1,2.5-4.4,14-10.5,14c-2.8,0-5.4-1.9-5.4-6.1c0-6,5.5-18.9,5.5-23.4c0-1-0.3-1.7-1-1.7
			c-2,0-7.5,8.2-10.5,21.1c-1.6,7.5-1.4,10.1-4.2,10.1c-1.3,0-2.6-1-2.6-3c0-4.5,4.9-29.1,9.6-45c0.3-1.2,1.5-1.8,2.7-1.8
			c1.7,0,3.5,1.1,3.5,2.9c0,2.2-1.9,6.1-5.3,20.9c2.5-5.5,5.5-9.5,8.7-9.5c4.1,0,5.1,3.3,5.1,5.8
			C181.1,122.2,175.3,134.2,175.3,138.7z"/>
	</g>
	<g>
		<path class="st4" d="M110.3,220c-1.5,0-3.1-1-3.1-3.1c0-2.8,2.4-14.6,4-21.1c-1.8,2.8-3.7,4.5-5.5,4.5c-3.7,0-5.3-4-5.3-9.4
			c0-10.5,6.1-26.2,14.1-26.2c3,0,4.4,3.4,4.4,5.5c0,0.1,0,0.2,0,0.3c0.3-0.1,0.8-0.2,1.2-0.2c1.6,0,3.4,1.1,3.4,3.1
			c0,0.3,0,0.7-0.1,1.1c-2.1,7.4-4.9,18.9-6.9,27.8c3.1-6.6,7.8-10.3,11-16.5c0.3-0.8,0.8-1,1-1c0.3,0,0.6,0.3,0.6,0.8
			c0,0.2-0.1,0.6-0.2,0.9c-4.9,11.6-12.3,15.6-14.3,25c-0.6,2.8-1,5.1-1.2,6.3C112.9,219.3,111.6,220,110.3,220z M117.5,172
			c0-1.2-0.2-3.3-2-3.3c-4.6,0-8.9,16.2-8.9,23.5c0,2.1,0.3,3.4,1.2,3.4C111.9,195.6,115.2,180,117.5,172z"/>
		<path class="st4" d="M132.8,192.7c0,1.9,0.5,2.9,1.5,2.9c4,0,6.7-13.4,9.8-27.7c0.5-2.3,2.1-3.3,3.8-3.3c1.5,0,3,1,3,2.8
			c0,2.8-5.8,22.2-5.8,27c0,1.2,0.3,1.9,0.9,1.9c2.5,0,6.7-8.9,7.5-10.4c0.4-0.8,0.8-1.2,1.2-1.2c0.3,0,0.5,0.2,0.5,0.7
			c0,0.3-0.1,0.7-0.3,1.2c-1,2.4-5.5,13.8-11.3,13.8c-2.1,0-4.6-1.1-4.7-5.8c-1.9,3.6-4.2,5.8-7,5.8c-3.9,0-5.2-3-5.2-7.4
			c0-6.7,2.9-16.8,4.3-25.1c0.3-2.1,2.1-3.1,3.7-3.1c1.5,0,3,0.9,3,2.6c0,0.2,0,0.5-0.1,0.7C135.4,178.9,132.8,188.2,132.8,192.7z"
			/>
		<path class="st4" d="M158.5,193.4c0,1.5,0.3,2.3,1.2,2.3c2.6,0,6.4-8.4,7.1-9.9c0.4-0.8,0.8-1.2,1.2-1.2c0.3,0,0.5,0.3,0.5,0.7
			c0,0.3-0.1,0.7-0.3,1.2c-1,2.4-5,13.8-10.8,13.8c-2.7,0-5-1.9-5-7.1c0-4.2,2.6-17,5.4-27.2c0.3-1.2,1.5-1.8,2.8-1.8
			c1.7,0,3.6,1.2,3.6,3.5C164.3,171.4,158.5,188.1,158.5,193.4z M158.6,157.7c0-3,2.4-6.9,6.2-6.9c2.8,0,4.1,1.7,4.1,3.6
			c0,2.9-2.8,6.6-7.2,6.6C159.6,161,158.6,159.5,158.6,157.7z"/>
		<path class="st4" d="M167,187.9c-0.3,0-0.4-0.2-0.4-0.6c0-0.3,0.1-0.8,0.3-1.5c2-5,3.3-9.4,4.6-14.6c-0.8-0.8-1.1-1.7-1.1-2.6
			c0-1.9,1.5-3.9,3-3.9c1,0,1.8,1,1.8,3c4.9-0.1,12.5-3.3,13.9-3.3c1.5,0,2.4,1.3,2.4,2.8c0,1.2-0.8,2.9-2.6,3.7l-1.6,0.7
			c0.5,1.3,0.7,2.7,0.7,4.2c0,6.9-5.2,14.5-11,18.7c1.7,0.8,3,2,3.9,3.5c4.4-3,8.7-6.7,11.2-12.2c0.3-0.8,0.9-1.2,1.3-1.2
			c0.3,0,0.4,0.2,0.4,0.6s-0.1,0.8-0.3,1.4c-2.8,6.5-7.2,10.8-11.6,14.2c0.1,0.8,0.3,1.7,0.3,2.7c0,6.4-4.5,19.4-12.7,19.4
			c-1.1,0-3.1-0.4-3.5-1.2c-1.8-0.5-3.6-2.8-3.6-5.6c0-6.9,6.8-10.7,13.5-14.8c-0.3-1.9-1-3.6-2.3-4.6c-1.5,0.7-3,1.2-4.4,1.2
			c-1.7,0-2.6-0.7-2.6-1.7c0-1.2,1.5-2.7,4.4-2.7c0.8,0,1.5,0.1,2.2,0.1c4.2-4.5,8.6-15.4,11.7-21.1c-2,0.5-4.2,0.8-6.1,0.8
			c-1.8,0-3.5-0.2-4.9-0.6c-1.7,5.5-2.9,8.3-5.8,14.1C167.8,187.5,167.3,187.9,167,187.9z M175.9,205c-4.9,3.4-10.6,7.3-10.6,12.5
			c0,1.5,0.6,2.4,1.7,3c0.2,0.1,0.4,0.1,0.6,0.1c2.2,0,5.6-2.8,8-13.2C175.7,206.7,175.8,205.8,175.9,205z"/>
	</g>
</g>
</svg>
