<?xml version="1.0" encoding="utf-8"?>
<!-- Generator: Adobe Illustrator 16.0.4, SVG Export Plug-In . SVG Version: 6.00 Build 0)  -->
<!DOCTYPE svg PUBLIC "-//W3C//DTD SVG 1.1//EN" "http://www.w3.org/Graphics/SVG/1.1/DTD/svg11.dtd">
<svg version="1.1" id="Layer_1" xmlns="http://www.w3.org/2000/svg" xmlns:xlink="http://www.w3.org/1999/xlink" x="0px" y="0px"
	 width="510.2px" height="510.2px" viewBox="0 0 510.2 510.2" style="enable-background:new 0 0 510.2 510.2;" xml:space="preserve"
	>
<style type="text/css">
<![CDATA[
	.st0{fill:#474F54;}
	.st1{fill:#7B95A3;}
	.st2{fill:#1D1D1B;}
	.st3{fill:#282828;}
	.st4{fill:#F8B040;}
	.st5{fill:#FFFFFF;}
]]>
</style>
<g>
	<path class="st1" d="M265.8,104.5c-33-1.3-79.1-0.2-118.1,26.2c-42.7,29-49.5,70.3-38.3,97c16.8,39.6,34,57.2,53.3,64.6
		c61.9,23.7,90.4-23.8,90.4-23.8s22.7,46.6,97.7,23.1c15.2-4.8,32.3-18.5,44.8-45.5c19.8-42.8,8.4-71-17.1-100.2
		C355.5,119.5,323.2,106.8,265.8,104.5"/>
	<path class="st1" d="M165.9,132.8c-12.5-7.5-25-21.9-35.6-34c-7.4-8.5-14.9-15.5-20.6-25.3c-10.9,7.4-3.1,26.9,5.3,33.4
		c-10.9,1.5-7.9,17.9,1.8,19.7c-5.1,2.6-6.5,7.2-4.7,13.4c1.1,3.8,7.9,17,11.5,18.1c6.4,1.9,20.4-12.4,25.3-16.2
		C154,138,159.1,134.4,165.9,132.8"/>
	<path class="st1" d="M343.8,127.8c13.2-8,25.5-22.4,35.6-34c7.4-8.5,14.9-15.5,20.6-25.3c10.9,7.4,3.1,26.9-5.3,33.4
		c10.9,1.5,7.9,17.9-1.8,19.7c5.1,2.6,6.5,7.2,4.7,13.4c-1.1,3.8-7.9,17-11.5,18.1c-6.4,1.9-20.4-12.4-25.3-16.2
		C355.8,133,350.6,129.4,343.8,127.8"/>
	<path class="st5" d="M241.4,259.3c0,0,9.9-19.8,0-60c-9.9-40.2-42.9-73.2-89.7-44.8c-46.8,28.4-19.1,96.3,4.6,116.7
		c23.7,20.4,55.4,17.8,67.3,9.9C235.5,273.1,241.4,259.3,241.4,259.3"/>
	<path class="st5" d="M270.5,259.3c0,0-9.9-19.8,0-60c9.9-40.2,42.9-73.2,89.7-44.8c46.8,28.4,19.1,96.3-4.6,116.7
		c-23.7,20.4-55.4,17.8-67.3,9.9C276.5,273.1,270.5,259.3,270.5,259.3"/>
	<path class="st4" d="M270.5,249.6c-9.6-0.9-20.9-1.7-31-0.2c-3.7,0.6-9.6,0.5-11.2,4c-1.7,3.7,2.3,10.2,4,13.2
		c4,7,10.5,13.4,17.3,17.6c9,5.5,13.5-3.7,19.1-10.5C273.4,267.8,287.5,251.2,270.5,249.6"/>
	<path class="st2" d="M354,220.4c0,13.1-10.6,23.7-23.7,23.7c-13.1,0-23.7-10.6-23.7-23.7s10.6-23.7,23.7-23.7
		C343.4,196.6,354,207.3,354,220.4"/>
	<path class="st2" d="M344.3,220.4c0,7.8-6.3,14.1-14.1,14.1c-7.8,0-14.1-6.3-14.1-14.1c0-7.8,6.3-14.1,14.1-14.1
		C338,206.3,344.3,212.6,344.3,220.4"/>
	<path class="st2" d="M215.5,221c0,13.1-10.6,23.7-23.7,23.7S168,234.1,168,221c0-13.1,10.6-23.7,23.7-23.7S215.5,207.9,215.5,221"
		/>
	<path class="st2" d="M205.8,221c0,7.8-6.3,14.1-14.1,14.1c-7.8,0-14.1-6.3-14.1-14.1c0-7.8,6.3-14.1,14.1-14.1
		C199.5,207,205.8,213.3,205.8,221"/>
	<path class="st5" d="M203.3,217.3c0,2.5-2,4.5-4.5,4.5c-2.5,0-4.5-2-4.5-4.5c0-2.5,2-4.5,4.5-4.5
		C201.3,212.8,203.3,214.8,203.3,217.3"/>
</g>
<path class="st5" d="M345.1,217.3c0,2.5-2,4.5-4.5,4.5c-2.5,0-4.5-2-4.5-4.5c0-2.5,2-4.5,4.5-4.5C343,212.8,345.1,214.8,345.1,217.3
	"/>
</svg>
