<?xml version="1.0" encoding="utf-8"?>
<!-- Generator: Adobe Illustrator 16.0.4, SVG Export Plug-In . SVG Version: 6.00 Build 0)  -->
<!DOCTYPE svg PUBLIC "-//W3C//DTD SVG 1.1//EN" "http://www.w3.org/Graphics/SVG/1.1/DTD/svg11.dtd">
<svg version="1.1" id="Layer_1" xmlns="http://www.w3.org/2000/svg" xmlns:xlink="http://www.w3.org/1999/xlink" x="0px" y="0px"
	 width="777px" height="250.5px" viewBox="0 0 777 250.5" style="enable-background:new 0 0 777 250.5;" xml:space="preserve">
<style type="text/css">
<![CDATA[
	.st0{fill:#7A94A3;}
	.st1{fill:#1D1D1B;}
	.st2{fill:#282828;}
	.st3{fill:#F8B03F;}
	.st4{fill:#FFFFFF;}
	.st5{fill:none;stroke:#464E53;stroke-width:7;stroke-miterlimit:10;}
]]>
</style>
<g>
	<path class="st2" d="M363.1,85.9c12.6,0,19.1,7.6,19.1,20.8v2.6h-12.3v-3.4c0-5.9-2.4-8.1-6.5-8.1c-4.1,0-6.5,2.2-6.5,8.1
		c0,6,2.6,10.5,11.1,17.9c10.9,9.6,14.3,16.4,14.3,25.9c0,13.2-6.6,20.8-19.4,20.8s-19.4-7.6-19.4-20.8v-5.1h12.3v5.9
		c0,5.9,2.6,8,6.7,8c4.1,0,6.7-2.1,6.7-8c0-6-2.6-10.5-11.1-17.9c-10.9-9.6-14.3-16.4-14.3-25.8C344,93.5,350.5,85.9,363.1,85.9z"/>
	<path class="st2" d="M417.1,145.6h0.2l8.7-58.7h18.1v82.6h-12.3v-59.3h-0.2l-8.7,59.3h-12.3l-9.4-58.4H401v58.4h-11.3V86.9h18.1
		L417.1,145.6z"/>
	<path class="st2" d="M495.6,169.5h-13.1l-2.2-15h-15.9l-2.2,15h-11.9l13.2-82.6h19L495.6,169.5z M466,143.3h12.5l-6.1-41.8h-0.2
		L466,143.3z"/>
	<path class="st2" d="M528.8,169.5c-0.7-2.1-1.2-3.4-1.2-10.2v-13c0-7.7-2.6-10.5-8.5-10.5h-4.5v33.6h-13V86.9h19.6
		c13.5,0,19.2,6.3,19.2,19v6.5c0,8.5-2.7,13.9-8.5,16.6v0.2c6.5,2.7,8.6,8.8,8.6,17.5v12.7c0,4,0.1,7,1.4,10H528.8z M514.6,98.7
		v25.4h5.1c4.8,0,7.8-2.1,7.8-8.7v-8.1c0-5.9-2-8.5-6.6-8.5H514.6z"/>
	<path class="st2" d="M545.3,86.9h40.1v11.8h-13.6v70.8h-13V98.7h-13.6V86.9z"/>
	<path class="st2" d="M608.3,106.7c0-13.2,7-20.8,19.7-20.8c12.7,0,19.7,7.6,19.7,20.8v43c0,13.2-7,20.8-19.7,20.8
		c-12.7,0-19.7-7.6-19.7-20.8V106.7z M621.3,150.5c0,5.9,2.6,8.1,6.7,8.1c4.1,0,6.7-2.2,6.7-8.1v-44.6c0-5.9-2.6-8.1-6.7-8.1
		c-4.1,0-6.7,2.2-6.7,8.1V150.5z"/>
	<path class="st2" d="M685,125.5h-0.2l-4.6,44h-17.8l-9.2-82.6h12.6l6.8,65.2h0.2l6.1-65.2h12.5l6.4,65.6h0.2l6.6-65.6h11.3
		l-9.2,82.6h-17.2L685,125.5z"/>
	<path class="st2" d="M722.6,86.9h13v70.8h21.4v11.8h-34.3V86.9z"/>
</g>
<g>
	<path class="st2" d="M444,192.6h7.9v33.6H465v5.6h-21V192.6z"/>
	<path class="st2" d="M476.4,209.1h10.9v5.6h-10.9v11.5h13.7v5.6h-21.7v-39.2h21.7v5.6h-13.7V209.1z"/>
	<path class="st2" d="M520.8,231.8h-8l-1.4-7.1h-9.8l-1.4,7.1H493l8.1-39.2h11.6L520.8,231.8z M502.7,219.3h7.7l-3.8-19.8h-0.1
		L502.7,219.3z"/>
	<path class="st2" d="M541.1,231.8c-0.4-1-0.7-1.6-0.7-4.8v-6.2c0-3.6-1.6-5-5.2-5h-2.7v16h-7.9v-39.2h12c8.2,0,11.8,3,11.8,9v3.1
		c0,4-1.7,6.6-5.2,7.9v0.1c4,1.3,5.3,4.2,5.3,8.3v6c0,1.9,0.1,3.3,0.9,4.8H541.1z M532.4,198.2v12h3.1c3,0,4.8-1,4.8-4.1v-3.9
		c0-2.8-1.2-4-4-4H532.4z"/>
	<path class="st2" d="M560.7,203.4h-0.1v28.4h-7.2v-39.2h10l8,23.5h0.1v-23.5h7.1v39.2h-8.2L560.7,203.4z"/>
	<path class="st2" d="M584.4,192.6h7.9v39.2h-7.9V192.6z"/>
	<path class="st2" d="M605.3,203.4h-0.1v28.4H598v-39.2h10l8,23.5h0.1v-23.5h7.1v39.2h-8.2L605.3,203.4z"/>
	<path class="st2" d="M640.9,209.9H652v12.4c0,6.3-4,9.9-11.8,9.9c-7.8,0-11.8-3.6-11.8-9.9V202c0-6.3,4-9.9,11.8-9.9
		c7.8,0,11.8,3.6,11.8,9.9v3.8h-7.5v-4.2c0-2.8-1.6-3.9-4.1-3.9c-2.5,0-4.1,1.1-4.1,3.9v21.2c0,2.8,1.6,3.8,4.1,3.8
		c2.5,0,4.1-1,4.1-3.8v-7.2h-3.6V209.9z"/>
</g>
<line class="st5" x1="672.5" y1="211.7" x2="754" y2="211.7"/>
<line class="st5" x1="348.7" y1="207.6" x2="427.6" y2="207.6"/>
<g>
	<g>
		<path class="st0" d="M181.5,43.9c-33-1.3-79.1-0.2-118.1,26.2C20.8,99,13.9,140.3,25.2,167c16.8,39.6,34,57.2,53.3,64.6
			c61.9,23.7,90.4-23.8,90.4-23.8s22.7,46.6,97.7,23.1c15.2-4.8,32.3-18.5,44.8-45.5c19.8-42.8,8.4-71-17.1-100.2
			C271.2,58.8,238.9,46.2,181.5,43.9"/>
		<path class="st0" d="M81.6,72.2c-12.5-7.5-25-21.9-35.6-34c-7.4-8.5-14.9-15.5-20.6-25.3c-10.9,7.4-3.1,26.9,5.3,33.4
			c-10.9,1.5-7.9,17.9,1.8,19.7c-5.1,2.6-6.5,7.2-4.7,13.4c1.1,3.8,7.9,17,11.5,18.1c6.4,1.9,20.4-12.4,25.3-16.2
			C69.7,77.4,74.8,73.7,81.6,72.2"/>
		<path class="st0" d="M259.5,67.2c13.2-8,25.5-22.4,35.6-34c7.4-8.5,14.9-15.5,20.6-25.3c10.9,7.4,3.1,26.9-5.3,33.4
			c10.9,1.5,7.9,17.9-1.8,19.7c5.1,2.6,6.5,7.2,4.7,13.4c-1.1,3.8-7.9,17-11.5,18.1c-6.4,1.9-20.4-12.4-25.3-16.2
			C271.4,72.4,266.3,68.7,259.5,67.2"/>
		<path class="st4" d="M157.1,198.6c0,0,9.9-19.8,0-60c-9.9-40.2-42.9-73.2-89.7-44.8c-46.8,28.4-19.1,96.3,4.6,116.7
			c23.7,20.4,55.4,17.8,67.3,9.9C151.2,212.5,157.1,198.6,157.1,198.6"/>
		<path class="st4" d="M186.2,198.6c0,0-9.9-19.8,0-60c9.9-40.2,42.9-73.2,89.7-44.8c46.8,28.4,19.1,96.3-4.6,116.7
			c-23.7,20.4-55.4,17.8-67.3,9.9C192.1,212.5,186.2,198.6,186.2,198.6"/>
		<path class="st3" d="M186.1,188.9c-9.6-0.9-20.9-1.7-31-0.2c-3.7,0.6-9.6,0.5-11.2,4c-1.7,3.7,2.3,10.2,4,13.2
			c4,7,10.5,13.4,17.3,17.6c9,5.5,13.5-3.7,19.1-10.5C189.1,207.2,203.1,190.6,186.1,188.9"/>
		<path class="st1" d="M269.7,159.7c0,13.1-10.6,23.7-23.7,23.7c-13.1,0-23.7-10.6-23.7-23.7c0-13.1,10.6-23.7,23.7-23.7
			C259,136,269.7,146.6,269.7,159.7"/>
		<path class="st1" d="M260,159.7c0,7.8-6.3,14.1-14.1,14.1c-7.8,0-14.1-6.3-14.1-14.1c0-7.8,6.3-14.1,14.1-14.1
			C253.7,145.7,260,152,260,159.7"/>
		<path class="st1" d="M131.2,160.4c0,13.1-10.6,23.7-23.7,23.7s-23.7-10.6-23.7-23.7c0-13.1,10.6-23.7,23.7-23.7
			S131.2,147.3,131.2,160.4"/>
		<path class="st1" d="M121.5,160.4c0,7.8-6.3,14.1-14.1,14.1c-7.8,0-14.1-6.3-14.1-14.1c0-7.8,6.3-14.1,14.1-14.1
			C115.2,146.3,121.5,152.6,121.5,160.4"/>
		<path class="st4" d="M119,156.7c0,2.5-2,4.5-4.5,4.5c-2.5,0-4.5-2-4.5-4.5c0-2.5,2-4.5,4.5-4.5C117,152.1,119,154.2,119,156.7"/>
	</g>
	<path class="st4" d="M260,156.7c0,2.5-2,4.5-4.5,4.5c-2.5,0-4.5-2-4.5-4.5c0-2.5,2-4.5,4.5-4.5C258,152.1,260,154.2,260,156.7"/>
</g>
</svg>
