<?xml version="1.0" encoding="utf-8"?>
<!-- Generator: Adobe Illustrator 16.0.4, SVG Export Plug-In . SVG Version: 6.00 Build 0)  -->
<!DOCTYPE svg PUBLIC "-//W3C//DTD SVG 1.1//EN" "http://www.w3.org/Graphics/SVG/1.1/DTD/svg11.dtd">
<svg version="1.1" xmlns="http://www.w3.org/2000/svg" xmlns:xlink="http://www.w3.org/1999/xlink" x="0px" y="0px" width="318px"
	 height="358.5px" viewBox="0 0 318 358.5" style="enable-background:new 0 0 318 358.5;" xml:space="preserve">
<style type="text/css">
<![CDATA[
	.st0{fill:#464E53;}
	.st1{fill:#7A94A3;}
	.st2{fill:#1D1D1B;}
	.st3{fill:#282828;}
	.st4{fill:#F8B03F;}
	.st5{fill:#FFFFFF;}
]]>
</style>
<g id="Layer_1">
	<g>
		<path class="st3" d="M20.8,256c9.2,0,13.9,5,13.9,13.7v1.7h-8.9v-2.3c0-3.9-1.7-5.4-4.7-5.4c-3,0-4.7,1.5-4.7,5.4
			c0,4,1.9,6.9,8.1,11.8c7.9,6.3,10.4,10.8,10.4,17c0,8.7-4.8,13.7-14.1,13.7c-9.3,0-14-5-14-13.7v-3.3h8.9v3.9
			c0,3.9,1.9,5.3,4.9,5.3s4.9-1.4,4.9-5.3c0-4-1.9-6.9-8.1-11.8c-7.9-6.3-10.4-10.8-10.4-17C6.9,261,11.7,256,20.8,256z"/>
		<path class="st3" d="M60.1,295.3h0.2l6.3-38.7h13.1v54.5h-8.9V272h-0.2l-6.3,39.1h-8.9l-6.9-38.5h-0.2v38.5h-8.2v-54.5h13.1
			L60.1,295.3z"/>
		<path class="st3" d="M117,311.1h-9.5l-1.6-9.9H94.3l-1.6,9.9H84l9.6-54.5h13.8L117,311.1z M95.5,293.8h9.1l-4.5-27.5H100
			L95.5,293.8z"/>
		<path class="st3" d="M141.1,311.1c-0.5-1.4-0.9-2.3-0.9-6.7v-8.6c0-5.1-1.9-6.9-6.2-6.9h-3.3v22.2h-9.4v-54.5h14.2
			c9.8,0,14,4.1,14,12.5v4.3c0,5.6-2,9.2-6.2,11v0.2c4.7,1.8,6.3,5.8,6.3,11.5v8.4c0,2.6,0.1,4.6,1,6.6H141.1z M130.8,264.4v16.7
			h3.7c3.5,0,5.7-1.4,5.7-5.8V270c0-3.9-1.5-5.6-4.8-5.6H130.8z"/>
		<path class="st3" d="M153.1,256.6h29.1v7.8h-9.9v46.7h-9.4v-46.7h-9.9V256.6z"/>
		<path class="st3" d="M198.8,269.7c0-8.7,5.1-13.7,14.3-13.7s14.3,5,14.3,13.7V298c0,8.7-5.1,13.7-14.3,13.7s-14.3-5-14.3-13.7
			V269.7z M208.3,298.5c0,3.9,1.9,5.4,4.9,5.4c3,0,4.9-1.5,4.9-5.4v-29.4c0-3.9-1.9-5.4-4.9-5.4c-3,0-4.9,1.5-4.9,5.4V298.5z"/>
		<path class="st3" d="M254.5,282h-0.2l-3.3,29h-12.9l-6.7-54.5h9.2l5,43h0.2l4.5-43h9.1l4.6,43.3h0.2l4.8-43.3h8.2l-6.7,54.5h-12.5
			L254.5,282z"/>
		<path class="st3" d="M281.7,256.6h9.4v46.7h15.5v7.8h-24.9V256.6z"/>
	</g>
	<g>
		<path class="st3" d="M79.8,325.9h5.9v22.1h9.8v3.7H79.8V325.9z"/>
		<path class="st3" d="M104,336.7h8.1v3.7H104v7.5h10.2v3.7H98.1v-25.8h16.2v3.7H104V336.7z"/>
		<path class="st3" d="M137.1,351.6h-6l-1-4.7h-7.3l-1,4.7h-5.4l6-25.8h8.7L137.1,351.6z M123.6,343.4h5.7l-2.8-13h-0.1L123.6,343.4
			z"/>
		<path class="st3" d="M152.3,351.6c-0.3-0.7-0.5-1.1-0.5-3.2v-4c0-2.4-1.2-3.3-3.9-3.3h-2v10.5h-5.9v-25.8h8.9
			c6.1,0,8.8,1.9,8.8,5.9v2c0,2.6-1.2,4.3-3.9,5.2v0.1c3,0.8,3.9,2.8,3.9,5.4v4c0,1.3,0.1,2.2,0.6,3.1H152.3z M145.8,329.5v7.9h2.3
			c2.2,0,3.6-0.7,3.6-2.7v-2.5c0-1.8-0.9-2.6-3-2.6H145.8z"/>
		<path class="st3" d="M166.9,333h-0.1v18.7h-5.3v-25.8h7.4l6,15.4h0.1v-15.4h5.3v25.8h-6.1L166.9,333z"/>
		<path class="st3" d="M184.6,325.9h5.9v25.8h-5.9V325.9z"/>
		<path class="st3" d="M200.2,333h-0.1v18.7h-5.3v-25.8h7.4l6,15.4h0.1v-15.4h5.3v25.8h-6.1L200.2,333z"/>
		<path class="st3" d="M226.7,337.3h8.3v8.2c0,4.1-3,6.5-8.8,6.5c-5.8,0-8.8-2.4-8.8-6.5V332c0-4.1,3-6.5,8.8-6.5
			c5.8,0,8.8,2.4,8.8,6.5v2.5h-5.6v-2.8c0-1.8-1.2-2.5-3.1-2.5c-1.9,0-3.1,0.7-3.1,2.5v13.9c0,1.8,1.2,2.5,3.1,2.5
			c1.9,0,3.1-0.7,3.1-2.5v-4.7h-2.7V337.3z"/>
	</g>
	<rect x="247.3" y="336.9" class="st0" width="60.8" height="7"/>
	<rect x="6.7" y="336.9" class="st0" width="60.8" height="7"/>
	<g>
		<path class="st1" d="M168.2,43.1c-33-1.3-79.1-0.2-118.1,26.2c-42.7,29-49.5,70.3-38.3,97c16.8,39.6,34,57.2,53.3,64.6
			c61.9,23.7,90.4-23.8,90.4-23.8s22.7,46.6,97.7,23.1c15.2-4.8,32.3-18.5,44.8-45.5c19.8-42.8,8.4-71-17.1-100.2
			C257.8,58.1,225.5,45.4,168.2,43.1"/>
		<path class="st1" d="M68.2,71.5c-12.5-7.5-25-21.9-35.6-34C25.3,29,17.7,21.9,12,12.2c-10.9,7.4-3.1,26.9,5.3,33.4
			C6.4,47,9.4,63.5,19.1,65.3c-5.1,2.6-6.5,7.2-4.7,13.4c1.1,3.8,7.9,17,11.5,18.1c6.4,1.9,20.4-12.4,25.3-16.2
			C56.3,76.6,61.4,73,68.2,71.5"/>
		<path class="st1" d="M246.1,66.5c13.2-8,25.5-22.4,35.6-34c7.4-8.5,14.9-15.5,20.6-25.3c10.9,7.4,3.1,26.9-5.3,33.4
			c10.9,1.5,7.9,17.9-1.8,19.7c5.1,2.6,6.5,7.2,4.7,13.4c-1.1,3.8-7.9,17-11.5,18.1c-6.4,1.9-20.4-12.4-25.3-16.2
			C258.1,71.6,252.9,68,246.1,66.5"/>
		<path class="st5" d="M143.7,197.9c0,0,9.9-19.8,0-60c-9.9-40.2-42.9-73.2-89.7-44.8c-46.8,28.4-19.1,96.3,4.6,116.7
			c23.7,20.4,55.4,17.8,67.3,9.9C137.8,211.8,143.7,197.9,143.7,197.9"/>
		<path class="st5" d="M172.8,197.9c0,0-9.9-19.8,0-60c9.9-40.2,42.9-73.2,89.7-44.8c46.8,28.4,19.1,96.3-4.6,116.7
			c-23.7,20.4-55.4,17.8-67.3,9.9C178.8,211.8,172.8,197.9,172.8,197.9"/>
		<path class="st4" d="M172.8,188.2c-9.6-0.9-20.9-1.7-31-0.2c-3.7,0.6-9.6,0.5-11.2,4c-1.7,3.7,2.3,10.2,4,13.2
			c4,7,10.5,13.4,17.3,17.6c9,5.5,13.5-3.7,19.1-10.5C175.7,206.5,189.8,189.8,172.8,188.2"/>
		<path class="st2" d="M256.3,159c0,13.1-10.6,23.7-23.7,23.7c-13.1,0-23.7-10.6-23.7-23.7s10.6-23.7,23.7-23.7
			C245.7,135.3,256.3,145.9,256.3,159"/>
		<path class="st2" d="M246.6,159c0,7.8-6.3,14.1-14.1,14.1c-7.8,0-14.1-6.3-14.1-14.1c0-7.8,6.3-14.1,14.1-14.1
			C240.3,144.9,246.6,151.2,246.6,159"/>
		<path class="st2" d="M117.8,159.7c0,13.1-10.6,23.7-23.7,23.7s-23.7-10.6-23.7-23.7c0-13.1,10.6-23.7,23.7-23.7
			S117.8,146.5,117.8,159.7"/>
		<path class="st2" d="M108.1,159.7c0,7.8-6.3,14.1-14.1,14.1c-7.8,0-14.1-6.3-14.1-14.1c0-7.8,6.3-14.1,14.1-14.1
			C101.8,145.6,108.1,151.9,108.1,159.7"/>
		<path class="st5" d="M105.6,156c0,2.5-2,4.5-4.5,4.5c-2.5,0-4.5-2-4.5-4.5c0-2.5,2-4.5,4.5-4.5C103.6,151.4,105.6,153.5,105.6,156
			"/>
	</g>
	<path class="st5" d="M247.4,156c0,2.5-2,4.5-4.5,4.5c-2.5,0-4.5-2-4.5-4.5c0-2.5,2-4.5,4.5-4.5C245.3,151.4,247.4,153.5,247.4,156"
		/>
</g>
<g id="Layer_2">
	<g>
		<path class="st3" d="M20.8,256c9.2,0,13.9,5,13.9,13.7v1.7h-8.9v-2.3c0-3.9-1.7-5.4-4.7-5.4c-3,0-4.7,1.5-4.7,5.4
			c0,4,1.9,6.9,8.1,11.8c7.9,6.3,10.4,10.8,10.4,17c0,8.7-4.8,13.7-14.1,13.7c-9.3,0-14-5-14-13.7v-3.3h8.9v3.9
			c0,3.9,1.9,5.3,4.9,5.3s4.9-1.4,4.9-5.3c0-4-1.9-6.9-8.1-11.8c-7.9-6.3-10.4-10.8-10.4-17C6.9,261,11.7,256,20.8,256z"/>
		<path class="st3" d="M60.1,295.3h0.2l6.3-38.7h13.1v54.5h-8.9V272h-0.2l-6.3,39.1h-8.9l-6.9-38.5h-0.2v38.5h-8.2v-54.5h13.1
			L60.1,295.3z"/>
		<path class="st3" d="M117,311.1h-9.5l-1.6-9.9H94.3l-1.6,9.9H84l9.6-54.5h13.8L117,311.1z M95.5,293.8h9.1l-4.5-27.5H100
			L95.5,293.8z"/>
		<path class="st3" d="M141.1,311.1c-0.5-1.4-0.9-2.3-0.9-6.7v-8.6c0-5.1-1.9-6.9-6.2-6.9h-3.3v22.2h-9.4v-54.5h14.2
			c9.8,0,14,4.1,14,12.5v4.3c0,5.6-2,9.2-6.2,11v0.2c4.7,1.8,6.3,5.8,6.3,11.5v8.4c0,2.6,0.1,4.6,1,6.6H141.1z M130.8,264.4v16.7
			h3.7c3.5,0,5.7-1.4,5.7-5.8V270c0-3.9-1.5-5.6-4.8-5.6H130.8z"/>
		<path class="st3" d="M153.1,256.6h29.1v7.8h-9.9v46.7h-9.4v-46.7h-9.9V256.6z"/>
		<path class="st3" d="M198.8,269.7c0-8.7,5.1-13.7,14.3-13.7s14.3,5,14.3,13.7V298c0,8.7-5.1,13.7-14.3,13.7s-14.3-5-14.3-13.7
			V269.7z M208.3,298.5c0,3.9,1.9,5.4,4.9,5.4c3,0,4.9-1.5,4.9-5.4v-29.4c0-3.9-1.9-5.4-4.9-5.4c-3,0-4.9,1.5-4.9,5.4V298.5z"/>
		<path class="st3" d="M254.5,282h-0.2l-3.3,29h-12.9l-6.7-54.5h9.2l5,43h0.2l4.5-43h9.1l4.6,43.3h0.2l4.8-43.3h8.2l-6.7,54.5h-12.5
			L254.5,282z"/>
		<path class="st3" d="M281.7,256.6h9.4v46.7h15.5v7.8h-24.9V256.6z"/>
	</g>
	<g>
		<path class="st1" d="M168.2,43.1c-33-1.3-79.1-0.2-118.1,26.2c-42.7,29-49.5,70.3-38.3,97c16.8,39.6,34,57.2,53.3,64.6
			c61.9,23.7,90.4-23.8,90.4-23.8s22.7,46.6,97.7,23.1c15.2-4.8,32.3-18.5,44.8-45.5c19.8-42.8,8.4-71-17.1-100.2
			C257.8,58.1,225.5,45.4,168.2,43.1"/>
		<path class="st1" d="M68.2,71.5c-12.5-7.5-25-21.9-35.6-34C25.3,29,17.7,21.9,12,12.2c-10.9,7.4-3.1,26.9,5.3,33.4
			C6.4,47,9.4,63.5,19.1,65.3c-5.1,2.6-6.5,7.2-4.7,13.4c1.1,3.8,7.9,17,11.5,18.1c6.4,1.9,20.4-12.4,25.3-16.2
			C56.3,76.6,61.4,73,68.2,71.5"/>
		<path class="st1" d="M246.1,66.5c13.2-8,25.5-22.4,35.6-34c7.4-8.5,14.9-15.5,20.6-25.3c10.9,7.4,3.1,26.9-5.3,33.4
			c10.9,1.5,7.9,17.9-1.8,19.7c5.1,2.6,6.5,7.2,4.7,13.4c-1.1,3.8-7.9,17-11.5,18.1c-6.4,1.9-20.4-12.4-25.3-16.2
			C258.1,71.6,252.9,68,246.1,66.5"/>
		<path class="st5" d="M143.7,197.9c0,0,9.9-19.8,0-60c-9.9-40.2-42.9-73.2-89.7-44.8c-46.8,28.4-19.1,96.3,4.6,116.7
			c23.7,20.4,55.4,17.8,67.3,9.9C137.8,211.8,143.7,197.9,143.7,197.9"/>
		<path class="st5" d="M172.8,197.9c0,0-9.9-19.8,0-60c9.9-40.2,42.9-73.2,89.7-44.8c46.8,28.4,19.1,96.3-4.6,116.7
			c-23.7,20.4-55.4,17.8-67.3,9.9C178.8,211.8,172.8,197.9,172.8,197.9"/>
		<path class="st4" d="M172.8,188.2c-9.6-0.9-20.9-1.7-31-0.2c-3.7,0.6-9.6,0.5-11.2,4c-1.7,3.7,2.3,10.2,4,13.2
			c4,7,10.5,13.4,17.3,17.6c9,5.5,13.5-3.7,19.1-10.5C175.7,206.5,189.8,189.8,172.8,188.2"/>
		<path class="st2" d="M256.3,159c0,13.1-10.6,23.7-23.7,23.7c-13.1,0-23.7-10.6-23.7-23.7s10.6-23.7,23.7-23.7
			C245.7,135.3,256.3,145.9,256.3,159"/>
		<path class="st2" d="M246.6,159c0,7.8-6.3,14.1-14.1,14.1c-7.8,0-14.1-6.3-14.1-14.1c0-7.8,6.3-14.1,14.1-14.1
			C240.3,144.9,246.6,151.2,246.6,159"/>
		<path class="st2" d="M117.8,159.7c0,13.1-10.6,23.7-23.7,23.7s-23.7-10.6-23.7-23.7c0-13.1,10.6-23.7,23.7-23.7
			S117.8,146.5,117.8,159.7"/>
		<path class="st2" d="M108.1,159.7c0,7.8-6.3,14.1-14.1,14.1c-7.8,0-14.1-6.3-14.1-14.1c0-7.8,6.3-14.1,14.1-14.1
			C101.8,145.6,108.1,151.9,108.1,159.7"/>
		<path class="st5" d="M105.6,156c0,2.5-2,4.5-4.5,4.5c-2.5,0-4.5-2-4.5-4.5c0-2.5,2-4.5,4.5-4.5C103.6,151.4,105.6,153.5,105.6,156
			"/>
	</g>
	<path class="st5" d="M247.4,156c0,2.5-2,4.5-4.5,4.5c-2.5,0-4.5-2-4.5-4.5c0-2.5,2-4.5,4.5-4.5C245.3,151.4,247.4,153.5,247.4,156"
		/>
</g>
<g id="Layer_3">
	<g>
		<path class="st1" d="M168.2,43.1c-33-1.3-79.1-0.2-118.1,26.2c-42.7,29-49.5,70.3-38.3,97c16.8,39.6,34,57.2,53.3,64.6
			c61.9,23.7,90.4-23.8,90.4-23.8s22.7,46.6,97.7,23.1c15.2-4.8,32.3-18.5,44.8-45.5c19.8-42.8,8.4-71-17.1-100.2
			C257.8,58.1,225.5,45.4,168.2,43.1"/>
		<path class="st1" d="M68.2,71.5c-12.5-7.5-25-21.9-35.6-34C25.3,29,17.7,21.9,12,12.2c-10.9,7.4-3.1,26.9,5.3,33.4
			C6.4,47,9.4,63.5,19.1,65.3c-5.1,2.6-6.5,7.2-4.7,13.4c1.1,3.8,7.9,17,11.5,18.1c6.4,1.9,20.4-12.4,25.3-16.2
			C56.3,76.6,61.4,73,68.2,71.5"/>
		<path class="st1" d="M246.1,66.5c13.2-8,25.5-22.4,35.6-34c7.4-8.5,14.9-15.5,20.6-25.3c10.9,7.4,3.1,26.9-5.3,33.4
			c10.9,1.5,7.9,17.9-1.8,19.7c5.1,2.6,6.5,7.2,4.7,13.4c-1.1,3.8-7.9,17-11.5,18.1c-6.4,1.9-20.4-12.4-25.3-16.2
			C258.1,71.6,252.9,68,246.1,66.5"/>
		<path class="st5" d="M143.7,197.9c0,0,9.9-19.8,0-60c-9.9-40.2-42.9-73.2-89.7-44.8c-46.8,28.4-19.1,96.3,4.6,116.7
			c23.7,20.4,55.4,17.8,67.3,9.9C137.8,211.8,143.7,197.9,143.7,197.9"/>
		<path class="st5" d="M172.8,197.9c0,0-9.9-19.8,0-60c9.9-40.2,42.9-73.2,89.7-44.8c46.8,28.4,19.1,96.3-4.6,116.7
			c-23.7,20.4-55.4,17.8-67.3,9.9C178.8,211.8,172.8,197.9,172.8,197.9"/>
		<path class="st4" d="M172.8,188.2c-9.6-0.9-20.9-1.7-31-0.2c-3.7,0.6-9.6,0.5-11.2,4c-1.7,3.7,2.3,10.2,4,13.2
			c4,7,10.5,13.4,17.3,17.6c9,5.5,13.5-3.7,19.1-10.5C175.7,206.5,189.8,189.8,172.8,188.2"/>
		<path class="st2" d="M256.3,159c0,13.1-10.6,23.7-23.7,23.7c-13.1,0-23.7-10.6-23.7-23.7s10.6-23.7,23.7-23.7
			C245.7,135.3,256.3,145.9,256.3,159"/>
		<path class="st2" d="M246.6,159c0,7.8-6.3,14.1-14.1,14.1c-7.8,0-14.1-6.3-14.1-14.1c0-7.8,6.3-14.1,14.1-14.1
			C240.3,144.9,246.6,151.2,246.6,159"/>
		<path class="st2" d="M117.8,159.7c0,13.1-10.6,23.7-23.7,23.7s-23.7-10.6-23.7-23.7c0-13.1,10.6-23.7,23.7-23.7
			S117.8,146.5,117.8,159.7"/>
		<path class="st2" d="M108.1,159.7c0,7.8-6.3,14.1-14.1,14.1c-7.8,0-14.1-6.3-14.1-14.1c0-7.8,6.3-14.1,14.1-14.1
			C101.8,145.6,108.1,151.9,108.1,159.7"/>
		<path class="st5" d="M105.6,156c0,2.5-2,4.5-4.5,4.5c-2.5,0-4.5-2-4.5-4.5c0-2.5,2-4.5,4.5-4.5C103.6,151.4,105.6,153.5,105.6,156
			"/>
	</g>
	<path class="st5" d="M247.4,156c0,2.5-2,4.5-4.5,4.5c-2.5,0-4.5-2-4.5-4.5c0-2.5,2-4.5,4.5-4.5C245.3,151.4,247.4,153.5,247.4,156"
		/>
</g>
</svg>
