<?xml version="1.0" encoding="utf-8"?>
<!-- Generator: Adobe Illustrator 16.0.4, SVG Export Plug-In . SVG Version: 6.00 Build 0)  -->
<!DOCTYPE svg PUBLIC "-//W3C//DTD SVG 1.1//EN" "http://www.w3.org/Graphics/SVG/1.1/DTD/svg11.dtd">
<svg version="1.1" id="Layer_1" xmlns="http://www.w3.org/2000/svg" xmlns:xlink="http://www.w3.org/1999/xlink" x="0px" y="0px"
	 width="368.5px" height="226.8px" viewBox="0 0 368.5 226.8" style="enable-background:new 0 0 368.5 226.8;" xml:space="preserve"
	>
<style type="text/css">
<![CDATA[
	.st0{fill:#7B95A3;}
	.st1{fill:#1D1D1B;}
	.st2{fill:#F8B040;}
	.st3{fill:#FFFFFF;}
]]>
</style>
<g>
	<g>
		<path class="st0" d="M-194.7,43.1c-29.2-1.2-70.2-0.2-104.7,23.2c-37.9,25.7-43.9,62.3-33.9,86c14.9,35.1,30.2,50.8,47.3,57.3
			c54.9,21.1,80.1-21.1,80.1-21.1s20.2,41.3,86.6,20.5c13.5-4.2,28.7-16.4,39.8-40.4c17.6-37.9,7.5-63-15.2-88.9
			C-115.2,56.4-143.9,45.2-194.7,43.1"/>
		<path class="st0" d="M-283.3,68.2c-11.1-6.7-22.2-19.4-31.6-30.1c-6.5-7.5-13.2-13.8-18.3-22.4c-9.7,6.5-2.8,23.9,4.7,29.6
			c-9.7,1.3-7,15.9,1.6,17.5c-4.5,2.3-5.8,6.4-4.2,11.9c1,3.4,7,15.1,10.2,16c5.7,1.7,18.1-11,22.4-14.3
			C-293.9,72.8-289.4,69.6-283.3,68.2"/>
		<path class="st0" d="M-125.6,63.8C-113.8,56.7-103,44-94,33.7c6.5-7.5,13.2-13.8,18.3-22.4c9.7,6.5,2.8,23.9-4.7,29.6
			c9.7,1.3,7,15.9-1.6,17.5c4.5,2.3,5.8,6.4,4.2,11.9c-1,3.4-7,15.1-10.2,16c-5.7,1.7-18.1-11-22.4-14.3
			C-115,68.4-119.6,65.2-125.6,63.8"/>
		<path class="st3" d="M-216.4,180.4c0,0,8.8-17.5,0-53.2c-8.8-35.7-38-64.9-79.5-39.8c-41.5,25.1-17,85.4,4.1,103.5
			c21.1,18.1,49.1,15.8,59.7,8.8S-216.4,180.4-216.4,180.4"/>
		<path class="st3" d="M-190.6,180.4c0,0-8.8-17.5,0-53.2c8.8-35.7,38-64.9,79.5-39.8c41.5,25.1,17,85.4-4.1,103.5
			c-21.1,18.1-49.1,15.8-59.7,8.8C-185.3,192.7-190.6,180.4-190.6,180.4"/>
		<path class="st2" d="M-190.6,171.7c-8.5-0.8-18.5-1.5-27.5-0.2c-3.3,0.5-8.5,0.4-10,3.5c-1.5,3.2,2,9.1,3.5,11.7
			c3.6,6.2,9.3,11.9,15.4,15.6c8,4.9,11.9-3.3,16.9-9.3C-188,188-175.6,173.2-190.6,171.7"/>
		<path class="st1" d="M-116.6,145.9c0,11.6-9.4,21.1-21.1,21.1c-11.6,0-21.1-9.4-21.1-21.1s9.4-21.1,21.1-21.1
			C-126,124.8-116.6,134.2-116.6,145.9"/>
		<path class="st1" d="M-125.1,145.9c0,6.9-5.6,12.5-12.5,12.5c-6.9,0-12.5-5.6-12.5-12.5c0-6.9,5.6-12.5,12.5-12.5
			C-130.7,133.4-125.1,139-125.1,145.9"/>
		<path class="st1" d="M-239.4,146.5c0,11.6-9.4,21.1-21.1,21.1s-21.1-9.4-21.1-21.1c0-11.6,9.4-21.1,21.1-21.1
			S-239.4,134.8-239.4,146.5"/>
		<path class="st1" d="M-248,146.5c0,6.9-5.6,12.5-12.5,12.5c-6.9,0-12.5-5.6-12.5-12.5c0-6.9,5.6-12.5,12.5-12.5
			C-253.5,134-248,139.6-248,146.5"/>
		<path class="st3" d="M-250.2,143.2c0,2.2-1.8,4-4,4c-2.2,0-4-1.8-4-4c0-2.2,1.8-4,4-4C-252,139.1-250.2,141-250.2,143.2"/>
	</g>
	<path class="st3" d="M-124.5,143.2c0,2.2-1.8,4-4,4c-2.2,0-4-1.8-4-4c0-2.2,1.8-4,4-4C-126.3,139.1-124.5,141-124.5,143.2"/>
</g>
<g>
	<g>
		<path class="st0" d="M193.8,43.1c-29.2-1.2-70.2-0.2-104.7,23.2c-37.9,25.7-43.9,62.3-33.9,86c14.9,35.1,30.2,50.8,47.3,57.3
			c54.9,21.1,80.1-21.1,80.1-21.1s20.2,41.3,86.6,20.5c13.5-4.2,28.7-16.4,39.8-40.4c17.6-37.9,7.5-63-15.2-88.9
			C273.3,56.4,244.6,45.2,193.8,43.1"/>
		<path class="st0" d="M105.2,68.2C94.1,61.6,83,48.9,73.6,38.1c-6.5-7.5-13.2-13.8-18.3-22.4c-9.7,6.5-2.8,23.9,4.7,29.6
			c-9.7,1.3-7,15.9,1.6,17.5c-4.5,2.3-5.8,6.4-4.2,11.9c1,3.4,7,15.1,10.2,16c5.7,1.7,18.1-11,22.4-14.3
			C94.6,72.8,99.1,69.6,105.2,68.2"/>
		<path class="st0" d="M262.9,63.8c11.7-7.1,22.6-19.8,31.6-30.1c6.5-7.5,13.2-13.8,18.3-22.4c9.7,6.5,2.8,23.9-4.7,29.6
			c9.7,1.3,7,15.9-1.6,17.5c4.5,2.3,5.8,6.4,4.2,11.9c-1,3.4-7,15.1-10.2,16c-5.7,1.7-18.1-11-22.4-14.3
			C273.5,68.4,269,65.2,262.9,63.8"/>
		<path class="st3" d="M172.1,180.4c0,0,8.8-17.5,0-53.2c-8.8-35.7-38-64.9-79.5-39.8c-41.5,25.1-17,85.4,4.1,103.5
			c21.1,18.1,49.1,15.8,59.7,8.8C166.9,192.7,172.1,180.4,172.1,180.4"/>
		<path class="st3" d="M197.9,180.4c0,0-8.8-17.5,0-53.2c8.8-35.7,38-64.9,79.5-39.8c41.5,25.1,17,85.4-4.1,103.5
			c-21.1,18.1-49.1,15.8-59.7,8.8C203.2,192.7,197.9,180.4,197.9,180.4"/>
		<path class="st2" d="M197.9,171.8c-8.5-0.8-18.5-1.5-27.5-0.2c-3.3,0.5-8.5,0.4-10,3.5c-1.5,3.2,2,9.1,3.5,11.7
			c3.6,6.2,9.3,11.9,15.4,15.6c8,4.9,11.9-3.3,16.9-9.3C200.5,188,212.9,173.2,197.9,171.8"/>
		<path class="st1" d="M271.9,145.9c0,11.6-9.4,21.1-21.1,21.1s-21.1-9.4-21.1-21.1s9.4-21.1,21.1-21.1S271.9,134.2,271.9,145.9"/>
		<path class="st1" d="M263.4,145.9c0,6.9-5.6,12.5-12.5,12.5c-6.9,0-12.5-5.6-12.5-12.5s5.6-12.5,12.5-12.5
			C257.8,133.4,263.4,139,263.4,145.9"/>
		<path class="st1" d="M149.1,146.5c0,11.6-9.4,21.1-21.1,21.1s-21.1-9.4-21.1-21.1c0-11.6,9.4-21.1,21.1-21.1
			S149.1,134.8,149.1,146.5"/>
		<path class="st1" d="M140.5,146.5c0,6.9-5.6,12.5-12.5,12.5c-6.9,0-12.5-5.6-12.5-12.5c0-6.9,5.6-12.5,12.5-12.5
			C135,134,140.5,139.6,140.5,146.5"/>
		<path class="st3" d="M122.3,143.2c0,2.2-1.8,4-4,4c-2.2,0-4-1.8-4-4c0-2.2,1.8-4,4-4C120.5,139.1,122.3,141,122.3,143.2"/>
	</g>
	<path class="st3" d="M246,143.2c0,2.2-1.8,4-4,4c-2.2,0-4-1.8-4-4c0-2.2,1.8-4,4-4C244.2,139.1,246,141,246,143.2"/>
</g>
</svg>
