<?xml version="1.0" encoding="utf-8"?>
<!-- Generator: Adobe Illustrator 16.0.4, SVG Export Plug-In . SVG Version: 6.00 Build 0)  -->
<!DOCTYPE svg PUBLIC "-//W3C//DTD SVG 1.1//EN" "http://www.w3.org/Graphics/SVG/1.1/DTD/svg11.dtd">
<svg version="1.1" id="Layer_1" xmlns="http://www.w3.org/2000/svg" xmlns:xlink="http://www.w3.org/1999/xlink" x="0px" y="0px"
	 width="777px" height="242.6px" viewBox="0 0 777 242.6" style="enable-background:new 0 0 777 242.6;" xml:space="preserve">
<style type="text/css">
<![CDATA[
	.st0{fill:#7A94A3;}
	.st1{fill:#1D1D1B;}
	.st2{fill:#282828;}
	.st3{fill:#F8B03F;}
	.st4{fill:#FFFFFF;}
	.st5{fill:none;stroke:#464E53;stroke-width:7;stroke-miterlimit:10;}
]]>
</style>
<g>
	<path class="st2" d="M363.1,82c12.6,0,19.1,7.6,19.1,20.8v2.6h-12.3V102c0-5.9-2.4-8.1-6.5-8.1c-4.1,0-6.5,2.2-6.5,8.1
		c0,6,2.6,10.5,11.1,17.9c10.9,9.6,14.3,16.4,14.3,25.9c0,13.2-6.6,20.8-19.4,20.8s-19.4-7.6-19.4-20.8v-5.1h12.3v5.9
		c0,5.9,2.6,8,6.7,8c4.1,0,6.7-2.1,6.7-8c0-6-2.6-10.5-11.1-17.9c-10.9-9.6-14.3-16.4-14.3-25.8C344,89.6,350.5,82,363.1,82z"/>
	<path class="st2" d="M417.1,141.6h0.2l8.7-58.7h18.1v82.6h-12.3v-59.3h-0.2l-8.7,59.3h-12.3l-9.4-58.4H401v58.4h-11.3V83h18.1
		L417.1,141.6z"/>
	<path class="st2" d="M495.6,165.6h-13.1l-2.2-15h-15.9l-2.2,15h-11.9L463.4,83h19L495.6,165.6z M466,139.4h12.5l-6.1-41.8h-0.2
		L466,139.4z"/>
	<path class="st2" d="M528.8,165.6c-0.7-2.1-1.2-3.4-1.2-10.2v-13c0-7.7-2.6-10.5-8.5-10.5h-4.5v33.6h-13V83h19.6
		c13.5,0,19.2,6.3,19.2,19v6.5c0,8.5-2.7,13.9-8.5,16.6v0.2c6.5,2.7,8.6,8.8,8.6,17.5v12.7c0,4,0.1,7,1.4,10H528.8z M514.6,94.8
		v25.4h5.1c4.8,0,7.8-2.1,7.8-8.7v-8.1c0-5.9-2-8.5-6.6-8.5H514.6z"/>
	<path class="st2" d="M545.3,83h40.1v11.8h-13.6v70.8h-13V94.8h-13.6V83z"/>
	<path class="st2" d="M608.3,102.8c0-13.2,7-20.8,19.7-20.8c12.7,0,19.7,7.6,19.7,20.8v43c0,13.2-7,20.8-19.7,20.8
		c-12.7,0-19.7-7.6-19.7-20.8V102.8z M621.3,146.6c0,5.9,2.6,8.1,6.7,8.1c4.1,0,6.7-2.2,6.7-8.1V102c0-5.9-2.6-8.1-6.7-8.1
		c-4.1,0-6.7,2.2-6.7,8.1V146.6z"/>
	<path class="st2" d="M685,121.6h-0.2l-4.6,44h-17.8L653.2,83h12.6l6.8,65.2h0.2L679,83h12.5l6.4,65.6h0.2l6.6-65.6h11.3l-9.2,82.6
		h-17.2L685,121.6z"/>
	<path class="st2" d="M722.6,83h13v70.8h21.4v11.8h-34.3V83z"/>
</g>
<g>
	<path class="st2" d="M444,188.6h7.9v33.6H465v5.6h-21V188.6z"/>
	<path class="st2" d="M476.4,205.2h10.9v5.6h-10.9v11.5h13.7v5.6h-21.7v-39.2h21.7v5.6h-13.7V205.2z"/>
	<path class="st2" d="M520.8,227.8h-8l-1.4-7.1h-9.8l-1.4,7.1H493l8.1-39.2h11.6L520.8,227.8z M502.7,215.4h7.7l-3.8-19.8h-0.1
		L502.7,215.4z"/>
	<path class="st2" d="M541.1,227.8c-0.4-1-0.7-1.6-0.7-4.8v-6.2c0-3.6-1.6-5-5.2-5h-2.7v16h-7.9v-39.2h12c8.2,0,11.8,3,11.8,9v3.1
		c0,4-1.7,6.6-5.2,7.9v0.1c4,1.3,5.3,4.2,5.3,8.3v6c0,1.9,0.1,3.3,0.9,4.8H541.1z M532.4,194.2v12h3.1c3,0,4.8-1,4.8-4.1v-3.9
		c0-2.8-1.2-4-4-4H532.4z"/>
	<path class="st2" d="M560.7,199.5h-0.1v28.4h-7.2v-39.2h10l8,23.5h0.1v-23.5h7.1v39.2h-8.2L560.7,199.5z"/>
	<path class="st2" d="M584.4,188.6h7.9v39.2h-7.9V188.6z"/>
	<path class="st2" d="M605.3,199.5h-0.1v28.4H598v-39.2h10l8,23.5h0.1v-23.5h7.1v39.2h-8.2L605.3,199.5z"/>
	<path class="st2" d="M640.9,206H652v12.4c0,6.3-4,9.9-11.8,9.9c-7.8,0-11.8-3.6-11.8-9.9v-20.4c0-6.3,4-9.9,11.8-9.9
		c7.8,0,11.8,3.6,11.8,9.9v3.8h-7.5v-4.2c0-2.8-1.6-3.9-4.1-3.9c-2.5,0-4.1,1.1-4.1,3.9v21.2c0,2.8,1.6,3.8,4.1,3.8
		c2.5,0,4.1-1,4.1-3.8v-7.2h-3.6V206z"/>
</g>
<line class="st5" x1="672.5" y1="207.8" x2="754" y2="207.8"/>
<line class="st5" x1="348.7" y1="203.7" x2="427.6" y2="203.7"/>
<g>
	<g>
		<path class="st0" d="M181.5,40c-33-1.3-79.1-0.2-118.1,26.2c-42.7,29-49.5,70.3-38.3,96.9c16.8,39.6,34,57.2,53.3,64.6
			c61.9,23.7,90.4-23.8,90.4-23.8s22.7,46.6,97.7,23.1c15.2-4.8,32.3-18.5,44.8-45.5c19.8-42.8,8.4-71-17.1-100.2
			C271.2,54.9,238.9,42.3,181.5,40"/>
		<path class="st0" d="M81.6,68.3c-12.5-7.5-25-21.9-35.6-34C38.6,25.8,31.1,18.7,25.4,9c-10.9,7.4-3.1,26.9,5.3,33.4
			c-10.9,1.5-7.9,17.9,1.8,19.7c-5.1,2.6-6.5,7.2-4.7,13.4c1.1,3.8,7.9,17,11.5,18.1c6.4,1.9,20.4-12.4,25.3-16.2
			C69.7,73.4,74.8,69.8,81.6,68.3"/>
		<path class="st0" d="M259.5,63.3c13.2-8,25.5-22.4,35.6-34c7.4-8.5,14.9-15.5,20.6-25.3c10.9,7.4,3.1,26.9-5.3,33.4
			c10.9,1.5,7.9,17.9-1.8,19.7c5.1,2.6,6.5,7.2,4.7,13.4c-1.1,3.8-7.9,17-11.5,18.1c-6.4,1.9-20.4-12.4-25.3-16.2
			C271.4,68.4,266.3,64.8,259.5,63.3"/>
		<path class="st4" d="M157.1,194.7c0,0,9.9-19.8,0-60c-9.9-40.2-42.9-73.2-89.7-44.8c-46.8,28.4-19.1,96.3,4.6,116.7
			c23.7,20.4,55.4,17.8,67.3,9.9C151.2,208.6,157.1,194.7,157.1,194.7"/>
		<path class="st4" d="M186.2,194.7c0,0-9.9-19.8,0-60c9.9-40.2,42.9-73.2,89.7-44.8c46.8,28.4,19.1,96.3-4.6,116.7
			c-23.7,20.4-55.4,17.8-67.3,9.9C192.1,208.6,186.2,194.7,186.2,194.7"/>
		<path class="st3" d="M186.1,185c-9.6-0.9-20.9-1.7-31-0.2c-3.7,0.6-9.6,0.5-11.2,4c-1.7,3.7,2.3,10.2,4,13.2
			c4,7,10.5,13.4,17.3,17.6c9,5.5,13.5-3.7,19.1-10.5C189.1,203.3,203.1,186.6,186.1,185"/>
		<path class="st1" d="M269.7,155.8c0,13.1-10.6,23.7-23.7,23.7c-13.1,0-23.7-10.6-23.7-23.7c0-13.1,10.6-23.7,23.7-23.7
			C259,132.1,269.7,142.7,269.7,155.8"/>
		<path class="st1" d="M260,155.8c0,7.8-6.3,14.1-14.1,14.1c-7.8,0-14.1-6.3-14.1-14.1c0-7.8,6.3-14.1,14.1-14.1
			C253.7,141.7,260,148,260,155.8"/>
		<path class="st1" d="M131.2,156.5c0,13.1-10.6,23.7-23.7,23.7s-23.7-10.6-23.7-23.7c0-13.1,10.6-23.7,23.7-23.7
			S131.2,143.4,131.2,156.5"/>
		<path class="st1" d="M121.5,156.5c0,7.8-6.3,14.1-14.1,14.1c-7.8,0-14.1-6.3-14.1-14.1c0-7.8,6.3-14.1,14.1-14.1
			C115.2,142.4,121.5,148.7,121.5,156.5"/>
		<path class="st4" d="M119,152.8c0,2.5-2,4.5-4.5,4.5c-2.5,0-4.5-2-4.5-4.5c0-2.5,2-4.5,4.5-4.5C117,148.2,119,150.3,119,152.8"/>
	</g>
	<path class="st4" d="M260,152.8c0,2.5-2,4.5-4.5,4.5c-2.5,0-4.5-2-4.5-4.5c0-2.5,2-4.5,4.5-4.5C258,148.2,260,150.3,260,152.8"/>
</g>
</svg>
