<?xml version="1.0" encoding="utf-8"?>
<!-- Generator: Adobe Illustrator 16.0.4, SVG Export Plug-In . SVG Version: 6.00 Build 0)  -->
<!DOCTYPE svg PUBLIC "-//W3C//DTD SVG 1.1//EN" "http://www.w3.org/Graphics/SVG/1.1/DTD/svg11.dtd">
<svg version="1.1" id="Layer_1" xmlns="http://www.w3.org/2000/svg" xmlns:xlink="http://www.w3.org/1999/xlink" x="0px" y="0px"
	 width="194px" height="218.8px" viewBox="0 139.8 194 218.8" style="enable-background:new 0 139.8 194 218.8;"
	 xml:space="preserve">
<style type="text/css">
<![CDATA[
	.st0{fill:#464E53;}
	.st1{fill:#7A94A3;}
	.st2{fill:#1D1D1B;}
	.st3{fill:#282828;}
	.st4{fill:#F8B03F;}
	.st5{fill:#FFFFFF;}
]]>
</style>
<g id="Layer_1_1_">
	<g>
		<path class="st3" d="M15,295c5.5,0,8.3,3,8.3,8.1v1H18v-1.4c0-2.3-1-3.2-2.8-3.2s-2.8,0.9-2.8,3.2c0,2.4,1.1,4.1,4.8,7
			c4.7,3.7,6.2,6.4,6.2,10.1c0,5.2-2.8,8.1-8.4,8.1c-5.5,0-8.3-3-8.3-8.1v-2H12v2.3c0,2.3,1.1,3.1,2.9,3.1s2.9-0.8,2.9-3.1
			c0-2.4-1.1-4.1-4.8-7c-4.7-3.7-6.2-6.4-6.2-10.1C6.8,298,9.6,295,15,295z"/>
		<path class="st3" d="M38.4,318.3h0.1l3.7-23H50v32.3h-5.3v-23.2h-0.1l-3.7,23.2h-5.3l-4.1-22.9h-0.1v22.9h-4.9v-32.3h7.8
			L38.4,318.3z"/>
		<path class="st3" d="M72.1,327.7h-5.6l-0.9-5.9h-6.9l-0.9,5.9h-5.2l5.7-32.3h8.2L72.1,327.7z M59.4,317.5h5.4l-2.7-16.3h-0.1
			L59.4,317.5z"/>
		<path class="st3" d="M86.5,327.7c-0.3-0.8-0.5-1.4-0.5-4v-5.1c0-3-1.1-4.1-3.7-4.1h-2v13.2h-5.6v-32.3h8.4c5.8,0,8.3,2.4,8.3,7.4
			v2.6c0,3.3-1.2,5.5-3.7,6.5v0.1c2.8,1.1,3.7,3.4,3.7,6.8v5c0,1.5,0.1,2.7,0.6,3.9H86.5z M80.3,300v9.9h2.2c2.1,0,3.4-0.8,3.4-3.4
			v-3.1c0-2.3-0.9-3.3-2.8-3.3H80.3z"/>
		<path class="st3" d="M93.6,295.4h17.3v4.6H105v27.7h-5.6V300h-5.9L93.6,295.4L93.6,295.4z"/>
		<path class="st3" d="M120.7,303.2c0-5.2,3-8.1,8.5-8.1c5.5,0,8.5,3,8.5,8.1v16.8c0,5.2-3,8.1-8.5,8.1c-5.5,0-8.5-3-8.5-8.1V303.2z
			 M126.3,320.2c0,2.3,1.1,3.2,2.9,3.2s2.9-0.9,2.9-3.2v-17.5c0-2.3-1.1-3.2-2.9-3.2s-2.9,0.9-2.9,3.2V320.2z"/>
		<path class="st3" d="M153.8,310.5h-0.1l-2,17.2H144l-4-32.3h5.5l3,25.5h0.1l2.7-25.5h5.4l2.7,25.7h0.1l2.8-25.7h4.9l-4,32.3h-7.4
			L153.8,310.5z"/>
		<path class="st3" d="M169.9,295.4h5.6v27.7h9.2v4.6h-14.8V295.4z"/>
	</g>
	<g>
		<path class="st3" d="M50.1,336.5h3.5v13.1h5.8v2.2h-9.3V336.5z"/>
		<path class="st3" d="M64.4,342.9h4.8v2.2h-4.8v4.5h6.1v2.2h-9.6v-15.3h9.6v2.2h-6.1V342.9z"/>
		<path class="st3" d="M84.1,351.8h-3.6l-0.6-2.8h-4.3l-0.6,2.8h-3.2l3.6-15.3h5.2L84.1,351.8z M76.1,346.9h3.4l-1.7-7.7h-0.1
			L76.1,346.9z"/>
		<path class="st3" d="M93.1,351.8c-0.2-0.4-0.3-0.7-0.3-1.9v-2.4c0-1.4-0.7-2-2.3-2h-1.2v6.2h-3.5v-15.3h5.3c3.6,0,5.2,1.1,5.2,3.5
			v1.2c0,1.5-0.7,2.6-2.3,3.1v0.1c1.8,0.5,2.3,1.7,2.3,3.2v2.4c0,0.8,0.1,1.3,0.4,1.8L93.1,351.8L93.1,351.8z M89.2,338.6v4.7h1.4
			c1.3,0,2.1-0.4,2.1-1.6v-1.5c0-1.1-0.5-1.5-1.8-1.5L89.2,338.6L89.2,338.6z"/>
		<path class="st3" d="M101.8,340.7L101.8,340.7l-0.1,11.1h-3.1v-15.3h4.4l3.6,9.1h0.1v-9.1h3.1v15.3h-3.6L101.8,340.7z"/>
		<path class="st3" d="M112.3,336.5h3.5v15.3h-3.5V336.5z"/>
		<path class="st3" d="M121.5,340.7L121.5,340.7l-0.1,11.1h-3.1v-15.3h4.4l3.6,9.1h0.1v-9.1h3.1v15.3h-3.6L121.5,340.7z"/>
		<path class="st3" d="M137.3,343.3h4.9v4.9c0,2.4-1.8,3.9-5.2,3.9s-5.2-1.4-5.2-3.9v-8c0-2.4,1.8-3.9,5.2-3.9s5.2,1.4,5.2,3.9v1.5
			h-3.3V340c0-1.1-0.7-1.5-1.8-1.5c-1.1,0-1.8,0.4-1.8,1.5v8.2c0,1.1,0.7,1.5,1.8,1.5c1.1,0,1.8-0.4,1.8-1.5v-2.8h-1.6V343.3z"/>
	</g>
	<rect x="149.5" y="343" class="st0" width="36.1" height="4.2"/>
	<rect x="6.7" y="343" class="st0" width="36.1" height="4.2"/>
	<g>
		<path class="st1" d="M102.5,168.6c-19.6-0.8-47-0.1-70.1,15.6C7.1,201.4,3.1,225.9,9.7,241.8c10,23.5,20.2,34,31.6,38.3
			C78.1,294.2,95,266,95,266s13.5,27.7,58,13.7c9-2.8,19.2-11,26.6-27c11.8-25.4,5-42.1-10.1-59.5
			C155.7,177.6,136.6,170,102.5,168.6"/>
		<path class="st1" d="M43.2,185.5c-7.4-4.5-14.8-13-21.1-20.2c-4.3-5-8.8-9.3-12.2-15c-6.5,4.4-1.8,16,3.1,19.8
			c-6.5,0.8-4.7,10.6,1.1,11.7c-3,1.5-3.9,4.3-2.8,8c0.7,2.3,4.7,10.1,6.8,10.7c3.8,1.1,12.1-7.4,15-9.6
			C36.1,188.5,39.1,186.4,43.2,185.5"/>
		<path class="st1" d="M148.8,182.5c7.8-4.7,15.1-13.3,21.1-20.2c4.4-5,8.8-9.2,12.2-15c6.5,4.4,1.8,16-3.1,19.8
			c6.5,0.9,4.7,10.6-1.1,11.7c3,1.5,3.9,4.3,2.8,8c-0.7,2.3-4.7,10.1-6.8,10.7c-3.8,1.1-12.1-7.4-15-9.6
			C155.9,185.6,152.8,183.4,148.8,182.5"/>
		<path class="st5" d="M88,260.5c0,0,5.9-11.8,0-35.6c-5.9-23.9-25.5-43.4-53.2-26.6c-27.8,16.9-11.3,57.2,2.7,69.3
			c14.1,12.1,32.9,10.6,39.9,5.9C84.5,268.8,88,260.5,88,260.5"/>
		<path class="st5" d="M105.3,260.5c0,0-5.9-11.8,0-35.6c5.9-23.9,25.5-43.4,53.2-26.6c27.8,16.9,11.3,57.2-2.7,69.3
			s-32.9,10.6-39.9,5.9C108.8,268.8,105.3,260.5,105.3,260.5"/>
		<path class="st4" d="M105.3,254.8c-5.7-0.5-12.4-1-18.4-0.1c-2.2,0.4-5.7,0.3-6.6,2.4c-1,2.2,1.4,6.1,2.4,7.8
			c2.4,4.2,6.2,8,10.3,10.4c5.3,3.3,8-2.2,11.3-6.2C107,265.6,115.4,255.7,105.3,254.8"/>
		<path class="st2" d="M154.8,237.4c0,7.8-6.3,14.1-14.1,14.1c-7.8,0-14.1-6.3-14.1-14.1s6.3-14.1,14.1-14.1
			C148.5,223.4,154.8,229.7,154.8,237.4"/>
		<path class="st2" d="M149.1,237.4c0,4.6-3.7,8.4-8.4,8.4s-8.4-3.7-8.4-8.4s3.7-8.4,8.4-8.4S149.1,232.8,149.1,237.4"/>
		<path class="st2" d="M72.6,237.9c0,7.8-6.3,14.1-14.1,14.1s-14.1-6.3-14.1-14.1c0-7.8,6.3-14.1,14.1-14.1S72.6,230,72.6,237.9"/>
		<path class="st2" d="M66.9,237.9c0,4.6-3.7,8.4-8.4,8.4c-4.6,0-8.4-3.7-8.4-8.4c0-4.6,3.7-8.4,8.4-8.4
			C63.1,229.5,66.9,233.2,66.9,237.9"/>
		<path class="st5" d="M65.4,235.7c0,1.5-1.2,2.7-2.7,2.7s-2.7-1.2-2.7-2.7c0-1.5,1.2-2.7,2.7-2.7C64.2,232.9,65.4,234.2,65.4,235.7
			"/>
	</g>
	<path class="st5" d="M149.6,235.7c0,1.5-1.2,2.7-2.7,2.7s-2.7-1.2-2.7-2.7c0-1.5,1.2-2.7,2.7-2.7
		C148.3,232.9,149.6,234.2,149.6,235.7"/>
</g>
<g id="Layer_2">
	<g>
		<path class="st3" d="M15,295c5.5,0,8.3,3,8.3,8.1v1H18v-1.4c0-2.3-1-3.2-2.8-3.2s-2.8,0.9-2.8,3.2c0,2.4,1.1,4.1,4.8,7
			c4.7,3.7,6.2,6.4,6.2,10.1c0,5.2-2.8,8.1-8.4,8.1c-5.5,0-8.3-3-8.3-8.1v-2H12v2.3c0,2.3,1.1,3.1,2.9,3.1s2.9-0.8,2.9-3.1
			c0-2.4-1.1-4.1-4.8-7c-4.7-3.7-6.2-6.4-6.2-10.1C6.8,298,9.6,295,15,295z"/>
		<path class="st3" d="M38.4,318.3h0.1l3.7-23H50v32.3h-5.3v-23.2h-0.1l-3.7,23.2h-5.3l-4.1-22.9h-0.1v22.9h-4.9v-32.3h7.8
			L38.4,318.3z"/>
		<path class="st3" d="M72.1,327.7h-5.6l-0.9-5.9h-6.9l-0.9,5.9h-5.2l5.7-32.3h8.2L72.1,327.7z M59.4,317.5h5.4l-2.7-16.3h-0.1
			L59.4,317.5z"/>
		<path class="st3" d="M86.5,327.7c-0.3-0.8-0.5-1.4-0.5-4v-5.1c0-3-1.1-4.1-3.7-4.1h-2v13.2h-5.6v-32.3h8.4c5.8,0,8.3,2.4,8.3,7.4
			v2.6c0,3.3-1.2,5.5-3.7,6.5v0.1c2.8,1.1,3.7,3.4,3.7,6.8v5c0,1.5,0.1,2.7,0.6,3.9H86.5z M80.3,300v9.9h2.2c2.1,0,3.4-0.8,3.4-3.4
			v-3.1c0-2.3-0.9-3.3-2.8-3.3H80.3z"/>
		<path class="st3" d="M93.6,295.4h17.3v4.6H105v27.7h-5.6V300h-5.9L93.6,295.4L93.6,295.4z"/>
		<path class="st3" d="M120.7,303.2c0-5.2,3-8.1,8.5-8.1c5.5,0,8.5,3,8.5,8.1v16.8c0,5.2-3,8.1-8.5,8.1c-5.5,0-8.5-3-8.5-8.1V303.2z
			 M126.3,320.2c0,2.3,1.1,3.2,2.9,3.2s2.9-0.9,2.9-3.2v-17.5c0-2.3-1.1-3.2-2.9-3.2s-2.9,0.9-2.9,3.2V320.2z"/>
		<path class="st3" d="M153.8,310.5h-0.1l-2,17.2H144l-4-32.3h5.5l3,25.5h0.1l2.7-25.5h5.4l2.7,25.7h0.1l2.8-25.7h4.9l-4,32.3h-7.4
			L153.8,310.5z"/>
		<path class="st3" d="M169.9,295.4h5.6v27.7h9.2v4.6h-14.8V295.4z"/>
	</g>
	<g>
		<path class="st1" d="M102.5,168.6c-19.6-0.8-47-0.1-70.1,15.6C7.1,201.4,3.1,225.9,9.7,241.8c10,23.5,20.2,34,31.6,38.3
			C78.1,294.2,95,266,95,266s13.5,27.7,58,13.7c9-2.8,19.2-11,26.6-27c11.8-25.4,5-42.1-10.1-59.5
			C155.7,177.6,136.6,170,102.5,168.6"/>
		<path class="st1" d="M43.2,185.5c-7.4-4.5-14.8-13-21.1-20.2c-4.3-5-8.8-9.3-12.2-15c-6.5,4.4-1.8,16,3.1,19.8
			c-6.5,0.8-4.7,10.6,1.1,11.7c-3,1.5-3.9,4.3-2.8,8c0.7,2.3,4.7,10.1,6.8,10.7c3.8,1.1,12.1-7.4,15-9.6
			C36.1,188.5,39.1,186.4,43.2,185.5"/>
		<path class="st1" d="M148.8,182.5c7.8-4.7,15.1-13.3,21.1-20.2c4.4-5,8.8-9.2,12.2-15c6.5,4.4,1.8,16-3.1,19.8
			c6.5,0.9,4.7,10.6-1.1,11.7c3,1.5,3.9,4.3,2.8,8c-0.7,2.3-4.7,10.1-6.8,10.7c-3.8,1.1-12.1-7.4-15-9.6
			C155.9,185.6,152.8,183.4,148.8,182.5"/>
		<path class="st5" d="M88,260.5c0,0,5.9-11.8,0-35.6c-5.9-23.9-25.5-43.4-53.2-26.6c-27.8,16.9-11.3,57.2,2.7,69.3
			c14.1,12.1,32.9,10.6,39.9,5.9C84.5,268.8,88,260.5,88,260.5"/>
		<path class="st5" d="M105.3,260.5c0,0-5.9-11.8,0-35.6c5.9-23.9,25.5-43.4,53.2-26.6c27.8,16.9,11.3,57.2-2.7,69.3
			s-32.9,10.6-39.9,5.9C108.8,268.8,105.3,260.5,105.3,260.5"/>
		<path class="st4" d="M105.3,254.8c-5.7-0.5-12.4-1-18.4-0.1c-2.2,0.4-5.7,0.3-6.6,2.4c-1,2.2,1.4,6.1,2.4,7.8
			c2.4,4.2,6.2,8,10.3,10.4c5.3,3.3,8-2.2,11.3-6.2C107,265.6,115.4,255.7,105.3,254.8"/>
		<path class="st2" d="M154.8,237.4c0,7.8-6.3,14.1-14.1,14.1c-7.8,0-14.1-6.3-14.1-14.1s6.3-14.1,14.1-14.1
			C148.5,223.4,154.8,229.7,154.8,237.4"/>
		<path class="st2" d="M149.1,237.4c0,4.6-3.7,8.4-8.4,8.4s-8.4-3.7-8.4-8.4s3.7-8.4,8.4-8.4S149.1,232.8,149.1,237.4"/>
		<path class="st2" d="M72.6,237.9c0,7.8-6.3,14.1-14.1,14.1s-14.1-6.3-14.1-14.1c0-7.8,6.3-14.1,14.1-14.1S72.6,230,72.6,237.9"/>
		<path class="st2" d="M66.9,237.9c0,4.6-3.7,8.4-8.4,8.4c-4.6,0-8.4-3.7-8.4-8.4c0-4.6,3.7-8.4,8.4-8.4
			C63.1,229.5,66.9,233.2,66.9,237.9"/>
		<path class="st5" d="M65.4,235.7c0,1.5-1.2,2.7-2.7,2.7s-2.7-1.2-2.7-2.7c0-1.5,1.2-2.7,2.7-2.7C64.2,232.9,65.4,234.2,65.4,235.7
			"/>
	</g>
	<path class="st5" d="M149.6,235.7c0,1.5-1.2,2.7-2.7,2.7s-2.7-1.2-2.7-2.7c0-1.5,1.2-2.7,2.7-2.7
		C148.3,232.9,149.6,234.2,149.6,235.7"/>
</g>
<g id="Layer_3">
	<g>
		<path class="st1" d="M102.5,168.6c-19.6-0.8-47-0.1-70.1,15.6C7.1,201.4,3.1,225.9,9.7,241.8c10,23.5,20.2,34,31.6,38.3
			C78.1,294.2,95,266,95,266s13.5,27.7,58,13.7c9-2.8,19.2-11,26.6-27c11.8-25.4,5-42.1-10.1-59.5
			C155.7,177.6,136.6,170,102.5,168.6"/>
		<path class="st1" d="M43.2,185.5c-7.4-4.5-14.8-13-21.1-20.2c-4.3-5-8.8-9.3-12.2-15c-6.5,4.4-1.8,16,3.1,19.8
			c-6.5,0.8-4.7,10.6,1.1,11.7c-3,1.5-3.9,4.3-2.8,8c0.7,2.3,4.7,10.1,6.8,10.7c3.8,1.1,12.1-7.4,15-9.6
			C36.1,188.5,39.1,186.4,43.2,185.5"/>
		<path class="st1" d="M148.8,182.5c7.8-4.7,15.1-13.3,21.1-20.2c4.4-5,8.8-9.2,12.2-15c6.5,4.4,1.8,16-3.1,19.8
			c6.5,0.9,4.7,10.6-1.1,11.7c3,1.5,3.9,4.3,2.8,8c-0.7,2.3-4.7,10.1-6.8,10.7c-3.8,1.1-12.1-7.4-15-9.6
			C155.9,185.6,152.8,183.4,148.8,182.5"/>
		<path class="st5" d="M88,260.5c0,0,5.9-11.8,0-35.6c-5.9-23.9-25.5-43.4-53.2-26.6c-27.8,16.9-11.3,57.2,2.7,69.3
			c14.1,12.1,32.9,10.6,39.9,5.9C84.5,268.8,88,260.5,88,260.5"/>
		<path class="st5" d="M105.3,260.5c0,0-5.9-11.8,0-35.6c5.9-23.9,25.5-43.4,53.2-26.6c27.8,16.9,11.3,57.2-2.7,69.3
			s-32.9,10.6-39.9,5.9C108.8,268.8,105.3,260.5,105.3,260.5"/>
		<path class="st4" d="M105.3,254.8c-5.7-0.5-12.4-1-18.4-0.1c-2.2,0.4-5.7,0.3-6.6,2.4c-1,2.2,1.4,6.1,2.4,7.8
			c2.4,4.2,6.2,8,10.3,10.4c5.3,3.3,8-2.2,11.3-6.2C107,265.6,115.4,255.7,105.3,254.8"/>
		<path class="st2" d="M154.8,237.4c0,7.8-6.3,14.1-14.1,14.1c-7.8,0-14.1-6.3-14.1-14.1s6.3-14.1,14.1-14.1
			C148.5,223.4,154.8,229.7,154.8,237.4"/>
		<path class="st2" d="M149.1,237.4c0,4.6-3.7,8.4-8.4,8.4s-8.4-3.7-8.4-8.4s3.7-8.4,8.4-8.4S149.1,232.8,149.1,237.4"/>
		<path class="st2" d="M72.6,237.9c0,7.8-6.3,14.1-14.1,14.1s-14.1-6.3-14.1-14.1c0-7.8,6.3-14.1,14.1-14.1S72.6,230,72.6,237.9"/>
		<path class="st2" d="M66.9,237.9c0,4.6-3.7,8.4-8.4,8.4c-4.6,0-8.4-3.7-8.4-8.4c0-4.6,3.7-8.4,8.4-8.4
			C63.1,229.5,66.9,233.2,66.9,237.9"/>
		<path class="st5" d="M65.4,235.7c0,1.5-1.2,2.7-2.7,2.7s-2.7-1.2-2.7-2.7c0-1.5,1.2-2.7,2.7-2.7C64.2,232.9,65.4,234.2,65.4,235.7
			"/>
	</g>
	<path class="st5" d="M149.6,235.7c0,1.5-1.2,2.7-2.7,2.7s-2.7-1.2-2.7-2.7c0-1.5,1.2-2.7,2.7-2.7
		C148.3,232.9,149.6,234.2,149.6,235.7"/>
</g>
</svg>
