<?xml version="1.0" encoding="utf-8"?>
<!-- Generator: Adobe Illustrator 16.0.4, SVG Export Plug-In . SVG Version: 6.00 Build 0)  -->
<!DOCTYPE svg PUBLIC "-//W3C//DTD SVG 1.1//EN" "http://www.w3.org/Graphics/SVG/1.1/DTD/svg11.dtd">
<svg version="1.1" id="Layer_1" xmlns="http://www.w3.org/2000/svg" xmlns:xlink="http://www.w3.org/1999/xlink" x="0px" y="0px"
	 width="510.2px" height="510.2px" viewBox="0 0 510.2 510.2" style="enable-background:new 0 0 510.2 510.2;" xml:space="preserve"
	>
<style type="text/css">
<![CDATA[
	.st0{fill:#474F54;}
	.st1{fill:#7B95A3;}
	.st2{fill:#1D1D1B;}
	.st3{fill:#282828;}
	.st4{fill:#F8B040;}
	.st5{fill:#FFFFFF;}
]]>
</style>
<g>
	<path class="st3" d="M118.5-212.9c9.2,0,13.9,5,13.9,13.7v1.7h-8.9v-2.3c0-3.9-1.7-5.4-4.7-5.4c-3,0-4.7,1.5-4.7,5.4
		c0,4,1.9,6.9,8.1,11.8c7.9,6.3,10.4,10.8,10.4,17c0,8.7-4.8,13.7-14.1,13.7c-9.3,0-14-5-14-13.7v-3.3h8.9v3.9
		c0,3.9,1.9,5.3,4.9,5.3s4.9-1.4,4.9-5.3c0-4-1.9-6.9-8.1-11.8c-7.9-6.3-10.4-10.8-10.4-17C104.6-207.9,109.4-212.9,118.5-212.9z"/>
	<path class="st3" d="M157.8-173.6h0.2l6.3-38.7h13.1v54.5h-8.9v-39.1h-0.2l-6.3,39.1H153l-6.9-38.5H146v38.5h-8.2v-54.5h13.1
		L157.8-173.6z"/>
	<path class="st3" d="M214.7-157.8h-9.5l-1.6-9.9H192l-1.6,9.9h-8.7l9.6-54.5h13.8L214.7-157.8z M193.2-175.1h9.1l-4.5-27.5h-0.2
		L193.2-175.1z"/>
	<path class="st3" d="M238.8-157.8c-0.5-1.4-0.9-2.3-0.9-6.7v-8.6c0-5.1-1.9-6.9-6.2-6.9h-3.3v22.2h-9.4v-54.5h14.2
		c9.8,0,14,4.1,14,12.5v4.3c0,5.6-2,9.2-6.2,11v0.2c4.7,1.8,6.3,5.8,6.3,11.5v8.4c0,2.6,0.1,4.6,1,6.6H238.8z M228.5-204.5v16.7h3.7
		c3.5,0,5.7-1.4,5.7-5.8v-5.4c0-3.9-1.5-5.6-4.8-5.6H228.5z"/>
	<path class="st3" d="M250.8-212.3h29.1v7.8h-9.9v46.7h-9.4v-46.7h-9.9V-212.3z"/>
	<path class="st3" d="M296.5-199.2c0-8.7,5.1-13.7,14.3-13.7s14.3,5,14.3,13.7v28.3c0,8.7-5.1,13.7-14.3,13.7s-14.3-5-14.3-13.7
		V-199.2z M305.9-170.3c0,3.9,1.9,5.4,4.9,5.4c3,0,4.9-1.5,4.9-5.4v-29.4c0-3.9-1.9-5.4-4.9-5.4c-3,0-4.9,1.5-4.9,5.4V-170.3z"/>
	<path class="st3" d="M352.2-186.8H352l-3.3,29h-12.9l-6.7-54.5h9.2l5,43h0.2l4.5-43h9.1l4.6,43.3h0.2l4.8-43.3h8.2l-6.7,54.5h-12.5
		L352.2-186.8z"/>
	<path class="st3" d="M379.4-212.3h9.4v46.7h15.5v7.8h-24.9V-212.3z"/>
</g>
<g>
	<path class="st3" d="M177.5-143h5.9v22.1h9.8v3.7h-15.7V-143z"/>
	<path class="st3" d="M201.7-132.2h8.1v3.7h-8.1v7.5H212v3.7h-16.2V-143H212v3.7h-10.2V-132.2z"/>
	<path class="st3" d="M234.8-117.2h-6l-1-4.7h-7.3l-1,4.7h-5.4l6-25.8h8.7L234.8-117.2z M221.3-125.4h5.7l-2.8-13h-0.1L221.3-125.4z
		"/>
	<path class="st3" d="M250-117.2c-0.3-0.7-0.5-1.1-0.5-3.2v-4c0-2.4-1.2-3.3-3.9-3.3h-2v10.5h-5.9V-143h8.9c6.1,0,8.8,1.9,8.8,5.9v2
		c0,2.6-1.2,4.3-3.9,5.2v0.1c3,0.8,3.9,2.8,3.9,5.4v4c0,1.3,0.1,2.2,0.6,3.1H250z M243.5-139.3v7.9h2.3c2.2,0,3.6-0.7,3.6-2.7v-2.5
		c0-1.8-0.9-2.6-3-2.6H243.5z"/>
	<path class="st3" d="M264.6-135.9h-0.1v18.7h-5.3V-143h7.4l6,15.4h0.1V-143h5.3v25.8h-6.1L264.6-135.9z"/>
	<path class="st3" d="M282.3-143h5.9v25.8h-5.9V-143z"/>
	<path class="st3" d="M297.9-135.9h-0.1v18.7h-5.3V-143h7.4l6,15.4h0.1V-143h5.3v25.8h-6.1L297.9-135.9z"/>
	<path class="st3" d="M324.4-131.6h8.3v8.2c0,4.1-3,6.5-8.8,6.5c-5.8,0-8.8-2.4-8.8-6.5v-13.4c0-4.1,3-6.5,8.8-6.5
		c5.8,0,8.8,2.4,8.8,6.5v2.5h-5.6v-2.8c0-1.8-1.2-2.5-3.1-2.5c-1.9,0-3.1,0.7-3.1,2.5v13.9c0,1.8,1.2,2.5,3.1,2.5
		c1.9,0,3.1-0.7,3.1-2.5v-4.7h-2.7V-131.6z"/>
</g>
<rect x="345" y="-132" class="st0" width="60.8" height="7"/>
<rect x="104.4" y="-132" class="st0" width="60.8" height="7"/>
<g>
	<path class="st1" d="M265.8-425.7c-33-1.3-79.1-0.2-118.1,26.2c-42.7,29-49.5,70.3-38.3,97c16.8,39.6,34,57.2,53.3,64.6
		c61.9,23.7,90.4-23.8,90.4-23.8s22.7,46.6,97.7,23.1c15.2-4.8,32.3-18.5,44.8-45.5c19.8-42.8,8.4-71-17.1-100.2
		C355.5-410.8,323.2-423.4,265.8-425.7"/>
	<path class="st1" d="M165.9-397.4c-12.5-7.5-25-21.9-35.6-34c-7.4-8.5-14.9-15.5-20.6-25.3c-10.9,7.4-3.1,26.9,5.3,33.4
		c-10.9,1.5-7.9,17.9,1.8,19.7c-5.1,2.6-6.5,7.2-4.7,13.4c1.1,3.8,7.9,17,11.5,18.1c6.4,1.9,20.4-12.4,25.3-16.2
		C154-392.2,159.1-395.9,165.9-397.4"/>
	<path class="st1" d="M343.8-402.4c13.2-8,25.5-22.4,35.6-34c7.4-8.5,14.9-15.5,20.6-25.3c10.9,7.4,3.1,26.9-5.3,33.4
		c10.9,1.5,7.9,17.9-1.8,19.7c5.1,2.6,6.5,7.2,4.7,13.4c-1.1,3.8-7.9,17-11.5,18.1c-6.4,1.9-20.4-12.4-25.3-16.2
		C355.8-397.2,350.6-400.9,343.8-402.4"/>
	<path class="st5" d="M241.4-271c0,0,9.9-19.8,0-60c-9.9-40.2-42.9-73.2-89.7-44.8c-46.8,28.4-19.1,96.3,4.6,116.7
		c23.7,20.4,55.4,17.8,67.3,9.9C235.5-257.1,241.4-271,241.4-271"/>
	<path class="st5" d="M270.5-271c0,0-9.9-19.8,0-60c9.9-40.2,42.9-73.2,89.7-44.8c46.8,28.4,19.1,96.3-4.6,116.7
		c-23.7,20.4-55.4,17.8-67.3,9.9C276.5-257.1,270.5-271,270.5-271"/>
	<path class="st4" d="M270.5-280.7c-9.6-0.9-20.9-1.7-31-0.2c-3.7,0.6-9.6,0.5-11.2,4c-1.7,3.7,2.3,10.2,4,13.2
		c4,7,10.5,13.4,17.3,17.6c9,5.5,13.5-3.7,19.1-10.5C273.4-262.4,287.5-279,270.5-280.7"/>
	<path class="st2" d="M354-309.9c0,13.1-10.6,23.7-23.7,23.7c-13.1,0-23.7-10.6-23.7-23.7s10.6-23.7,23.7-23.7
		C343.4-333.6,354-323,354-309.9"/>
	<path class="st2" d="M344.3-309.9c0,7.8-6.3,14.1-14.1,14.1c-7.8,0-14.1-6.3-14.1-14.1c0-7.8,6.3-14.1,14.1-14.1
		C338-323.9,344.3-317.6,344.3-309.9"/>
	<path class="st2" d="M215.5-309.2c0,13.1-10.6,23.7-23.7,23.7S168-296.1,168-309.2c0-13.1,10.6-23.7,23.7-23.7
		S215.5-322.3,215.5-309.2"/>
	<path class="st2" d="M205.8-309.2c0,7.8-6.3,14.1-14.1,14.1c-7.8,0-14.1-6.3-14.1-14.1c0-7.8,6.3-14.1,14.1-14.1
		C199.5-323.3,205.8-317,205.8-309.2"/>
	<path class="st5" d="M203.3-312.9c0,2.5-2,4.5-4.5,4.5c-2.5,0-4.5-2-4.5-4.5c0-2.5,2-4.5,4.5-4.5
		C201.3-317.5,203.3-315.4,203.3-312.9"/>
</g>
<path class="st5" d="M345.1-312.9c0,2.5-2,4.5-4.5,4.5c-2.5,0-4.5-2-4.5-4.5c0-2.5,2-4.5,4.5-4.5C343-317.5,345.1-315.4,345.1-312.9
	"/>
<g>
	<path class="st1" d="M261.5,131.7c-33-1.3-79.1-0.2-118.1,26.2c-42.7,29-49.5,70.3-38.3,96.9c16.8,39.6,34,57.2,53.3,64.6
		c61.9,23.7,90.4-23.8,90.4-23.8s22.7,46.6,97.7,23.1c15.2-4.8,32.3-18.5,44.8-45.5c19.8-42.8,8.4-71-17.1-100.2
		C351.2,146.6,318.9,134,261.5,131.7"/>
	<path class="st1" d="M161.6,160c-12.5-7.5-25-21.9-35.6-34c-7.4-8.5-14.9-15.5-20.6-25.3c-10.9,7.4-3.1,26.9,5.3,33.4
		c-10.9,1.5-7.9,17.9,1.8,19.7c-5.1,2.6-6.5,7.2-4.7,13.4c1.1,3.8,7.9,17,11.5,18.1c6.4,1.9,20.4-12.4,25.3-16.2
		C149.7,165.2,154.8,161.5,161.6,160"/>
	<path class="st1" d="M339.5,155c13.2-8,25.5-22.4,35.6-34c7.4-8.5,14.9-15.5,20.6-25.3c10.9,7.4,3.1,26.9-5.3,33.4
		c10.9,1.5,7.9,17.9-1.8,19.7c5.1,2.6,6.5,7.2,4.7,13.4c-1.1,3.8-7.9,17-11.5,18.1c-6.4,1.9-20.4-12.4-25.3-16.2
		C351.4,160.2,346.3,156.5,339.5,155"/>
	<path class="st5" d="M237.1,286.4c0,0,9.9-19.8,0-60c-9.9-40.2-42.9-73.2-89.7-44.8c-46.8,28.4-19.1,96.3,4.6,116.7
		c23.7,20.4,55.4,17.8,67.3,9.9C231.2,300.3,237.1,286.4,237.1,286.4"/>
	<path class="st5" d="M266.2,286.4c0,0-9.9-19.8,0-60c9.9-40.2,42.9-73.2,89.7-44.8c46.8,28.4,19.1,96.3-4.6,116.7
		c-23.7,20.4-55.4,17.8-67.3,9.9C272.1,300.3,266.2,286.4,266.2,286.4"/>
	<path class="st4" d="M266.1,276.7c-9.6-0.9-20.9-1.7-31-0.2c-3.7,0.6-9.6,0.5-11.2,4c-1.7,3.7,2.3,10.2,4,13.2
		c4,7,10.5,13.4,17.3,17.6c9,5.5,13.5-3.7,19.1-10.5C269.1,295,283.1,278.4,266.1,276.7"/>
	<path class="st2" d="M349.7,247.5c0,13.1-10.6,23.7-23.7,23.7c-13.1,0-23.7-10.6-23.7-23.7c0-13.1,10.6-23.7,23.7-23.7
		C339,223.8,349.7,234.4,349.7,247.5"/>
	<path class="st2" d="M340,247.5c0,7.8-6.3,14.1-14.1,14.1c-7.8,0-14.1-6.3-14.1-14.1c0-7.8,6.3-14.1,14.1-14.1
		C333.7,233.5,340,239.8,340,247.5"/>
	<path class="st2" d="M211.2,248.2c0,13.1-10.6,23.7-23.7,23.7s-23.7-10.6-23.7-23.7s10.6-23.7,23.7-23.7S211.2,235.1,211.2,248.2"
		/>
	<path class="st2" d="M201.5,248.2c0,7.8-6.3,14.1-14.1,14.1c-7.8,0-14.1-6.3-14.1-14.1c0-7.8,6.3-14.1,14.1-14.1
		C195.2,234.1,201.5,240.4,201.5,248.2"/>
	<path class="st5" d="M199,244.5c0,2.5-2,4.5-4.5,4.5c-2.5,0-4.5-2-4.5-4.5c0-2.5,2-4.5,4.5-4.5C197,239.9,199,242,199,244.5"/>
</g>
<path class="st5" d="M340.7,244.5c0,2.5-2,4.5-4.5,4.5c-2.5,0-4.5-2-4.5-4.5c0-2.5,2-4.5,4.5-4.5C338.7,239.9,340.7,242,340.7,244.5
	"/>
<g>
	<path class="st3" d="M662.8-218.7c9.2,0,13.9,5,13.9,13.7v1.7h-8.9v-2.3c0-3.9-1.7-5.4-4.7-5.4c-3,0-4.7,1.5-4.7,5.4
		c0,4,1.9,6.9,8.1,11.8c7.9,6.3,10.4,10.8,10.4,17c0,8.7-4.8,13.7-14.1,13.7c-9.3,0-14-5-14-13.7v-3.3h8.9v3.9
		c0,3.9,1.9,5.3,4.9,5.3c3,0,4.9-1.4,4.9-5.3c0-4-1.9-6.9-8.1-11.8c-7.9-6.3-10.4-10.8-10.4-17C648.9-213.7,653.6-218.7,662.8-218.7
		z"/>
	<path class="st3" d="M702-179.4h0.2l6.3-38.7h13.1v54.5h-8.9v-39.1h-0.2l-6.3,39.1h-8.9l-6.9-38.5h-0.2v38.5h-8.2v-54.5h13.1
		L702-179.4z"/>
	<path class="st3" d="M759-163.6h-9.5l-1.6-9.9h-11.6l-1.6,9.9H726l9.6-54.5h13.8L759-163.6z M737.5-180.9h9.1l-4.5-27.5H742
		L737.5-180.9z"/>
	<path class="st3" d="M783.1-163.6c-0.5-1.4-0.9-2.3-0.9-6.7v-8.6c0-5.1-1.9-6.9-6.2-6.9h-3.3v22.2h-9.4v-54.5h14.2
		c9.8,0,14,4.1,14,12.5v4.3c0,5.6-2,9.2-6.2,11v0.2c4.7,1.8,6.3,5.8,6.3,11.5v8.4c0,2.6,0.1,4.6,1,6.6H783.1z M772.8-210.3v16.7h3.7
		c3.5,0,5.7-1.4,5.7-5.8v-5.4c0-3.9-1.5-5.6-4.8-5.6H772.8z"/>
	<path class="st3" d="M795.1-218.1h29.1v7.8h-9.9v46.7h-9.4v-46.7h-9.9V-218.1z"/>
	<path class="st3" d="M840.8-205c0-8.7,5.1-13.7,14.3-13.7s14.3,5,14.3,13.7v28.3c0,8.7-5.1,13.7-14.3,13.7s-14.3-5-14.3-13.7V-205z
		 M850.2-176.2c0,3.9,1.9,5.4,4.9,5.4c3,0,4.9-1.5,4.9-5.4v-29.4c0-3.9-1.9-5.4-4.9-5.4c-3,0-4.9,1.5-4.9,5.4V-176.2z"/>
	<path class="st3" d="M896.5-192.7h-0.2l-3.3,29H880l-6.7-54.5h9.2l5,43h0.2l4.5-43h9.1l4.6,43.3h0.2l4.8-43.3h8.2l-6.7,54.5h-12.5
		L896.5-192.7z"/>
	<path class="st3" d="M923.7-218.1h9.4v46.7h15.5v7.8h-24.9V-218.1z"/>
</g>
<g>
	<path class="st1" d="M810.1-431.5c-33-1.3-79.1-0.2-118.1,26.2c-42.7,29-49.5,70.3-38.3,97c16.8,39.6,34,57.2,53.3,64.6
		c61.9,23.7,90.4-23.8,90.4-23.8s22.7,46.6,97.7,23.1c15.2-4.8,32.3-18.5,44.8-45.5c19.8-42.8,8.4-71-17.1-100.2
		C899.8-416.6,867.5-429.2,810.1-431.5"/>
	<path class="st1" d="M710.2-403.2c-12.5-7.5-25-21.9-35.6-34c-7.4-8.5-14.9-15.5-20.6-25.3c-10.9,7.4-3.1,26.9,5.3,33.4
		c-10.9,1.5-7.9,17.9,1.8,19.7c-5.1,2.6-6.5,7.2-4.7,13.4c1.1,3.8,7.9,17,11.5,18.1c6.4,1.9,20.4-12.4,25.3-16.2
		C698.3-398.1,703.4-401.7,710.2-403.2"/>
	<path class="st1" d="M888.1-408.2c13.2-8,25.5-22.4,35.6-34c7.4-8.5,14.9-15.5,20.6-25.3c10.9,7.4,3.1,26.9-5.3,33.4
		c10.9,1.5,7.9,17.9-1.8,19.7c5.1,2.6,6.5,7.2,4.7,13.4c-1.1,3.8-7.9,17-11.5,18.1c-6.4,1.9-20.4-12.4-25.3-16.2
		C900.1-403.1,894.9-406.7,888.1-408.2"/>
	<path class="st5" d="M785.7-276.8c0,0,9.9-19.8,0-60c-9.9-40.2-42.9-73.2-89.7-44.8c-46.8,28.4-19.1,96.3,4.6,116.7
		c23.7,20.4,55.4,17.8,67.3,9.9S785.7-276.8,785.7-276.8"/>
	<path class="st5" d="M814.8-276.8c0,0-9.9-19.8,0-60c9.9-40.2,42.9-73.2,89.7-44.8c46.8,28.4,19.1,96.3-4.6,116.7
		c-23.7,20.4-55.4,17.8-67.3,9.9C820.8-262.9,814.8-276.8,814.8-276.8"/>
	<path class="st4" d="M814.8-286.5c-9.6-0.9-20.9-1.7-31-0.2c-3.7,0.6-9.6,0.5-11.2,4c-1.7,3.7,2.3,10.2,4,13.2
		c4,7,10.5,13.4,17.3,17.6c9,5.5,13.5-3.7,19.1-10.5C817.7-268.2,831.7-284.9,814.8-286.5"/>
	<path class="st2" d="M898.3-315.7c0,13.1-10.6,23.7-23.7,23.7c-13.1,0-23.7-10.6-23.7-23.7s10.6-23.7,23.7-23.7
		C887.7-339.4,898.3-328.8,898.3-315.7"/>
	<path class="st2" d="M888.6-315.7c0,7.8-6.3,14.1-14.1,14.1c-7.8,0-14.1-6.3-14.1-14.1c0-7.8,6.3-14.1,14.1-14.1
		C882.3-329.8,888.6-323.5,888.6-315.7"/>
	<path class="st2" d="M759.8-315c0,13.1-10.6,23.7-23.7,23.7s-23.7-10.6-23.7-23.7c0-13.1,10.6-23.7,23.7-23.7
		S759.8-328.1,759.8-315"/>
	<path class="st2" d="M750.1-315c0,7.8-6.3,14.1-14.1,14.1c-7.8,0-14.1-6.3-14.1-14.1c0-7.8,6.3-14.1,14.1-14.1
		C743.8-329.1,750.1-322.8,750.1-315"/>
	<path class="st5" d="M747.6-318.7c0,2.5-2,4.5-4.5,4.5c-2.5,0-4.5-2-4.5-4.5c0-2.5,2-4.5,4.5-4.5
		C745.6-323.3,747.6-321.2,747.6-318.7"/>
</g>
<path class="st5" d="M889.4-318.7c0,2.5-2,4.5-4.5,4.5c-2.5,0-4.5-2-4.5-4.5c0-2.5,2-4.5,4.5-4.5
	C887.3-323.3,889.4-321.2,889.4-318.7"/>
</svg>
