<?xml version="1.0" encoding="utf-8"?>
<!-- Generator: Adobe Illustrator 16.0.4, SVG Export Plug-In . SVG Version: 6.00 Build 0)  -->
<!DOCTYPE svg PUBLIC "-//W3C//DTD SVG 1.1//EN" "http://www.w3.org/Graphics/SVG/1.1/DTD/svg11.dtd">
<svg version="1.1" id="Layer_1" xmlns="http://www.w3.org/2000/svg" xmlns:xlink="http://www.w3.org/1999/xlink" x="0px" y="0px"
	 width="141.7px" height="141.7px" viewBox="0 0 141.7 141.7" style="enable-background:new 0 0 141.7 141.7;" xml:space="preserve"
	>
<style type="text/css">
<![CDATA[
	.st0{fill:#AF5B2B;}
	.st1{fill:#4E1412;}
	.st2{fill:#4E7796;}
	.st3{opacity:0.39;}
	.st4{fill:#868686;}
	.st5{fill:#B6382F;}
	.st6{fill:#B68472;}
	.st7{fill:#EA575B;}
	.st8{fill:#EA8232;}
	.st9{fill:#575756;}
	.st10{fill:#8E6451;}
	.st11{fill:#F29E9F;}
	.st12{fill:#F39E2B;}
	.st13{fill:#F5C799;}
	.st14{fill:#F5F0F2;}
	.st15{fill:#F6E9E5;}
	.st16{fill:#C6CCD6;}
	.st17{fill:#FAEDEB;}
	.st18{fill:#2D466A;}
	.st19{fill:#FBDD58;}
	.st20{fill:#FFFFFF;}
	.st21{fill:none;}
	.st22{fill:#68A284;}
	.st23{fill:#9C9B9B;}
	.st24{fill:#6F6F6E;}
	.st25{fill:#D3C5C1;}
	.st26{fill:#3C1312;}
	.st27{fill:#3C3C3B;}
	.st28{fill:#D76C79;}
	.st29{fill:#723E2B;}
	.st30{fill:#411611;}
]]>
</style>
<g>
	<g>
		<g>
			<g>
				<rect x="51.5" y="92.3" class="st28" width="10.9" height="15"/>
			</g>
		</g>
		<g>
			<g>
				<rect x="72.3" y="92.3" class="st11" width="10.9" height="15"/>
			</g>
		</g>
		<g>
			<g>
				<g>
					<path class="st27" d="M56.8,109.2c0.5,0,0.8,0.4,0.8,0.8v2.1h8.7c0-5.2-4.2-9.5-9.5-9.5c-5.2,0-9.5,4.2-9.5,9.5H56V110
						C56,109.5,56.4,109.2,56.8,109.2z"/>
				</g>
			</g>
		</g>
		<g>
			<g>
				<g>
					<path class="st27" d="M77.6,109.2c0.5,0,0.8,0.4,0.8,0.8v2.1h8.7c0-5.2-4.2-9.5-9.5-9.5c-5.2,0-9.5,4.2-9.5,9.5h8.5V110
						C76.8,109.5,77.2,109.2,77.6,109.2z"/>
				</g>
			</g>
		</g>
	</g>
	<g>
		<g>
			<g>
				<path class="st28" d="M34.6,72.3c-0.1,0.8-0.1,1.6-0.1,2.5c0,15.7,14.7,28.5,32.9,28.5V89.4C52.7,89.4,40.1,82.4,34.6,72.3z"/>
			</g>
		</g>
		<g>
			<g>
				<path class="st28" d="M67.3,89.4V46.3c-17.2,0-31.3,11.4-32.8,26C40.1,82.4,52.7,89.4,67.3,89.4z"/>
			</g>
		</g>
		<g>
			<g>
				<path class="st28" d="M67.3,46.3v43.1c14.7,0,27.3-7.1,32.8-17.2C98.6,57.7,84.5,46.3,67.3,46.3z"/>
			</g>
		</g>
		<g>
			<g>
				<path class="st11" d="M100.3,74.7c0-0.8,0-3.7-1.4-8.2C94.2,82.7,82,89.4,67.3,89.4v13.8C85.5,103.2,100.3,90.5,100.3,74.7z"/>
			</g>
		</g>
		<g>
			<g>
				<g>
					<path class="st11" d="M95.6,78.7c2.6,2.2,7,2.7,10.1,1.2c1.8-0.8,6.3-4.6,2.3-5.7c-2.2-0.6-4.3,0.8-4,3.1
						c0.3,3.2,3.6,4.8,6.5,4.6c1-0.1,3.3-1.7,1.2-1.6c-2.5,0.1-5-2-4.7-4.7c0-0.1,0-0.2,0.1-0.3c-1.4,0-1.6,0.3-0.5,1
						c0.4,0.9-1.4,2.1-1.9,2.4c-1.7,1.1-4.8,0-6.2-1.2C97.7,76.9,94.9,78.1,95.6,78.7L95.6,78.7z"/>
				</g>
			</g>
		</g>
	</g>
	<g>
		<g>
			<g>
				<g>
					<g>
						<path class="st11" d="M15.1,55.4c0,0,3.2-21.9,15.5-21.9s16.5,0,16.5,0s-5.7,21.9-18,21.9C16.8,55.4,15.1,55.4,15.1,55.4z"/>
					</g>
				</g>
				<g>
					<g>
						<path class="st28" d="M20.8,51.5c0,0,2.1-14.1,10-14.1s10.6,0,10.6,0s-3.7,14.1-11.6,14.1C21.8,51.5,20.8,51.5,20.8,51.5z"/>
					</g>
				</g>
			</g>
			<g>
				<g>
					<g>
						<path class="st11" d="M119.6,55.4c0,0-3.2-21.9-15.5-21.9c-12.3,0-16.5,0-16.5,0s5.7,21.9,18,21.9
							C117.9,55.4,119.6,55.4,119.6,55.4z"/>
					</g>
				</g>
				<g>
					<g>
						<path class="st28" d="M113.9,51.5c0,0-2.1-14.1-10-14.1c-8,0-10.6,0-10.6,0s3.7,14.1,11.6,14.1
							C112.8,51.5,113.9,51.5,113.9,51.5z"/>
					</g>
				</g>
			</g>
		</g>
		<g>
			<g>
				<g>
					<path class="st28" d="M39.3,43.3c0,0.9,0.1,1.7,0.2,2.6c-3.3,3.8-5.2,8.3-5.2,13.2c0,13.6,14.8,24.5,33.1,24.5v-61
						C51.8,22.7,39.3,31.9,39.3,43.3z"/>
				</g>
			</g>
			<g>
				<g>
					<path class="st11" d="M100.4,59.1c0-4.9-1.9-9.4-5.2-13.2c0.1-0.8,0.2-1.7,0.2-2.6c0-11.4-12.6-20.6-28.1-20.6v61
						C85.6,83.7,100.4,72.7,100.4,59.1z"/>
				</g>
			</g>
		</g>
		<g>
			<g>
				<g>
					<g>
						<path class="st27" d="M51.1,49.7c0,1.9-1.5,3.4-3.4,3.4c-1.9,0-3.4-1.5-3.4-3.4c0-1.9,1.5-3.4,3.4-3.4
							C49.6,46.3,51.1,47.8,51.1,49.7z"/>
					</g>
				</g>
			</g>
			<g>
				<g>
					<g>
						<path class="st27" d="M90.4,49.7c0,1.9-1.5,3.4-3.4,3.4c-1.9,0-3.4-1.5-3.4-3.4c0-1.9,1.5-3.4,3.4-3.4
							C88.9,46.3,90.4,47.8,90.4,49.7z"/>
					</g>
				</g>
			</g>
			<g>
				<g>
					<circle class="st20" cx="48.8" cy="48.8" r="1.3"/>
				</g>
			</g>
			<g>
				<g>
					<circle class="st20" cx="88.3" cy="48.8" r="1.3"/>
				</g>
			</g>
		</g>
		<g>
			<g>
				<g>
					<g>
						<path class="st28" d="M67.3,78.9c-10.7,0-19.1-5.5-19.1-12.6c0-7.1,8.4-12.6,19.1-12.6c10.7,0,19.1,5.5,19.1,12.6
							C86.4,73.3,78,78.9,67.3,78.9z"/>
					</g>
				</g>
				<g>
					<g>
						<path class="st11" d="M67.3,55.4c9.6,0,17.4,4.9,17.4,10.9c0,6-7.8,10.9-17.4,10.9c-9.6,0-17.4-4.9-17.4-10.9
							C49.9,60.2,57.7,55.4,67.3,55.4 M67.3,52c-11.6,0-20.8,6.3-20.8,14.3c0,8,9.1,14.3,20.8,14.3c11.6,0,20.8-6.3,20.8-14.3
							C88.1,58.3,79,52,67.3,52L67.3,52z"/>
					</g>
				</g>
			</g>
			<g>
				<g>
					<g>
						<circle class="st27" cx="58.2" cy="64.6" r="2.7"/>
					</g>
				</g>
				<g>
					<g>
						<circle class="st27" cx="76.9" cy="64.6" r="2.7"/>
					</g>
				</g>
			</g>
		</g>
	</g>
</g>
</svg>
