<?xml version="1.0" encoding="utf-8"?>
<!-- Generator: Adobe Illustrator 16.0.4, SVG Export Plug-In . SVG Version: 6.00 Build 0)  -->
<!DOCTYPE svg PUBLIC "-//W3C//DTD SVG 1.1//EN" "http://www.w3.org/Graphics/SVG/1.1/DTD/svg11.dtd">
<svg version="1.1" id="Layer_1" xmlns="http://www.w3.org/2000/svg" xmlns:xlink="http://www.w3.org/1999/xlink" x="0px" y="0px"
	 width="141.7px" height="141.7px" viewBox="0 0 141.7 141.7" style="enable-background:new 0 0 141.7 141.7;" xml:space="preserve"
	>
<style type="text/css">
<![CDATA[
	.st0{fill:#AF5B2B;}
	.st1{fill:#4E1412;}
	.st2{fill:#4E7796;}
	.st3{opacity:0.39;}
	.st4{fill:#868686;}
	.st5{fill:#B6382F;}
	.st6{fill:#B68472;}
	.st7{fill:#EA575B;}
	.st8{fill:#EA8232;}
	.st9{fill:#575756;}
	.st10{fill:#8E6451;}
	.st11{fill:#F29E9F;}
	.st12{fill:#F39E2B;}
	.st13{fill:#F5C799;}
	.st14{fill:#F5F0F2;}
	.st15{fill:#F6E9E5;}
	.st16{fill:#C6CCD6;}
	.st17{fill:#FAEDEB;}
	.st18{fill:#2D466A;}
	.st19{fill:#FBDD58;}
	.st20{fill:#FFFFFF;}
	.st21{fill:none;}
	.st22{fill:#68A284;}
	.st23{fill:#9C9B9B;}
	.st24{fill:#6F6F6E;}
	.st25{fill:#D3C5C1;}
	.st26{fill:#3C1312;}
	.st27{fill:#3C3C3B;}
	.st28{fill:#D76C79;}
	.st29{fill:#723E2B;}
	.st30{fill:#411611;}
]]>
</style>
<g>
	<g>
		<g>
			<g>
				<rect x="55.4" y="110.8" class="st29" width="13.8" height="15"/>
			</g>
		</g>
		<g>
			<g>
				<rect x="75.8" y="110.8" class="st10" width="13.8" height="15"/>
			</g>
		</g>
		<g>
			<g>
				<path class="st13" d="M62.4,120.5c-5.4,0-9.7,4.4-9.7,9.7h19.5C72.1,124.9,67.7,120.5,62.4,120.5z"/>
			</g>
		</g>
		<g>
			<g>
				<path class="st13" d="M82.8,120.5c-5.4,0-9.7,4.4-9.7,9.7h19.5C92.5,124.9,88.1,120.5,82.8,120.5z"/>
			</g>
		</g>
	</g>
	<g>
		<g>
			<g>
				<path class="st29" d="M50.6,89c-0.7,2.2-1.1,4.6-1.1,7c0,12.5,10.1,22.7,22.7,22.7v-19C63,99.7,55,95.4,50.6,89z"/>
			</g>
		</g>
		<g>
			<g>
				<path class="st10" d="M72.1,99.7v19c12.5,0,22.7-10.1,22.7-22.7c0-2.5-0.4-4.8-1.1-7C89.2,95.4,81.2,99.7,72.1,99.7z"/>
			</g>
		</g>
		<g>
			<g>
				<path class="st29" d="M72.1,73.4C62,73.4,53.5,79.9,50.6,89C55,95.4,63,99.7,72.1,99.7c9.1,0,17.1-4.3,21.5-10.7
					C90.7,79.9,82.2,73.4,72.1,73.4z"/>
			</g>
		</g>
	</g>
	<g>
		<g>
			<g>
				<g>
					<g>
						<circle class="st29" cx="35.1" cy="56" r="12"/>
					</g>
				</g>
				<g>
					<g>
						<circle class="st28" cx="35.1" cy="56" r="7.8"/>
					</g>
				</g>
			</g>
			<g>
				<g>
					<g>
						<circle class="st10" cx="107.9" cy="56" r="12"/>
					</g>
				</g>
				<g>
					<g>
						<circle class="st28" cx="107.9" cy="56" r="7.8"/>
					</g>
				</g>
			</g>
		</g>
		<g>
			<g>
				<g>
					<path class="st29" d="M77.2,6c0.2,1.4-0.2,5.1-3.7,9c-1.5,1.7-1.4,1.4-2,2.3c-0.6,0.9-1.3,1.7-2.2,2.3
						c-0.9,0.7-1.2,1.1-2.6,1.4c-0.2-1.4-0.4-1.7-0.5-3.5c-0.1-1.1,0.2-2.7,0.8-3.5c0.6-0.9,1.3-1.8,2.7-2.8
						C70.4,10.5,75.9,8.5,77.2,6z"/>
				</g>
			</g>
			<g>
				<g>
					<path class="st29" d="M81.6,9.9c0.2,1.4-0.8,8-3.4,9c-0.3,1.1-2,0.6-2.6,1.5c-0.6,0.9-1.3,1.7-2.2,2.3
						c-0.9,0.7-1.9,1.3-3.4,1.6c-0.2-1.4-0.1-2.6,0.2-3.7c0.3-1.1,0.7-4,3.5-5.3C77.9,13.5,79.7,12.4,81.6,9.9z"/>
				</g>
			</g>
		</g>
		<g>
			<g>
				<g>
					<path class="st29" d="M34.8,54.4c0,20.6,16.7,37.3,37.3,37.3V17.1C51.5,17.1,34.8,33.8,34.8,54.4z"/>
				</g>
			</g>
			<g>
				<g>
					<path class="st10" d="M109.4,54.4c0-20.6-16.7-37.3-37.3-37.3v74.6C92.7,91.7,109.4,75,109.4,54.4z"/>
				</g>
			</g>
		</g>
		<g>
			<g>
				<g>
					<path class="st13" d="M105,51.6c0-9.2-7.5-16.7-16.7-16.7c-7.8,0-14.3,5.4-16.2,12.6c-1.8-7.2-8.4-12.6-16.2-12.6
						c-9.2,0-16.7,7.5-16.7,16.7c0,9.2,7.5,16.7,16.7,16.7V77c0,9.2,7.5,16.7,16.7,16.7S89.4,86.2,89.4,77v-8.7
						C98.1,67.8,105,60.5,105,51.6z"/>
				</g>
			</g>
			<g>
				<g>
					<g>
						<circle class="st30" cx="67.8" cy="68.1" r="2.4"/>
					</g>
				</g>
				<g>
					<g>
						<circle class="st30" cx="76.4" cy="68.1" r="2.4"/>
					</g>
				</g>
			</g>
			<g>
				<g>
					<g>
						<g>
							<path class="st30" d="M61.4,53.3c0,3.3-2.7,6-6,6c-3.3,0-6-2.7-6-6c0-3.3,2.7-6,6-6C58.7,47.3,61.4,50,61.4,53.3z"/>
						</g>
					</g>
				</g>
				<g>
					<g>
						<g>
							<circle class="st30" cx="88.8" cy="53.3" r="6"/>
						</g>
					</g>
				</g>
				<g>
					<g>
						<circle class="st20" cx="57.5" cy="51.3" r="2"/>
					</g>
				</g>
				<g>
					<g>
						<circle class="st20" cx="90.8" cy="51.3" r="2"/>
					</g>
				</g>
			</g>
			<g>
				<g>
					<g>
						<g>
							<path class="st30" d="M72.1,88.4c-6.1,0-8.5-3.4-8.6-3.6c-0.2-0.3-0.1-0.6,0.1-0.8c0.3-0.2,0.6-0.1,0.8,0.1
								c0.1,0.1,2.2,3.1,7.7,3.1c5,0,7.7-3.1,7.7-3.1c0.2-0.2,0.6-0.3,0.8-0.1c0.2,0.2,0.3,0.5,0.1,0.8C80.6,85,77.6,88.4,72.1,88.4
								z"/>
						</g>
					</g>
				</g>
			</g>
		</g>
	</g>
	<g>
		<g>
			<g>
				<path class="st13" d="M83.1,109.4c-3.1,0-5.7-2.5-5.7-5.7c0-3.1,2.5-5.7,5.7-5.7"/>
			</g>
		</g>
		<g>
			<g>
				<path class="st13" d="M61.1,109.4c3.1,0,5.7-2.5,5.7-5.7c0-3.1-2.5-5.7-5.7-5.7"/>
			</g>
		</g>
	</g>
	<g>
		<g>
			<g>
				<path class="st29" d="M55.8,97.6c-1.8,0-3.2,1.4-3.2,3.2c0,5.5-4.4,9.9-9.9,9.9c-5.5,0-9.9-4.4-9.9-9.9c0-3.7,2-6.9,5-8.6
					c-2.7-2-2.2-5.1-2-6.3c-5.6,2.6-9.6,8.3-9.6,14.9c0,9,7.4,16.4,16.4,16.4c9,0,16.4-7.4,16.4-16.4C59,99,57.6,97.6,55.8,97.6z"/>
			</g>
		</g>
		<g>
			<g>
				<path class="st13" d="M37.8,92.2c1.4-0.8,3.1-1.3,4.9-1.3c1.8,0,3.2-1.5,3.2-3.2s-1.5-3.2-3.2-3.2c-2.4,0-4.7,0.5-6.8,1.5
					C35.6,87,35.1,90.2,37.8,92.2z"/>
			</g>
		</g>
	</g>
</g>
</svg>
