<?xml version="1.0" encoding="utf-8"?>
<!-- Generator: Adobe Illustrator 16.0.4, SVG Export Plug-In . SVG Version: 6.00 Build 0)  -->
<!DOCTYPE svg PUBLIC "-//W3C//DTD SVG 1.1//EN" "http://www.w3.org/Graphics/SVG/1.1/DTD/svg11.dtd">
<svg version="1.1" id="Layer_1" xmlns="http://www.w3.org/2000/svg" xmlns:xlink="http://www.w3.org/1999/xlink" x="0px" y="0px"
	 width="141.7px" height="141.7px" viewBox="0 0 141.7 141.7" style="enable-background:new 0 0 141.7 141.7;" xml:space="preserve"
	>
<style type="text/css">
<![CDATA[
	.st0{fill:#AF5B2B;}
	.st1{fill:#4E1412;}
	.st2{fill:#4E7796;}
	.st3{opacity:0.39;}
	.st4{fill:#868686;}
	.st5{fill:#B6382F;}
	.st6{fill:#B68472;}
	.st7{fill:#EA575B;}
	.st8{fill:#EA8232;}
	.st9{fill:#575756;}
	.st10{fill:#8E6451;}
	.st11{fill:#F29E9F;}
	.st12{fill:#F39E2B;}
	.st13{fill:#F5C799;}
	.st14{fill:#F5F0F2;}
	.st15{fill:#F6E9E5;}
	.st16{fill:#C6CCD6;}
	.st17{fill:#FAEDEB;}
	.st18{fill:#2D466A;}
	.st19{fill:#FBDD58;}
	.st20{fill:#FFFFFF;}
	.st21{fill:none;}
	.st22{fill:#68A284;}
	.st23{fill:#9C9B9B;}
	.st24{fill:#6F6F6E;}
	.st25{fill:#D3C5C1;}
	.st26{fill:#3C1312;}
	.st27{fill:#3C3C3B;}
	.st28{fill:#D76C79;}
	.st29{fill:#723E2B;}
	.st30{fill:#411611;}
]]>
</style>
<g>
	<g>
		<g>
			<path class="st0" d="M116.2,96.1c0,20.5-19.5,37.3-43.6,37.3s-43.6-16.8-43.6-37.3C29.1,75.6,48.6,59,72.6,59
				S116.2,75.6,116.2,96.1z"/>
		</g>
	</g>
	<g>
		<g>
			<g>
				<path class="st5" d="M55.5,19.8c1.9-0.7,3.7-0.6,5.4-0.1c1.6,0.5,3.1,1.4,4.4,2.5c1.2,1.1,2.2,2.6,2.8,4.2
					c0.6,1.6,0.8,3.4,0.2,5.4c-1.9-0.7-3.2-1.5-4.4-2.3c-1.2-0.8-2.2-1.6-3.2-2.4c-1-0.9-1.8-1.9-2.7-3
					C57.2,22.9,56.4,21.6,55.5,19.8z"/>
			</g>
		</g>
		<g>
			<g>
				<path class="st5" d="M72.5,8.1c1.8,1.4,2.9,3,3.8,4.6c0.9,1.7,1.4,3.5,1.7,5.3c0.3,1.8,0.3,3.8-0.1,5.7c-0.4,1.9-1.2,4-2.9,5.5
					c-1-2-1.7-3.5-2.3-5.2c-0.6-1.6-1-3.3-1.2-4.9c-0.3-1.7-0.3-3.4-0.2-5.2C71.3,12.1,71.6,10.2,72.5,8.1z"/>
			</g>
		</g>
		<g>
			<g>
				<path class="st5" d="M79.4,12.1c1.4,1.6,2.1,3.3,2.6,5c0.4,1.7,0.6,3.4,0.4,5.1c-0.2,1.7-0.6,3.4-1.5,5.1
					c-0.9,1.6-2.2,3.3-4.3,3.9c-0.3-2.1-0.6-3.5-0.8-5.1c-0.1-1.5-0.2-3,0-4.6c0.2-1.5,0.5-3.1,1-4.6C77.4,15.4,78.1,13.8,79.4,12.1
					z"/>
			</g>
		</g>
	</g>
	<g>
		<g>
			<g>
				<path class="st27" d="M25.4,60.5c2.4-1.4,5.1-2,8-2c1.4,0,2.9,0.2,4.3,0.6c1.4,0.4,2.8,1.1,4.1,1.9c1.3,0.8,2.5,1.6,3.7,2.6
					c1.1,1,2,2.2,2.6,3.6c1.1,2.7,1.5,5.6,0.5,8.7l-0.6,0.2c-2.5-1.9-4.1-3.8-5.6-5.5c-0.7-0.9-1.3-1.8-1.9-2.7
					c-0.5-1-1.1-1.9-1.9-2.7c-0.8-0.8-1.6-1.5-2.6-2c-0.9-0.6-2-1.1-3.1-1.4c-2.2-0.8-4.7-1-7.3-0.7L25.4,60.5z"/>
			</g>
		</g>
		<g>
			<g>
				<path class="st27" d="M24.7,50.7c1.6-1.2,3.4-2.1,5.4-2.7c2-0.6,4.1-0.8,6.3-0.5c2.2,0.4,4.3,1.3,6.1,2.7
					c1.8,1.4,3.2,3.1,4.4,4.9c1.2,1.9,2.1,3.5,3.1,5.2c1,1.7,1.7,3.6,2.2,5.6c0.5,2,0.8,4,0.7,6.1c-0.1,2.1-0.3,4.3-1.6,6.3
					l-0.6-0.2c-1.4-3.6-3.2-6.7-4.7-10.1c-0.8-1.7-1.4-3.4-2-5.2c-0.5-1.7-1.1-3.7-1.7-5.2c-1.4-3.1-3.5-5.7-6.6-6.9
					c-3.1-1.3-7-0.8-10.5,0.5L24.7,50.7z"/>
			</g>
		</g>
		<g>
			<g>
				<path class="st27" d="M42,45.5c1.7-0.7,3.6-0.8,5.5-0.4c0.9,0.2,1.9,0.6,2.8,1.1c0.9,0.5,1.7,1.1,2.4,1.8
					c0.7,0.7,1.5,1.3,2.2,2.1c0.7,0.8,1.1,1.6,1.3,2.6c0.2,0.9,0.2,1.9-0.1,2.9c-0.2,1-0.6,2-1.4,2.9L54,58.6
					c-1.1-0.6-1.8-1.2-2.5-1.8c-0.7-0.6-1.2-1.2-1.6-1.7c-0.4-0.6-0.7-1.1-0.8-1.8c-0.1-0.7-0.3-1.4-0.6-2c-0.3-0.6-0.6-1.2-1-1.7
					c-0.4-0.5-0.8-1-1.4-1.5c-1-0.9-2.4-1.6-4-2L42,45.5z"/>
			</g>
		</g>
	</g>
	<g>
		<g>
			<g>
				<path class="st21" d="M71,96.4L71,96.4c0.3,0,0.6,0.1,0.9,0.1C71.6,96.4,71.3,96.4,71,96.4z"/>
			</g>
		</g>
		<g>
			<g>
				<path class="st27" d="M71.9,96.4c-0.3,0-0.6,0-0.9-0.1c-20.4-0.8-31.4-16.7-31.4-16.7c-3,9-3,19.2-3,19.2
					c0.5,19.5,16.4,35.2,36,35.2V96.4c-0.2,0-0.3,0-0.4,0C72.1,96.4,72,96.4,71.9,96.4z"/>
			</g>
		</g>
		<g>
			<g>
				<path class="st0" d="M47.8,51.1L47.8,51.1c0,0,0,0.1,0,0.2c-0.1,0.7-0.1,1.3-0.1,2c0,0.2,0,0.4,0,0.6c-0.1,2.5-0.5,6.4-1.6,10.6
					c-0.8,2.9-1.9,5.9-3.5,8.6c-1.2,2-2.2,4.2-2.9,6.5c0,0,11,15.9,31.4,16.7h0c0.3,0,0.6,0.1,0.9,0.1c0.1,0,0.2,0,0.2,0
					c0.2,0,0.3,0,0.4,0V76.8V28.3C59.6,28.3,48.9,38.4,47.8,51.1z"/>
			</g>
		</g>
	</g>
	<g>
		<g>
			<g>
				<path class="st9" d="M105.8,80c0,0-11.7,16.4-33.2,16.4V134c19.6,0,35.6-15.7,36-35.2C108.7,98.8,108.7,89,105.8,80z"/>
			</g>
		</g>
		<g>
			<g>
				<path class="st8" d="M102.7,73.1c-1.5-2.5-2.6-5.2-3.3-7.9c-1.3-4.6-1.7-9-1.8-11.6c0-0.1,0-0.2,0-0.3c0-0.5,0-0.9-0.1-1.3
					c0-0.5,0-0.9,0-0.9l0,0.1c-1.1-12.8-11.8-22.8-24.9-22.8v48.5v19.6c21.5,0,33.2-16.4,33.2-16.4C105,77.6,104,75.2,102.7,73.1z"
					/>
			</g>
		</g>
	</g>
	<g>
		<g>
			<g>
				<path class="st7" d="M81.6,70.9C81.6,70.9,81.6,70.9,81.6,70.9c0-5.6-5-10.1-9.2-10.1s-9.2,4.5-9.2,10c0,2.2-0.2,8.1,4,8.1
					c1.2,0,2.3-0.6,3.1-1.4c0.7,0.1,1.4,0.1,2.1,0.1c0.7,0,1.4,0,2.1-0.1c0.7,0.9,1.8,1.4,3.1,1.4C81.8,79,81.6,73.2,81.6,70.9z"/>
			</g>
		</g>
		<g>
			<g>
				<g>
					<path class="st5" d="M62.4,42.6c-6.1,0-11.1,4.7-11.1,10.6c0,5.8,5,10.6,11.1,10.6c4.6,0,8.5,0.7,10.2-3.1V49
						C70.9,45.3,67,42.6,62.4,42.6z"/>
				</g>
			</g>
			<g>
				<g>
					<path class="st7" d="M82.9,63.7C89,63.7,94,59,94,53.2c0-5.8-5-10.6-11.1-10.6c-4.6,0-8.5,2.7-10.2,6.4c0,0,0,0,0,0v11.6
						c0,0,0,0,0,0C74.3,64.4,78.3,63.7,82.9,63.7z"/>
				</g>
			</g>
		</g>
		<g>
			<g>
				<g>
					<path class="st12" d="M70.7,61.2L68,62.9c-1.1,0.7-1.4,2.2-0.8,3.3l4.2,7.1c0.3,0.6,0.8,0.8,1.2,0.8V60.6
						C71.9,60.6,71.2,60.8,70.7,61.2z"/>
				</g>
			</g>
			<g>
				<g>
					<path class="st19" d="M73.8,73.3l4.2-7.1c0.7-1.1,0.3-2.6-0.8-3.3l-2.7-1.8c-0.5-0.4-1.3-0.5-2-0.5v13.5
						C73.1,74.2,73.5,73.9,73.8,73.3z"/>
				</g>
			</g>
		</g>
		<g>
			<g>
				<g>
					<path class="st1" d="M64.4,53.2c0,2-1.6,3.6-3.6,3.6c-2,0-3.6-1.6-3.6-3.6c0-2,1.6-3.6,3.6-3.6C62.7,49.6,64.4,51.2,64.4,53.2z
						"/>
				</g>
			</g>
			<g>
				<g>
					<path class="st1" d="M87.8,53.2c0,2-1.6,3.6-3.6,3.6c-2,0-3.6-1.6-3.6-3.6c0-2,1.6-3.6,3.6-3.6C86.2,49.6,87.8,51.2,87.8,53.2z
						"/>
				</g>
			</g>
			<g>
				<g>
					<circle class="st20" cx="62.1" cy="51.8" r="1.2"/>
				</g>
			</g>
			<g>
				<g>
					<circle class="st20" cx="85.4" cy="51.8" r="1.2"/>
				</g>
			</g>
		</g>
	</g>
	<g>
		<g>
			<path class="st7" d="M56.1,4.7c3.3,1.8,5.8,3.9,8.1,5.7c0.6,0.4,1.1,0.8,1.6,1.2c0.3,0.2,0.5,0.3,0.7,0.4l0.9,0.6
				c1.3,0.9,2.9,2.2,4.1,3.8c2.6,3.2,3.8,7.2,3.8,10.7c0,3.6-0.8,7.1-2.8,10.2c-2.1-3.1-3.4-6-4.8-8.5c-1.3-2.5-2.6-4.5-4-6.3
				c-0.7-0.9-1.5-1.7-2.5-2.9l-0.8-0.9c-0.4-0.4-0.7-0.8-1-1.2c-0.6-0.8-1-1.6-1.4-2.5C56.5,11.8,55.8,8.5,56.1,4.7z"/>
		</g>
	</g>
</g>
</svg>
