<?xml version="1.0" encoding="utf-8"?>
<!-- Generator: Adobe Illustrator 16.0.4, SVG Export Plug-In . SVG Version: 6.00 Build 0)  -->
<!DOCTYPE svg PUBLIC "-//W3C//DTD SVG 1.1//EN" "http://www.w3.org/Graphics/SVG/1.1/DTD/svg11.dtd">
<svg version="1.1" id="Layer_1" xmlns="http://www.w3.org/2000/svg" xmlns:xlink="http://www.w3.org/1999/xlink" x="0px" y="0px"
	 width="141.7px" height="141.7px" viewBox="0 0 141.7 141.7" style="enable-background:new 0 0 141.7 141.7;" xml:space="preserve"
	>
<style type="text/css">
<![CDATA[
	.st0{fill:#AF5B2B;}
	.st1{fill:#4E1412;}
	.st2{fill:#4E7796;}
	.st3{opacity:0.39;}
	.st4{fill:#868686;}
	.st5{fill:#B6382F;}
	.st6{fill:#B68472;}
	.st7{fill:#EA575B;}
	.st8{fill:#EA8232;}
	.st9{fill:#575756;}
	.st10{fill:#8E6451;}
	.st11{fill:#F29E9F;}
	.st12{fill:#F39E2B;}
	.st13{fill:#F5C799;}
	.st14{fill:#F5F0F2;}
	.st15{fill:#F6E9E5;}
	.st16{fill:#C6CCD6;}
	.st17{fill:#FAEDEB;}
	.st18{fill:#2D466A;}
	.st19{fill:#FBDD58;}
	.st20{fill:#FFFFFF;}
	.st21{fill:none;}
	.st22{fill:#68A284;}
	.st23{fill:#9C9B9B;}
	.st24{fill:#6F6F6E;}
	.st25{fill:#D3C5C1;}
	.st26{fill:#3C1312;}
	.st27{fill:#3C3C3B;}
	.st28{fill:#D76C79;}
	.st29{fill:#723E2B;}
	.st30{fill:#411611;}
]]>
</style>
<g>
	<g>
		<g>
			<g>
				<g>
					<rect x="55.7" y="109.4" class="st25" width="10.9" height="15"/>
				</g>
			</g>
			<g>
				<g>
					<rect x="76.5" y="109.4" class="st15" width="10.9" height="15"/>
				</g>
			</g>
			<g>
				<g>
					<g>
						<path class="st27" d="M61.1,126.3c0.5,0,0.8,0.4,0.8,0.8v2.1h8.7c0-5.2-4.2-9.5-9.5-9.5c-5.2,0-9.5,4.2-9.5,9.5h8.5v-2.1
							C60.2,126.7,60.6,126.3,61.1,126.3z"/>
					</g>
				</g>
			</g>
			<g>
				<g>
					<g>
						<path class="st27" d="M81.8,126.3c0.5,0,0.8,0.4,0.8,0.8v2.1h8.7c0-5.2-4.2-9.5-9.5-9.5s-9.5,4.2-9.5,9.5H81v-2.1
							C81,126.7,81.4,126.3,81.8,126.3z"/>
					</g>
				</g>
			</g>
		</g>
		<g>
			<g class="st3">
				<g>
					<path class="st16" d="M71.6,100.2c15.7,0,29-8,33.3-18.9c-4.2-14.6-17.5-22.6-33.3-22.6c-15.7,0-29,8-33.3,22.6
						C42.5,92.3,55.8,100.2,71.6,100.2z"/>
				</g>
			</g>
			<g>
				<g>
					<path class="st25" d="M71.6,100.2c15.7,0,29-8,33.3-18.9c-4.2-14.6-17.5-22.6-33.3-22.6c-15.7,0-29,8-33.3,22.6
						C42.5,92.3,55.8,100.2,71.6,100.2z"/>
				</g>
			</g>
			<g>
				<g>
					<path class="st25" d="M38.3,81.3c-0.9,3.2-1.4,6.6-1.4,10.4c0,14.6,15.5,26.4,34.7,26.4v-17.9C55.8,100.2,42.5,92.3,38.3,81.3z
						"/>
				</g>
			</g>
		</g>
		<g>
			<g>
				<g>
					<path class="st15" d="M88.9,101.9c0.7-3.1,4.6-3.9,5.9-6.6c1.3-2.7,8.8-6,11.4-2.6c0-0.3,0.1-0.6,0.1-0.9
						c0-3.8-0.5-7.3-1.4-10.4c-4.2,10.9-17.5,18.9-33.3,18.9v17.9c9.4,0,17.9-2.9,24.2-7.5c-1.8-0.3-3.6-1-5.2-2.6
						C90.6,108,88.2,105,88.9,101.9z"/>
				</g>
			</g>
			<g>
				<g>
					<path class="st27" d="M106.2,92.7c-2.6-3.4-10.1-0.1-11.4,2.6c-1.3,2.7-5.2,3.5-5.9,6.6s1.7,6.1,1.7,6.1
						c1.6,1.6,3.4,2.4,5.2,2.6C102,106,105.9,99.7,106.2,92.7z"/>
				</g>
			</g>
		</g>
		<g>
			<g>
				<path class="st27" d="M53.1,102.5c0,0-2.2-2.4-0.8-4.8s5.3,0.8,5.3,0.8s3.7,2.4,4.7,2.7c3.9,1.2,3.3,5.1-1.4,7
					C57.5,109.5,53.1,102.5,53.1,102.5z"/>
			</g>
		</g>
	</g>
	<g>
		<g>
			<g>
				<g>
					<path class="st27" d="M21.1,21.5c0,0,3.1,21.2,15,21.2c11.9,0,15.9,0,15.9,0s-5.5-21.2-17.4-21.2S21.1,21.5,21.1,21.5z"/>
				</g>
			</g>
			<g>
				<g>
					<path class="st28" d="M26.6,25.2c0,0,2,13.7,9.7,13.7c7.7,0,10.3,0,10.3,0S43,25.2,35.3,25.2S26.6,25.2,26.6,25.2z"/>
				</g>
			</g>
		</g>
		<g>
			<g>
				<g>
					<path class="st27" d="M122,21.5c0,0-3.1,21.2-15,21.2c-11.9,0-15.9,0-15.9,0s5.5-21.2,17.4-21.2S122,21.5,122,21.5z"/>
				</g>
			</g>
			<g>
				<g>
					<path class="st28" d="M116.5,25.2c0,0-2,13.7-9.7,13.7c-7.7,0-10.3,0-10.3,0s3.5-13.7,11.2-13.7S116.5,25.2,116.5,25.2z"/>
				</g>
			</g>
		</g>
	</g>
	<g>
		<g>
			<g>
				<g>
					<path class="st15" d="M89.7,22.9c-1.1,0.7-12.9,8.5-12.3,27c0.6,19.3,25.1,10.1,25.4,10c0.1,1.2,0.2,2.4,0.3,3.7
						c0,0.5,0,0.9,0,1.4c0,15.8-13.3,28.6-31.7,28.6V16.2C78.4,16.2,84.8,18.8,89.7,22.9z"/>
				</g>
			</g>
			<g>
				<g>
					<path class="st27" d="M77.3,49.8c-0.5-18.5,11.2-26.3,12.3-27c4.6,3.9,7.7,9,8.5,14.5c0,0.1,0.1,0.3,0.1,0.4
						c0,0,1.2,5.1,1.7,7.7c1,5.3,2.2,9.4,2.8,14.3C102.4,59.9,77.9,69.2,77.3,49.8z"/>
				</g>
			</g>
		</g>
		<g>
			<g>
				<g>
					<path class="st25" d="M53.3,22.9c1.1,0.7,12.9,8.5,12.3,27c-0.6,19.3-25.1,10.1-25.4,10c-0.1,1.2-0.2,2.4-0.3,3.7
						c0,0.5,0,0.9,0,1.4c0,15.8,13.3,28.6,31.7,28.6V16.2C64.5,16.2,58.1,18.8,53.3,22.9z"/>
				</g>
			</g>
			<g>
				<g>
					<path class="st27" d="M65.6,49.8c0.5-18.5-11.2-26.3-12.3-27c-4.6,3.9-7.7,9-8.5,14.5c0,0.1-0.1,0.3-0.1,0.4
						c0,0-1.2,5.1-1.7,7.7c-1,5.3-2.2,9.4-2.8,14.3C40.5,59.9,65,69.2,65.6,49.8z"/>
				</g>
			</g>
		</g>
		<g>
			<g>
				<ellipse class="st11" cx="71.6" cy="78.3" rx="26.1" ry="17.1"/>
			</g>
		</g>
		<g>
			<g>
				<g>
					<circle class="st28" cx="56" cy="75.7" r="3.7"/>
				</g>
			</g>
			<g>
				<g>
					<circle class="st28" cx="87.2" cy="75.7" r="3.7"/>
				</g>
			</g>
		</g>
		<g>
			<g>
				<g>
					<circle class="st14" cx="87.6" cy="44.6" r="5.9"/>
				</g>
			</g>
			<g>
				<g>
					<g>
						<circle class="st27" cx="87.6" cy="44.6" r="4.2"/>
					</g>
				</g>
			</g>
			<g>
				<g>
					<circle class="st25" cx="57.3" cy="44.6" r="5.9"/>
				</g>
			</g>
			<g>
				<g>
					<g>
						<circle class="st27" cx="57.3" cy="44.6" r="4.2"/>
					</g>
				</g>
			</g>
			<g>
				<g>
					<circle class="st20" cx="58.9" cy="43.4" r="1.5"/>
				</g>
			</g>
			<g>
				<g>
					<circle class="st20" cx="88.9" cy="43.4" r="1.5"/>
				</g>
			</g>
		</g>
	</g>
</g>
</svg>
