<?xml version="1.0" encoding="utf-8"?>
<!-- Generator: Adobe Illustrator 16.0.4, SVG Export Plug-In . SVG Version: 6.00 Build 0)  -->
<!DOCTYPE svg PUBLIC "-//W3C//DTD SVG 1.1//EN" "http://www.w3.org/Graphics/SVG/1.1/DTD/svg11.dtd">
<svg version="1.1" id="Layer_1" xmlns="http://www.w3.org/2000/svg" xmlns:xlink="http://www.w3.org/1999/xlink" x="0px" y="0px"
	 width="141.7px" height="141.7px" viewBox="0 0 141.7 141.7" style="enable-background:new 0 0 141.7 141.7;" xml:space="preserve"
	>
<style type="text/css">
<![CDATA[
	.st0{fill:#AF5B2B;}
	.st1{fill:#4E1412;}
	.st2{fill:#4E7796;}
	.st3{opacity:0.39;}
	.st4{fill:#868686;}
	.st5{fill:#B6382F;}
	.st6{fill:#B68472;}
	.st7{fill:#EA575B;}
	.st8{fill:#EA8232;}
	.st9{fill:#575756;}
	.st10{fill:#8E6451;}
	.st11{fill:#F29E9F;}
	.st12{fill:#F39E2B;}
	.st13{fill:#F5C799;}
	.st14{fill:#F5F0F2;}
	.st15{fill:#F6E9E5;}
	.st16{fill:#C6CCD6;}
	.st17{fill:#FAEDEB;}
	.st18{fill:#2D466A;}
	.st19{fill:#FBDD58;}
	.st20{fill:#FFFFFF;}
	.st21{fill:none;}
	.st22{fill:#68A284;}
	.st23{fill:#9C9B9B;}
	.st24{fill:#6F6F6E;}
	.st25{fill:#D3C5C1;}
	.st26{fill:#3C1312;}
	.st27{fill:#3C3C3B;}
	.st28{fill:#D76C79;}
	.st29{fill:#723E2B;}
	.st30{fill:#411611;}
]]>
</style>
<g>
	<g>
		<g>
			<g>
				<g>
					<path class="st2" d="M84,48.2c0,0-3.4-16.5,0.8-34.4c0,0,1.6-6.5,4.9,0.6c3.3,7.1,12.2,27.2,6.3,42.4L84,48.2z"/>
				</g>
			</g>
			<g>
				<g>
					<path class="st28" d="M86.9,46.5c0,0-1.9-11.3-0.7-25.4c0,0,0.9-7.3,2.9-2.2c4.6,11.7,7.5,25.8,4.8,33L86.9,46.5z"/>
				</g>
			</g>
		</g>
		<g>
			<g>
				<g>
					<path class="st2" d="M66.8,48.2c0,0,4.7-16.2,2-34.3c0,0-1-6.6-4.9,0.2C60,21,49.5,40.2,54.2,55.9L66.8,48.2z"/>
				</g>
			</g>
			<g>
				<g>
					<path class="st28" d="M64.1,46.2c0,0,2.8-11.1,2.7-25.3c0,0-0.3-7.3-2.7-2.4c-5.6,11.2-9.5,25.1-7.5,32.5L64.1,46.2z"/>
				</g>
			</g>
		</g>
	</g>
	<g>
		<g>
			<g>
				<g class="st3">
					<g>
						<path class="st16" d="M75.5,109.7c9.5,0,17.5-4.8,20.1-11.4C93,89.4,85,84.6,75.5,84.6c-9.5,0-17.5,4.8-20.1,13.6
							C58,104.9,66,109.7,75.5,109.7z"/>
					</g>
				</g>
				<g>
					<g>
						<path class="st18" d="M75.5,109.7c9.5,0,17.5-4.8,20.1-11.4C93,89.4,85,84.6,75.5,84.6c-9.5,0-17.5,4.8-20.1,13.6
							C58,104.9,66,109.7,75.5,109.7z"/>
					</g>
				</g>
				<g>
					<g>
						<path class="st18" d="M55.4,98.3c-0.6,1.9-0.9,4-0.9,6.3c0,8.8,5.4,15.9,20.9,15.9v-10.8C66,109.7,58,104.9,55.4,98.3z"/>
					</g>
				</g>
				<g>
					<g>
						<path class="st2" d="M95.5,98.3c0.6,1.9,0.9,4,0.9,6.3c0,8.8-5.3,16.4-20.9,15.9v-10.8C85,109.7,93,104.9,95.5,98.3z"/>
					</g>
				</g>
			</g>
		</g>
		<g>
			<g>
				<g>
					<rect x="62.8" y="114.9" class="st18" width="8.7" height="12"/>
				</g>
			</g>
			<g>
				<g>
					<rect x="79.5" y="114.9" class="st2" width="8.7" height="12"/>
				</g>
			</g>
			<g>
				<g>
					<g>
						<path class="st27" d="M67.1,128.5c0.4,0,0.7,0.3,0.7,0.7v1.7h7c0-4.2-3.4-7.6-7.6-7.6c-4.2,0-7.6,3.4-7.6,7.6h6.8v-1.7
							C66.4,128.8,66.7,128.5,67.1,128.5z"/>
					</g>
				</g>
			</g>
			<g>
				<g>
					<g>
						<path class="st27" d="M83.7,128.5c0.4,0,0.7,0.3,0.7,0.7v1.7h7c0-4.2-3.4-7.6-7.6-7.6c-4.2,0-7.6,3.4-7.6,7.6h6.8v-1.7
							C83.1,128.8,83.4,128.5,83.7,128.5z"/>
					</g>
				</g>
			</g>
		</g>
	</g>
	<g>
		<g>
			<g>
				<g>
					<path class="st18" d="M76.8,35.7c0.2,1.2,0.1,2.2-0.2,3c-0.2,0.9-0.6,1.7-1.1,2.4c-0.5,0.7-1.1,1.4-1.8,1.9
						c-0.7,0.6-1.6,1-2.8,1.3c-0.2-1.2-0.1-2.2,0.2-3.1c0.2-0.9,0.6-1.7,1.1-2.4c0.5-0.7,1.1-1.4,1.8-1.9
						C74.7,36.4,75.6,36,76.8,35.7z"/>
				</g>
			</g>
			<g>
				<g>
					<path class="st2" d="M80.7,37.5c0.2,1.2,0.1,2.2-0.2,3c-0.2,0.9-0.6,1.7-1.1,2.4c-0.5,0.7-1.1,1.4-1.8,1.9
						c-0.7,0.6-1.6,1-2.8,1.3c-0.2-1.2-0.1-2.2,0.2-3.1c0.2-0.9,0.6-1.7,1.1-2.4c0.5-0.7,1.1-1.4,1.8-1.9
						C78.7,38.3,79.5,37.8,80.7,37.5z"/>
				</g>
			</g>
		</g>
		<g>
			<g>
				<g>
					<path class="st2" d="M98.4,64.5c-0.4-2.1-1.3-6.2-1.3-6.2C95.3,48.5,86.7,41,75.5,41V103c14.8,0,25.4-10.3,25.4-22.9
						C100.9,74.1,99.5,70.2,98.4,64.5z"/>
				</g>
			</g>
			<g>
				<g>
					<g>
						<path class="st18" d="M52.5,64.5c0.4-2.1,1.3-6.2,1.3-6.2C55.7,48.5,64.3,41,75.5,41V103C60.7,103,50,92.8,50,80.1
							C50,74.1,51.5,70.2,52.5,64.5z"/>
					</g>
				</g>
			</g>
		</g>
		<g>
			<g>
				<ellipse class="st23" cx="75.5" cy="90.9" rx="20.9" ry="13.7"/>
			</g>
		</g>
		<g>
			<g>
				<g>
					<circle class="st27" cx="63" cy="88.7" r="3"/>
				</g>
			</g>
			<g>
				<g>
					<circle class="st27" cx="88" cy="88.7" r="3"/>
				</g>
			</g>
		</g>
		<g>
			<g>
				<g>
					<circle class="st23" cx="64" cy="63.8" r="4.8"/>
				</g>
			</g>
		</g>
		<g>
			<g>
				<g>
					<circle class="st23" cx="88.4" cy="63.8" r="4.8"/>
				</g>
			</g>
		</g>
		<g>
			<g>
				<g>
					<circle class="st27" cx="64" cy="63.8" r="2.7"/>
				</g>
			</g>
		</g>
		<g>
			<g>
				<g>
					<circle class="st27" cx="88.4" cy="63.8" r="2.7"/>
				</g>
			</g>
		</g>
		<g>
			<g>
				<circle class="st20" cx="65" cy="62.9" r="1"/>
			</g>
		</g>
		<g>
			<g>
				<circle class="st20" cx="89.3" cy="62.9" r="1"/>
			</g>
		</g>
		<g>
			<g>
				<g>
					<path class="st15" d="M71.2,101.9c0,1.9,0.9,1.8,2,2l0,0c1.2,0.1,2,0.1,2-2v-1.3c0,0.2-3.9-0.3-3.9-0.3V101.9z"/>
				</g>
			</g>
			<g>
				<g>
					<path class="st15" d="M79.8,101.9c0,1.9-0.9,1.8-2,2l0,0c-1.2,0.1-2,0.1-2-2v-1.3c0,0.2,3.9-0.3,3.9-0.3V101.9z"/>
				</g>
			</g>
		</g>
		<g>
			<g>
				<g>
					<path class="st27" d="M75.8,101.5c-8.8,0-15-4.6-15.2-4.8c-0.2-0.1-0.2-0.4-0.1-0.6c0.1-0.2,0.4-0.2,0.6-0.1
						c0.1,0,6.2,4.6,14.7,4.6c8.5,0,14-4.5,14.1-4.6c0.2-0.2,0.5-0.1,0.6,0.1c0.2,0.2,0.1,0.5-0.1,0.6
						C90.2,96.9,84.6,101.5,75.8,101.5z"/>
				</g>
			</g>
		</g>
	</g>
	<g>
		<g>
			<g>
				<path class="st27" d="M35.1,112.8c1.3-0.6,4.9-2.2,9.4,0.1c2,1,3.1,1.8,3.9,2.5c0.8,0.7,2.3,2.3,3,3.5c-1.3,0.6-1.5,0.8-3.1,1.3
					c-1,0.3-2.5,0.5-3.4,0.1s-1.9-0.7-3.2-1.8C40.8,117.9,37.6,113.4,35.1,112.8z"/>
			</g>
		</g>
		<g>
			<g>
				<g>
					<path class="st18" d="M50.4,119.8c-0.6,0-1.2,0-1.8-0.1c-1.2-0.2-2-1.3-1.8-2.6c0.2-1.2,1.3-2,2.6-1.8c7.2,1.2,10-11.1,10-11.2
						c0.3-1.2,1.5-2,2.7-1.7c1.2,0.3,2,1.5,1.7,2.7C63.5,105.7,60.3,119.8,50.4,119.8z"/>
				</g>
			</g>
		</g>
	</g>
</g>
</svg>
