<?xml version="1.0" encoding="utf-8"?>
<!-- Generator: Adobe Illustrator 16.0.4, SVG Export Plug-In . SVG Version: 6.00 Build 0)  -->
<!DOCTYPE svg PUBLIC "-//W3C//DTD SVG 1.1//EN" "http://www.w3.org/Graphics/SVG/1.1/DTD/svg11.dtd">
<svg version="1.1" id="Layer_1" xmlns="http://www.w3.org/2000/svg" xmlns:xlink="http://www.w3.org/1999/xlink" x="0px" y="0px"
	 width="141.7px" height="141.7px" viewBox="0 0 141.7 141.7" style="enable-background:new 0 0 141.7 141.7;" xml:space="preserve"
	>
<style type="text/css">
<![CDATA[
	.st0{fill:#AF5B2B;}
	.st1{fill:#4E1412;}
	.st2{fill:#4E7796;}
	.st3{opacity:0.39;}
	.st4{fill:#868686;}
	.st5{fill:#B6382F;}
	.st6{fill:#B68472;}
	.st7{fill:#EA575B;}
	.st8{fill:#EA8232;}
	.st9{fill:#575756;}
	.st10{fill:#8E6451;}
	.st11{fill:#F29E9F;}
	.st12{fill:#F39E2B;}
	.st13{fill:#F5C799;}
	.st14{fill:#F5F0F2;}
	.st15{fill:#F6E9E5;}
	.st16{fill:#C6CCD6;}
	.st17{fill:#FAEDEB;}
	.st18{fill:#2D466A;}
	.st19{fill:#FBDD58;}
	.st20{fill:#FFFFFF;}
	.st21{fill:none;}
	.st22{fill:#68A284;}
	.st23{fill:#9C9B9B;}
	.st24{fill:#6F6F6E;}
	.st25{fill:#D3C5C1;}
	.st26{fill:#3C1312;}
	.st27{fill:#3C3C3B;}
	.st28{fill:#D76C79;}
	.st29{fill:#723E2B;}
	.st30{fill:#411611;}
]]>
</style>
<g>
	<g>
		<g>
			<g>
				<path class="st24" d="M44.4,105.1c-3.4,0-7.1-1-11-3.4c-5.6-3.4-8.8-7.9-9.6-13.2c-1.5-9.7,6.1-18.5,6.4-18.9
					c0,0,7.8-9.7,3-14.7c-2-2.1-4.2-3.1-6.2-2.8c-1.4,0.2-2.5,1-3.3,2.5c-0.7,1.3-0.9,2.4-0.6,3.2c0.4,1.1,1.7,1.8,1.8,1.8
					c1.7,0.7,2.4,2.7,1.7,4.4c-0.7,1.7-2.6,2.5-4.3,1.8c-0.4-0.2-4-1.8-5.4-5.6c-0.7-1.8-1-4.8,1-8.6c1.7-3.3,4.7-5.5,8.2-5.9
					c4.1-0.6,8.5,1.2,12,4.8c7.1,7.5,1.6,18.4-2.8,23.7c-0.1,0.1-5.9,6.9-4.9,13.6c0.5,3.3,2.7,6.1,6.5,8.5
					c11.4,7.1,18.9-3.8,19.7-5c1-1.5,3.1-2,4.6-1c1.5,1,2,3,1,4.6C59.4,99,52.9,105.1,44.4,105.1z"/>
			</g>
		</g>
	</g>
	<g>
		<g>
			<g>
				<g>
					<path class="st25" d="M53.5,83.5c0,11.6,10.4,21,23.3,21V62.5C63.9,62.5,53.5,71.9,53.5,83.5z"/>
				</g>
			</g>
			<g>
				<g>
					<path class="st15" d="M100.1,83.5c0-11.6-10.4-21-23.3-21v41.9C89.6,104.5,100.1,95.1,100.1,83.5z"/>
				</g>
			</g>
		</g>
		<g>
			<g>
				<g>
					<path class="st25" d="M49.8,73.4c0,11.6,12.1,21,27,21V52.5C61.9,52.5,49.8,61.9,49.8,73.4z"/>
				</g>
			</g>
			<g>
				<g>
					<path class="st25" d="M103.8,73.4c0-11.6-12.1-21-27-21v44.2C91.7,96.6,103.8,85,103.8,73.4z"/>
				</g>
			</g>
		</g>
		<g>
			<g>
				<g>
					<rect x="63.3" y="99.3" class="st25" width="10.5" height="9.2"/>
				</g>
			</g>
			<g>
				<g>
					<path class="st25" d="M60.3,112c0-4.5,3.7-8.2,8.2-8.2c4.5,0,8.2,3.7,8.2,8.2"/>
				</g>
			</g>
			<g>
				<g>
					<rect x="81.5" y="99.3" class="st15" width="10.5" height="9.2"/>
				</g>
			</g>
			<g>
				<g>
					<path class="st15" d="M78.5,112c0-4.5,3.7-8.2,8.2-8.2c4.5,0,8.2,3.7,8.2,8.2"/>
				</g>
			</g>
		</g>
	</g>
	<g>
		<g>
			<g>
				<g>
					<path class="st24" d="M90.5,38.8c5.8-8.9,21.6-9,21.6-9s1.9,20-6.9,26.7"/>
				</g>
			</g>
			<g>
				<g>
					<path class="st28" d="M107.7,34.7c0,0-7.6-0.1-12.7,5.4c-5.1,5.5,9.2,11.5,9.2,11.5S110,42.7,107.7,34.7z"/>
				</g>
			</g>
		</g>
		<g>
			<g>
				<g>
					<path class="st24" d="M65.1,38.8c-5.8-8.9-21.6-9-21.6-9s-1.9,20,6.9,26.7"/>
				</g>
			</g>
			<g>
				<g>
					<path class="st28" d="M48,34.7c0,0,7.6-0.1,12.7,5.4c5.1,5.5-9.2,11.5-9.2,11.5S45.7,42.7,48,34.7z"/>
				</g>
			</g>
		</g>
	</g>
	<g>
		<g>
			<g>
				<path class="st25" d="M76.8,68.2V32.4c0,0-5.4-0.4-13.5,2.6s-14.8,11.9-17,26.4c0,0-5.2,8.1-5.9,15.9c0,0,6.7,2,13.1,6.1
					C54.9,74.9,64.8,68.2,76.8,68.2z"/>
			</g>
		</g>
		<g>
			<g>
				<path class="st15" d="M100.1,83.5c6.5-4.1,13.1-6.1,13.1-6.1c0-7.9-5.9-15.9-5.9-15.9c-2.2-14.6-8.9-23.5-17-26.4
					c-8.1-3-13.5-2.6-13.5-2.6v35.8C88.8,68.2,98.7,74.9,100.1,83.5z"/>
			</g>
		</g>
	</g>
	<g>
		<g>
			<path class="st22" d="M54.6,55.5c0,0,12.4-3.6,12.1,9C66.7,64.5,54.6,68.8,54.6,55.5"/>
		</g>
	</g>
	<g>
		<g>
			<path class="st22" d="M86.9,64.5c0,0,12.1,4.4,12.1-9C99,55.5,86.6,51.9,86.9,64.5"/>
		</g>
	</g>
	<g>
		<g>
			<g>
				<g>
					<path class="st4" d="M90.8,73.8c-0.2,0-0.3-0.1-0.4-0.2c-0.1-0.2,0-0.4,0.2-0.5c0.7-0.3,17.9-8,24.4-5.3
						c0.2,0.1,0.3,0.3,0.2,0.5c-0.1,0.2-0.3,0.3-0.5,0.2c-6.1-2.6-23.6,5.2-23.8,5.3C90.9,73.8,90.9,73.8,90.8,73.8z"/>
				</g>
			</g>
		</g>
		<g>
			<g>
				<g>
					<path class="st4" d="M94.8,76.8c-0.2,0-0.4-0.2-0.4-0.4c0-0.2,0.1-0.4,0.4-0.4c2.1-0.2,20.5-2,22.6-1c0.2,0.1,0.3,0.3,0.2,0.5
						c-0.1,0.2-0.3,0.3-0.5,0.2C115.5,75,102.9,76,94.8,76.8C94.8,76.8,94.8,76.8,94.8,76.8z"/>
				</g>
			</g>
		</g>
		<g>
			<g>
				<g>
					<path class="st4" d="M112.1,84.4c-0.1,0-0.2,0-0.3-0.1c-2-2.2-11.2-3-14.5-3.1c-0.2,0-0.4-0.2-0.4-0.4c0-0.2,0.2-0.4,0.4-0.4
						c0.5,0,12.5,0.5,15.1,3.4c0.1,0.2,0.1,0.4,0,0.6C112.3,84.3,112.2,84.4,112.1,84.4z"/>
				</g>
			</g>
		</g>
		<g>
			<g>
				<g>
					<path class="st4" d="M62.7,73.8c0.2,0,0.3-0.1,0.4-0.2c0.1-0.2,0-0.4-0.2-0.5c-0.7-0.3-17.9-8-24.4-5.3
						c-0.2,0.1-0.3,0.3-0.2,0.5c0.1,0.2,0.3,0.3,0.5,0.2c6.1-2.6,23.6,5.2,23.8,5.3C62.6,73.8,62.7,73.8,62.7,73.8z"/>
				</g>
			</g>
		</g>
		<g>
			<g>
				<g>
					<path class="st4" d="M58.8,76.8c0.2,0,0.4-0.2,0.4-0.4c0-0.2-0.1-0.4-0.4-0.4c-2.1-0.2-20.5-2-22.6-1c-0.2,0.1-0.3,0.3-0.2,0.5
						c0.1,0.2,0.3,0.3,0.5,0.2C38,75,50.6,76,58.8,76.8C58.7,76.8,58.8,76.8,58.8,76.8z"/>
				</g>
			</g>
		</g>
		<g>
			<g>
				<g>
					<path class="st4" d="M41.5,84.4c0.1,0,0.2,0,0.3-0.1c2-2.2,11.2-3,14.5-3.1c0.2,0,0.4-0.2,0.4-0.4c0-0.2-0.2-0.4-0.4-0.4
						c-0.5,0-12.5,0.5-15.1,3.4c-0.1,0.2-0.1,0.4,0,0.6C41.3,84.3,41.4,84.4,41.5,84.4z"/>
				</g>
			</g>
		</g>
	</g>
	<g>
		<g>
			<g>
				<path class="st25" d="M74.1,74.2l-6-4.4c-0.1-0.1-0.1-0.2-0.2-0.3c-7.7,2.4-13.3,7.6-14.3,14c1.8,1.1,3.4,2.5,5.1,3.8
					c3.7,2.9,7.1,4.6,18.2,4.6V75.4C75.8,75.4,74.8,75,74.1,74.2z"/>
			</g>
		</g>
		<g>
			<g>
				<path class="st15" d="M85.7,69.5c0,0,0,0.1-0.1,0.1l-6.3,4.7c-0.7,0.7-1.6,1-2.5,1v16.6c11.1,0,14.5-1.7,18.2-4.6
					c1.7-1.3,3.3-2.7,5.1-3.8C99,77.1,93.4,71.8,85.7,69.5z"/>
			</g>
		</g>
		<g>
			<g>
				<path class="st27" d="M90.3,78.1c-0.2-0.2-0.6-0.2-0.8,0c0,0-4.1,4-7.9,3.5c-1.7-0.2-3.1-1.3-4.3-3.3v-3c0.7-0.1,1.4-0.4,2-1
					l6.3-4.7c0,0,0-0.1,0.1-0.1c-2.8-0.8-5.8-1.3-8.9-1.3c-3.2,0-6.2,0.5-9,1.3c0.1,0.1,0.1,0.2,0.2,0.3l6,4.4
					c0.6,0.6,1.4,1,2.2,1.1v3c-1.1,2-2.6,3.1-4.2,3.3c-3.8,0.5-7.9-3.5-7.9-3.5c-0.2-0.2-0.6-0.2-0.8,0c-0.2,0.2-0.2,0.6,0,0.8
					c0.2,0.2,3.9,3.9,8,3.9c0.3,0,0.6,0,0.9-0.1c1.8-0.3,3.4-1.3,4.7-3.2c1.2,1.9,2.8,2.9,4.7,3.2c0.3,0,0.6,0.1,0.9,0.1
					c4.1,0,7.8-3.7,8-3.9C90.5,78.6,90.5,78.3,90.3,78.1z"/>
			</g>
		</g>
	</g>
	<g>
		<g>
			<g>
				<circle class="st20" cx="62.7" cy="58.7" r="2.1"/>
			</g>
		</g>
		<g>
			<g>
				<circle class="st20" cx="94.4" cy="58.7" r="2.1"/>
			</g>
		</g>
	</g>
</g>
</svg>
