<?xml version="1.0" encoding="utf-8"?>
<!-- Generator: Adobe Illustrator 16.0.4, SVG Export Plug-In . SVG Version: 6.00 Build 0)  -->
<!DOCTYPE svg PUBLIC "-//W3C//DTD SVG 1.1//EN" "http://www.w3.org/Graphics/SVG/1.1/DTD/svg11.dtd">
<svg version="1.1" id="Layer_1" xmlns="http://www.w3.org/2000/svg" xmlns:xlink="http://www.w3.org/1999/xlink" x="0px" y="0px"
	 width="141.7px" height="141.7px" viewBox="0 0 141.7 141.7" style="enable-background:new 0 0 141.7 141.7;" xml:space="preserve"
	>
<style type="text/css">
<![CDATA[
	.st0{fill:#AF5B2B;}
	.st1{fill:#4E1412;}
	.st2{fill:#4E7796;}
	.st3{opacity:0.39;}
	.st4{fill:#868686;}
	.st5{fill:#B6382F;}
	.st6{fill:#B68472;}
	.st7{fill:#EA575B;}
	.st8{fill:#EA8232;}
	.st9{fill:#575756;}
	.st10{fill:#8E6451;}
	.st11{fill:#F29E9F;}
	.st12{fill:#F39E2B;}
	.st13{fill:#F5C799;}
	.st14{fill:#F5F0F2;}
	.st15{fill:#F6E9E5;}
	.st16{fill:#C6CCD6;}
	.st17{fill:#FAEDEB;}
	.st18{fill:#2D466A;}
	.st19{fill:#FBDD58;}
	.st20{fill:#FFFFFF;}
	.st21{fill:none;}
	.st22{fill:#68A284;}
	.st23{fill:#9C9B9B;}
	.st24{fill:#6F6F6E;}
	.st25{fill:#D3C5C1;}
	.st26{fill:#3C1312;}
	.st27{fill:#3C3C3B;}
	.st28{fill:#D76C79;}
	.st29{fill:#723E2B;}
	.st30{fill:#411611;}
]]>
</style>
<g>
	<g>
		<g>
			<g>
				<g>
					<rect x="49" y="105.9" class="st10" width="13.8" height="15"/>
				</g>
			</g>
			<g>
				<g>
					<rect x="69.4" y="105.9" class="st6" width="13.8" height="15"/>
				</g>
			</g>
			<g>
				<g>
					<path class="st10" d="M55.9,115.7c-5.4,0-9.7,4.4-9.7,9.7h19.5C65.6,120,61.3,115.7,55.9,115.7z"/>
				</g>
			</g>
			<g>
				<g>
					<path class="st6" d="M76.3,115.7c-5.4,0-9.7,4.4-9.7,9.7H86C86,120,81.7,115.7,76.3,115.7z"/>
				</g>
			</g>
		</g>
		<g>
			<g>
				<g class="st3">
					<g>
						<path class="st16" d="M66.1,103.6c11.5,0,21.2-5.8,24.3-13.8c-3.1-10.7-12.8-16.5-24.3-16.5c-11.5,0-21.2,5.8-24.3,16.5
							C44.9,97.8,54.6,103.6,66.1,103.6z"/>
					</g>
				</g>
				<g>
					<g>
						<path class="st10" d="M66.1,103.6c11.5,0,21.2-5.8,24.3-13.8c-3.1-10.7-12.8-16.5-24.3-16.5c-11.5,0-21.2,5.8-24.3,16.5
							C44.9,97.8,54.6,103.6,66.1,103.6z"/>
					</g>
				</g>
				<g>
					<g>
						<path class="st10" d="M41.8,89.8c-0.7,2.3-1,4.9-1,7.6c0,10.7,11.4,19.3,25.4,19.3v-13.1C54.6,103.6,44.9,97.8,41.8,89.8z"/>
					</g>
				</g>
				<g>
					<g>
						<path class="st6" d="M90.4,89.8c0.7,2.3,1,4.9,1,7.6c0,10.7-11.4,19.3-25.4,19.3v-13.1C77.6,103.6,87.3,97.8,90.4,89.8z"/>
					</g>
				</g>
			</g>
		</g>
	</g>
	<g>
		<g>
			<g>
				<g>
					<path class="st29" d="M45.7,34c-1.1-1.2-2.6-2.5-3.8-3.2l-0.4-0.2c-0.1,0.3-0.2,0.9-0.4,1.5c-0.2,1.4-0.2,2.8-0.2,4.8
						c0,1.9,0.1,4.3-0.1,6.7c-0.2,2.4-0.6,4.9-1.1,7.3c-1,4.8-2.6,9.3-4.3,13.5l-0.1,0.3c-2.2,5.4-8.3,8-13.7,5.8
						c-5.4-2.2-8-8.3-5.8-13.7c0.4-0.9,0.9-1.8,1.5-2.5c2.3-3,4.4-6,6-9c0.8-1.5,1.5-3.1,2.1-4.7c0.6-1.6,1.1-3.4,1.7-5.5
						c0.6-2.1,1.3-4.8,2.5-7.3c0.6-1.3,1.3-2.6,2.5-4c0.6-0.7,1.3-1.4,2.2-2.1c0.9-0.7,2-1.3,3.2-1.6c1.2-0.3,2.5-0.4,3.7-0.2
						c1.1,0.2,2.1,0.5,2.9,0.9c1.6,0.8,2.7,1.7,3.7,2.7c1,0.9,1.8,1.9,2.5,2.9c0.7,1,1.3,1.9,2,3.1c1.1,1.9,0.4,4.4-1.5,5.5
						c-1.6,0.9-3.7,0.6-4.9-0.7L45.7,34z"/>
				</g>
			</g>
			<g>
				<g>
					<path class="st29" d="M86.4,34c1.1-1.2,2.6-2.5,3.8-3.2l0.4-0.2c0.1,0.3,0.2,0.9,0.4,1.5c0.2,1.4,0.2,2.8,0.2,4.8
						c0,1.9-0.1,4.3,0.1,6.7c0.2,2.4,0.5,4.9,1.1,7.3c1,4.8,2.6,9.3,4.3,13.5l0.1,0.3c2.2,5.4,8.3,8,13.7,5.8
						c5.4-2.2,8-8.3,5.8-13.7c-0.4-0.9-0.9-1.8-1.5-2.5c-2.3-3-4.4-6-6-9c-0.8-1.5-1.5-3.1-2.1-4.7c-0.6-1.6-1.1-3.4-1.7-5.5
						c-0.6-2.1-1.3-4.8-2.5-7.3c-0.6-1.3-1.3-2.6-2.5-4c-0.6-0.7-1.3-1.4-2.2-2.1c-0.9-0.7-2-1.3-3.2-1.6c-1.2-0.3-2.5-0.4-3.7-0.2
						c-1.1,0.2-2.1,0.5-2.9,0.9c-1.6,0.8-2.7,1.7-3.7,2.7c-1,0.9-1.8,1.9-2.5,2.9c-0.7,1-1.3,1.9-2,3.1c-1.1,1.9-0.4,4.4,1.5,5.5
						c1.6,0.9,3.7,0.6,4.9-0.7L86.4,34z"/>
				</g>
			</g>
		</g>
		<g>
			<g>
				<g>
					<path class="st6" d="M93.9,52c-0.5-2.5-1.6-7.5-1.6-7.5c-2.2-11.9-12.6-21-26.2-21v75.2c17.9,0,30.8-12.4,30.8-27.8
						C96.9,63.6,95.2,58.9,93.9,52z"/>
				</g>
			</g>
			<g>
				<g>
					<g>
						<path class="st10" d="M38.4,52c0.5-2.5,1.6-7.5,1.6-7.5c2.2-11.9,12.6-21,26.2-21v75.2c-17.9,0-30.8-12.4-30.8-27.8
							C35.4,63.6,37.1,58.9,38.4,52z"/>
					</g>
				</g>
			</g>
		</g>
		<g>
			<g>
				<g>
					<g>
						<rect x="65.3" y="88.4" class="st26" width="1.1" height="6.4"/>
					</g>
				</g>
			</g>
		</g>
		<g>
			<g>
				<path class="st29" d="M82.4,77.4c0,6.1-7.3,11.1-16.2,11.1c-9,0-16.2-5-16.2-11.1c0-6.1,7.3-11.1,16.2-11.1
					C75.1,66.3,82.4,71.3,82.4,77.4z"/>
			</g>
		</g>
		<g>
			<g>
				<g>
					<path class="st17" d="M78.8,78.5c-0.4,0-0.8-0.2-1-0.6c-2.1-3.8-7.4-5.1-7.5-5.1c-0.6-0.1-1-0.7-0.8-1.3c0.1-0.6,0.8-1,1.3-0.8
						c0.3,0.1,6.3,1.6,8.9,6.2c0.3,0.5,0.1,1.2-0.4,1.5C79.1,78.4,79,78.5,78.8,78.5z"/>
				</g>
			</g>
		</g>
		<g>
			<g>
				<g>
					<path class="st17" d="M65.8,72h-0.9c-0.6,0-1.1-0.5-1.1-1.1c0-0.6,0.5-1.1,1.1-1.1h0.9c0.6,0,1.1,0.5,1.1,1.1
						C66.9,71.5,66.4,72,65.8,72z"/>
				</g>
			</g>
		</g>
		<g>
			<g>
				<g>
					<g>
						<path class="st30" d="M65.6,96c-6,0-8.4-2.3-8.5-2.4c-0.2-0.2-0.2-0.6,0-0.8c0.2-0.2,0.6-0.2,0.8,0l0,0c0,0,2.2,2.1,7.8,2.1
							c5.1,0,7.8-2.1,7.8-2.1c0.2-0.2,0.6-0.1,0.8,0.1c0.2,0.2,0.1,0.6-0.1,0.8C74,93.7,71.1,96,65.6,96z"/>
					</g>
				</g>
			</g>
		</g>
		<g>
			<g>
				<g>
					<g>
						<g>
							<path class="st30" d="M84.9,53.4c0,2.8-1.8,5.1-4,5.1c-2.2,0-4-2.3-4-5.1c0-2.8,1.8-5.1,4-5.1C83.1,48.3,84.9,50.6,84.9,53.4
								z"/>
						</g>
					</g>
				</g>
				<g>
					<g>
						<g>
							<ellipse class="st30" cx="51.3" cy="53.4" rx="4" ry="5.1"/>
						</g>
					</g>
				</g>
			</g>
			<g>
				<g>
					<ellipse class="st20" cx="52.8" cy="51.1" rx="1.5" ry="1.5"/>
				</g>
			</g>
			<g>
				<g>
					<ellipse class="st20" cx="82.4" cy="51.1" rx="1.5" ry="1.5"/>
				</g>
			</g>
		</g>
	</g>
</g>
</svg>
