<?xml version="1.0" encoding="utf-8"?>
<!-- Generator: Adobe Illustrator 16.0.4, SVG Export Plug-In . SVG Version: 6.00 Build 0)  -->
<!DOCTYPE svg PUBLIC "-//W3C//DTD SVG 1.1//EN" "http://www.w3.org/Graphics/SVG/1.1/DTD/svg11.dtd">
<svg version="1.1" id="Layer_1" xmlns="http://www.w3.org/2000/svg" xmlns:xlink="http://www.w3.org/1999/xlink" x="0px" y="0px"
	 width="141.7px" height="141.7px" viewBox="0 0 141.7 141.7" style="enable-background:new 0 0 141.7 141.7;" xml:space="preserve"
	>
<style type="text/css">
<![CDATA[
	.st0{fill:#AF5B2B;}
	.st1{fill:#4E1412;}
	.st2{fill:#4E7796;}
	.st3{opacity:0.39;}
	.st4{fill:#868686;}
	.st5{fill:#B6382F;}
	.st6{fill:#B68472;}
	.st7{fill:#EA575B;}
	.st8{fill:#EA8232;}
	.st9{fill:#575756;}
	.st10{fill:#8E6451;}
	.st11{fill:#F29E9F;}
	.st12{fill:#F39E2B;}
	.st13{fill:#F5C799;}
	.st14{fill:#F5F0F2;}
	.st15{fill:#F6E9E5;}
	.st16{fill:#C6CCD6;}
	.st17{fill:#FAEDEB;}
	.st18{fill:#2D466A;}
	.st19{fill:#FBDD58;}
	.st20{fill:#FFFFFF;}
	.st21{fill:none;}
	.st22{fill:#68A284;}
	.st23{fill:#9C9B9B;}
	.st24{fill:#6F6F6E;}
	.st25{fill:#D3C5C1;}
	.st26{fill:#3C1312;}
	.st27{fill:#3C3C3B;}
	.st28{fill:#D76C79;}
	.st29{fill:#723E2B;}
	.st30{fill:#411611;}
]]>
</style>
<g>
	<g>
		<g>
			<g>
				<g>
					<path class="st15" d="M18.9,23.8c0,0,3.1,21.2,15,21.2s15.9,0,15.9,0s-5.5-21.2-17.4-21.2C20.5,23.8,18.9,23.8,18.9,23.8z"/>
				</g>
			</g>
			<g>
				<g>
					<path class="st28" d="M24.4,27.5c0,0,2,13.7,9.7,13.7c7.7,0,10.3,0,10.3,0s-3.5-13.7-11.2-13.7C25.4,27.5,24.4,27.5,24.4,27.5z
						"/>
				</g>
			</g>
		</g>
		<g>
			<g>
				<g>
					<path class="st15" d="M119.8,23.8c0,0-3.1,21.2-15,21.2c-11.9,0-15.9,0-15.9,0s5.5-21.2,17.4-21.2
						C118.2,23.8,119.8,23.8,119.8,23.8z"/>
				</g>
			</g>
			<g>
				<g>
					<path class="st28" d="M114.3,27.5c0,0-2,13.7-9.7,13.7c-7.7,0-10.3,0-10.3,0s3.5-13.7,11.2-13.7
						C113.3,27.5,114.3,27.5,114.3,27.5z"/>
				</g>
			</g>
		</g>
	</g>
	<g>
		<g>
			<g>
				<path class="st25" d="M66.4,15.7c-0.7,0.7-1.1,1.7-1.1,2.8c0,0.1,0,0.1,0,0.2c-0.1,0-0.1,0-0.2,0c0-0.1,0-0.1,0-0.2
					c-0.5-2.1-2.5-3.4-4.6-3c-2.1,0.5-3.4,2.5-3,4.6c0,0.1,0,0.1,0.1,0.2c-0.1,0-0.1,0-0.1,0.1c0-0.1,0-0.2-0.1-0.2
					c-0.9-1.9-3.3-2.7-5.2-1.8c-1.9,0.9-2.7,3.3-1.8,5.2c0,0.1,0.1,0.1,0.1,0.2c0,0-0.1,0.1-0.1,0.1c-0.1-0.1-0.1-0.1-0.2-0.2
					c-1.4-1.6-3.9-1.8-5.5-0.4c-1.6,1.4-1.8,3.9-0.4,5.5c0.1,0.1,0.1,0.1,0.2,0.2c0,0-0.1,0.1-0.1,0.1c-0.1-0.1-0.1-0.1-0.2-0.2
					c-1.8-1.2-4.2-0.7-5.4,1.1c-1.2,1.8-0.7,4.2,1.1,5.4c0.1,0.1,0.2,0.1,0.2,0.1c0,0,0,0.1-0.1,0.1c-0.1,0-0.2-0.1-0.3-0.1
					c-2.1-0.6-4.2,0.6-4.8,2.6c-0.6,2.1,0.6,4.2,2.6,4.8c0.1,0,0.2,0,0.3,0.1c0,0,0,0.1,0,0.1c-0.1,0-0.2,0-0.3,0
					c-2.2,0-3.9,1.8-3.9,3.9c0,2.1,1.7,3.9,3.9,3.9h0c0.1,0,0.1,0,0.2,0c0,0,0,0.1,0,0.1c-0.1,0-0.1,0-0.1,0
					c-2.1,0.4-3.5,2.4-3.2,4.5v0c0.3,1.9,2,3.2,3.8,3.2c0.2,0,0.4,0,0.7-0.1c0,0,0.1,0,0.1,0c0,0,0,0.1,0,0.1
					c-2.1,0.5-3.4,2.5-3,4.6h0c0.4,1.8,2,3.1,3.8,3.1c0.3,0,0.5,0,0.8-0.1c0,0,0,0.1,0,0.1c0,0,0,0,0,0c-2.1,0.5-3.4,2.5-3,4.6
					c0.4,1.8,2,3.1,3.8,3.1c0.3,0,0.6,0,0.8-0.1c0,0,0,0,0,0c0,0.1,0,0.1,0,0.2c-0.7,0.2-1.3,0.5-1.8,1c-0.7,0.7-1.1,1.7-1.1,2.8
					c0,1,0.4,2,1.1,2.7c0.3,0.3,0.6,0.5,0.9,0.6c0,0-0.1,0-0.1-0.1c-2.1-0.5-4.2,0.7-4.8,2.8c-0.5,2.1,0.7,4.2,2.7,4.8
					c-2.1,0-3.9,1.7-3.9,3.8c0,2.1,1.7,3.9,3.8,4c0,0,0.1,0,0.1,0c-0.1,0-0.1,0-0.2,0.1c-2,0.8-2.9,3.1-2.1,5.1h0
					c0.8,2,3.1,2.9,5.1,2.1c0,0,0.1,0,0.1-0.1c0,0,0,0-0.1,0.1c-1.6,1.5-1.6,3.9-0.2,5.5s3.9,1.6,5.5,0.2c0,0,0,0,0,0
					c-1.1,1.8-0.5,4.2,1.4,5.3c1.8,1.1,4.2,0.5,5.3-1.3c-0.6,2,0.5,4.2,2.6,4.8s4.2-0.5,4.9-2.5c-0.2,2.1,1.4,4,3.5,4.2
					c0.1,0,0.3,0,0.4,0c1.6,0,3-1,3.6-2.5v-103C68.2,14.7,67.2,15,66.4,15.7z"/>
			</g>
		</g>
		<g>
			<g>
				<path class="st15" d="M73.7,120.1c2.1-0.2,3.7-2.1,3.5-4.2c0.7,2,2.8,3.1,4.9,2.5c2-0.6,3.2-2.8,2.5-4.8
					c1.1,1.8,3.5,2.4,5.3,1.3c1.8-1.1,2.4-3.5,1.3-5.3c0,0,0,0,0,0c1.6,1.5,4,1.4,5.5-0.2c1.5-1.6,1.4-4-0.2-5.5c0,0,0,0-0.1-0.1
					c0.1,0,0.1,0,0.1,0.1c2,0.8,4.3-0.2,5.1-2.2c0.8-2-0.2-4.3-2.2-5.1c-0.1,0-0.1,0-0.2-0.1c0,0,0.1,0,0.1,0c2.2-0.1,3.8-1.8,3.8-4
					c-0.1-2.1-1.8-3.8-3.9-3.8c2.1-0.6,3.3-2.7,2.7-4.8c-0.6-2.1-2.7-3.3-4.8-2.7c-0.1,0-0.2,0.1-0.3,0.1c0,0,0,0,0,0
					c0.3-0.2,0.7-0.4,1-0.7C98.6,80,99,79,99,77.9c0-1-0.4-2-1.1-2.7c-0.5-0.5-1.2-0.8-1.8-1c0,0,0-0.1,0-0.1c0,0,0,0,0-0.1
					c0,0,0,0,0,0c0.3,0.1,0.6,0.1,0.8,0.1c1.8,0,3.4-1.2,3.8-3.1c0.4-2.1-0.9-4.2-3-4.6c0,0,0,0,0,0c0,0,0,0,0,0c0,0,0,0,0-0.1
					c0.3,0.1,0.5,0.1,0.8,0.1c1.8,0,3.4-1.2,3.8-3.1c0.5-2.1-0.9-4.2-3-4.6c0,0,0-0.1,0-0.1c0,0,0.1,0,0.1,0c0.2,0,0.4,0.1,0.7,0.1
					c1.9,0,3.5-1.3,3.8-3.2c0.4-2.1-1.1-4.1-3.2-4.5c0,0-0.1,0-0.2,0c0,0,0-0.1,0-0.1c0.1,0,0.1,0,0.2,0c2.1,0,3.9-1.8,3.9-3.9
					c0-2.1-1.7-3.9-3.9-3.9c-0.1,0-0.2,0-0.3,0c0,0,0-0.1,0-0.1c0.1,0,0.2,0,0.3-0.1c2.1-0.6,3.2-2.8,2.6-4.8
					c-0.6-2.1-2.8-3.2-4.8-2.6c-0.1,0-0.2,0.1-0.3,0.1c0,0,0-0.1-0.1-0.1c0.1,0,0.2-0.1,0.3-0.1c1.8-1.2,2.3-3.6,1.1-5.4
					c-1.2-1.8-3.6-2.3-5.4-1.1c-0.1,0.1-0.1,0.1-0.2,0.2c0,0-0.1-0.1-0.1-0.1c0.1-0.1,0.1-0.1,0.2-0.2c1.4-1.6,1.2-4.1-0.4-5.5
					c-1.6-1.4-4.1-1.2-5.5,0.4c-0.1,0.1-0.1,0.1-0.2,0.2c0,0-0.1,0-0.1-0.1c0-0.1,0.1-0.1,0.1-0.2c0.9-1.9,0.1-4.3-1.8-5.2
					c-1.9-0.9-4.3-0.1-5.2,1.8c0,0.1-0.1,0.1-0.1,0.2c0,0-0.1,0-0.1,0c0-0.1,0-0.1,0.1-0.2c0.5-2.1-0.9-4.2-3-4.6
					c-2.1-0.5-4.2,0.9-4.6,3c0,0.1,0,0.1,0,0.2c-0.1,0-0.1,0-0.2,0c0-0.1,0-0.1,0-0.2c0-1-0.4-2-1.1-2.8c-0.7-0.7-1.8-1.1-2.8-1.1
					c0,0-0.1,0-0.1,0v103c0.1-0.3,0.2-0.6,0.3-1C69.7,118.8,71.6,120.3,73.7,120.1z"/>
			</g>
		</g>
	</g>
	<g>
		<g>
			<g>
				<rect x="53.6" y="107.2" class="st25" width="10.9" height="15"/>
			</g>
		</g>
		<g>
			<g>
				<rect x="74.3" y="107.2" class="st15" width="10.9" height="15"/>
			</g>
		</g>
		<g>
			<g>
				<g>
					<path class="st28" d="M58.9,124.2c0.5,0,0.8,0.4,0.8,0.8v2.1h8.7c0-5.2-4.2-9.5-9.5-9.5c-5.2,0-9.5,4.2-9.5,9.5H58V125
						C58,124.5,58.4,124.2,58.9,124.2z"/>
				</g>
			</g>
		</g>
		<g>
			<g>
				<g>
					<path class="st28" d="M79.6,124.2c0.5,0,0.8,0.4,0.8,0.8v2.1h8.7c0-5.2-4.2-9.5-9.5-9.5c-5.2,0-9.5,4.2-9.5,9.5h8.5V125
						C78.8,124.5,79.2,124.2,79.6,124.2z"/>
				</g>
			</g>
		</g>
	</g>
	<g>
		<g>
			<g>
				<path class="st25" d="M69.4,100.9c17.6,0,23.9-10.1,27.6-19.6c0,0-11.1,15.2-27.1,14.6c-13.6-0.5-28.4-14.6-28.4-14.6
					C45.1,90.9,55.8,100.9,69.4,100.9z"/>
			</g>
		</g>
	</g>
	<g>
		<g>
			<g>
				<path class="st13" d="M98.5,53.2c0-8.2-6.6-14.8-14.8-14.8c-6.9,0-12.7,4.7-14.3,11.1C67.7,43.1,62,38.4,55,38.4
					c-8.2,0-14.8,6.6-14.8,14.8S45.8,68,53.9,68c0,0,1,5.7,1.1,7.6C55.6,83.8,59,96,69.9,96c9.9,0,14.2-12.2,14.8-20.4
					c0.1-1.9,1.1-7.7,1.1-7.7C93.5,67.5,98.5,61.1,98.5,53.2z"/>
			</g>
		</g>
		<g>
			<g>
				<g>
					<g>
						<circle class="st30" cx="54.6" cy="54.6" r="5.3"/>
					</g>
				</g>
			</g>
			<g>
				<g>
					<g>
						<circle class="st30" cx="84.1" cy="54.6" r="5.3"/>
					</g>
				</g>
			</g>
			<g>
				<g>
					<circle class="st20" cx="56.4" cy="52.9" r="1.8"/>
				</g>
			</g>
			<g>
				<g>
					<path class="st20" d="M87.7,52.9c0,1-0.8,1.8-1.8,1.8c-1,0-1.8-0.8-1.8-1.8c0-1,0.8-1.8,1.8-1.8C86.9,51.1,87.7,51.9,87.7,52.9
						z"/>
				</g>
			</g>
		</g>
	</g>
	<g>
		<g>
			<path class="st11" d="M75.8,78.3l-6.4,0.7l-6.4-0.7c-0.6-0.1-1.2,0.4-1.2,1c-0.1,0.6,0.4,1.2,1,1.2l5.5,0.6v8.1
				c-0.4,0.4-1.2,1.2-2.1,0.8c-0.5-0.3-1.2-0.1-1.5,0.5c-0.3,0.5-0.1,1.2,0.5,1.5c0.5,0.3,1.1,0.4,1.6,0.4c1.1,0,2-0.6,2.7-1.2
				c0.7,0.6,1.6,1.2,2.7,1.2c0.5,0,1-0.1,1.6-0.4c0.5-0.3,0.8-1,0.5-1.5c-0.3-0.5-1-0.8-1.5-0.5c-0.9,0.5-1.7-0.3-2.1-0.8v-8.1
				l5.5-0.6c0.6-0.1,1-0.6,1-1.2C77,78.7,76.4,78.3,75.8,78.3z"/>
		</g>
	</g>
</g>
</svg>
