<?xml version="1.0" encoding="utf-8"?>
<!-- Generator: Adobe Illustrator 16.0.4, SVG Export Plug-In . SVG Version: 6.00 Build 0)  -->
<!DOCTYPE svg PUBLIC "-//W3C//DTD SVG 1.1//EN" "http://www.w3.org/Graphics/SVG/1.1/DTD/svg11.dtd">
<svg version="1.1" id="Layer_1" xmlns="http://www.w3.org/2000/svg" xmlns:xlink="http://www.w3.org/1999/xlink" x="0px" y="0px"
	 width="212.6px" height="212.6px" viewBox="0 0 212.6 212.6" style="enable-background:new 0 0 212.6 212.6;" xml:space="preserve"
	>
<style type="text/css">
<![CDATA[
	.st0{fill:#7A94A3;}
	.st1{fill:#E7E7E7;}
	.st2{fill:#4ECDC4;}
	.st3{fill:#F2F270;}
	.st4{fill:#F2F2F2;}
	.st5{fill:#FF6B6B;}
	.st6{fill:#FFFEE0;}
	.st7{fill:#454F54;}
]]>
</style>
<path class="st6" d="M106.7,203.1c54.2,0,98.1-43.9,98.1-98.1S160.9,6.9,106.7,6.9C52.5,6.9,8.6,50.8,8.6,105
	S52.5,203.1,106.7,203.1"/>
<rect x="78.2" y="31" transform="matrix(-2.959212e-04 1 -1 -2.959212e-04 181.0881 -31.4793)" class="st1" width="56.1" height="87.6"/>
<polygon class="st4" points="145.5,46.9 62.5,46.9 62.5,80.8 "/>
<path class="st7" d="M61.8,41.9h89c2.8,0,5,2.3,5,5v61.7h-99V46.9C56.8,44.3,59,41.9,61.8,41.9L61.8,41.9z M62.5,47.3v56.2h87.6
	V47.3H62.5L62.5,47.3z"/>
<polygon class="st5" points="70.2,69.4 70.2,94.9 84.1,94.9 84.1,69.4 70.2,69.4 "/>
<polygon class="st2" points="89,55.1 89,94.9 102.9,94.9 102.9,55.1 89,55.1 "/>
<polygon class="st3" points="108.7,73.1 108.7,94.9 122.6,94.9 122.6,73.1 108.7,73.1 "/>
<polygon class="st0" points="127.9,77.8 127.9,94.9 141.8,94.9 141.8,77.8 127.9,77.8 "/>
<path class="st7" d="M165.6,135.6c-1.4,1.5-3.4,2.5-5.6,2.5H52.6c-2.2,0-4.2-1-5.6-2.5H165.6L165.6,135.6z"/>
<polygon class="st7" points="53.9,114.6 158.6,114.6 167.4,132.3 45.1,132.3 53.9,114.6 "/>
<g>
	<path class="st7" d="M61.7,148.9h-4.6v-1.4c0-0.7-0.1-1.1-0.2-1.3c-0.1-0.2-0.3-0.3-0.6-0.3c-0.3,0-0.5,0.1-0.7,0.4
		c-0.2,0.2-0.2,0.6-0.2,1.1c0,0.6,0.1,1.1,0.3,1.4c0.2,0.3,0.6,0.7,1.4,1.2c2.2,1.3,3.6,2.4,4.2,3.2c0.6,0.8,0.9,2.2,0.9,4
		c0,1.4-0.2,2.4-0.5,3c-0.3,0.6-0.9,1.2-1.8,1.6c-0.9,0.4-2,0.7-3.2,0.7c-1.3,0-2.5-0.3-3.4-0.8c-0.9-0.5-1.5-1.1-1.8-1.9
		c-0.3-0.8-0.4-1.9-0.4-3.3v-1.2h4.6v2.3c0,0.7,0.1,1.2,0.2,1.4s0.4,0.3,0.7,0.3c0.3,0,0.6-0.1,0.7-0.4s0.2-0.6,0.2-1.1
		c0-1.1-0.2-1.8-0.5-2.2c-0.3-0.3-1.1-0.9-2.3-1.7c-1.2-0.8-2-1.4-2.4-1.8c-0.4-0.4-0.7-0.9-1-1.5c-0.3-0.6-0.4-1.5-0.4-2.5
		c0-1.5,0.2-2.5,0.6-3.2c0.4-0.7,1-1.2,1.8-1.6c0.8-0.4,1.8-0.6,3-0.6c1.3,0,2.4,0.2,3.3,0.6c0.9,0.4,1.5,0.9,1.8,1.6
		c0.3,0.6,0.4,1.7,0.4,3.2V148.9z"/>
	<path class="st7" d="M73.6,143.2v3.8h-2.9v15.2h-4.9V147h-2.9v-3.8H73.6z"/>
	<path class="st7" d="M82.3,143.2l2.8,19h-5l-0.3-3.4H78l-0.3,3.4h-5.1l2.5-19H82.3z M79.7,155.4c-0.2-2.2-0.5-4.8-0.8-8
		c-0.5,3.6-0.8,6.3-0.9,8H79.7z"/>
	<path class="st7" d="M94.6,143.2v3.8h-2.9v15.2h-4.9V147h-2.9v-3.8H94.6z"/>
	<path class="st7" d="M100.6,143.2v19h-4.9v-19H100.6z"/>
	<path class="st7" d="M113.1,148.9h-4.6v-1.4c0-0.7-0.1-1.1-0.2-1.3s-0.3-0.3-0.6-0.3c-0.3,0-0.5,0.1-0.7,0.4s-0.2,0.6-0.2,1.1
		c0,0.6,0.1,1.1,0.3,1.4c0.2,0.3,0.6,0.7,1.4,1.2c2.2,1.3,3.6,2.4,4.2,3.2c0.6,0.8,0.9,2.2,0.9,4c0,1.4-0.2,2.4-0.5,3
		c-0.3,0.6-0.9,1.2-1.8,1.6c-0.9,0.4-2,0.7-3.2,0.7c-1.3,0-2.5-0.3-3.4-0.8c-0.9-0.5-1.5-1.1-1.8-1.9c-0.3-0.8-0.4-1.9-0.4-3.3v-1.2
		h4.6v2.3c0,0.7,0.1,1.2,0.2,1.4s0.4,0.3,0.7,0.3c0.3,0,0.6-0.1,0.7-0.4s0.2-0.6,0.2-1.1c0-1.1-0.2-1.8-0.5-2.2
		c-0.3-0.3-1.1-0.9-2.3-1.7c-1.2-0.8-2-1.4-2.4-1.8c-0.4-0.4-0.7-0.9-1-1.5c-0.3-0.6-0.4-1.5-0.4-2.5c0-1.5,0.2-2.5,0.6-3.2
		c0.4-0.7,1-1.2,1.8-1.6c0.8-0.4,1.8-0.6,3-0.6c1.3,0,2.4,0.2,3.3,0.6c0.9,0.4,1.5,0.9,1.8,1.6c0.3,0.6,0.4,1.7,0.4,3.2V148.9z"/>
	<path class="st7" d="M125,143.2v3.8H122v15.2h-4.9V147h-2.9v-3.8H125z"/>
	<path class="st7" d="M131,143.2v19h-4.9v-19H131z"/>
	<path class="st7" d="M144.6,151.4h-4.9v-3.3c0-1-0.1-1.6-0.2-1.8c-0.1-0.2-0.3-0.4-0.7-0.4c-0.4,0-0.7,0.1-0.8,0.4
		s-0.2,0.9-0.2,1.9v8.8c0,0.9,0.1,1.5,0.2,1.8c0.1,0.3,0.4,0.4,0.7,0.4c0.4,0,0.6-0.1,0.7-0.4c0.1-0.3,0.2-0.9,0.2-2v-2.4h4.9v0.7
		c0,2-0.1,3.4-0.4,4.2c-0.3,0.8-0.9,1.5-1.8,2.2c-1,0.6-2.1,0.9-3.5,0.9c-1.4,0-2.6-0.3-3.6-0.8c-0.9-0.5-1.6-1.2-1.9-2.2
		c-0.3-0.9-0.5-2.3-0.5-4.2v-5.5c0-1.4,0-2.4,0.1-3.1c0.1-0.7,0.4-1.3,0.8-2c0.5-0.6,1.1-1.1,1.9-1.5c0.8-0.4,1.8-0.5,2.8-0.5
		c1.5,0,2.7,0.3,3.6,0.8c0.9,0.6,1.6,1.3,1.9,2.1c0.3,0.8,0.4,2.1,0.4,3.9V151.4z"/>
	<path class="st7" d="M156.8,148.9h-4.6v-1.4c0-0.7-0.1-1.1-0.2-1.3s-0.3-0.3-0.6-0.3c-0.3,0-0.5,0.1-0.7,0.4s-0.2,0.6-0.2,1.1
		c0,0.6,0.1,1.1,0.3,1.4c0.2,0.3,0.6,0.7,1.4,1.2c2.2,1.3,3.6,2.4,4.2,3.2c0.6,0.8,0.9,2.2,0.9,4c0,1.4-0.2,2.4-0.5,3
		c-0.3,0.6-0.9,1.2-1.8,1.6c-0.9,0.4-2,0.7-3.2,0.7c-1.3,0-2.5-0.3-3.4-0.8c-0.9-0.5-1.5-1.1-1.8-1.9s-0.4-1.9-0.4-3.3v-1.2h4.6v2.3
		c0,0.7,0.1,1.2,0.2,1.4s0.4,0.3,0.7,0.3c0.3,0,0.6-0.1,0.7-0.4s0.2-0.6,0.2-1.1c0-1.1-0.2-1.8-0.5-2.2c-0.3-0.3-1.1-0.9-2.3-1.7
		c-1.2-0.8-2-1.4-2.4-1.8c-0.4-0.4-0.7-0.9-1-1.5c-0.3-0.6-0.4-1.5-0.4-2.5c0-1.5,0.2-2.5,0.6-3.2c0.4-0.7,1-1.2,1.8-1.6
		c0.8-0.4,1.8-0.6,3-0.6c1.3,0,2.4,0.2,3.3,0.6c0.9,0.4,1.5,0.9,1.8,1.6c0.3,0.6,0.4,1.7,0.4,3.2V148.9z"/>
</g>
</svg>
