<?xml version="1.0" encoding="utf-8"?>
<!-- Generator: Adobe Illustrator 16.0.4, SVG Export Plug-In . SVG Version: 6.00 Build 0)  -->
<!DOCTYPE svg PUBLIC "-//W3C//DTD SVG 1.1//EN" "http://www.w3.org/Graphics/SVG/1.1/DTD/svg11.dtd">
<svg version="1.1" id="Layer_1" xmlns="http://www.w3.org/2000/svg" xmlns:xlink="http://www.w3.org/1999/xlink" x="0px" y="0px"
	 width="212.6px" height="212.6px" viewBox="0 0 212.6 212.6" style="enable-background:new 0 0 212.6 212.6;" xml:space="preserve"
	>
<style type="text/css">
<![CDATA[
	.st0{fill:#7A94A3;}
	.st1{fill:#FEFBE1;}
	.st2{fill:#707677;}
	.st3{fill:#DBE0CB;}
	.st4{fill:#454F54;}
]]>
</style>
<path class="st1" d="M108.2,204.4c54.2,0,98.1-43.9,98.1-98.1S162.4,8.2,108.2,8.2c-54.2,0-98.1,43.9-98.1,98.1
	C10.2,160.5,54.1,204.4,108.2,204.4"/>
<path class="st3" d="M81.9,137c0-16.6,0-43.9,0-60.6c0-16.7,11.8-23.5,26.2-15.1c14.4,8.3,38,22,52.4,30.3
	c14.4,8.3,14.4,21.9,0,30.3c-14.4,8.3-38,22-52.4,30.3C93.7,160.5,81.9,153.7,81.9,137z"/>
<g>
	<g>
		<path class="st2" d="M76.6,135.4c0-16.6,0-43.9,0-60.6s11.8-23.5,26.2-15.1c14.4,8.3,38,22,52.4,30.3c14.4,8.3,14.4,21.9,0,30.3
			c-14.4,8.3-38,22-52.4,30.3S76.6,152.1,76.6,135.4z"/>
	</g>
</g>
<path class="st0" d="M73.6,133.4c0-16.6,0-43.9,0-60.6s11.8-23.5,26.2-15.1c14.4,8.3,38,22,52.4,30.3c14.4,8.3,14.4,21.9,0,30.3
	c-14.4,8.3-38,22-52.4,30.3S73.6,150.1,73.6,133.4z"/>
<g>
	<path class="st4" d="M89,92h5.3c1.4,0,2.5,0.1,3.3,0.3s1.3,0.5,1.7,1c0.4,0.4,0.6,0.9,0.8,1.5c0.1,0.6,0.2,1.5,0.2,2.8v1.8
		c0,1.3-0.1,2.2-0.4,2.8s-0.8,1-1.5,1.4c-0.7,0.3-1.6,0.5-2.8,0.5h-1.4v8.1H89V92z M94.2,95.5v5.1c0.1,0,0.3,0,0.4,0
		c0.5,0,0.8-0.1,1-0.4s0.3-0.7,0.3-1.5v-1.7c0-0.7-0.1-1.1-0.3-1.3C95.3,95.6,94.9,95.5,94.2,95.5z"/>
	<path class="st4" d="M107,92v16.1h3.2v4h-8.4V92H107z"/>
	<path class="st4" d="M121.1,92l3,20.1h-5.4l-0.3-3.6h-1.9l-0.3,3.6h-5.4l2.7-20.1H121.1z M118.4,105c-0.3-2.3-0.5-5.1-0.8-8.5
		c-0.5,3.9-0.9,6.7-1,8.5H118.4z"/>
	<path class="st4" d="M134.7,92l-3.8,12.9v7.3H126v-7.3L122.3,92h4.8c0.8,3.9,1.2,6.6,1.3,7.9c0.3-2.1,0.8-4.8,1.5-7.9H134.7z"/>
</g>
</svg>
