<?xml version="1.0" encoding="utf-8"?>
<!-- Generator: Adobe Illustrator 16.0.4, SVG Export Plug-In . SVG Version: 6.00 Build 0)  -->
<!DOCTYPE svg PUBLIC "-//W3C//DTD SVG 1.1//EN" "http://www.w3.org/Graphics/SVG/1.1/DTD/svg11.dtd">
<svg version="1.1" id="Layer_1" xmlns="http://www.w3.org/2000/svg" xmlns:xlink="http://www.w3.org/1999/xlink" x="0px" y="0px"
	 width="212.6px" height="212.6px" viewBox="0 0 212.6 212.6" style="enable-background:new 0 0 212.6 212.6;" xml:space="preserve"
	>
<style type="text/css">
<![CDATA[
	.st0{clip-path:url(#SVGID_9_);fill:#09BFF1;}
	.st1{fill:#465054;}
	.st2{fill:#465055;}
	.st3{clip-path:url(#SVGID_116_);fill:#656667;}
	.st4{fill:#474F54;}
	.st5{fill:#7B95A3;}
	.st6{clip-path:url(#SVGID_116_);fill:#666767;}
	.st7{clip-path:url(#SVGID_13_);fill:#F26822;}
	.st8{opacity:0.15;clip-path:url(#Main_Shape_Copy_1_);}
	.st9{fill:#7BCFDC;}
	.st10{clip-path:url(#SVGID_116_);fill:#9A9A9B;}
	.st11{fill:#7C94A2;}
	.st12{clip-path:url(#SVGID_116_);fill:#676869;}
	.st13{clip-path:url(#SVGID_116_);fill:#9B9B9C;}
	.st14{clip-path:url(#SVGID_116_);fill:#9B9C9D;}
	.st15{clip-path:url(#SVGID_116_);fill:#CACBCC;}
	.st16{clip-path:url(#SVGID_105_);fill:#E795BD;}
	.st17{clip-path:url(#SVGID_116_);fill:#68696A;}
	.st18{clip-path:url(#SVGID_69_);fill:#56B947;}
	.st19{clip-path:url(#SVGID_116_);fill:#CBCCCD;}
	.st20{fill-rule:evenodd;clip-rule:evenodd;fill:#D91F5D;}
	.st21{clip-path:url(#SVGID_116_);fill:#696A6B;}
	.st22{clip-path:url(#SVGID_13_);fill:#F58233;}
	.st23{clip-path:url(#SVGID_116_);fill:#9D9E9F;}
	.st24{clip-path:url(#SVGID_116_);fill:#9E9FA0;}
	.st25{clip-path:url(#SVGID_116_);fill:#CDCDCE;}
	.st26{clip-path:url(#SVGID_17_);fill:#E795BD;}
	.st27{clip-path:url(#SVGID_116_);fill:#9EA0A1;}
	.st28{clip-path:url(#SVGID_7_);fill:#AD479A;}
	.st29{clip-path:url(#SVGID_116_);fill:#CECECF;}
	.st30{clip-path:url(#SVGID_116_);fill:#CECFD0;}
	.st31{clip-path:url(#SVGID_99_);fill:#FDEC6E;}
	.st32{clip-path:url(#SVGID_65_);fill:#9D3493;}
	.st33{clip-path:url(#SVGID_13_);fill:#F89958;}
	.st34{clip-path:url(#SVGID_116_);fill:#CFD0D1;}
	.st35{clip-path:url(#SVGID_95_);fill:#3FB549;}
	.st36{fill:#E2B471;}
	.st37{clip-path:url(#SVGID_99_);fill:#FFDE00;}
	.st38{clip-path:url(#SVGID_99_);fill:#FFE63A;}
	.st39{clip-path:url(#SVGID_37_);fill:#56B947;}
	.st40{clip-path:url(#SVGID_5_);fill:#ED2224;}
	.st41{clip-path:url(#SVGID_116_);fill:#6A6B6C;}
	.st42{clip-path:url(#SVGID_87_);fill:#333333;}
	.st43{fill:#E6BF82;}
	.st44{fill:#E6E6E5;}
	.st45{fill:#E6E8DB;}
	.st46{clip-path:url(#SVGID_81_);fill:#E795BD;}
	.st47{clip-path:url(#SVGID_116_);fill:#6B6C6D;}
	.st48{fill:#E7E7E7;}
	.st49{clip-path:url(#SVGID_33_);fill:#9D3493;}
	.st50{clip-path:url(#SVGID_5_);fill:#EF4343;}
	.st51{clip-path:url(#SVGID_116_);fill:#6C6D6E;}
	.st52{clip-path:url(#SVGID_116_);fill:#6C6D6F;}
	.st53{fill:#E8BD7D;}
	.st54{fill:#E9C387;}
	.st55{filter:url(#Adobe_OpacityMaskFilter);}
	.st56{clip-path:url(#SVGID_29_);fill:#4E4E4E;}
	.st57{clip-path:url(#SVGID_116_);fill:#6E6F70;}
	.st58{fill:#815426;}
	.st59{clip-path:url(#SVGID_116_);fill:#6F7071;}
	.st60{fill:#81C341;}
	.st61{clip-path:url(#SVGID_107_);fill:#E795BD;}
	.st62{opacity:0.45;}
	.st63{clip-path:url(#SVGID_116_);fill:#D1D2D2;}
	.st64{clip-path:url(#SVGID_116_);fill:#D2D3D3;}
	.st65{clip-path:url(#SVGID_87_);fill:#010101;}
	.st66{fill:#85459A;}
	.st67{fill:#B4B4B4;}
	.st68{fill:#B4BFB1;}
	.st69{clip-path:url(#SVGID_11_);fill:#6ABD45;}
	.st70{clip-path:url(#SVGID_116_);fill:#D3D4D5;}
	.st71{fill-rule:evenodd;clip-rule:evenodd;fill:#465054;}
	.st72{clip-path:url(#SVGID_19_);fill:#E795BD;}
	.st73{clip-path:url(#SVGID_116_);fill:#D4D5D5;}
	.st74{fill:#876EB1;}
	.st75{clip-path:url(#SVGID_116_);fill:#D5D6D6;}
	.st76{fill:#B72B28;}
	.st77{fill:#1D1D1B;}
	.st78{clip-path:url(#SVGID_116_);fill:#D6D6D7;}
	.st79{clip-path:url(#SVGID_116_);fill:#D6D7D8;}
	.st80{fill:#EC2227;}
	.st81{clip-path:url(#SVGID_116_);fill:#D7D8D9;}
	.st82{fill:#ED2224;}
	.st83{fill:#B9B9B9;}
	.st84{clip-path:url(#SVGID_5_);fill:#F16263;}
	.st85{fill:#EDCD1E;}
	.st86{clip-path:url(#SVGID_116_);fill:#D8D9DA;}
	.st87{fill:#EEDC00;}
	.st88{clip-path:url(#SVGID_116_);fill:#D9DADB;}
	.st89{fill:#EF4549;}
	.st90{clip-path:url(#SVGID_116_);fill:#707172;}
	.st91{fill:#EFB075;}
	.st92{clip-path:url(#SVGID_116_);fill:#717273;}
	.st93{clip-path:url(#SVGID_116_);fill:#A0A1A2;}
	.st94{clip-path:url(#SVGID_83_);fill:#E795BD;}
	.st95{clip-path:url(#SVGID_61_);fill:#4E4E4E;}
	.st96{clip-path:url(#SVGID_116_);fill:#727374;}
	.st97{clip-path:url(#SVGID_116_);fill:#A1A1A3;}
	.st98{opacity:0.25;mask:url(#SVGID_59_);}
	.st99{clip-path:url(#SVGID_116_);fill:#737475;}
	.st100{clip-path:url(#SVGID_116_);fill:#A2A2A3;}
	.st101{clip-path:url(#SVGID_116_);fill:#A2A3A4;}
	.st102{clip-path:url(#SVGID_116_);fill:#747576;}
	.st103{clip-path:url(#SVGID_116_);fill:#757677;}
	.st104{clip-path:url(#SVGID_116_);fill:#A4A5A6;}
	.st105{fill:#8B5F3D;}
	.st106{clip-path:url(#SVGID_116_);fill:#767778;}
	.st107{clip-path:url(#SVGID_116_);fill:#A5A6A7;}
	.st108{clip-path:url(#SVGID_39_);fill:#F26822;}
	.st109{fill:#BBBDBF;}
	.st110{clip-path:url(#SVGID_116_);fill:#777879;}
	.st111{clip-path:url(#SVGID_109_);fill:#E795BD;}
	.st112{fill:#595A5C;}
	.st113{clip-path:url(#SVGID_15_);fill:#FDEC6E;}
	.st114{clip-path:url(#SVGID_51_);fill:#E795BD;}
	.st115{clip-path:url(#SVGID_116_);fill:#78797A;}
	.st116{clip-path:url(#SVGID_116_);fill:#A7A7A8;}
	.st117{clip-path:url(#SVGID_116_);fill:#A7A9A9;}
	.st118{clip-path:url(#SVGID_65_);fill:#A53F97;}
	.st119{clip-path:url(#SVGID_116_);fill:#DBDCDC;}
	.st120{clip-path:url(#SVGID_116_);fill:#DBDCDD;}
	.st121{clip-path:url(#SVGID_11_);fill:#3FB549;}
	.st122{fill:#8E509F;}
	.st123{clip-path:url(#SVGID_73_);fill:#E795BD;}
	.st124{clip-path:url(#SVGID_116_);fill:#797A7B;}
	.st125{fill:#8EC640;}
	.st126{clip-path:url(#SVGID_39_);fill:#F58233;}
	.st127{clip-path:url(#SVGID_116_);fill:#DCDDDE;}
	.st128{clip-path:url(#SVGID_67_);fill:#02B3DD;}
	.st129{clip-path:url(#SVGID_15_);fill:#FFDE00;}
	.st130{clip-path:url(#SVGID_15_);fill:#FFE63A;}
	.st131{clip-path:url(#SVGID_116_);fill:#A9AAAB;}
	.st132{clip-path:url(#SVGID_116_);fill:#DDDEDF;}
	.st133{fill:#BF7429;}
	.st134{fill:#F0EC75;}
	.st135{clip-path:url(#SVGID_116_);fill:#DEDFE0;}
	.st136{fill:#F15B2A;}
	.st137{clip-path:url(#SVGID_39_);fill:#F89958;}
	.st138{fill:#F26822;}
	.st139{fill:#F26B6D;}
	.st140{fill:#242526;}
	.st141{fill:#F2F2F2;}
	.st142{opacity:0.5;fill:#FFFFFF;}
	.st143{clip-path:url(#SVGID_67_);fill:#079EC7;}
	.st144{fill:#25A198;}
	.st145{clip-path:url(#SVGID_33_);fill:#A53F97;}
	.st146{clip-path:url(#SVGID_3_);fill:#333333;}
	.st147{fill:#F4F6E8;}
	.st148{clip-path:url(#SVGID_41_);fill:#E795BD;}
	.st149{fill:#F5AB53;}
	.st150{clip-path:url(#SVGID_35_);fill:#02B3DD;}
	.st151{clip-path:url(#SVGID_67_);fill:#09BFF1;}
	.st152{fill:#5BC4BF;}
	.st153{clip-path:url(#SVGID_116_);fill:#7A7B7C;}
	.st154{fill:#282828;}
	.st155{clip-path:url(#SVGID_85_);fill:#E795BD;}
	.st156{fill-rule:evenodd;clip-rule:evenodd;fill:#EB2D7C;}
	.st157{fill:#F79421;}
	.st158{clip-path:url(#SVGID_116_);fill:#7B7C7D;}
	.st159{clip-path:url(#SVGID_116_);fill:#AAABAC;}
	.st160{fill:#F7B03F;}
	.st161{fill:#295C67;}
	.st162{fill:#2976BC;}
	.st163{clip-path:url(#SVGID_116_);fill:#7C7D7E;}
	.st164{fill:#F8B040;}
	.st165{clip-path:url(#SVGID_69_);fill:#6ABD45;}
	.st166{fill:#F8F8F2;}
	.st167{clip-path:url(#SVGID_116_);fill:#7D7E7F;}
	.st168{clip-path:url(#SVGID_116_);fill:#ACACAD;}
	.st169{clip-path:url(#SVGID_116_);fill:#ACADAE;}
	.st170{fill:url(#SVGID_114_);}
	.st171{fill:url(#SVGID_117_);}
	.st172{fill:#5F3E1E;}
	.st173{clip-path:url(#SVGID_71_);fill:#F26822;}
	.st174{fill:#5F9DD4;}
	.st175{clip-path:url(#SVGID_116_);fill:#7E7F80;}
	.st176{clip-path:url(#SVGID_116_);fill:#ADAEAF;}
	.st177{clip-path:url(#SVGID_35_);fill:#079EC7;}
	.st178{clip-path:url(#SVGID_116_);fill:#7F8081;}
	.st179{clip-path:url(#SVGID_116_);fill:#AEAFB0;}
	.st180{fill:#929497;}
	.st181{fill:#C1B400;}
	.st182{clip-path:url(#SVGID_116_);fill:#AFAFB1;}
	.st183{clip-path:url(#SVGID_65_);fill:#AD479A;}
	.st184{clip-path:url(#SVGID_35_);fill:#09BFF1;}
	.st185{clip-path:url(#SVGID_71_);fill:#F58233;}
	.st186{clip-path:url(#SVGID_3_);fill:#010101;}
	.st187{clip-path:url(#SVGID_53_);fill:#E795BD;}
	.st188{fill:#C3996B;}
	.st189{clip-path:url(#SVGID_75_);fill:#E795BD;}
	.st190{clip-path:url(#SVGID_37_);fill:#6ABD45;}
	.st191{clip-path:url(#SVGID_71_);fill:#F89958;}
	.st192{fill:#C5C462;}
	.st193{fill:#FAA541;}
	.st194{fill:#C72127;}
	.st195{clip-path:url(#SVGID_116_);fill:#4B4C4D;}
	.st196{fill:#C7AE2E;}
	.st197{fill:#2D3439;}
	.st198{clip-path:url(#SVGID_63_);fill:#ED2224;}
	.st199{clip-path:url(#SVGID_95_);fill:#56B947;}
	.st200{clip-path:url(#SVGID_116_);fill:#4C4D4E;}
	.st201{clip-path:url(#SVGID_33_);fill:#AD479A;}
	.st202{opacity:0.25;fill:url(#SVGID_54_);}
	.st203{opacity:0.25;fill:url(#SVGID_56_);}
	.st204{clip-path:url(#SVGID_116_);fill:#4D4E4F;}
	.st205{clip-path:url(#SVGID_21_);fill:#E795BD;}
	.st206{fill-rule:evenodd;clip-rule:evenodd;fill:#8EC640;}
	.st207{clip-path:url(#SVGID_63_);fill:#EF4343;}
	.st208{fill:#603A17;}
	.st209{opacity:0.3;}
	.st210{opacity:0.9;}
	.st211{clip-path:url(#SVGID_116_);fill:#4E4F50;}
	.st212{clip-path:url(#SVGID_43_);fill:#E795BD;}
	.st213{fill:#FEE541;}
	.st214{fill:#FEFBE1;}
	.st215{clip-path:url(#SVGID_116_);fill:#4F5051;}
	.st216{clip-path:url(#SVGID_116_);fill:#808181;}
	.st217{clip-path:url(#SVGID_91_);fill:#9D3493;}
	.st218{fill:#FFDE00;}
	.st219{fill:#FFFFFF;}
	.st220{fill-rule:evenodd;clip-rule:evenodd;fill:#F15B2A;}
	.st221{clip-path:url(#SVGID_116_);fill:#818282;}
	.st222{clip-path:url(#SVGID_116_);fill:#818384;}
	.st223{clip-path:url(#SVGID_116_);fill:#B0B0B2;}
	.st224{fill:#63BC46;}
	.st225{clip-path:url(#SVGID_69_);fill:#3FB549;}
	.st226{clip-path:url(#SVGID_116_);fill:#828385;}
	.st227{clip-path:url(#SVGID_87_);fill:#4E4E4E;}
	.st228{clip-path:url(#SVGID_116_);fill:#B1B2B3;}
	.st229{clip-path:url(#SVGID_116_);fill:#838485;}
	.st230{clip-path:url(#SVGID_116_);fill:#B2B3B3;}
	.st231{clip-path:url(#SVGID_31_);fill:#ED2224;}
	.st232{fill:none;}
	.st233{clip-path:url(#SVGID_116_);fill:#848586;}
	.st234{clip-path:url(#SVGID_116_);fill:#B3B3B4;}
	.st235{fill:#66C8CE;}
	.st236{clip-path:url(#SVGID_116_);fill:#B4B4B5;}
	.st237{clip-path:url(#SVGID_116_);fill:#B4B5B6;}
	.st238{fill:#9ACA3C;}
	.st239{clip-path:url(#SVGID_31_);fill:#EF4343;}
	.st240{fill:#676767;}
	.st241{fill:#9B5BA4;}
	.st242{fill:#9B9C9C;}
	.st243{clip-path:url(#SVGID_116_);fill:#868687;}
	.st244{clip-path:url(#SVGID_116_);fill:#B5B6B7;}
	.st245{fill:#686868;}
	.st246{clip-path:url(#SVGID_116_);fill:#878788;}
	.st247{clip-path:url(#SVGID_116_);fill:#878889;}
	.st248{fill:#9D3493;}
	.st249{clip-path:url(#SVGID_116_);fill:#B7B7B8;}
	.st250{clip-path:url(#SVGID_77_);fill:#E795BD;}
	.st251{clip-path:url(#SVGID_37_);fill:#3FB549;}
	.st252{clip-path:url(#SVGID_99_);fill:#E795BD;}
	.st253{fill:#CDCCCC;}
	.st254{clip-path:url(#SVGID_116_);fill:#89898A;}
	.st255{clip-path:url(#SVGID_116_);fill:#B8B8B9;}
	.st256{clip-path:url(#SVGID_7_);fill:#9D3493;}
	.st257{clip-path:url(#SVGID_116_);fill:#B9B9BA;}
	.st258{fill:#9FAC98;}
	.st259{clip-path:url(#SVGID_63_);fill:#F16263;}
	.st260{clip-path:url(#SVGID_116_);fill:#505152;}
	.st261{clip-path:url(#SVGID_111_);fill:#E795BD;}
	.st262{clip-path:url(#SVGID_116_);fill:#515253;}
	.st263{fill:#333334;}
	.st264{clip-path:url(#SVGID_116_);fill:#525354;}
	.st265{clip-path:url(#SVGID_29_);fill:#333333;}
	.st266{fill:#346D7B;}
	.st267{clip-path:url(#SVGID_116_);fill:#535455;}
	.st268{clip-path:url(#SVGID_23_);fill:#E795BD;}
	.st269{clip-path:url(#SVGID_116_);fill:#545555;}
	.st270{clip-path:url(#SVGID_45_);fill:#E795BD;}
	.st271{clip-path:url(#SVGID_116_);fill:#555657;}
	.st272{fill:#37BEBC;}
	.st273{opacity:0.1;fill:url(#SVGID_57_);}
	.st274{clip-path:url(#SVGID_116_);fill:#565758;}
	.st275{clip-path:url(#SVGID_116_);fill:#8A8A8B;}
	.st276{fill:#383839;}
	.st277{clip-path:url(#SVGID_31_);fill:#F16263;}
	.st278{clip-path:url(#SVGID_116_);fill:#575859;}
	.st279{clip-path:url(#SVGID_116_);fill:#8B8B8C;}
	.st280{clip-path:url(#SVGID_116_);fill:#8B8C8D;}
	.st281{clip-path:url(#SVGID_116_);fill:#BABABB;}
	.st282{clip-path:url(#SVGID_116_);fill:#BABBBC;}
	.st283{opacity:0.15;fill:url(#SVGID_55_);}
	.st284{clip-path:url(#SVGID_116_);fill:#58595A;}
	.st285{clip-path:url(#SVGID_116_);fill:#BBBCBD;}
	.st286{clip-path:url(#SVGID_101_);fill:#E795BD;}
	.st287{clip-path:url(#SVGID_116_);fill:#595A5B;}
	.st288{clip-path:url(#SVGID_116_);fill:#8D8D8E;}
	.st289{clip-path:url(#SVGID_116_);fill:#BCBDBE;}
	.st290{clip-path:url(#SVGID_97_);fill:#F26822;}
	.st291{fill:#010101;}
	.st292{clip-path:url(#SVGID_116_);fill:#8E8F8F;}
	.st293{clip-path:url(#SVGID_29_);fill:#010101;}
	.st294{clip-path:url(#SVGID_116_);fill:#8F9091;}
	.st295{clip-path:url(#SVGID_116_);fill:#BEBEBF;}
	.st296{clip-path:url(#SVGID_73_);fill:#FDEC6E;}
	.st297{fill:#D1D2D3;}
	.st298{fill:#D1D3D4;}
	.st299{clip-path:url(#SVGID_116_);fill:#BFBFC0;}
	.st300{clip-path:url(#SVGID_97_);fill:#F58233;}
	.st301{clip-path:url(#SVGID_73_);fill:#FFDE00;}
	.st302{clip-path:url(#SVGID_73_);fill:#FFE63A;}
	.st303{clip-path:url(#SVGID_79_);fill:#E795BD;}
	.st304{clip-path:url(#SVGID_11_);fill:#56B947;}
	.st305{clip-path:url(#SVGID_97_);fill:#F89958;}
	.st306{fill:#079EC7;}
	.st307{clip-path:url(#SVGID_61_);fill:#333333;}
	.st308{clip-path:url(#SVGID_116_);fill:#5A5B5C;}
	.st309{clip-path:url(#SVGID_116_);fill:#5B5C5D;}
	.st310{clip-path:url(#SVGID_41_);fill:#FDEC6E;}
	.st311{clip-path:url(#SVGID_89_);fill:#ED2224;}
	.st312{clip-path:url(#SVGID_91_);fill:#A53F97;}
	.st313{clip-path:url(#SVGID_116_);fill:#5C5D5E;}
	.st314{opacity:0.1;fill:#FFFFFF;}
	.st315{clip-path:url(#SVGID_25_);fill:#E795BD;}
	.st316{clip-path:url(#SVGID_116_);fill:#5D5E5F;}
	.st317{fill-rule:evenodd;clip-rule:evenodd;fill:#9E2064;}
	.st318{opacity:0.5;fill:url(#SVGID_58_);}
	.st319{clip-path:url(#SVGID_93_);fill:#02B3DD;}
	.st320{clip-path:url(#SVGID_41_);fill:#FFDE00;}
	.st321{clip-path:url(#SVGID_41_);fill:#FFE63A;}
	.st322{clip-path:url(#SVGID_47_);fill:#E795BD;}
	.st323{clip-path:url(#SVGID_89_);fill:#EF4343;}
	.st324{fill:#707677;}
	.st325{fill:#3FB549;}
	.st326{clip-path:url(#SVGID_116_);fill:#5E5F60;}
	.st327{clip-path:url(#SVGID_116_);fill:#5F6061;}
	.st328{clip-path:url(#SVGID_116_);fill:#909191;}
	.st329{clip-path:url(#SVGID_3_);fill:#4E4E4E;}
	.st330{fill:#A16932;}
	.st331{clip-path:url(#SVGID_116_);fill:#919293;}
	.st332{clip-path:url(#SVGID_116_);fill:#C0C0C1;}
	.st333{clip-path:url(#SVGID_116_);fill:#929393;}
	.st334{clip-path:url(#SVGID_116_);fill:#C1C1C2;}
	.st335{clip-path:url(#SVGID_116_);fill:#C1C2C2;}
	.st336{clip-path:url(#SVGID_103_);fill:#E795BD;}
	.st337{clip-path:url(#SVGID_93_);fill:#079EC7;}
	.st338{clip-path:url(#SVGID_116_);fill:#939495;}
	.st339{clip-path:url(#SVGID_116_);fill:#C2C3C3;}
	.st340{clip-path:url(#SVGID_61_);fill:#010101;}
	.st341{fill:#A49676;}
	.st342{fill:#754D25;}
	.st343{clip-path:url(#SVGID_116_);fill:#C3C4C4;}
	.st344{fill-rule:evenodd;clip-rule:evenodd;fill:url(#SVGID_1_);}
	.st345{fill:#A5A5A5;}
	.st346{clip-path:url(#SVGID_93_);fill:#09BFF1;}
	.st347{clip-path:url(#SVGID_15_);fill:#E795BD;}
	.st348{clip-path:url(#SVGID_116_);fill:#959697;}
	.st349{clip-path:url(#SVGID_116_);fill:#969798;}
	.st350{clip-path:url(#SVGID_116_);fill:#C5C5C6;}
	.st351{clip-path:url(#SVGID_7_);fill:#A53F97;}
	.st352{fill:#A7A9AC;}
	.st353{fill:#DBE0CB;}
	.st354{clip-path:url(#SVGID_116_);fill:#979899;}
	.st355{clip-path:url(#SVGID_116_);fill:#C6C6C7;}
	.st356{clip-path:url(#SVGID_95_);fill:#6ABD45;}
	.st357{fill:#A8AAAD;}
	.st358{clip-path:url(#SVGID_9_);fill:#02B3DD;}
	.st359{fill:#DCDBDB;}
	.st360{clip-path:url(#SVGID_116_);fill:#98999B;}
	.st361{clip-path:url(#SVGID_116_);fill:#C7C7C8;}
	.st362{clip-path:url(#SVGID_116_);fill:#C7C8C9;}
	.st363{fill:#A97D51;}
	.st364{clip-path:url(#SVGID_116_);fill:#999A9B;}
	.st365{clip-path:url(#SVGID_116_);fill:#C8C9CA;}
	.st366{fill:#404042;}
	.st367{clip-path:url(#SVGID_116_);fill:#C9CACB;}
	.st368{fill:#414042;}
	.st369{clip-path:url(#SVGID_89_);fill:#F16263;}
	.st370{clip-path:url(#SVGID_116_);fill:#606162;}
	.st371{clip-path:url(#SVGID_91_);fill:#AD479A;}
	.st372{clip-path:url(#SVGID_116_);fill:#616263;}
	.st373{clip-path:url(#SVGID_116_);fill:#616364;}
	.st374{fill-rule:evenodd;clip-rule:evenodd;fill:#033434;}
	.st375{fill:#4386C6;}
	.st376{clip-path:url(#SVGID_9_);fill:#079EC7;}
	.st377{clip-path:url(#SVGID_27_);fill:#E795BD;}
	.st378{clip-path:url(#SVGID_116_);fill:#636465;}
	.st379{clip-path:url(#SVGID_116_);fill:#636566;}
	.st380{fill:#454F55;}
	.st381{clip-path:url(#SVGID_49_);fill:#E795BD;}
]]>
</style>
<path class="st152" d="M108.7,204.7c54.2,0,98.1-43.9,98.1-98.1c0-54.2-43.9-98.1-98.1-98.1c-54.2,0-98.1,43.9-98.1,98.1
	C10.6,160.8,54.5,204.7,108.7,204.7"/>
<g>
	
		<image style="overflow:visible;opacity:0.48;" width="683" height="746" xlink:href="EDDC548AD8B104AE.png"  transform="matrix(0.24 0 0 0.24 32.0078 26.7178)">
	</image>
	<g>
		<g>
			<g>
				<path class="st144" d="M136.7,53.2c-2.5-4.6-6.3-8.6-11.4-11.3l-1-0.5c-23.5-12.6-56.1,2.3-72.7,33.3
					c-12.4,23.2-12.4,48.8-1.8,65.6c3.7,6.6,8.9,12,15.6,15.6l0,0c17,9.1,37.8-1.4,40.8-20.5c2.8-18.1,11-32.8,25.7-45.7
					C142.8,79.9,144,64.3,136.7,53.2z"/>
				<path class="st144" d="M144,108.6l6.4-11.6l5.3-9.7l0,0l5.8-10.2c0,0,0,0,0,0c0-0.1-0.1-0.3-0.4-0.5l-0.2,0.2l0.1-0.2
					c-0.1-0.1-0.3-0.2-0.5-0.4l-0.3,0.3l0.2-0.4c0,0-0.1-0.1-0.1-0.1l-0.2,0.4l-0.1-0.1l0.2-0.4c-0.2-0.1-0.4-0.2-0.6-0.3l-0.3,0.4
					l0.2-0.4c0,0,0,0-0.1,0l-0.2,0.4l0,0l0.2-0.4c-0.1-0.1-0.2-0.1-0.3-0.2l-0.3,0.4l0.1-0.5c-0.1-0.1-0.3-0.2-0.4-0.2l-0.3,0.4l0,0
					l0.2-0.5c-0.1,0-0.1-0.1-0.2-0.1l-0.2,0.3l0.2-0.3c0,0,0,0-0.1,0l-0.2,0.3l0.2-0.3c-0.2-0.1-0.4-0.2-0.6-0.3l-0.2,0.3l-0.1,0
					l0.2-0.3c-0.2-0.1-0.5-0.2-0.7-0.3l-0.3,0.4l-0.1,0l0.2-0.4c-0.2-0.1-0.4-0.2-0.5-0.2L156,74l0.1-0.2c-0.2-0.1-0.4-0.2-0.6-0.2
					l-0.1,0.2l-0.1,0l0-0.2c-0.1,0-0.2-0.1-0.2-0.1l-0.1,0.1l0-0.1c-0.3-0.1-0.4-0.1-0.5,0l0,0L149.3,84l0,0l-11.1,21.2c0,0,0,0,0,0
					l-0.2,0.3l0,0l0,0c-4.1,6.8-8.6,14.9-13.4,23.7c-9.1,17-16.3,32.1-19.4,40.5c0,0.1,0,0.1-0.1,0.2c-0.1,0.3-0.2,0.5-0.3,0.8
					c0,0,0,0.1,0,0.1c-0.1,0.2-0.2,0.4-0.2,0.6c0,0.1,0,0.1-0.1,0.2c-0.1,0.2-0.1,0.4-0.2,0.6c0,0.1,0,0.1-0.1,0.2
					c-0.1,0.2-0.1,0.3-0.1,0.5c0,0.1,0,0.1-0.1,0.2c-0.1,0.2-0.1,0.4-0.1,0.5c0,0.1,0,0.1,0,0.2c0,0.1-0.1,0.3-0.1,0.4
					c0,0,0,0.1,0,0.1c0,0.2-0.1,0.3-0.1,0.4c0,0,0,0.1,0,0.1c0,0.1,0,0.3-0.1,0.4c0,0,0,0,0,0.1c0,0.1,0,0.2,0,0.3c0,0,0,0.1,0,0.1
					c0,0.1,0,0.2,0,0.3c0,0,0,0,0,0.1c0,0.1,0,0.1,0,0.2c0,0,0,0,0,0c0,0.1,0,0.1,0.1,0.2c0,0,0,0,0,0c0,0,0.1,0.1,0.1,0.1
					c1.9,1,14.3-18.5,27.8-43.5C136.3,124.1,140.6,115.8,144,108.6L144,108.6L144,108.6z"/>
				<path class="st144" d="M157.6,116L157.6,116L157.6,116L157.6,116l0.7-1.4c1.1-2.3,2.1-4.5,3-6.6l6.5-14.1l0,0l0,0l-0.1,0
					c1.2-1.3,2.5-3.3,3.7-5.5c0,0,0-0.1,0.1-0.1c0.1-0.2,0.2-0.3,0.3-0.5c0-0.1,0.1-0.1,0.1-0.2c0.1-0.2,0.2-0.4,0.3-0.6
					c0-0.1,0.1-0.2,0.1-0.2c0.1-0.2,0.2-0.4,0.2-0.6c0-0.1,0.1-0.1,0.1-0.2c0.1-0.2,0.1-0.4,0.2-0.6c0-0.1,0-0.1,0.1-0.2
					c0.1-0.2,0.1-0.4,0.2-0.6c0,0,0-0.1,0-0.1c0.1-0.2,0.1-0.4,0.2-0.6c0,0,0,0,0,0c0.1-0.2,0.1-0.4,0.2-0.7c0,0,0,0,0,0
					c0-0.2,0.1-0.4,0.1-0.7c0,0,0,0,0,0c0.4-2,0.4-3.5,0.4-3.5s-4.1,2.7-6.6,7.3c-0.9,1.8-1.7,3.5-2.2,4.9c0,0,0,0,0,0
					c0,0.1-0.1,0.2-0.1,0.3c0,0,0,0,0,0c0,0.1-0.1,0.2-0.1,0.3c0,0,0,0.1,0,0.1c0,0.1-0.1,0.2-0.1,0.3c0,0,0,0.1,0,0.1
					c0,0,0,0.1,0,0.1l-0.1-0.1l-8.2,13.3c-1.1,1.8-2.3,3.7-3.6,5.8l-0.9,1.5h0l0,0l0,0c-4.1,6.8-8.6,14.9-13.4,23.7
					c-9.1,17-16.3,32.1-19.4,40.5c0,0.1,0,0.1-0.1,0.2c-0.1,0.3-0.2,0.5-0.3,0.8c0,0,0,0.1,0,0.1c-0.1,0.2-0.2,0.4-0.2,0.6
					c0,0.1,0,0.1-0.1,0.2c-0.1,0.2-0.1,0.4-0.2,0.6c0,0.1,0,0.1-0.1,0.2c0,0.2-0.1,0.3-0.1,0.5c0,0.1,0,0.1-0.1,0.2
					c-0.1,0.2-0.1,0.4-0.1,0.5c0,0.1,0,0.1,0,0.2c0,0.1-0.1,0.3-0.1,0.4c0,0,0,0.1,0,0.1c0,0.2-0.1,0.3-0.1,0.4c0,0,0,0.1,0,0.1
					c0,0.1,0,0.3-0.1,0.4c0,0,0,0,0,0.1c0,0.1,0,0.2,0,0.3c0,0,0,0.1,0,0.1c0,0.1,0,0.2,0,0.3c0,0,0,0,0,0.1c0,0.1,0,0.1,0,0.2
					c0,0,0,0,0,0c0,0.1,0,0.1,0.1,0.2c0,0,0,0,0,0c0,0,0.1,0.1,0.1,0.1c1.9,1,14.3-18.5,27.8-43.5C150,131.4,154.2,123.1,157.6,116z
					"/>
			</g>
			<g>
				<g>
					<path class="st240" d="M123.6,41.4C100,28.7,67.5,43.6,50.8,74.6c-16.6,31-11,66.4,12.5,79l0,0c17,9.1,37.8-1.4,40.8-20.5
						c2.8-18.1,11-32.8,25.7-45.7c14.6-12.9,11.9-36.3-5.2-45.5L123.6,41.4z"/>
					<path class="st147" d="M122.3,39.2c-23.5-12.6-56.1,2.3-72.7,33.3c-16.6,31-11,66.4,12.5,79l0,0c17,9.1,37.8-1.4,40.8-20.5
						c2.8-18.1,11-32.8,25.7-45.7c14.6-12.9,11.9-36.3-5.2-45.5L122.3,39.2z"/>
					<g>
						
							<ellipse transform="matrix(0.8814 0.4724 -0.4724 0.8814 58.0207 -33.9128)" class="st152" cx="96.5" cy="98.6" rx="8.6" ry="12.9"/>
						<path class="st240" d="M90,95.6c-3,5.7-2.7,11.9,0.7,14.4c-0.1,0-0.1-0.1-0.2-0.1c-4.2-2.2-4.8-9.2-1.5-15.4
							c3.4-6.3,9.5-9.6,13.7-7.3c1.7,0.9,2.8,2.6,3.3,4.7c-0.6-1.4-1.5-2.6-2.8-3.3C99.1,86.4,93.2,89.6,90,95.6z"/>
					</g>
					<circle class="st45" cx="61.8" cy="79" r="8.6"/>
					<circle class="st45" cx="61.3" cy="124.8" r="8.6"/>
					<circle class="st45" cx="76.5" cy="141.8" r="8.6"/>
					<circle class="st45" cx="56.8" cy="102" r="8.6"/>
					<circle class="st45" cx="99.6" cy="53.2" r="8.6"/>
					<circle class="st45" cx="122.2" cy="56.6" r="8.6"/>
					<circle class="st45" cx="78.1" cy="62.2" r="8.6"/>
					<g>
						<circle class="st80" cx="76.5" cy="141.8" r="7.2"/>
						<path class="st194" d="M79.7,148.2c-3.6,1.7-7.8,0.3-9.6-3.3c-0.6-1.1-0.8-2.3-0.7-3.5c0.1,0.7,0.3,1.4,0.7,2.1
							c1.7,3.6,6,5,9.6,3.3c2.4-1.2,3.9-3.5,4-6.1C84.1,143.7,82.5,146.8,79.7,148.2z"/>
						<circle class="st89" cx="76.2" cy="139.5" r="2.6"/>
					</g>
					<g>
						<circle class="st157" cx="61.3" cy="124.8" r="7.2"/>
						<path class="st133" d="M64.4,131.3c-3.6,1.7-7.8,0.3-9.6-3.3c-0.6-1.1-0.8-2.3-0.7-3.5c0.1,0.7,0.3,1.4,0.7,2.1
							c1.7,3.6,6,5,9.6,3.3c2.4-1.2,3.9-3.5,4-6.1C68.8,126.8,67.3,129.9,64.4,131.3z"/>
						<circle class="st193" cx="61" cy="122.5" r="2.6"/>
					</g>
					<g>
						<circle class="st85" cx="56.8" cy="102" r="7.2"/>
						<path class="st196" d="M59.9,108.4c-3.6,1.7-7.8,0.3-9.6-3.3c-0.6-1.1-0.8-2.3-0.7-3.5c0.1,0.7,0.3,1.4,0.7,2.1
							c1.7,3.6,6,5,9.6,3.3c2.4-1.2,3.9-3.5,4-6.1C64.3,103.9,62.8,107,59.9,108.4z"/>
						<circle class="st213" cx="56.5" cy="99.6" r="2.6"/>
					</g>
					<g>
						<circle class="st60" cx="61.8" cy="79" r="7.2"/>
						<path class="st224" d="M64.9,85.5c-3.6,1.7-7.8,0.3-9.6-3.3c-0.6-1.1-0.8-2.3-0.7-3.5c0.1,0.7,0.3,1.4,0.7,2.1
							c1.7,3.6,6,5,9.6,3.3c2.4-1.2,3.9-3.5,4-6.1C69.3,81,67.8,84.1,64.9,85.5z"/>
						<circle class="st238" cx="61.5" cy="76.7" r="2.6"/>
					</g>
					<g>
						<circle class="st235" cx="78.1" cy="62.2" r="7.2"/>
						<path class="st272" d="M81.3,68.6c-3.6,1.7-7.8,0.3-9.6-3.3c-0.6-1.1-0.8-2.3-0.7-3.5c0.1,0.7,0.3,1.4,0.7,2.1
							c1.7,3.6,6,5,9.6,3.3c2.4-1.2,3.9-3.5,4-6.1C85.7,64.1,84.2,67.2,81.3,68.6z"/>
						<circle class="st9" cx="77.8" cy="59.8" r="2.6"/>
					</g>
					<g>
						<circle class="st375" cx="99.6" cy="53.2" r="7.2"/>
						<path class="st162" d="M102.8,59.7c-3.6,1.7-7.8,0.3-9.6-3.3c-0.6-1.1-0.8-2.3-0.7-3.5c0.1,0.7,0.3,1.4,0.7,2.1
							c1.7,3.6,6,5,9.6,3.3c2.4-1.2,3.9-3.5,4-6.1C107.2,55.2,105.7,58.3,102.8,59.7z"/>
						<circle class="st174" cx="99.4" cy="50.9" r="2.6"/>
					</g>
					<g>
						<circle class="st122" cx="122.2" cy="56.6" r="7.2"/>
						<path class="st66" d="M125.4,63c-3.6,1.7-7.8,0.3-9.6-3.3c-0.6-1.1-0.8-2.3-0.7-3.5c0.1,0.7,0.3,1.4,0.7,2.1
							c1.7,3.6,6,5,9.6,3.3c2.4-1.2,3.9-3.5,4-6.1C129.8,58.5,128.2,61.6,125.4,63z"/>
						<circle class="st241" cx="121.9" cy="54.2" r="2.6"/>
					</g>
				</g>
				<g>
					<g>
						
							<ellipse transform="matrix(0.8814 0.4723 -0.4723 0.8814 75.8241 -44.3031)" class="st342" cx="126.2" cy="128.9" rx="3.9" ry="51.5"/>
						<path class="st172" d="M129.6,130.7c-13.4,25.1-25.8,44.5-27.8,43.5c-0.8-0.4,0.2-3.9,2.6-9.6c0,0.3,0.1,0.5,0.2,0.6
							c1.9,1,14.3-18.5,27.7-43.5c8.1-15.2,14.8-28.9,18.3-37.6C150.9,87.7,142,107.5,129.6,130.7z"/>
					</g>
					<g>
						<polygon class="st157" points="153.6,85.2 147.3,81.8 152.6,71.3 159.5,75 						"/>
						<polygon class="st359" points="141.9,106.5 136.1,103.3 147.3,81.8 153.6,85.2 						"/>
						<path class="st242" d="M153.6,85.2l-11.7,21.3l-5.9-3.2l0.2-0.3c3.9,0.2,9.9-5.5,14.4-13.8c0.8-1.5,1.5-3,2.1-4.5L153.6,85.2z
							"/>
						<path class="st149" d="M154.1,72.9c-0.1,0.1-0.1,0.3-0.2,0.4c-1.8,3.4-3.6,6-3.9,5.8c-0.3-0.2,0.9-3.1,2.7-6.5
							c0.1-0.1,0.1-0.3,0.2-0.4L154.1,72.9z"/>
						<path class="st149" d="M156.3,73.8c-0.1,0.1-0.1,0.3-0.2,0.4c-1.8,3.4-3.7,6-4.2,5.7c-0.5-0.3,0.6-3.3,2.4-6.7
							c0.1-0.1,0.1-0.3,0.2-0.4L156.3,73.8z"/>
						<path class="st149" d="M158.4,74.9c-0.1,0.1-0.2,0.3-0.2,0.5c-2.1,3.9-4.1,6.8-4.6,6.6c-0.4-0.2,0.9-3.6,3-7.4
							c0.1-0.2,0.2-0.3,0.2-0.4L158.4,74.9z"/>
						<path class="st149" d="M158.8,75.6c-1.8,3.4-3.7,6-4.2,5.7c-0.1,0-0.1-0.1-0.1-0.2c0.7-0.3,2.4-2.7,4-5.7
							c0.1-0.1,0.1-0.3,0.2-0.4l0.4,0.2C158.9,75.3,158.9,75.5,158.8,75.6z"/>
						<polygon class="st157" points="151.3,79.3 154.4,73.5 151.3,80.1 						"/>
						<polygon class="st157" points="153.1,72.1 152.5,73.5 153.5,72.2 153.3,73.3 153.9,72.2 						"/>
						<polygon class="st157" points="155.4,73 153.8,76 155.8,73.2 						"/>
						<polygon class="st157" points="157.2,74 157.1,74.7 157.3,74.6 156.1,77.2 157.5,74.7 157.8,74.3 						"/>
						<path class="st157" d="M159.1,74.5l-0.2,0.2L159.1,74.5c-0.2-0.2-0.4-0.3-0.6-0.4l-0.3,0.3l0.2-0.4c0,0-0.1-0.1-0.1-0.1
							l-0.2,0.4l-0.1-0.1l0.2-0.4c-0.2-0.1-0.4-0.2-0.6-0.3l-0.3,0.4l0.2-0.4c0,0,0,0-0.1,0l-0.3,0.6l0.3-0.6
							c-0.1-0.1-0.2-0.1-0.3-0.2l-0.3,0.4l0.1-0.5c-0.1-0.1-0.3-0.2-0.4-0.2l-0.4,0.6l0.3-0.6c-0.1,0-0.1-0.1-0.2-0.1l-0.2,0.3
							l0.2-0.3c0,0,0,0-0.1,0L156,73l0.2-0.3c-0.2-0.1-0.4-0.2-0.6-0.3l-0.2,0.3l-0.1,0l0.2-0.3c-0.2-0.1-0.5-0.2-0.7-0.3l-0.3,0.4
							l-0.1,0l0.2-0.4c-0.2-0.1-0.4-0.2-0.5-0.2l-0.2,0.2l0.1-0.2c-0.2-0.1-0.4-0.2-0.6-0.2l-0.1,0.2l-0.1,0l0-0.2
							c-0.1,0-0.2-0.1-0.2-0.1l-0.1,0.1l0-0.1c-0.3-0.1-0.4-0.1-0.5,0c-0.1,0.2,1.3,1.3,3.2,2.3c1.9,1,3.5,1.6,3.7,1.4
							C159.5,74.9,159.4,74.7,159.1,74.5z"/>
					</g>
				</g>
				<g>
					<path class="st366" d="M169.4,86.1c-2.5,4.7-5.5,8-6.6,7.3c-1.2-0.6-0.1-4.9,2.4-9.6c2.5-4.7,6.6-7.3,6.6-7.3
						S171.9,81.5,169.4,86.1z"/>
					<g>
						
							<ellipse transform="matrix(0.8814 0.4724 -0.4724 0.8814 80.9231 -49.8943)" class="st330" cx="139.8" cy="136.2" rx="3.9" ry="51.5"/>
						<path class="st58" d="M143.3,138c-13.4,25.1-25.8,44.5-27.7,43.5c-0.8-0.4,0.3-3.9,2.6-9.6c0,0.3,0.1,0.5,0.2,0.6
							c1.9,1,14.3-18.5,27.7-43.5c8.1-15.2,14.8-28.9,18.3-37.6C164.6,95,155.7,114.9,143.3,138z"/>
					</g>
					<path class="st291" d="M169.4,86.1c-2.5,4.7-5.5,8-6.6,7.3c-0.7-0.4-0.6-2.2,0.3-4.6c0.1,0.1,0.2,0.3,0.3,0.3
						c1.2,0.6,4.1-2.7,6.6-7.3c1-1.8,1.5-3.6,1.9-5.2C171.8,77.3,171.7,81.8,169.4,86.1z"/>
					<polygon class="st359" points="155.6,113.8 149.7,110.7 162.5,90 165.7,91.7 					"/>
					<path class="st83" d="M149.7,110.7c0,0,0.1,0.1,0.1,0.1L149.7,110.7L149.7,110.7z"/>
					<path class="st242" d="M155.6,113.8l-5.7-3.1c2.4,1.3,7.6-3.6,11.6-10.9c1.6-3,2.8-6,3.4-8.6l0.9,0.5L155.6,113.8z"/>
				</g>
			</g>
		</g>
	</g>
</g>
</svg>
