<?xml version="1.0" encoding="utf-8"?>
<!-- Generator: Adobe Illustrator 16.0.4, SVG Export Plug-In . SVG Version: 6.00 Build 0)  -->
<!DOCTYPE svg PUBLIC "-//W3C//DTD SVG 1.1//EN" "http://www.w3.org/Graphics/SVG/1.1/DTD/svg11.dtd">
<svg version="1.1" id="Layer_1" xmlns="http://www.w3.org/2000/svg" xmlns:xlink="http://www.w3.org/1999/xlink" x="0px" y="0px"
	 width="212.6px" height="212.6px" viewBox="0 0 212.6 212.6" style="enable-background:new 0 0 212.6 212.6;" xml:space="preserve"
	>
<style type="text/css">
<![CDATA[
	.st0{clip-path:url(#SVGID_9_);fill:#09BFF1;}
	.st1{fill:#465054;}
	.st2{fill:#465055;}
	.st3{clip-path:url(#SVGID_116_);fill:#656667;}
	.st4{fill:#474F54;}
	.st5{fill:#7B95A3;}
	.st6{clip-path:url(#SVGID_116_);fill:#666767;}
	.st7{clip-path:url(#SVGID_13_);fill:#F26822;}
	.st8{opacity:0.15;clip-path:url(#Main_Shape_Copy_1_);}
	.st9{fill:#7BCFDC;}
	.st10{clip-path:url(#SVGID_116_);fill:#9A9A9B;}
	.st11{fill:#7C94A2;}
	.st12{clip-path:url(#SVGID_116_);fill:#676869;}
	.st13{clip-path:url(#SVGID_116_);fill:#9B9B9C;}
	.st14{clip-path:url(#SVGID_116_);fill:#9B9C9D;}
	.st15{clip-path:url(#SVGID_116_);fill:#CACBCC;}
	.st16{clip-path:url(#SVGID_105_);fill:#E795BD;}
	.st17{clip-path:url(#SVGID_116_);fill:#68696A;}
	.st18{clip-path:url(#SVGID_69_);fill:#56B947;}
	.st19{clip-path:url(#SVGID_116_);fill:#CBCCCD;}
	.st20{fill-rule:evenodd;clip-rule:evenodd;fill:#D91F5D;}
	.st21{clip-path:url(#SVGID_116_);fill:#696A6B;}
	.st22{clip-path:url(#SVGID_13_);fill:#F58233;}
	.st23{clip-path:url(#SVGID_116_);fill:#9D9E9F;}
	.st24{clip-path:url(#SVGID_116_);fill:#9E9FA0;}
	.st25{clip-path:url(#SVGID_116_);fill:#CDCDCE;}
	.st26{clip-path:url(#SVGID_17_);fill:#E795BD;}
	.st27{clip-path:url(#SVGID_116_);fill:#9EA0A1;}
	.st28{clip-path:url(#SVGID_7_);fill:#AD479A;}
	.st29{clip-path:url(#SVGID_116_);fill:#CECECF;}
	.st30{clip-path:url(#SVGID_116_);fill:#CECFD0;}
	.st31{clip-path:url(#SVGID_99_);fill:#FDEC6E;}
	.st32{clip-path:url(#SVGID_65_);fill:#9D3493;}
	.st33{clip-path:url(#SVGID_13_);fill:#F89958;}
	.st34{clip-path:url(#SVGID_116_);fill:#CFD0D1;}
	.st35{clip-path:url(#SVGID_95_);fill:#3FB549;}
	.st36{fill:#E2B471;}
	.st37{clip-path:url(#SVGID_99_);fill:#FFDE00;}
	.st38{clip-path:url(#SVGID_99_);fill:#FFE63A;}
	.st39{clip-path:url(#SVGID_37_);fill:#56B947;}
	.st40{clip-path:url(#SVGID_5_);fill:#ED2224;}
	.st41{clip-path:url(#SVGID_116_);fill:#6A6B6C;}
	.st42{clip-path:url(#SVGID_87_);fill:#333333;}
	.st43{fill:#E6BF82;}
	.st44{fill:#E6E6E5;}
	.st45{fill:#E6E8DB;}
	.st46{clip-path:url(#SVGID_81_);fill:#E795BD;}
	.st47{clip-path:url(#SVGID_116_);fill:#6B6C6D;}
	.st48{fill:#E7E7E7;}
	.st49{clip-path:url(#SVGID_33_);fill:#9D3493;}
	.st50{clip-path:url(#SVGID_5_);fill:#EF4343;}
	.st51{clip-path:url(#SVGID_116_);fill:#6C6D6E;}
	.st52{clip-path:url(#SVGID_116_);fill:#6C6D6F;}
	.st53{fill:#E8BD7D;}
	.st54{fill:#E9C387;}
	.st55{filter:url(#Adobe_OpacityMaskFilter);}
	.st56{clip-path:url(#SVGID_29_);fill:#4E4E4E;}
	.st57{clip-path:url(#SVGID_116_);fill:#6E6F70;}
	.st58{fill:#815426;}
	.st59{clip-path:url(#SVGID_116_);fill:#6F7071;}
	.st60{fill:#81C341;}
	.st61{clip-path:url(#SVGID_107_);fill:#E795BD;}
	.st62{opacity:0.45;}
	.st63{clip-path:url(#SVGID_116_);fill:#D1D2D2;}
	.st64{clip-path:url(#SVGID_116_);fill:#D2D3D3;}
	.st65{clip-path:url(#SVGID_87_);fill:#010101;}
	.st66{fill:#85459A;}
	.st67{fill:#B4B4B4;}
	.st68{fill:#B4BFB1;}
	.st69{clip-path:url(#SVGID_11_);fill:#6ABD45;}
	.st70{clip-path:url(#SVGID_116_);fill:#D3D4D5;}
	.st71{fill-rule:evenodd;clip-rule:evenodd;fill:#465054;}
	.st72{clip-path:url(#SVGID_19_);fill:#E795BD;}
	.st73{clip-path:url(#SVGID_116_);fill:#D4D5D5;}
	.st74{fill:#876EB1;}
	.st75{clip-path:url(#SVGID_116_);fill:#D5D6D6;}
	.st76{fill:#B72B28;}
	.st77{fill:#1D1D1B;}
	.st78{clip-path:url(#SVGID_116_);fill:#D6D6D7;}
	.st79{clip-path:url(#SVGID_116_);fill:#D6D7D8;}
	.st80{fill:#EC2227;}
	.st81{clip-path:url(#SVGID_116_);fill:#D7D8D9;}
	.st82{fill:#ED2224;}
	.st83{fill:#B9B9B9;}
	.st84{clip-path:url(#SVGID_5_);fill:#F16263;}
	.st85{fill:#EDCD1E;}
	.st86{clip-path:url(#SVGID_116_);fill:#D8D9DA;}
	.st87{fill:#EEDC00;}
	.st88{clip-path:url(#SVGID_116_);fill:#D9DADB;}
	.st89{fill:#EF4549;}
	.st90{clip-path:url(#SVGID_116_);fill:#707172;}
	.st91{fill:#EFB075;}
	.st92{clip-path:url(#SVGID_116_);fill:#717273;}
	.st93{clip-path:url(#SVGID_116_);fill:#A0A1A2;}
	.st94{clip-path:url(#SVGID_83_);fill:#E795BD;}
	.st95{clip-path:url(#SVGID_61_);fill:#4E4E4E;}
	.st96{clip-path:url(#SVGID_116_);fill:#727374;}
	.st97{clip-path:url(#SVGID_116_);fill:#A1A1A3;}
	.st98{opacity:0.25;mask:url(#SVGID_59_);}
	.st99{clip-path:url(#SVGID_116_);fill:#737475;}
	.st100{clip-path:url(#SVGID_116_);fill:#A2A2A3;}
	.st101{clip-path:url(#SVGID_116_);fill:#A2A3A4;}
	.st102{clip-path:url(#SVGID_116_);fill:#747576;}
	.st103{clip-path:url(#SVGID_116_);fill:#757677;}
	.st104{clip-path:url(#SVGID_116_);fill:#A4A5A6;}
	.st105{fill:#8B5F3D;}
	.st106{clip-path:url(#SVGID_116_);fill:#767778;}
	.st107{clip-path:url(#SVGID_116_);fill:#A5A6A7;}
	.st108{clip-path:url(#SVGID_39_);fill:#F26822;}
	.st109{fill:#BBBDBF;}
	.st110{clip-path:url(#SVGID_116_);fill:#777879;}
	.st111{clip-path:url(#SVGID_109_);fill:#E795BD;}
	.st112{fill:#595A5C;}
	.st113{clip-path:url(#SVGID_15_);fill:#FDEC6E;}
	.st114{clip-path:url(#SVGID_51_);fill:#E795BD;}
	.st115{clip-path:url(#SVGID_116_);fill:#78797A;}
	.st116{clip-path:url(#SVGID_116_);fill:#A7A7A8;}
	.st117{clip-path:url(#SVGID_116_);fill:#A7A9A9;}
	.st118{clip-path:url(#SVGID_65_);fill:#A53F97;}
	.st119{clip-path:url(#SVGID_116_);fill:#DBDCDC;}
	.st120{clip-path:url(#SVGID_116_);fill:#DBDCDD;}
	.st121{clip-path:url(#SVGID_11_);fill:#3FB549;}
	.st122{fill:#8E509F;}
	.st123{clip-path:url(#SVGID_73_);fill:#E795BD;}
	.st124{clip-path:url(#SVGID_116_);fill:#797A7B;}
	.st125{fill:#8EC640;}
	.st126{clip-path:url(#SVGID_39_);fill:#F58233;}
	.st127{clip-path:url(#SVGID_116_);fill:#DCDDDE;}
	.st128{clip-path:url(#SVGID_67_);fill:#02B3DD;}
	.st129{clip-path:url(#SVGID_15_);fill:#FFDE00;}
	.st130{clip-path:url(#SVGID_15_);fill:#FFE63A;}
	.st131{clip-path:url(#SVGID_116_);fill:#A9AAAB;}
	.st132{clip-path:url(#SVGID_116_);fill:#DDDEDF;}
	.st133{fill:#BF7429;}
	.st134{fill:#F0EC75;}
	.st135{clip-path:url(#SVGID_116_);fill:#DEDFE0;}
	.st136{fill:#F15B2A;}
	.st137{clip-path:url(#SVGID_39_);fill:#F89958;}
	.st138{fill:#F26822;}
	.st139{fill:#F26B6D;}
	.st140{fill:#242526;}
	.st141{fill:#F2F2F2;}
	.st142{opacity:0.5;fill:#FFFFFF;}
	.st143{clip-path:url(#SVGID_67_);fill:#079EC7;}
	.st144{fill:#25A198;}
	.st145{clip-path:url(#SVGID_33_);fill:#A53F97;}
	.st146{clip-path:url(#SVGID_3_);fill:#333333;}
	.st147{fill:#F4F6E8;}
	.st148{clip-path:url(#SVGID_41_);fill:#E795BD;}
	.st149{fill:#F5AB53;}
	.st150{clip-path:url(#SVGID_35_);fill:#02B3DD;}
	.st151{clip-path:url(#SVGID_67_);fill:#09BFF1;}
	.st152{fill:#5BC4BF;}
	.st153{clip-path:url(#SVGID_116_);fill:#7A7B7C;}
	.st154{fill:#282828;}
	.st155{clip-path:url(#SVGID_85_);fill:#E795BD;}
	.st156{fill-rule:evenodd;clip-rule:evenodd;fill:#EB2D7C;}
	.st157{fill:#F79421;}
	.st158{clip-path:url(#SVGID_116_);fill:#7B7C7D;}
	.st159{clip-path:url(#SVGID_116_);fill:#AAABAC;}
	.st160{fill:#F7B03F;}
	.st161{fill:#295C67;}
	.st162{fill:#2976BC;}
	.st163{clip-path:url(#SVGID_116_);fill:#7C7D7E;}
	.st164{fill:#F8B040;}
	.st165{clip-path:url(#SVGID_69_);fill:#6ABD45;}
	.st166{fill:#F8F8F2;}
	.st167{clip-path:url(#SVGID_116_);fill:#7D7E7F;}
	.st168{clip-path:url(#SVGID_116_);fill:#ACACAD;}
	.st169{clip-path:url(#SVGID_116_);fill:#ACADAE;}
	.st170{fill:url(#SVGID_114_);}
	.st171{fill:url(#SVGID_117_);}
	.st172{fill:#5F3E1E;}
	.st173{clip-path:url(#SVGID_71_);fill:#F26822;}
	.st174{fill:#5F9DD4;}
	.st175{clip-path:url(#SVGID_116_);fill:#7E7F80;}
	.st176{clip-path:url(#SVGID_116_);fill:#ADAEAF;}
	.st177{clip-path:url(#SVGID_35_);fill:#079EC7;}
	.st178{clip-path:url(#SVGID_116_);fill:#7F8081;}
	.st179{clip-path:url(#SVGID_116_);fill:#AEAFB0;}
	.st180{fill:#929497;}
	.st181{fill:#C1B400;}
	.st182{clip-path:url(#SVGID_116_);fill:#AFAFB1;}
	.st183{clip-path:url(#SVGID_65_);fill:#AD479A;}
	.st184{clip-path:url(#SVGID_35_);fill:#09BFF1;}
	.st185{clip-path:url(#SVGID_71_);fill:#F58233;}
	.st186{clip-path:url(#SVGID_3_);fill:#010101;}
	.st187{clip-path:url(#SVGID_53_);fill:#E795BD;}
	.st188{fill:#C3996B;}
	.st189{clip-path:url(#SVGID_75_);fill:#E795BD;}
	.st190{clip-path:url(#SVGID_37_);fill:#6ABD45;}
	.st191{clip-path:url(#SVGID_71_);fill:#F89958;}
	.st192{fill:#C5C462;}
	.st193{fill:#FAA541;}
	.st194{fill:#C72127;}
	.st195{clip-path:url(#SVGID_116_);fill:#4B4C4D;}
	.st196{fill:#C7AE2E;}
	.st197{fill:#2D3439;}
	.st198{clip-path:url(#SVGID_63_);fill:#ED2224;}
	.st199{clip-path:url(#SVGID_95_);fill:#56B947;}
	.st200{clip-path:url(#SVGID_116_);fill:#4C4D4E;}
	.st201{clip-path:url(#SVGID_33_);fill:#AD479A;}
	.st202{opacity:0.25;fill:url(#SVGID_54_);}
	.st203{opacity:0.25;fill:url(#SVGID_56_);}
	.st204{clip-path:url(#SVGID_116_);fill:#4D4E4F;}
	.st205{clip-path:url(#SVGID_21_);fill:#E795BD;}
	.st206{fill-rule:evenodd;clip-rule:evenodd;fill:#8EC640;}
	.st207{clip-path:url(#SVGID_63_);fill:#EF4343;}
	.st208{fill:#603A17;}
	.st209{opacity:0.3;}
	.st210{opacity:0.9;}
	.st211{clip-path:url(#SVGID_116_);fill:#4E4F50;}
	.st212{clip-path:url(#SVGID_43_);fill:#E795BD;}
	.st213{fill:#FEE541;}
	.st214{fill:#FEFBE1;}
	.st215{clip-path:url(#SVGID_116_);fill:#4F5051;}
	.st216{clip-path:url(#SVGID_116_);fill:#808181;}
	.st217{clip-path:url(#SVGID_91_);fill:#9D3493;}
	.st218{fill:#FFDE00;}
	.st219{fill:#FFFFFF;}
	.st220{fill-rule:evenodd;clip-rule:evenodd;fill:#F0EC75;}
	.st221{fill-rule:evenodd;clip-rule:evenodd;fill:#F15B2A;}
	.st222{clip-path:url(#SVGID_116_);fill:#818282;}
	.st223{clip-path:url(#SVGID_116_);fill:#818384;}
	.st224{clip-path:url(#SVGID_116_);fill:#B0B0B2;}
	.st225{fill:#63BC46;}
	.st226{clip-path:url(#SVGID_69_);fill:#3FB549;}
	.st227{clip-path:url(#SVGID_116_);fill:#828385;}
	.st228{clip-path:url(#SVGID_87_);fill:#4E4E4E;}
	.st229{clip-path:url(#SVGID_116_);fill:#B1B2B3;}
	.st230{clip-path:url(#SVGID_116_);fill:#838485;}
	.st231{clip-path:url(#SVGID_116_);fill:#B2B3B3;}
	.st232{clip-path:url(#SVGID_31_);fill:#ED2224;}
	.st233{fill:none;}
	.st234{clip-path:url(#SVGID_116_);fill:#848586;}
	.st235{clip-path:url(#SVGID_116_);fill:#B3B3B4;}
	.st236{fill:#66C8CE;}
	.st237{clip-path:url(#SVGID_116_);fill:#B4B4B5;}
	.st238{clip-path:url(#SVGID_116_);fill:#B4B5B6;}
	.st239{fill:#9ACA3C;}
	.st240{clip-path:url(#SVGID_31_);fill:#EF4343;}
	.st241{fill:#676767;}
	.st242{fill:#9B5BA4;}
	.st243{fill:#9B9C9C;}
	.st244{clip-path:url(#SVGID_116_);fill:#868687;}
	.st245{clip-path:url(#SVGID_116_);fill:#B5B6B7;}
	.st246{fill:#686868;}
	.st247{clip-path:url(#SVGID_116_);fill:#878788;}
	.st248{clip-path:url(#SVGID_116_);fill:#878889;}
	.st249{fill:#9D3493;}
	.st250{clip-path:url(#SVGID_116_);fill:#B7B7B8;}
	.st251{clip-path:url(#SVGID_77_);fill:#E795BD;}
	.st252{clip-path:url(#SVGID_37_);fill:#3FB549;}
	.st253{clip-path:url(#SVGID_99_);fill:#E795BD;}
	.st254{fill:#CDCCCC;}
	.st255{clip-path:url(#SVGID_116_);fill:#89898A;}
	.st256{clip-path:url(#SVGID_116_);fill:#B8B8B9;}
	.st257{clip-path:url(#SVGID_7_);fill:#9D3493;}
	.st258{clip-path:url(#SVGID_116_);fill:#B9B9BA;}
	.st259{fill:#9FAC98;}
	.st260{clip-path:url(#SVGID_63_);fill:#F16263;}
	.st261{clip-path:url(#SVGID_116_);fill:#505152;}
	.st262{clip-path:url(#SVGID_111_);fill:#E795BD;}
	.st263{clip-path:url(#SVGID_116_);fill:#515253;}
	.st264{fill:#333334;}
	.st265{clip-path:url(#SVGID_116_);fill:#525354;}
	.st266{clip-path:url(#SVGID_29_);fill:#333333;}
	.st267{fill:#346D7B;}
	.st268{clip-path:url(#SVGID_116_);fill:#535455;}
	.st269{clip-path:url(#SVGID_23_);fill:#E795BD;}
	.st270{clip-path:url(#SVGID_116_);fill:#545555;}
	.st271{clip-path:url(#SVGID_45_);fill:#E795BD;}
	.st272{clip-path:url(#SVGID_116_);fill:#555657;}
	.st273{fill:#37BEBC;}
	.st274{opacity:0.1;fill:url(#SVGID_57_);}
	.st275{clip-path:url(#SVGID_116_);fill:#565758;}
	.st276{clip-path:url(#SVGID_116_);fill:#8A8A8B;}
	.st277{fill:#383839;}
	.st278{clip-path:url(#SVGID_31_);fill:#F16263;}
	.st279{clip-path:url(#SVGID_116_);fill:#575859;}
	.st280{clip-path:url(#SVGID_116_);fill:#8B8B8C;}
	.st281{clip-path:url(#SVGID_116_);fill:#8B8C8D;}
	.st282{clip-path:url(#SVGID_116_);fill:#BABABB;}
	.st283{clip-path:url(#SVGID_116_);fill:#BABBBC;}
	.st284{opacity:0.15;fill:url(#SVGID_55_);}
	.st285{clip-path:url(#SVGID_116_);fill:#58595A;}
	.st286{clip-path:url(#SVGID_116_);fill:#BBBCBD;}
	.st287{clip-path:url(#SVGID_101_);fill:#E795BD;}
	.st288{clip-path:url(#SVGID_116_);fill:#595A5B;}
	.st289{clip-path:url(#SVGID_116_);fill:#8D8D8E;}
	.st290{clip-path:url(#SVGID_116_);fill:#BCBDBE;}
	.st291{clip-path:url(#SVGID_97_);fill:#F26822;}
	.st292{fill:#010101;}
	.st293{clip-path:url(#SVGID_116_);fill:#8E8F8F;}
	.st294{clip-path:url(#SVGID_29_);fill:#010101;}
	.st295{clip-path:url(#SVGID_116_);fill:#8F9091;}
	.st296{clip-path:url(#SVGID_116_);fill:#BEBEBF;}
	.st297{clip-path:url(#SVGID_73_);fill:#FDEC6E;}
	.st298{fill:#D1D2D3;}
	.st299{fill:#D1D3D4;}
	.st300{clip-path:url(#SVGID_116_);fill:#BFBFC0;}
	.st301{clip-path:url(#SVGID_97_);fill:#F58233;}
	.st302{clip-path:url(#SVGID_73_);fill:#FFDE00;}
	.st303{clip-path:url(#SVGID_73_);fill:#FFE63A;}
	.st304{clip-path:url(#SVGID_79_);fill:#E795BD;}
	.st305{clip-path:url(#SVGID_11_);fill:#56B947;}
	.st306{clip-path:url(#SVGID_97_);fill:#F89958;}
	.st307{fill:#079EC7;}
	.st308{clip-path:url(#SVGID_61_);fill:#333333;}
	.st309{clip-path:url(#SVGID_116_);fill:#5A5B5C;}
	.st310{clip-path:url(#SVGID_116_);fill:#5B5C5D;}
	.st311{clip-path:url(#SVGID_41_);fill:#FDEC6E;}
	.st312{clip-path:url(#SVGID_89_);fill:#ED2224;}
	.st313{clip-path:url(#SVGID_91_);fill:#A53F97;}
	.st314{clip-path:url(#SVGID_116_);fill:#5C5D5E;}
	.st315{opacity:0.1;fill:#FFFFFF;}
	.st316{clip-path:url(#SVGID_25_);fill:#E795BD;}
	.st317{clip-path:url(#SVGID_116_);fill:#5D5E5F;}
	.st318{fill-rule:evenodd;clip-rule:evenodd;fill:#9E2064;}
	.st319{opacity:0.5;fill:url(#SVGID_58_);}
	.st320{clip-path:url(#SVGID_93_);fill:#02B3DD;}
	.st321{clip-path:url(#SVGID_41_);fill:#FFDE00;}
	.st322{clip-path:url(#SVGID_41_);fill:#FFE63A;}
	.st323{clip-path:url(#SVGID_47_);fill:#E795BD;}
	.st324{clip-path:url(#SVGID_89_);fill:#EF4343;}
	.st325{fill:#707677;}
	.st326{fill:#3FB549;}
	.st327{clip-path:url(#SVGID_116_);fill:#5E5F60;}
	.st328{clip-path:url(#SVGID_116_);fill:#5F6061;}
	.st329{clip-path:url(#SVGID_116_);fill:#909191;}
	.st330{clip-path:url(#SVGID_3_);fill:#4E4E4E;}
	.st331{fill:#A16932;}
	.st332{clip-path:url(#SVGID_116_);fill:#919293;}
	.st333{clip-path:url(#SVGID_116_);fill:#C0C0C1;}
	.st334{clip-path:url(#SVGID_116_);fill:#929393;}
	.st335{clip-path:url(#SVGID_116_);fill:#C1C1C2;}
	.st336{clip-path:url(#SVGID_116_);fill:#C1C2C2;}
	.st337{clip-path:url(#SVGID_103_);fill:#E795BD;}
	.st338{clip-path:url(#SVGID_93_);fill:#079EC7;}
	.st339{clip-path:url(#SVGID_116_);fill:#939495;}
	.st340{clip-path:url(#SVGID_116_);fill:#C2C3C3;}
	.st341{clip-path:url(#SVGID_61_);fill:#010101;}
	.st342{fill:#A49676;}
	.st343{fill:#754D25;}
	.st344{clip-path:url(#SVGID_116_);fill:#C3C4C4;}
	.st345{fill-rule:evenodd;clip-rule:evenodd;fill:url(#SVGID_1_);}
	.st346{fill:#A5A5A5;}
	.st347{clip-path:url(#SVGID_93_);fill:#09BFF1;}
	.st348{clip-path:url(#SVGID_15_);fill:#E795BD;}
	.st349{clip-path:url(#SVGID_116_);fill:#959697;}
	.st350{clip-path:url(#SVGID_116_);fill:#969798;}
	.st351{clip-path:url(#SVGID_116_);fill:#C5C5C6;}
	.st352{clip-path:url(#SVGID_7_);fill:#A53F97;}
	.st353{fill:#A7A9AC;}
	.st354{fill:#DBE0CB;}
	.st355{clip-path:url(#SVGID_116_);fill:#979899;}
	.st356{clip-path:url(#SVGID_116_);fill:#C6C6C7;}
	.st357{clip-path:url(#SVGID_95_);fill:#6ABD45;}
	.st358{fill:#A8AAAD;}
	.st359{clip-path:url(#SVGID_9_);fill:#02B3DD;}
	.st360{fill:#DCDBDB;}
	.st361{clip-path:url(#SVGID_116_);fill:#98999B;}
	.st362{clip-path:url(#SVGID_116_);fill:#C7C7C8;}
	.st363{clip-path:url(#SVGID_116_);fill:#C7C8C9;}
	.st364{fill:#A97D51;}
	.st365{clip-path:url(#SVGID_116_);fill:#999A9B;}
	.st366{clip-path:url(#SVGID_116_);fill:#C8C9CA;}
	.st367{fill:#404042;}
	.st368{clip-path:url(#SVGID_116_);fill:#C9CACB;}
	.st369{fill:#414042;}
	.st370{clip-path:url(#SVGID_89_);fill:#F16263;}
	.st371{clip-path:url(#SVGID_116_);fill:#606162;}
	.st372{clip-path:url(#SVGID_91_);fill:#AD479A;}
	.st373{clip-path:url(#SVGID_116_);fill:#616263;}
	.st374{clip-path:url(#SVGID_116_);fill:#616364;}
	.st375{fill-rule:evenodd;clip-rule:evenodd;fill:#033434;}
	.st376{fill:#4386C6;}
	.st377{clip-path:url(#SVGID_9_);fill:#079EC7;}
	.st378{clip-path:url(#SVGID_27_);fill:#E795BD;}
	.st379{clip-path:url(#SVGID_116_);fill:#636465;}
	.st380{clip-path:url(#SVGID_116_);fill:#636566;}
	.st381{fill:#454F55;}
	.st382{clip-path:url(#SVGID_49_);fill:#E795BD;}
]]>
</style>
<path class="st134" d="M106.3,207.2c54.2,0,98.1-43.9,98.1-98.1c0-54.2-43.9-98.1-98.1-98.1S8.2,55,8.2,109.1
	C8.2,163.3,52.1,207.2,106.3,207.2"/>
<g>
	
		<image style="overflow:visible;opacity:0.4;" width="559" height="612" xlink:href="C2E646B9CF9AAA1E.png"  transform="matrix(0.24 0 0 0.24 47.7227 41.9277)">
	</image>
	<g>
		<path class="st71" d="M68.8,156.9c3.3-10,3.8-20.4,4.4-30.7c-10.7-8.3-18.3-18.1-17.5-32.3c1.2-28.7,18.6-41.8,47.5-44
			c26.1-0.6,44,8.2,47.7,32.9c1.4,3.9,1.3,15.2,1.3,15.2c1.9,7.1,5.6,12.2,7.5,19.9c-1,3-4,3.1-7.1,3.1c-0.7,2.9-0.8,5.7,0.4,8.4
			c-0.1,1.1-1.7,1.7-3.3,2.2c1.4,1.5,3.6,2.7,1.8,5.1c-0.5,0.6-1.7,1.3-2.4,0.9c-0.4,1.3-0.7,2.5-1.1,3.8c1.6,1.3-0.4,11.3-4.6,11.1
			c-5.1-0.3-10.9-2-16.8-1.1c-11.7,1.7-9,5.5-10.4,13.2C113.8,168.7,85.7,167,68.8,156.9z"/>
	</g>
</g>
<g>
	
		<image style="overflow:visible;opacity:0.4;" width="559" height="612" xlink:href="C2E646B9CF9AAA22.png"  transform="matrix(0.24 0 0 0.24 46.2227 39.9277)">
	</image>
	<g>
		<path class="st71" d="M67.3,154.9c3.3-10,3.8-20.4,4.4-30.7c-10.7-8.3-18.3-18.1-17.5-32.3c1.2-28.7,18.6-41.8,47.5-44
			c26.1-0.6,44,8.2,47.7,32.9c1.4,3.9,1.3,15.2,1.3,15.2c1.9,7.1,5.6,12.2,7.5,19.9c-1,3-4,3.1-7.1,3.1c-0.7,2.9-0.8,5.7,0.4,8.4
			c-0.1,1.1-1.7,1.7-3.3,2.2c1.4,1.5,3.6,2.7,1.8,5.1c-0.5,0.6-1.7,1.3-2.4,0.9c-0.4,1.3-0.7,2.5-1.1,3.8c1.6,1.3-0.4,11.3-4.6,11.1
			c-5.1-0.3-10.9-2-16.8-1.1c-11.7,1.7-9,5.5-10.4,13.2C112.3,166.7,84.2,165,67.3,154.9z"/>
	</g>
</g>
<g>
	<path class="st220" d="M125.1,60.8c-0.5,0-1,0.1-1.4,0.2c-0.6-1.3-2-2.3-3.6-2.3c-0.6,0-1.2,0.1-1.8,0.4c-0.7-0.9-1.8-1.6-3.1-1.6
		c-1.1,0-2.1,0.5-2.9,1.2c-0.7-0.8-1.8-1.3-3-1.3c-1.3,0-2.4,0.6-3.1,1.6c-0.7-1.2-2-2-3.4-2c-1.4,0-2.7,0.8-3.4,1.9
		c-0.7-0.8-1.8-1.3-2.9-1.3c-1.3,0-2.5,0.7-3.2,1.7c-0.7-0.8-1.7-1.3-2.9-1.3c-1.9,0-3.5,1.4-3.9,3.2c-0.7-0.5-1.5-0.9-2.4-0.9
		c-2,0-3.7,1.6-3.9,3.6c-0.6-0.4-1.3-0.6-2.1-0.6c-2.2,0-3.9,1.8-3.9,3.9c0,0.3,0,0.7,0.1,1c-0.4-0.1-0.8-0.2-1.2-0.2
		c-2.2,0-3.9,1.8-3.9,3.9c0,0.5,0.1,0.9,0.2,1.3c-0.1,0-0.2,0-0.2,0c-2.2,0-3.9,1.8-3.9,3.9c0,0.5,0.1,1,0.3,1.5
		c-2,0.2-3.5,1.9-3.5,3.9c0,1.3,0.6,2.4,1.6,3.1c-0.8,1-1.2,2.2-1.2,3.5c0,0.6,0.1,1.1,0.2,1.6c-1.3,0.6-2.3,2-2.3,3.6
		c0,1.6,0.9,2.9,2.2,3.5c-0.3,0.5-0.4,1.2-0.4,1.8c0,1.3,0.6,2.5,1.6,3.2c-0.4,0.5-0.7,1.2-0.7,1.9c0,1.7,1.3,3.1,3,3.2
		c-0.2,0.4-0.4,1-0.4,1.5c0,1.8,1.4,3.2,3.2,3.2c0.2,0,0.4,0,0.6-0.1c0.6,0.8,1.5,1.4,2.5,1.6c0,0.1,0,0.3,0,0.4
		c0,2.2,1.8,3.9,3.9,3.9c0.7,0,1.4-0.2,2-0.5c0.6,1.4,2,2.3,3.6,2.3c1,0,1.9-0.4,2.6-1c0.7,0.5,1.5,0.8,2.4,0.8
		c1.7,0,3.1-1.1,3.7-2.6c0.2,0.1,0.4,0.2,0.5,0.2c1.4,11.7,1.3,23.5,0.6,35.2l2.4-0.7c1.2-18.7,4.6-36.4,17.5-49.7
		c0.7,0.8,1.8,1.3,2.9,1.3c1.9,0,3.5-1.3,3.8-3.1c0.7,0.5,1.5,0.8,2.4,0.8c1.6,0,3-1,3.6-2.4c0.7,1.2,2,2.1,3.5,2.1
		c1.6,0,2.9-0.9,3.5-2.3c0.4,0.2,0.9,0.3,1.4,0.3c1.8,0,3.3-1.2,3.8-2.9c0.6,0.3,1.3,0.5,2,0.5c2.2,0,3.9-1.8,3.9-3.9
		c0-1.4-0.7-2.6-1.8-3.3c0.9-0.7,1.6-1.9,1.6-3.1c0-1.6-1-3.1-2.5-3.6c0.4-0.6,0.7-1.4,0.7-2.2c0-1.8-1.2-3.3-2.9-3.8
		c0.7-0.7,1.1-1.7,1.1-2.7c0-1.9-1.4-3.5-3.1-3.8c0.1-0.4,0.2-0.7,0.2-1.1c0-2.2-1.8-3.9-3.9-3.9c-0.2,0-0.4,0-0.6,0
		C130.3,62.8,128,60.8,125.1,60.8z"/>
</g>
</svg>
